G04 #@! TF.FileFunction,Legend,Bot*

G04 leading zeros omitted (L); absolute data (A); 6 integer digits and 6 fractional digits *
%FSLAX66Y66*%

G04 mode (MO): millimeters (MM) *
%MOMM*%

G04 Aperture definitions *
%ADD10C,0.001X*%
%ADD11C,0.001X*%
%ADD20C,0.15X*%

%LPD*%
G36*
G01X20299800Y-6814715D02*
G01X19899800Y-6814715D01*
G01X19899800Y-8214715D01*
G01X20299800Y-8214715D01*
G01X20299800Y-6814715D01*
G37*
G36*
G01X11073975Y-19293998D02*
G01X11073975Y-18893998D01*
G01X9673975Y-18893998D01*
G01X9673975Y-19293998D01*
G01X11073975Y-19293998D01*
G37*
G36*
G01X5520226Y-14116569D02*
G01X5420226Y-13943364D01*
G01X4207791Y-14643364D01*
G01X4307791Y-14816569D01*
G01X5520226Y-14116569D01*
G37*
G36*
G01X5320226Y-13770159D02*
G01X5220226Y-13596954D01*
G01X4007791Y-14296954D01*
G01X4107791Y-14470159D01*
G01X5320226Y-13770159D01*
G37*
G36*
G01X13724464Y-9486992D02*
G01X13324464Y-9486992D01*
G01X13324464Y-10886992D01*
G01X13724464Y-10886992D01*
G01X13724464Y-9486992D01*
G37*
G36*
G01X13190644Y-19293998D02*
G01X13190644Y-18893998D01*
G01X11790644Y-18893998D01*
G01X11790644Y-19293998D01*
G01X13190644Y-19293998D01*
G37*
G36*
G01X3990854Y-8755080D02*
G01X3590854Y-8755080D01*
G01X3590854Y-10155080D01*
G01X3990854Y-10155080D01*
G01X3990854Y-8755080D01*
G37*
D20*
G01X1120707Y-15506326D02*
G01X1120707Y-15506326D01*
G01X1147631Y-15552959D01*
G01X1174554Y-15599593D01*
G01X1201478Y-15646226D01*
G01X1228402Y-15692859D01*
G01X1255325Y-15739492D01*
G01X1282249Y-15786125D01*
G01X1309173Y-15832758D01*
G01X1336096Y-15879391D01*
G01X1363020Y-15926024D01*
G01X1389944Y-15972658D01*
G01X1416867Y-16019291D01*
G01X1443791Y-16065924D01*
G01X1470715Y-16112557D01*
G01X1497638Y-16159190D01*
G01X1524562Y-16205823D01*
G01X1551485Y-16252456D01*
G01X1578409Y-16299089D01*
G01X1605333Y-16345723D01*
G01X1632256Y-16392356D01*
G01X1659180Y-16438989D01*
G01X1659180Y-16438989D01*
G01X1659180Y-16438989D01*
G01X1706453Y-16437635D01*
G01X1753727Y-16436281D01*
G01X1801000Y-16434927D01*
G01X1848274Y-16433573D01*
G01X1895548Y-16432219D01*
G01X1895548Y-16432219D01*
G01X1895548Y-16432219D01*
G01X1955295Y-16397724D01*
G01X2015042Y-16363229D01*
G01X2074789Y-16328734D01*
G01X2134536Y-16294239D01*
G01X2194283Y-16259744D01*
G01X2254030Y-16225249D01*
G01X2313777Y-16190754D01*
G01X2373524Y-16156259D01*
G01X2433272Y-16121764D01*
G01X2493019Y-16087269D01*
G01X2552766Y-16052775D01*
G01X2612513Y-16018280D01*
G01X2672260Y-15983785D01*
G01X2732007Y-15949290D01*
G01X2791754Y-15914795D01*
G01X2851501Y-15880300D01*
G01X2911248Y-15845805D01*
G01X2970995Y-15811310D01*
G01X3030742Y-15776815D01*
G01X3090489Y-15742320D01*
G01X3150236Y-15707825D01*
G01X3209983Y-15673330D01*
G01X3269730Y-15638835D01*
G01X3329477Y-15604340D01*
G01X3389224Y-15569845D01*
G01X3448971Y-15535350D01*
G01X3508718Y-15500855D01*
G01X3568465Y-15466360D01*
G01X3628212Y-15431865D01*
G01X3687959Y-15397370D01*
G01X3747706Y-15362875D01*
G01X3807453Y-15328380D01*
G01X3867200Y-15293885D01*
G01X3887116Y-15282387D01*
G01X3887116Y-15282387D01*
G01X3911926Y-15242124D01*
G01X3936735Y-15201861D01*
G01X3961544Y-15161597D01*
G01X3986354Y-15121334D01*
G01X4011163Y-15081071D01*
G01X4011163Y-15081071D01*
G01X4011163Y-15081071D01*
G01X3984240Y-15034438D01*
G01X3957316Y-14987804D01*
G01X3930392Y-14941171D01*
G01X3903469Y-14894538D01*
G01X3876545Y-14847905D01*
G01X3849621Y-14801272D01*
G01X3822698Y-14754639D01*
G01X3795774Y-14708006D01*
G01X3768850Y-14661373D01*
G01X3741927Y-14614739D01*
G01X3715003Y-14568106D01*
G01X3688080Y-14521473D01*
G01X3661156Y-14474840D01*
G01X3634232Y-14428207D01*
G01X3607309Y-14381574D01*
G01X3580385Y-14334941D01*
G01X3553461Y-14288308D01*
G01X3526538Y-14241674D01*
G01X3499614Y-14195041D01*
G01X3472690Y-14148408D01*
G01X3472690Y-14148408D01*
G01X3472690Y-14148408D01*
G01X3425417Y-14149762D01*
G01X3378143Y-14151116D01*
G01X3330869Y-14152470D01*
G01X3283595Y-14153824D01*
G01X3236322Y-14155178D01*
G01X3236322Y-14155178D01*
G01X3236322Y-14155178D01*
G01X3176575Y-14189673D01*
G01X3116828Y-14224168D01*
G01X3057081Y-14258663D01*
G01X2997334Y-14293158D01*
G01X2937587Y-14327653D01*
G01X2877840Y-14362148D01*
G01X2818093Y-14396643D01*
G01X2758346Y-14431138D01*
G01X2698598Y-14465633D01*
G01X2638851Y-14500128D01*
G01X2579104Y-14534623D01*
G01X2519357Y-14569118D01*
G01X2459610Y-14603613D01*
G01X2399863Y-14638108D01*
G01X2340116Y-14672602D01*
G01X2280369Y-14707097D01*
G01X2220622Y-14741592D01*
G01X2160875Y-14776087D01*
G01X2101128Y-14810582D01*
G01X2041381Y-14845077D01*
G01X1981634Y-14879572D01*
G01X1921887Y-14914067D01*
G01X1862140Y-14948562D01*
G01X1802393Y-14983057D01*
G01X1742646Y-15017552D01*
G01X1682899Y-15052047D01*
G01X1623152Y-15086542D01*
G01X1563405Y-15121037D01*
G01X1503657Y-15155532D01*
G01X1443910Y-15190027D01*
G01X1384163Y-15224522D01*
G01X1324416Y-15259017D01*
G01X1264669Y-15293512D01*
G01X1244753Y-15305011D01*
G01X1244753Y-15305011D01*
G01X1219945Y-15345273D01*
G01X1195135Y-15385536D01*
G01X1170326Y-15425800D01*
G01X1145517Y-15466063D01*
G01X1120707Y-15506326D01*
G01X1120707Y-15506326D01*
G36*
G01X3118590Y-13417830D02*
G01X3118590Y-13417830D01*
G01X3075440Y-13442743D01*
G01X3032289Y-13467656D01*
G01X2989138Y-13492569D01*
G01X2945988Y-13517482D01*
G01X2902837Y-13542395D01*
G01X2864763Y-13564377D01*
G01X2864763Y-13564377D01*
G01X2853914Y-13609655D01*
G01X2843065Y-13654934D01*
G01X2832216Y-13700212D01*
G01X2821367Y-13745490D01*
G01X2810518Y-13790769D01*
G01X2800946Y-13830720D01*
G01X2800946Y-13830720D01*
G01X2826356Y-13874731D01*
G01X2851766Y-13918743D01*
G01X2877176Y-13962754D01*
G01X2902586Y-14006766D01*
G01X2927996Y-14050777D01*
G01X2950417Y-14089611D01*
G01X2950417Y-14089611D01*
G01X2995053Y-14102854D01*
G01X3039690Y-14116098D01*
G01X3084326Y-14129342D01*
G01X3128963Y-14142586D01*
G01X3173599Y-14155829D01*
G01X3212985Y-14167515D01*
G01X3212985Y-14167515D01*
G01X3256135Y-14142602D01*
G01X3299286Y-14117689D01*
G01X3342437Y-14092776D01*
G01X3385587Y-14067863D01*
G01X3428738Y-14042950D01*
G01X3466812Y-14020968D01*
G01X3466812Y-14020968D01*
G01X3477661Y-13975689D01*
G01X3488510Y-13930411D01*
G01X3499359Y-13885133D01*
G01X3510208Y-13839855D01*
G01X3521057Y-13794576D01*
G01X3530629Y-13754625D01*
G01X3530629Y-13754625D01*
G01X3505219Y-13710614D01*
G01X3479809Y-13666602D01*
G01X3454399Y-13622591D01*
G01X3428989Y-13578579D01*
G01X3403579Y-13534568D01*
G01X3381158Y-13495734D01*
G01X3381158Y-13495734D01*
G01X3336522Y-13482490D01*
G01X3291885Y-13469247D01*
G01X3247249Y-13456003D01*
G01X3202612Y-13442759D01*
G01X3157976Y-13429516D01*
G01X3118590Y-13417830D01*
G37*
G36*
G01X8957305Y-19293998D02*
G01X8957305Y-18893998D01*
G01X7557305Y-18893998D01*
G01X7557305Y-19293998D01*
G01X8957305Y-19293998D01*
G37*
G36*
G01X9706689Y-15397690D02*
G01X9506689Y-15397690D01*
G01X9506689Y-16797690D01*
G01X9706689Y-16797690D01*
G01X9706689Y-15397690D01*
G37*
G36*
G01X9306689Y-15397690D02*
G01X9106689Y-15397690D01*
G01X9106689Y-16797690D01*
G01X9306689Y-16797690D01*
G01X9306689Y-15397690D01*
G37*
G36*
G01X9706689Y-9486992D02*
G01X9506689Y-9486992D01*
G01X9506689Y-10886992D01*
G01X9706689Y-10886992D01*
G01X9706689Y-9486992D01*
G37*
G36*
G01X9306689Y-9486992D02*
G01X9106689Y-9486992D01*
G01X9106689Y-10886992D01*
G01X9306689Y-10886992D01*
G01X9306689Y-9486992D01*
G37*
D20*
G01X10656689Y-12122480D02*
G01X8156689Y-12122480D01*
G01X8156689Y-14322480D01*
G01X10656689Y-14322480D01*
G01X10656689Y-12122480D01*
G36*
G01X10208467Y-11525933D02*
G01X10208467Y-11525933D01*
G01X10208467Y-11575759D01*
G01X10208467Y-11625585D01*
G01X10208467Y-11675411D01*
G01X10208467Y-11725238D01*
G01X10208467Y-11775064D01*
G01X10208467Y-11819028D01*
G01X10208467Y-11819028D01*
G01X10242255Y-11851062D01*
G01X10276042Y-11883097D01*
G01X10309830Y-11915132D01*
G01X10343618Y-11947166D01*
G01X10377405Y-11979201D01*
G01X10407218Y-12007467D01*
G01X10407218Y-12007467D01*
G01X10458038Y-12007467D01*
G01X10508858Y-12007467D01*
G01X10559678Y-12007467D01*
G01X10610498Y-12007467D01*
G01X10661318Y-12007467D01*
G01X10706160Y-12007467D01*
G01X10706160Y-12007467D01*
G01X10739947Y-11975432D01*
G01X10773735Y-11943397D01*
G01X10807522Y-11911363D01*
G01X10841310Y-11879328D01*
G01X10875098Y-11847294D01*
G01X10904910Y-11819028D01*
G01X10904910Y-11819028D01*
G01X10904910Y-11769202D01*
G01X10904910Y-11719376D01*
G01X10904910Y-11669550D01*
G01X10904910Y-11619724D01*
G01X10904910Y-11569897D01*
G01X10904910Y-11525933D01*
G01X10904910Y-11525933D01*
G01X10871123Y-11493899D01*
G01X10837335Y-11461864D01*
G01X10803548Y-11429830D01*
G01X10769760Y-11397795D01*
G01X10735972Y-11365761D01*
G01X10706160Y-11337495D01*
G01X10706160Y-11337495D01*
G01X10655340Y-11337495D01*
G01X10604520Y-11337495D01*
G01X10553700Y-11337495D01*
G01X10502879Y-11337495D01*
G01X10452059Y-11337495D01*
G01X10407218Y-11337495D01*
G01X10407218Y-11337495D01*
G01X10373431Y-11369529D01*
G01X10339643Y-11401564D01*
G01X10305855Y-11433598D01*
G01X10272067Y-11465633D01*
G01X10238280Y-11497668D01*
G01X10208467Y-11525933D01*
G37*
G36*
G01X17175804Y-18758963D02*
G01X17987913Y-18758963D01*
G01X17987913Y-18758963D01*
G01X18003900Y-18686273D01*
G01X18014155Y-18628133D01*
G01X18018520Y-18598839D01*
G01X18018675Y-18597684D01*
G01X18018675Y-18597684D01*
G01X18026190Y-18521527D01*
G01X18028876Y-18466579D01*
G01X18029222Y-18446952D01*
G01X18029222Y-18446952D01*
G01X18021034Y-18360601D01*
G01X18001220Y-18292040D01*
G01X17976905Y-18241451D01*
G01X17955216Y-18209013D01*
G01X17943277Y-18194908D01*
G01X17942650Y-18194266D01*
G01X17942650Y-18194266D01*
G01X17890917Y-18157571D01*
G01X17829816Y-18133209D01*
G01X17768041Y-18118654D01*
G01X17714282Y-18111381D01*
G01X17677233Y-18108862D01*
G01X17665355Y-18108573D01*
G01X17175804Y-18108573D01*
G01X17175804Y-18256229D01*
G01X17638109Y-18256229D01*
G01X17638109Y-18256229D01*
G01X17716044Y-18260920D01*
G01X17761052Y-18268626D01*
G01X17769505Y-18270731D01*
G01X17769505Y-18270731D01*
G01X17833021Y-18299748D01*
G01X17848167Y-18311161D01*
G01X17848167Y-18311161D01*
G01X17883369Y-18364232D01*
G01X17886839Y-18374002D01*
G01X17886839Y-18374002D01*
G01X17896807Y-18438027D01*
G01X17897386Y-18453983D01*
G01X17897386Y-18453983D01*
G01X17894230Y-18517827D01*
G01X17892992Y-18530887D01*
G01X17892992Y-18530887D01*
G01X17883964Y-18595786D01*
G01X17881566Y-18609549D01*
G01X17175804Y-18609549D01*
G01X17175804Y-18758963D01*
G37*
G36*
G01X18010765Y-17952127D02*
G01X18010765Y-17811502D01*
G01X18010765Y-17811502D01*
G01X17937231Y-17805644D01*
G01X17885724Y-17801201D01*
G01X17873216Y-17800077D01*
G01X17873216Y-17800077D01*
G01X17801790Y-17792810D01*
G01X17747751Y-17786596D01*
G01X17732152Y-17784696D01*
G01X17572191Y-17764041D01*
G01X17377074Y-17737674D01*
G01X17377074Y-17737674D01*
G01X17449451Y-17709328D01*
G01X17494355Y-17692542D01*
G01X17503197Y-17689334D01*
G01X17605589Y-17653299D01*
G01X17704906Y-17621659D01*
G01X17818285Y-17588260D01*
G01X17818285Y-17476639D01*
G01X17704906Y-17444998D01*
G01X17704906Y-17444998D01*
G01X17637582Y-17424702D01*
G01X17605648Y-17414257D01*
G01X17605589Y-17414237D01*
G01X17503636Y-17379959D01*
G01X17503636Y-17379959D01*
G01X17439773Y-17357758D01*
G01X17389906Y-17339333D01*
G01X17378831Y-17335135D01*
G01X17562962Y-17306571D01*
G01X17562962Y-17306571D01*
G01X17649454Y-17276834D01*
G01X17701219Y-17276715D01*
G01X17721792Y-17284143D01*
G01X17722484Y-17284598D01*
G01X17722484Y-17284598D01*
G01X17781956Y-17295272D01*
G01X17841855Y-17279336D01*
G01X17867064Y-17268338D01*
G01X17867064Y-17268338D01*
G01X17949145Y-17242779D01*
G01X17996509Y-17248542D01*
G01X18010765Y-17256034D01*
G01X18010765Y-17120682D01*
G01X18010765Y-17120682D01*
G01X17940205Y-17128046D01*
G01X17876532Y-17135253D01*
G01X17831980Y-17140543D01*
G01X17818285Y-17142215D01*
G01X17818285Y-17142215D01*
G01X17744965Y-17151980D01*
G01X17679307Y-17161636D01*
G01X17630640Y-17169251D01*
G01X17608296Y-17172892D01*
G01X17607787Y-17172977D01*
G01X17607787Y-17172977D01*
G01X17534394Y-17185662D01*
G01X17468333Y-17197635D01*
G01X17417915Y-17207066D01*
G01X17391446Y-17212127D01*
G01X17389378Y-17212528D01*
G01X17389378Y-17212528D01*
G01X17315376Y-17227419D01*
G01X17250815Y-17241115D01*
G01X17202623Y-17251722D01*
G01X17177730Y-17257349D01*
G01X17175804Y-17257791D01*
G01X17175804Y-17369412D01*
G01X17175804Y-17369412D01*
G01X17244412Y-17398710D01*
G01X17283736Y-17414556D01*
G01X17287425Y-17415995D01*
G01X17388499Y-17454666D01*
G01X17493089Y-17492459D01*
G01X17618773Y-17536405D01*
G01X17493089Y-17581229D01*
G01X17388499Y-17619901D01*
G01X17287425Y-17659452D01*
G01X17175804Y-17707791D01*
G01X17175804Y-17819412D01*
G01X17175804Y-17819412D01*
G01X17254964Y-17836697D01*
G01X17331509Y-17852366D01*
G01X17403245Y-17866246D01*
G01X17467975Y-17878164D01*
G01X17523503Y-17887946D01*
G01X17567632Y-17895420D01*
G01X17598168Y-17900412D01*
G01X17612912Y-17902749D01*
G01X17613939Y-17902909D01*
G01X17613939Y-17902909D01*
G01X17696268Y-17915047D01*
G01X17773003Y-17925425D01*
G01X17842252Y-17934068D01*
G01X17902120Y-17940998D01*
G01X17950712Y-17946238D01*
G01X17986134Y-17949811D01*
G01X18006492Y-17951742D01*
G01X18010765Y-17952127D01*
G37*
G36*
G01X17175804Y-17012577D02*
G01X17987913Y-17012577D01*
G01X17987913Y-17012577D01*
G01X18011795Y-16935247D01*
G01X18024058Y-16870523D01*
G01X18028577Y-16826070D01*
G01X18029222Y-16809549D01*
G01X18029222Y-16809549D01*
G01X18029222Y-16809549D01*
G01X18021301Y-16740031D01*
G01X18013841Y-16711551D01*
G01X18013841Y-16711551D01*
G01X17981751Y-16651693D01*
G01X17965941Y-16632889D01*
G01X17965941Y-16632889D01*
G01X18005602Y-16567432D01*
G01X18023832Y-16509798D01*
G01X18028963Y-16473183D01*
G01X18029222Y-16466776D01*
G01X18029222Y-16466776D01*
G01X18018686Y-16401406D01*
G01X18012962Y-16385037D01*
G01X18012962Y-16385037D01*
G01X17976671Y-16329761D01*
G01X17964183Y-16316922D01*
G01X17964183Y-16316922D01*
G01X17907765Y-16280257D01*
G01X17883324Y-16269461D01*
G01X17883324Y-16269461D01*
G01X17816779Y-16254608D01*
G01X17772613Y-16251475D01*
G01X17769945Y-16251444D01*
G01X17175804Y-16251444D01*
G01X17175804Y-16385916D01*
G01X17773460Y-16385916D01*
G01X17773460Y-16385916D01*
G01X17845259Y-16399549D01*
G01X17872175Y-16414785D01*
G01X17872337Y-16414920D01*
G01X17872337Y-16414920D01*
G01X17904318Y-16471469D01*
G01X17906175Y-16486991D01*
G01X17906175Y-16486991D01*
G01X17895628Y-16532254D01*
G01X17895628Y-16532254D01*
G01X17861901Y-16574423D01*
G01X17861351Y-16574881D01*
G01X17861351Y-16574881D01*
G01X17795013Y-16565295D01*
G01X17769945Y-16564334D01*
G01X17498363Y-16564334D01*
G01X17498363Y-16699686D01*
G01X17771703Y-16699686D01*
G01X17771703Y-16699686D01*
G01X17844871Y-16709574D01*
G01X17870579Y-16719461D01*
G01X17870579Y-16719461D01*
G01X17870579Y-16719461D01*
G01X17903345Y-16772188D01*
G01X17906175Y-16796366D01*
G01X17906175Y-16796366D01*
G01X17895697Y-16859952D01*
G01X17890355Y-16877225D01*
G01X17175804Y-16877225D01*
G01X17175804Y-17012577D01*
G37*
G36*
G01X17424535Y-16081815D02*
G01X17424535Y-16081815D01*
G01X17498363Y-16070832D01*
G01X17540128Y-16053859D01*
G01X17545824Y-16050614D01*
G01X17545824Y-16050614D01*
G01X17599024Y-16004511D01*
G01X17624496Y-15971782D01*
G01X17625804Y-15969754D01*
G01X17625804Y-15969754D01*
G01X17655240Y-15906783D01*
G01X17668844Y-15861714D01*
G01X17670189Y-15855936D01*
G01X17670189Y-15855936D01*
G01X17680720Y-15784674D01*
G01X17683667Y-15736249D01*
G01X17683812Y-15727616D01*
G01X17683812Y-15727616D01*
G01X17679698Y-15653831D01*
G01X17671299Y-15593467D01*
G01X17664533Y-15558612D01*
G01X17663597Y-15554471D01*
G01X17704906Y-15554471D01*
G01X17704906Y-15554471D01*
G01X17768120Y-15560803D01*
G01X17777855Y-15562821D01*
G01X17777855Y-15562821D01*
G01X17834801Y-15588516D01*
G01X17842015Y-15593582D01*
G01X17842015Y-15593582D01*
G01X17881770Y-15642810D01*
G01X17887718Y-15654666D01*
G01X17887718Y-15654666D01*
G01X17902330Y-15718827D01*
G01X17904417Y-15753983D01*
G01X17904417Y-15753983D01*
G01X17904417Y-15753983D01*
G01X17901154Y-15829934D01*
G01X17895639Y-15878250D01*
G01X17893871Y-15889334D01*
G01X17893871Y-15889334D01*
G01X17878004Y-15960019D01*
G01X17872777Y-15977225D01*
G01X17994945Y-15995682D01*
G01X17994945Y-15995682D01*
G01X18012194Y-15935785D01*
G01X18019941Y-15894063D01*
G01X18019994Y-15893729D01*
G01X18019994Y-15893729D01*
G01X18027676Y-15823344D01*
G01X18030548Y-15766162D01*
G01X18030980Y-15741702D01*
G01X18030980Y-15741678D01*
G01X18030980Y-15741678D01*
G01X18025351Y-15662303D01*
G01X18014571Y-15607659D01*
G01X18007798Y-15584660D01*
G01X18007689Y-15584354D01*
G01X18007689Y-15584354D01*
G01X17973882Y-15518877D01*
G01X17946357Y-15484400D01*
G01X17942650Y-15480643D01*
G01X17942650Y-15480643D01*
G01X17885159Y-15441983D01*
G01X17844853Y-15425808D01*
G01X17841576Y-15424832D01*
G01X17841576Y-15424832D01*
G01X17771973Y-15412263D01*
G01X17721281Y-15408746D01*
G01X17711937Y-15408573D01*
G01X17189867Y-15408573D01*
G01X17189867Y-15408573D01*
G01X17179616Y-15472156D01*
G01X17170964Y-15528590D01*
G01X17168333Y-15546121D01*
G01X17168333Y-15546121D01*
G01X17160151Y-15619569D01*
G01X17156533Y-15681500D01*
G01X17155617Y-15717962D01*
G01X17155589Y-15722342D01*
G01X17155589Y-15722342D01*
G01X17159427Y-15795454D01*
G01X17165732Y-15845172D01*
G01X17167455Y-15855496D01*
G01X17167455Y-15855496D01*
G01X17187834Y-15925348D01*
G01X17206577Y-15965934D01*
G01X17209203Y-15970633D01*
G01X17209203Y-15970633D01*
G01X17254244Y-16023809D01*
G01X17288510Y-16049737D01*
G01X17291380Y-16051493D01*
G01X17291380Y-16051493D01*
G01X17355616Y-16074233D01*
G01X17410060Y-16081282D01*
G01X17424535Y-16081815D01*
G37*
%LPC*%
G36*
G01X17426292Y-15930643D02*
G01X17426292Y-15930643D01*
G01X17353103Y-15912095D01*
G01X17318574Y-15882518D01*
G01X17313792Y-15875711D01*
G01X17313792Y-15875711D01*
G01X17291668Y-15813560D01*
G01X17283395Y-15754761D01*
G01X17282152Y-15727643D01*
G01X17282152Y-15727616D01*
G01X17282152Y-15727616D01*
G01X17283962Y-15655901D01*
G01X17285667Y-15627860D01*
G01X17285667Y-15627860D01*
G01X17293067Y-15562935D01*
G01X17294456Y-15554471D01*
G01X17543187Y-15554471D01*
G01X17543187Y-15554471D01*
G01X17555962Y-15614969D01*
G01X17557249Y-15623905D01*
G01X17557249Y-15623905D01*
G01X17562159Y-15689946D01*
G01X17562523Y-15709159D01*
G01X17562523Y-15709159D01*
G01X17558361Y-15774958D01*
G01X17556371Y-15790018D01*
G01X17556371Y-15790018D01*
G01X17538089Y-15851600D01*
G01X17533958Y-15860330D01*
G01X17533958Y-15860330D01*
G01X17495759Y-15907572D01*
G01X17491771Y-15910868D01*
G01X17491771Y-15910868D01*
G01X17433896Y-15930254D01*
G01X17426292Y-15930643D01*
G37*
%LPD*%
G36*
G01X17175804Y-15158963D02*
G01X18398363Y-15158963D01*
G01X18422972Y-15009549D01*
G01X17661839Y-15009549D01*
G01X17834105Y-14810916D01*
G01X17834105Y-14810916D01*
G01X17885215Y-14754315D01*
G01X17933119Y-14705518D01*
G01X17973134Y-14667268D01*
G01X18000577Y-14642307D01*
G01X18010765Y-14633377D01*
G01X18010765Y-14633377D01*
G01X18010765Y-14458475D01*
G01X18010765Y-14458475D01*
G01X17958709Y-14505023D01*
G01X17909588Y-14552637D01*
G01X17867670Y-14595530D01*
G01X17837225Y-14627915D01*
G01X17822519Y-14644003D01*
G01X17821800Y-14644803D01*
G01X17634593Y-14858377D01*
G01X17634593Y-14858377D01*
G01X17591773Y-14804530D01*
G01X17554926Y-14761344D01*
G01X17543626Y-14748514D01*
G01X17543626Y-14748514D01*
G01X17493962Y-14695089D01*
G01X17451489Y-14651915D01*
G01X17427667Y-14628533D01*
G01X17425853Y-14626786D01*
G01X17425853Y-14626786D01*
G01X17370328Y-14575555D01*
G01X17324318Y-14535407D01*
G01X17299002Y-14514101D01*
G01X17297093Y-14512528D01*
G01X17297093Y-14512528D01*
G01X17235276Y-14465293D01*
G01X17191345Y-14435585D01*
G01X17175804Y-14425955D01*
G01X17175804Y-14602616D01*
G01X17175804Y-14602616D01*
G01X17234060Y-14642711D01*
G01X17277582Y-14676655D01*
G01X17290062Y-14686991D01*
G01X17290062Y-14686991D01*
G01X17344900Y-14736467D01*
G01X17385869Y-14776605D01*
G01X17402546Y-14793761D01*
G01X17402562Y-14793778D01*
G01X17402562Y-14793778D01*
G01X17452901Y-14849373D01*
G01X17488743Y-14891599D01*
G01X17501439Y-14907157D01*
G01X17501439Y-14907157D01*
G01X17547754Y-14967689D01*
G01X17573903Y-15004343D01*
G01X17577464Y-15009549D01*
G01X17175804Y-15009549D01*
G01X17175804Y-15158963D01*
G37*
G36*
G01X17591527Y-14314334D02*
G01X17591527Y-14314334D01*
G01X17671767Y-14308588D01*
G01X17734589Y-14296168D01*
G01X17774340Y-14284304D01*
G01X17785765Y-14280057D01*
G01X17785765Y-14280057D01*
G01X17853605Y-14244275D01*
G01X17900418Y-14209902D01*
G01X17921649Y-14190763D01*
G01X17922435Y-14189969D01*
G01X17922435Y-14189969D01*
G01X17968255Y-14131464D01*
G01X17995378Y-14083000D01*
G01X18003734Y-14064286D01*
G01X18003734Y-14064286D01*
G01X18023497Y-13992800D01*
G01X18030244Y-13938418D01*
G01X18030980Y-13920584D01*
G01X18030980Y-13920584D01*
G01X18021959Y-13836627D01*
G01X17999815Y-13768283D01*
G01X17971931Y-13716045D01*
G01X17945687Y-13680403D01*
G01X17928464Y-13661851D01*
G01X17925511Y-13659110D01*
G01X17925511Y-13659110D01*
G01X17871785Y-13623669D01*
G01X17809896Y-13598767D01*
G01X17746394Y-13582545D01*
G01X17687827Y-13573142D01*
G01X17640746Y-13568699D01*
G01X17611699Y-13567356D01*
G01X17605589Y-13567264D01*
G01X17553734Y-13567264D01*
G01X17553734Y-14164920D01*
G01X17553734Y-14164920D01*
G01X17474425Y-14149869D01*
G01X17415093Y-14123861D01*
G01X17376186Y-14097417D01*
G01X17358155Y-14081061D01*
G01X17356859Y-14079666D01*
G01X17356859Y-14079666D01*
G01X17321299Y-14022282D01*
G01X17301068Y-13959634D01*
G01X17291843Y-13904583D01*
G01X17289300Y-13869986D01*
G01X17289183Y-13864334D01*
G01X17289183Y-13864334D01*
G01X17293126Y-13787744D01*
G01X17299791Y-13740169D01*
G01X17301927Y-13729422D01*
G01X17301927Y-13729422D01*
G01X17322156Y-13660522D01*
G01X17328734Y-13644608D01*
G01X17203050Y-13625272D01*
G01X17203050Y-13625272D01*
G01X17182396Y-13684049D01*
G01X17172288Y-13722391D01*
G01X17172288Y-13722391D01*
G01X17172288Y-13722391D01*
G01X17160840Y-13791746D01*
G01X17156368Y-13851543D01*
G01X17155590Y-13880614D01*
G01X17155589Y-13881034D01*
G01X17155589Y-13881034D01*
G01X17161188Y-13959035D01*
G01X17173290Y-14020503D01*
G01X17184849Y-14059599D01*
G01X17188988Y-14070877D01*
G01X17188988Y-14070877D01*
G01X17224581Y-14138127D01*
G01X17259501Y-14184700D01*
G01X17279136Y-14205883D01*
G01X17279954Y-14206668D01*
G01X17279954Y-14206668D01*
G01X17338856Y-14250203D01*
G01X17391494Y-14277085D01*
G01X17417563Y-14287399D01*
G01X17417943Y-14287528D01*
G01X17417943Y-14287528D01*
G01X17488540Y-14304740D01*
G01X17550071Y-14312348D01*
G01X17587036Y-14314275D01*
G01X17591527Y-14314334D01*
G37*
%LPC*%
G36*
G01X17674144Y-14161405D02*
G01X17674144Y-13718436D01*
G01X17674144Y-13718436D01*
G01X17752651Y-13729112D01*
G01X17807964Y-13751340D01*
G01X17837768Y-13770417D01*
G01X17842454Y-13774246D01*
G01X17842454Y-13774246D01*
G01X17884062Y-13832830D01*
G01X17901017Y-13889430D01*
G01X17904396Y-13921030D01*
G01X17904417Y-13922342D01*
G01X17904417Y-13922342D01*
G01X17893937Y-13990822D01*
G01X17884642Y-14016385D01*
G01X17884642Y-14016385D01*
G01X17847638Y-14073115D01*
G01X17832787Y-14089334D01*
G01X17832787Y-14089334D01*
G01X17778028Y-14128539D01*
G01X17758958Y-14138114D01*
G01X17758958Y-14138114D01*
G01X17694504Y-14157886D01*
G01X17674144Y-14161405D01*
G37*
%LPD*%
G36*
G01X17175804Y-13293924D02*
G01X17965941Y-13293924D01*
G01X17965941Y-13293924D01*
G01X17988972Y-13217090D01*
G01X18005602Y-13142983D01*
G01X18016875Y-13074743D01*
G01X18023832Y-13015509D01*
G01X18027514Y-12968422D01*
G01X18028963Y-12936622D01*
G01X18029222Y-12923249D01*
G01X18029222Y-12923026D01*
G01X18029222Y-12923026D01*
G01X18027288Y-12851329D01*
G01X18024907Y-12814135D01*
G01X18024828Y-12813162D01*
G01X18024828Y-12813162D01*
G01X18015335Y-12745871D01*
G01X18006300Y-12701542D01*
G01X18005492Y-12698026D01*
G01X17874535Y-12725272D01*
G01X17874535Y-12725272D01*
G01X17890388Y-12796898D01*
G01X17894744Y-12827172D01*
G01X17894749Y-12827225D01*
G01X17894749Y-12827225D01*
G01X17898688Y-12894866D01*
G01X17899144Y-12923026D01*
G01X17899144Y-12923026D01*
G01X17895011Y-12997967D01*
G01X17885605Y-13065491D01*
G01X17875418Y-13117063D01*
G01X17868941Y-13144151D01*
G01X17868382Y-13146268D01*
G01X17175804Y-13146268D01*
G01X17175804Y-13293924D01*
G37*
G36*
G01X17290941Y-12268241D02*
G01X17290941Y-12268241D01*
G01X17358149Y-12251304D01*
G01X17387861Y-12232374D01*
G01X17388060Y-12232205D01*
G01X17388060Y-12232205D01*
G01X17423234Y-12174766D01*
G01X17429787Y-12135784D01*
G01X17429808Y-12134647D01*
G01X17429808Y-12134647D01*
G01X17411010Y-12067381D01*
G01X17388928Y-12039233D01*
G01X17388499Y-12038846D01*
G01X17388499Y-12038846D01*
G01X17326561Y-12007878D01*
G01X17291206Y-12002813D01*
G01X17290941Y-12002811D01*
G01X17290941Y-12002811D01*
G01X17224192Y-12020288D01*
G01X17195629Y-12038803D01*
G01X17195580Y-12038846D01*
G01X17195580Y-12038846D01*
G01X17160047Y-12096713D01*
G01X17153840Y-12134019D01*
G01X17153831Y-12134647D01*
G01X17153831Y-12134647D01*
G01X17172206Y-12202343D01*
G01X17194821Y-12231519D01*
G01X17195580Y-12232205D01*
G01X17195580Y-12232205D01*
G01X17257792Y-12263461D01*
G01X17290877Y-12268240D01*
G01X17290941Y-12268241D01*
G37*
G36*
G01X17591527Y-11598514D02*
G01X17591527Y-11598514D01*
G01X17670052Y-11592884D01*
G01X17732262Y-11580496D01*
G01X17773213Y-11568109D01*
G01X17787962Y-11562479D01*
G01X17787962Y-11562479D01*
G01X17787962Y-11562479D01*
G01X17854111Y-11525135D01*
G01X17900445Y-11487744D01*
G01X17923048Y-11464970D01*
G01X17924632Y-11463162D01*
G01X17924632Y-11463162D01*
G01X17965551Y-11403552D01*
G01X17991900Y-11349826D01*
G01X18003821Y-11318786D01*
G01X18004613Y-11316385D01*
G01X18004613Y-11316385D01*
G01X18021138Y-11245727D01*
G01X18028734Y-11183521D01*
G01X18030872Y-11144003D01*
G01X18030980Y-11137088D01*
G01X18030980Y-11137088D01*
G01X18027799Y-11064797D01*
G01X18023203Y-11020152D01*
G01X18022630Y-11015799D01*
G01X18022630Y-11015799D01*
G01X18009448Y-10948103D01*
G01X17996364Y-10898256D01*
G01X17993187Y-10887479D01*
G01X17864867Y-10921756D01*
G01X17864867Y-10921756D01*
G01X17885800Y-10992509D01*
G01X17892797Y-11029303D01*
G01X17892992Y-11030741D01*
G01X17892992Y-11030741D01*
G01X17898420Y-11099969D01*
G01X17899144Y-11130057D01*
G01X17899144Y-11130057D01*
G01X17892863Y-11202835D01*
G01X17883471Y-11247361D01*
G01X17882005Y-11252664D01*
G01X17882005Y-11252664D01*
G01X17852726Y-11317438D01*
G01X17829449Y-11350644D01*
G01X17827953Y-11352420D01*
G01X17827953Y-11352420D01*
G01X17774748Y-11396880D01*
G01X17735808Y-11418622D01*
G01X17732591Y-11420096D01*
G01X17732591Y-11420096D01*
G01X17666918Y-11438585D01*
G01X17610950Y-11444896D01*
G01X17591527Y-11445584D01*
G01X17591527Y-11445584D01*
G01X17514665Y-11438242D01*
G01X17466630Y-11425832D01*
G01X17455736Y-11421854D01*
G01X17455736Y-11421854D01*
G01X17393851Y-11384976D01*
G01X17363697Y-11357654D01*
G01X17362132Y-11355936D01*
G01X17362132Y-11355936D01*
G01X17324306Y-11296808D01*
G01X17307980Y-11256853D01*
G01X17307201Y-11254422D01*
G01X17307201Y-11254422D01*
G01X17293477Y-11185924D01*
G01X17289432Y-11134307D01*
G01X17289183Y-11123026D01*
G01X17289183Y-11123026D01*
G01X17291891Y-11050942D01*
G01X17295224Y-11013272D01*
G01X17295335Y-11012284D01*
G01X17295335Y-11012284D01*
G01X17308659Y-10945727D01*
G01X17321928Y-10900826D01*
G01X17323460Y-10896268D01*
G01X17199535Y-10874295D01*
G01X17199535Y-10874295D01*
G01X17178190Y-10943390D01*
G01X17167492Y-10991925D01*
G01X17165697Y-11002176D01*
G01X17165697Y-11002176D01*
G01X17158239Y-11072436D01*
G01X17155811Y-11127195D01*
G01X17155589Y-11143241D01*
G01X17155589Y-11143241D01*
G01X17160633Y-11219969D01*
G01X17171336Y-11281224D01*
G01X17181054Y-11319220D01*
G01X17183714Y-11327811D01*
G01X17183714Y-11327811D01*
G01X17214963Y-11397648D01*
G01X17246865Y-11447457D01*
G01X17265125Y-11470640D01*
G01X17265892Y-11471512D01*
G01X17265892Y-11471512D01*
G01X17320883Y-11519578D01*
G01X17372278Y-11551009D01*
G01X17400519Y-11564627D01*
G01X17401683Y-11565116D01*
G01X17401683Y-11565116D01*
G01X17468423Y-11584980D01*
G01X17531676Y-11594820D01*
G01X17577262Y-11598158D01*
G01X17591527Y-11598514D01*
G37*
G36*
G01X17593285Y-10714334D02*
G01X17593285Y-10714334D01*
G01X17670999Y-10709038D01*
G01X17731813Y-10698012D01*
G01X17767506Y-10688548D01*
G01X17773460Y-10686649D01*
G01X17773460Y-10686649D01*
G01X17842595Y-10655455D01*
G01X17890486Y-10624651D01*
G01X17910739Y-10608664D01*
G01X17911009Y-10608426D01*
G01X17911009Y-10608426D01*
G01X17959886Y-10553797D01*
G01X17989835Y-10506891D01*
G01X17999339Y-10488455D01*
G01X17999339Y-10488455D01*
G01X18021464Y-10419300D01*
G01X18029736Y-10362577D01*
G01X18030980Y-10338187D01*
G01X18030980Y-10338162D01*
G01X18030980Y-10338162D01*
G01X18023333Y-10264531D01*
G01X18008689Y-10209864D01*
G01X17999487Y-10185567D01*
G01X17999339Y-10185233D01*
G01X17999339Y-10185233D01*
G01X17961592Y-10121581D01*
G01X17925746Y-10078900D01*
G01X17911009Y-10064383D01*
G01X17911009Y-10064383D01*
G01X17852604Y-10023046D01*
G01X17799998Y-9996699D01*
G01X17773842Y-9986293D01*
G01X17773460Y-9986161D01*
G01X17773460Y-9986161D01*
G01X17703783Y-9968809D01*
G01X17640935Y-9960833D01*
G01X17600430Y-9958588D01*
G01X17593285Y-9958475D01*
G01X17593285Y-9958475D01*
G01X17515738Y-9963771D01*
G01X17455274Y-9974797D01*
G01X17419882Y-9984261D01*
G01X17413988Y-9986161D01*
G01X17413988Y-9986161D01*
G01X17345243Y-10017354D01*
G01X17297181Y-10048158D01*
G01X17276713Y-10064145D01*
G01X17276439Y-10064383D01*
G01X17276439Y-10064383D01*
G01X17226935Y-10119248D01*
G01X17196763Y-10166585D01*
G01X17187230Y-10185233D01*
G01X17187230Y-10185233D01*
G01X17165538Y-10253402D01*
G01X17157066Y-10310470D01*
G01X17155591Y-10337772D01*
G01X17155589Y-10338162D01*
G01X17155589Y-10338162D01*
G01X17163652Y-10412396D01*
G01X17178744Y-10466656D01*
G01X17187220Y-10488435D01*
G01X17187230Y-10488455D01*
G01X17187230Y-10488455D01*
G01X17225213Y-10551481D01*
G01X17261490Y-10593938D01*
G01X17276439Y-10608426D01*
G01X17276439Y-10608426D01*
G01X17335234Y-10649763D01*
G01X17387669Y-10676110D01*
G01X17413610Y-10686516D01*
G01X17413988Y-10686649D01*
G01X17413988Y-10686649D01*
G01X17483114Y-10704001D01*
G01X17545709Y-10711976D01*
G01X17586143Y-10714221D01*
G01X17593285Y-10714334D01*
G37*
%LPC*%
G36*
G01X17593285Y-10561405D02*
G01X17593285Y-10561405D01*
G01X17509266Y-10553945D01*
G01X17443808Y-10536695D01*
G01X17398370Y-10517346D01*
G01X17374413Y-10503592D01*
G01X17370921Y-10501200D01*
G01X17370921Y-10501200D01*
G01X17320981Y-10445974D01*
G01X17297139Y-10389282D01*
G01X17289744Y-10348301D01*
G01X17289183Y-10338162D01*
G01X17289183Y-10338162D01*
G01X17303841Y-10263305D01*
G01X17334946Y-10209554D01*
G01X17363190Y-10178983D01*
G01X17370921Y-10172489D01*
G01X17370921Y-10172489D01*
G01X17431295Y-10140392D01*
G01X17496022Y-10122132D01*
G01X17552357Y-10113806D01*
G01X17587554Y-10111510D01*
G01X17593285Y-10111405D01*
G01X17593285Y-10111405D01*
G01X17678227Y-10118973D01*
G01X17744211Y-10136475D01*
G01X17789888Y-10156106D01*
G01X17813911Y-10170061D01*
G01X17817406Y-10172489D01*
G01X17817406Y-10172489D01*
G01X17867346Y-10228566D01*
G01X17891188Y-10286184D01*
G01X17898583Y-10327851D01*
G01X17899144Y-10338162D01*
G01X17899144Y-10338162D01*
G01X17884486Y-10411788D01*
G01X17853381Y-10464692D01*
G01X17825137Y-10494800D01*
G01X17817406Y-10501200D01*
G01X17817406Y-10501200D01*
G01X17756815Y-10532834D01*
G01X17691583Y-10550832D01*
G01X17634683Y-10559038D01*
G01X17599085Y-10561301D01*
G01X17593285Y-10561405D01*
G37*
%LPD*%
G36*
G01X17175804Y-9812577D02*
G01X17987914Y-9812577D01*
G01X17987914Y-9812577D01*
G01X18011795Y-9735247D01*
G01X18024059Y-9670523D01*
G01X18028577Y-9626070D01*
G01X18029222Y-9609549D01*
G01X18029222Y-9609549D01*
G01X18029222Y-9609549D01*
G01X18021301Y-9540031D01*
G01X18013841Y-9511551D01*
G01X18013841Y-9511551D01*
G01X17981751Y-9451693D01*
G01X17965941Y-9432889D01*
G01X17965941Y-9432889D01*
G01X18005602Y-9367432D01*
G01X18023832Y-9309798D01*
G01X18028963Y-9273183D01*
G01X18029222Y-9266776D01*
G01X18029222Y-9266776D01*
G01X18018686Y-9201406D01*
G01X18012962Y-9185037D01*
G01X18012962Y-9185037D01*
G01X17976671Y-9129761D01*
G01X17964183Y-9116922D01*
G01X17964183Y-9116922D01*
G01X17907765Y-9080257D01*
G01X17883324Y-9069461D01*
G01X17883324Y-9069461D01*
G01X17816779Y-9054608D01*
G01X17772613Y-9051475D01*
G01X17769945Y-9051444D01*
G01X17175804Y-9051444D01*
G01X17175804Y-9185916D01*
G01X17773460Y-9185916D01*
G01X17773460Y-9185916D01*
G01X17845259Y-9199549D01*
G01X17872175Y-9214785D01*
G01X17872337Y-9214920D01*
G01X17872337Y-9214920D01*
G01X17904318Y-9271469D01*
G01X17906175Y-9286991D01*
G01X17906175Y-9286991D01*
G01X17895628Y-9332254D01*
G01X17895628Y-9332254D01*
G01X17861901Y-9374423D01*
G01X17861351Y-9374881D01*
G01X17861351Y-9374881D01*
G01X17795013Y-9365295D01*
G01X17769945Y-9364334D01*
G01X17498363Y-9364334D01*
G01X17498363Y-9499686D01*
G01X17771703Y-9499686D01*
G01X17771703Y-9499686D01*
G01X17844871Y-9509574D01*
G01X17870580Y-9519461D01*
G01X17870580Y-9519461D01*
G01X17870580Y-9519461D01*
G01X17903345Y-9572188D01*
G01X17906175Y-9596366D01*
G01X17906175Y-9596366D01*
G01X17895697Y-9659952D01*
G01X17890355Y-9677225D01*
G01X17175804Y-9677225D01*
G01X17175804Y-9812577D01*
G37*
G36*
G01X2145725Y-13538868D02*
G01X2145725Y-13538868D01*
G01X2212979Y-13495712D01*
G01X2267683Y-13453809D01*
G01X2308461Y-13417950D01*
G01X2333936Y-13392922D01*
G01X2342734Y-13383515D01*
G01X2342734Y-13383515D01*
G01X2342734Y-13383515D01*
G01X2391372Y-13320199D01*
G01X2425033Y-13263817D01*
G01X2444589Y-13223381D01*
G01X2450913Y-13207900D01*
G01X2450913Y-13207900D01*
G01X2450913Y-13207900D01*
G01X2470031Y-13133673D01*
G01X2476323Y-13071233D01*
G01X2476248Y-13032691D01*
G01X2475831Y-13026059D01*
G01X2475831Y-13026059D01*
G01X2461715Y-12953133D01*
G01X2440497Y-12894103D01*
G01X2423622Y-12858603D01*
G01X2420333Y-12852589D01*
G01X2420333Y-12852589D01*
G01X2380717Y-12791709D01*
G01X2359030Y-12763669D01*
G01X2358449Y-12762981D01*
G01X2358449Y-12762981D01*
G01X2310948Y-12714124D01*
G01X2299810Y-12704482D01*
G01X2299810Y-12704482D01*
G01X2251748Y-12670939D01*
G01X2249891Y-12669874D01*
G01X2215363Y-12652258D01*
G01X2132650Y-12756846D01*
G01X2132650Y-12756846D01*
G01X2193005Y-12789599D01*
G01X2226355Y-12814023D01*
G01X2227698Y-12815128D01*
G01X2227698Y-12815128D01*
G01X2276798Y-12866922D01*
G01X2302802Y-12904071D01*
G01X2305132Y-12907937D01*
G01X2305132Y-12907937D01*
G01X2331583Y-12974789D01*
G01X2339842Y-13023656D01*
G01X2340470Y-13034184D01*
G01X2340470Y-13034184D01*
G01X2331828Y-13104702D01*
G01X2316122Y-13154669D01*
G01X2311027Y-13166878D01*
G01X2311027Y-13166878D01*
G01X2275454Y-13226964D01*
G01X2239207Y-13273248D01*
G01X2220144Y-13294321D01*
G01X2219859Y-13294615D01*
G01X2219859Y-13294615D01*
G01X2166823Y-13341667D01*
G01X2115240Y-13379293D01*
G01X2078978Y-13402662D01*
G01X2070139Y-13407950D01*
G01X2070139Y-13407950D01*
G01X2001975Y-13443027D01*
G01X1945286Y-13466681D01*
G01X1909075Y-13479346D01*
G01X1900731Y-13481908D01*
G01X1900731Y-13481908D01*
G01X1825348Y-13497116D01*
G01X1770002Y-13501051D01*
G01X1747723Y-13500742D01*
G01X1747701Y-13500741D01*
G01X1747701Y-13500741D01*
G01X1676281Y-13486688D01*
G01X1629217Y-13467684D01*
G01X1618181Y-13461854D01*
G01X1618181Y-13461854D01*
G01X1563947Y-13417204D01*
G01X1530532Y-13375371D01*
G01X1522021Y-13362096D01*
G01X1522021Y-13362096D01*
G01X1491824Y-13300280D01*
G01X1487680Y-13288554D01*
G01X1487680Y-13288554D01*
G01X1478325Y-13244226D01*
G01X1843680Y-13033289D01*
G01X1769852Y-12905415D01*
G01X1317726Y-13166450D01*
G01X1317726Y-13166450D01*
G01X1331708Y-13226828D01*
G01X1344408Y-13274367D01*
G01X1345256Y-13277415D01*
G01X1345256Y-13277415D01*
G01X1368283Y-13341537D01*
G01X1394824Y-13398646D01*
G01X1414106Y-13435179D01*
G01X1417719Y-13441597D01*
G01X1417719Y-13441597D01*
G01X1462011Y-13504442D01*
G01X1505215Y-13549842D01*
G01X1535635Y-13575804D01*
G01X1543056Y-13581343D01*
G01X1543056Y-13581343D01*
G01X1607758Y-13616688D01*
G01X1666408Y-13637186D01*
G01X1704318Y-13646104D01*
G01X1711016Y-13647258D01*
G01X1711016Y-13647258D01*
G01X1782162Y-13651066D01*
G01X1847853Y-13646083D01*
G01X1896076Y-13638531D01*
G01X1914820Y-13634631D01*
G01X1914820Y-13634631D01*
G01X1914820Y-13634631D01*
G01X1981321Y-13614561D01*
G01X2043896Y-13589548D01*
G01X2096312Y-13564994D01*
G01X2132333Y-13546300D01*
G01X2145725Y-13538868D01*
G01X2145725Y-13538868D01*
G37*
G36*
G01X1204042Y-13024036D02*
G01X2169187Y-12466810D01*
G01X2093601Y-12335891D01*
G01X1824690Y-12342975D01*
G01X1824690Y-12342975D01*
G01X1748268Y-12345742D01*
G01X1681985Y-12348902D01*
G01X1632720Y-12351667D01*
G01X1607354Y-12353251D01*
G01X1605396Y-12353382D01*
G01X1605396Y-12353382D01*
G01X1531040Y-12359201D01*
G01X1464672Y-12365466D01*
G01X1415589Y-12370640D01*
G01X1393089Y-12373183D01*
G01X1392576Y-12373243D01*
G01X1143613Y-12404331D01*
G01X1885739Y-11975865D01*
G01X1818503Y-11859408D01*
G01X0853358Y-12416634D01*
G01X0928944Y-12547553D01*
G01X1220948Y-12511913D01*
G01X1469943Y-12487911D01*
G01X1693027Y-12471764D01*
G01X1907095Y-12462853D01*
G01X1136806Y-12907579D01*
G01X1204042Y-13024036D01*
G37*
G36*
G01X0770144Y-12237347D02*
G01X1705604Y-11697259D01*
G01X1705604Y-11697259D01*
G01X1680119Y-11623504D01*
G01X1653157Y-11560507D01*
G01X1630450Y-11514220D01*
G01X1617731Y-11490594D01*
G01X1616699Y-11488780D01*
G01X1616699Y-11488780D01*
G01X1574078Y-11424570D01*
G01X1533012Y-11374590D01*
G01X1502081Y-11342165D01*
G01X1489864Y-11330617D01*
G01X1489864Y-11330617D01*
G01X1489864Y-11330617D01*
G01X1428747Y-11286781D01*
G01X1372194Y-11258613D01*
G01X1333532Y-11244290D01*
G01X1324253Y-11241526D01*
G01X1324253Y-11241526D01*
G01X1252938Y-11230545D01*
G01X1186550Y-11230324D01*
G01X1137568Y-11234707D01*
G01X1118468Y-11237536D01*
G01X1118468Y-11237536D01*
G01X1118468Y-11237536D01*
G01X1053014Y-11254403D01*
G01X0989592Y-11277931D01*
G01X0934455Y-11302672D01*
G01X0893854Y-11323180D01*
G01X0874043Y-11334006D01*
G01X0873069Y-11334563D01*
G01X0873069Y-11334563D01*
G01X0803273Y-11379083D01*
G01X0747004Y-11421790D01*
G01X0704864Y-11458661D01*
G01X0677454Y-11485674D01*
G01X0665375Y-11498806D01*
G01X0664819Y-11499450D01*
G01X0664819Y-11499450D01*
G01X0618002Y-11564506D01*
G01X0587434Y-11622274D01*
G01X0570793Y-11663628D01*
G01X0565762Y-11679441D01*
G01X0565762Y-11679441D01*
G01X0565762Y-11679441D01*
G01X0554233Y-11753044D01*
G01X0554657Y-11816336D01*
G01X0559362Y-11857687D01*
G01X0561094Y-11867351D01*
G01X0561094Y-11867351D01*
G01X0581092Y-11937050D01*
G01X0605490Y-11997311D01*
G01X0626118Y-12039673D01*
G01X0634809Y-12055674D01*
G01X0634809Y-12055674D01*
G01X0634809Y-12055674D01*
G01X0675514Y-12119811D01*
G01X0716526Y-12174710D01*
G01X0750141Y-12215112D01*
G01X0768657Y-12235760D01*
G01X0770144Y-12237347D01*
G37*
%LPC*%
G36*
G01X0788416Y-12056299D02*
G01X0788416Y-12056299D01*
G01X0750509Y-12000227D01*
G01X0738146Y-11979775D01*
G01X0738146Y-11979775D01*
G01X0705864Y-11910241D01*
G01X0690584Y-11859498D01*
G01X0687227Y-11843241D01*
G01X0687227Y-11843241D01*
G01X0687096Y-11771798D01*
G01X0697653Y-11722717D01*
G01X0701035Y-11712470D01*
G01X0701035Y-11712470D01*
G01X0733580Y-11651699D01*
G01X0769050Y-11605258D01*
G01X0786358Y-11586086D01*
G01X0786376Y-11586067D01*
G01X0786376Y-11586067D01*
G01X0837486Y-11541011D01*
G01X0890407Y-11502473D01*
G01X0931883Y-11475585D01*
G01X0948655Y-11465482D01*
G01X0948655Y-11465482D01*
G01X0948655Y-11465482D01*
G01X1032684Y-11423102D01*
G01X1107013Y-11395865D01*
G01X1170120Y-11380560D01*
G01X1220479Y-11373979D01*
G01X1256567Y-11372910D01*
G01X1276859Y-11374146D01*
G01X1280858Y-11374664D01*
G01X1280858Y-11374664D01*
G01X1349086Y-11397416D01*
G01X1406269Y-11434944D01*
G01X1451194Y-11477702D01*
G01X1482647Y-11516146D01*
G01X1499414Y-11540732D01*
G01X1501937Y-11544889D01*
G01X1501937Y-11544889D01*
G01X1524248Y-11585289D01*
G01X1524248Y-11585289D01*
G01X1539676Y-11622558D01*
G01X0788416Y-12056299D01*
G37*
%LPD*%
G36*
G01X4516632Y-18730899D02*
G01X4612498Y-18642060D01*
G01X4612498Y-18642060D01*
G01X4563039Y-18602371D01*
G01X4537270Y-18579439D01*
G01X4537270Y-18579439D01*
G01X4491678Y-18528126D01*
G01X4457186Y-18478724D01*
G01X4443034Y-18455767D01*
G01X4443020Y-18455744D01*
G01X4443020Y-18455744D01*
G01X4405837Y-18374883D01*
G01X4390766Y-18311946D01*
G01X4388751Y-18270056D01*
G01X4390737Y-18252337D01*
G01X4390821Y-18251953D01*
G01X4390821Y-18251953D01*
G01X4421055Y-18188823D01*
G01X4461866Y-18145865D01*
G01X4489697Y-18125417D01*
G01X4492018Y-18124008D01*
G01X4492018Y-18124008D01*
G01X4559345Y-18098299D01*
G01X4593085Y-18094281D01*
G01X4593597Y-18094285D01*
G01X4593597Y-18094285D01*
G01X4660166Y-18107766D01*
G01X4684624Y-18118354D01*
G01X4684624Y-18118354D01*
G01X4739221Y-18158475D01*
G01X4763469Y-18182872D01*
G01X4763512Y-18182921D01*
G01X4763512Y-18182921D01*
G01X4805586Y-18238408D01*
G01X4828305Y-18274089D01*
G01X4829555Y-18276217D01*
G01X4848451Y-18308947D01*
G01X4952729Y-18248742D01*
G01X4926362Y-18203073D01*
G01X4926362Y-18203073D01*
G01X4898578Y-18143889D01*
G01X4892724Y-18128111D01*
G01X4892724Y-18128111D01*
G01X4879888Y-18062809D01*
G01X4879170Y-18046627D01*
G01X4879170Y-18046627D01*
G01X4893291Y-17983285D01*
G01X4899920Y-17969188D01*
G01X4899920Y-17969188D01*
G01X4944370Y-17921241D01*
G01X4968314Y-17904836D01*
G01X4968314Y-17904836D01*
G01X5041401Y-17880195D01*
G01X5092061Y-17883031D01*
G01X5109690Y-17888672D01*
G01X5109690Y-17888672D01*
G01X5166764Y-17929810D01*
G01X5201104Y-17970500D01*
G01X5209699Y-17983670D01*
G01X5209699Y-17983670D01*
G01X5241618Y-18053454D01*
G01X5254348Y-18099322D01*
G01X5255988Y-18108669D01*
G01X5255988Y-18108669D01*
G01X5261386Y-18180970D01*
G01X5261071Y-18209759D01*
G01X5261071Y-18209759D01*
G01X5388264Y-18203305D01*
G01X5388264Y-18203305D01*
G01X5387466Y-18138473D01*
G01X5381516Y-18084799D01*
G01X5380230Y-18076010D01*
G01X5380230Y-18076010D01*
G01X5362484Y-18007463D01*
G01X5339334Y-17950654D01*
G01X5322680Y-17917574D01*
G01X5320474Y-17913625D01*
G01X5320474Y-17913625D01*
G01X5276931Y-17849180D01*
G01X5241454Y-17808275D01*
G01X5226255Y-17793486D01*
G01X5226240Y-17793473D01*
G01X5226240Y-17793473D01*
G01X5165010Y-17752222D01*
G01X5125427Y-17735424D01*
G01X5121484Y-17734198D01*
G01X5121484Y-17734198D01*
G01X5052292Y-17725519D01*
G01X5012701Y-17728172D01*
G01X5011080Y-17728421D01*
G01X5011080Y-17728421D01*
G01X4944118Y-17748476D01*
G01X4904135Y-17767394D01*
G01X4901100Y-17769084D01*
G01X4901100Y-17769084D01*
G01X4841617Y-17816302D01*
G01X4807253Y-17860803D01*
G01X4794921Y-17883418D01*
G01X4794775Y-17883751D01*
G01X4794775Y-17883751D01*
G01X4775546Y-17953057D01*
G01X4771193Y-18008712D01*
G01X4771997Y-18032364D01*
G01X4771999Y-18032387D01*
G01X4771999Y-18032387D01*
G01X4713149Y-17990148D01*
G01X4656861Y-17965095D01*
G01X4619373Y-17953870D01*
G01X4612643Y-17952370D01*
G01X4612643Y-17952370D01*
G01X4541761Y-17951343D01*
G01X4477684Y-17966796D01*
G01X4431272Y-17985655D01*
G01X4413387Y-17994847D01*
G01X4413387Y-17994847D01*
G01X4413387Y-17994847D01*
G01X4353715Y-18037933D01*
G01X4317463Y-18073459D01*
G01X4309396Y-18082795D01*
G01X4309396Y-18082795D01*
G01X4272533Y-18145014D01*
G01X4256006Y-18191468D01*
G01X4253830Y-18200126D01*
G01X4253830Y-18200126D01*
G01X4248482Y-18270255D01*
G01X4253575Y-18326879D01*
G01X4256878Y-18346030D01*
G01X4256878Y-18346030D01*
G01X4276981Y-18411996D01*
G01X4302520Y-18471099D01*
G01X4322739Y-18510732D01*
G01X4327968Y-18520139D01*
G01X4327968Y-18520139D01*
G01X4364736Y-18575471D01*
G01X4376304Y-18590675D01*
G01X4376304Y-18590675D01*
G01X4419884Y-18641289D01*
G01X4431254Y-18653333D01*
G01X4431254Y-18653333D01*
G01X4476731Y-18697135D01*
G01X4482218Y-18702054D01*
G01X4482218Y-18702054D01*
G01X4516632Y-18730899D01*
G37*
G36*
G01X5043400Y-17482937D02*
G01X4963420Y-17344407D01*
G01X4963420Y-17344407D01*
G01X4896356Y-17366786D01*
G01X4831167Y-17387475D01*
G01X4775336Y-17404588D01*
G01X4736348Y-17416238D01*
G01X4721689Y-17420541D01*
G01X4721689Y-17420541D01*
G01X4721689Y-17420541D01*
G01X4646818Y-17441903D01*
G01X4577086Y-17461252D01*
G01X4518142Y-17477268D01*
G01X4475635Y-17488631D01*
G01X4455214Y-17494021D01*
G01X4454219Y-17494282D01*
G01X4454219Y-17494282D01*
G01X4379210Y-17513489D01*
G01X4311125Y-17530316D01*
G01X4254676Y-17543881D01*
G01X4214574Y-17553301D01*
G01X4195530Y-17557694D01*
G01X4194609Y-17557904D01*
G01X4194609Y-17557904D01*
G01X4113916Y-17575730D01*
G01X4047215Y-17589707D01*
G01X3999444Y-17599281D01*
G01X3975543Y-17603897D01*
G01X3973731Y-17604238D01*
G01X4127137Y-17437524D01*
G01X4127137Y-17437524D01*
G01X4177591Y-17383343D01*
G01X4225710Y-17332485D01*
G01X4267085Y-17289248D01*
G01X4297307Y-17257934D01*
G01X4311966Y-17242841D01*
G01X4312684Y-17242104D01*
G01X4312684Y-17242104D01*
G01X4367724Y-17186231D01*
G01X4418891Y-17135072D01*
G01X4462082Y-17092373D01*
G01X4493197Y-17061881D01*
G01X4508133Y-17047342D01*
G01X4508860Y-17046637D01*
G01X4508860Y-17046637D01*
G01X4565941Y-16992328D01*
G01X4616489Y-16945689D01*
G01X4656970Y-16909245D01*
G01X4683850Y-16885526D01*
G01X4693596Y-16877058D01*
G01X4693596Y-16877058D01*
G01X4616252Y-16743094D01*
G01X4616252Y-16743094D01*
G01X4568364Y-16786696D01*
G01X4519740Y-16833159D01*
G01X4483345Y-16868791D01*
G01X4471708Y-16880335D01*
G01X4471708Y-16880335D01*
G01X4422492Y-16930024D01*
G01X4374083Y-16979700D01*
G01X4330903Y-17024503D01*
G01X4297371Y-17059572D01*
G01X4277909Y-17080047D01*
G01X4274803Y-17083327D01*
G01X4049362Y-17329181D01*
G01X4049362Y-17329181D01*
G01X3997038Y-17387863D01*
G01X3947787Y-17444072D01*
G01X3903709Y-17495075D01*
G01X3866905Y-17538137D01*
G01X3839475Y-17570527D01*
G01X3823521Y-17589509D01*
G01X3820297Y-17593366D01*
G01X3911703Y-17751686D01*
G01X4251628Y-17681274D01*
G01X4575624Y-17607881D01*
G01X4575624Y-17607881D01*
G01X4654545Y-17588749D01*
G01X4724378Y-17571284D01*
G01X4781894Y-17556535D01*
G01X4823863Y-17545550D01*
G01X4847054Y-17539377D01*
G01X4850635Y-17538412D01*
G01X4850635Y-17538412D01*
G01X4932409Y-17515763D01*
G01X4992933Y-17498247D01*
G01X5030499Y-17486945D01*
G01X5043400Y-17482937D01*
G01X5043400Y-17482937D01*
G37*
G36*
G01X3616632Y-17172054D02*
G01X3712498Y-17083215D01*
G01X3712498Y-17083215D01*
G01X3663039Y-17043525D01*
G01X3637270Y-17020593D01*
G01X3637270Y-17020593D01*
G01X3591678Y-16969281D01*
G01X3557186Y-16919878D01*
G01X3543034Y-16896922D01*
G01X3543020Y-16896898D01*
G01X3543020Y-16896898D01*
G01X3505837Y-16816037D01*
G01X3490765Y-16753100D01*
G01X3488751Y-16711210D01*
G01X3490737Y-16693491D01*
G01X3490821Y-16693107D01*
G01X3490821Y-16693107D01*
G01X3521055Y-16629978D01*
G01X3561866Y-16587019D01*
G01X3589697Y-16566572D01*
G01X3592018Y-16565162D01*
G01X3592018Y-16565162D01*
G01X3659345Y-16539453D01*
G01X3693085Y-16535435D01*
G01X3693597Y-16535439D01*
G01X3693597Y-16535439D01*
G01X3760166Y-16548920D01*
G01X3784624Y-16559508D01*
G01X3784624Y-16559508D01*
G01X3839221Y-16599629D01*
G01X3863469Y-16624026D01*
G01X3863512Y-16624076D01*
G01X3863512Y-16624076D01*
G01X3905586Y-16679562D01*
G01X3928305Y-16715243D01*
G01X3929555Y-16717372D01*
G01X3948451Y-16750101D01*
G01X4052729Y-16689896D01*
G01X4026362Y-16644227D01*
G01X4026362Y-16644227D01*
G01X3998578Y-16585043D01*
G01X3992724Y-16569265D01*
G01X3992724Y-16569265D01*
G01X3979888Y-16503964D01*
G01X3979170Y-16487781D01*
G01X3979170Y-16487781D01*
G01X3993291Y-16424439D01*
G01X3999920Y-16410342D01*
G01X3999920Y-16410342D01*
G01X4044370Y-16362396D01*
G01X4068314Y-16345991D01*
G01X4068314Y-16345991D01*
G01X4141401Y-16321349D01*
G01X4192061Y-16324185D01*
G01X4209690Y-16329826D01*
G01X4209690Y-16329826D01*
G01X4266764Y-16370964D01*
G01X4301104Y-16411654D01*
G01X4309699Y-16424824D01*
G01X4309699Y-16424824D01*
G01X4341618Y-16494609D01*
G01X4354348Y-16540476D01*
G01X4355988Y-16549823D01*
G01X4355988Y-16549823D01*
G01X4361386Y-16622124D01*
G01X4361071Y-16650913D01*
G01X4361071Y-16650913D01*
G01X4488264Y-16644460D01*
G01X4488264Y-16644460D01*
G01X4487466Y-16579628D01*
G01X4481516Y-16525954D01*
G01X4480230Y-16517165D01*
G01X4480230Y-16517165D01*
G01X4462484Y-16448617D01*
G01X4439334Y-16391808D01*
G01X4422680Y-16358728D01*
G01X4420474Y-16354779D01*
G01X4420474Y-16354779D01*
G01X4376931Y-16290335D01*
G01X4341454Y-16249429D01*
G01X4326255Y-16234640D01*
G01X4326240Y-16234627D01*
G01X4326240Y-16234627D01*
G01X4265010Y-16193377D01*
G01X4225427Y-16176578D01*
G01X4221484Y-16175353D01*
G01X4221484Y-16175353D01*
G01X4152292Y-16166673D01*
G01X4112701Y-16169326D01*
G01X4111080Y-16169576D01*
G01X4111080Y-16169576D01*
G01X4044118Y-16189631D01*
G01X4004135Y-16208549D01*
G01X4001100Y-16210238D01*
G01X4001100Y-16210238D01*
G01X3941617Y-16257456D01*
G01X3907253Y-16301958D01*
G01X3894921Y-16324572D01*
G01X3894775Y-16324906D01*
G01X3894775Y-16324906D01*
G01X3875546Y-16394212D01*
G01X3871193Y-16449866D01*
G01X3871997Y-16473518D01*
G01X3871999Y-16473541D01*
G01X3871999Y-16473541D01*
G01X3813149Y-16431302D01*
G01X3756861Y-16406250D01*
G01X3719373Y-16395024D01*
G01X3712643Y-16393525D01*
G01X3712643Y-16393525D01*
G01X3641761Y-16392497D01*
G01X3577684Y-16407950D01*
G01X3531272Y-16426810D01*
G01X3513387Y-16436001D01*
G01X3513387Y-16436001D01*
G01X3513387Y-16436001D01*
G01X3453715Y-16479088D01*
G01X3417463Y-16514613D01*
G01X3409396Y-16523950D01*
G01X3409396Y-16523950D01*
G01X3372533Y-16586169D01*
G01X3356006Y-16632622D01*
G01X3353829Y-16641280D01*
G01X3353829Y-16641280D01*
G01X3348482Y-16711410D01*
G01X3353575Y-16768033D01*
G01X3356878Y-16787185D01*
G01X3356878Y-16787185D01*
G01X3376981Y-16853150D01*
G01X3402520Y-16912254D01*
G01X3422739Y-16951887D01*
G01X3427968Y-16961294D01*
G01X3427968Y-16961294D01*
G01X3464736Y-17016625D01*
G01X3476304Y-17031830D01*
G01X3476304Y-17031830D01*
G01X3519884Y-17082443D01*
G01X3531254Y-17094487D01*
G01X3531254Y-17094487D01*
G01X3576731Y-17138290D01*
G01X3582218Y-17143209D01*
G01X3582218Y-17143209D01*
G01X3616632Y-17172054D01*
G37*
G36*
G01X21010445Y-6539715D02*
G01X21010445Y-5319989D01*
G01X21010445Y-5319989D01*
G01X20949641Y-5307214D01*
G01X20941597Y-5305829D01*
G01X20941597Y-5305829D01*
G01X20876651Y-5297779D01*
G01X20862008Y-5296551D01*
G01X20862008Y-5296551D01*
G01X20796154Y-5292461D01*
G01X20780953Y-5291668D01*
G01X20780953Y-5291668D01*
G01X20716729Y-5289768D01*
G01X20708687Y-5289715D01*
G01X20708687Y-5289715D01*
G01X20615511Y-5295678D01*
G01X20537292Y-5310914D01*
G01X20474089Y-5331451D01*
G01X20425961Y-5353313D01*
G01X20392968Y-5372525D01*
G01X20375169Y-5385112D01*
G01X20371773Y-5387860D01*
G01X20371773Y-5387860D01*
G01X20325634Y-5441100D01*
G01X20294111Y-5501873D01*
G01X20274420Y-5563086D01*
G01X20263777Y-5617649D01*
G01X20259398Y-5658469D01*
G01X20258499Y-5678454D01*
G01X20258492Y-5679364D01*
G01X20258492Y-5679364D01*
G01X20267210Y-5756081D01*
G01X20286720Y-5818407D01*
G01X20307062Y-5861401D01*
G01X20318270Y-5880122D01*
G01X20318551Y-5880536D01*
G01X20318551Y-5880536D01*
G01X20367129Y-5936242D01*
G01X20418359Y-5977720D01*
G01X20460214Y-6004239D01*
G01X20480665Y-6015072D01*
G01X20481148Y-6015301D01*
G01X20413765Y-6124676D01*
G01X20338570Y-6254559D01*
G01X20263375Y-6397137D01*
G01X20263375Y-6397137D01*
G01X20230382Y-6464106D01*
G01X20205981Y-6515810D01*
G01X20195164Y-6539387D01*
G01X20195015Y-6539715D01*
G01X20370797Y-6539715D01*
G01X20370797Y-6539715D01*
G01X20401786Y-6468071D01*
G01X20432360Y-6401944D01*
G01X20460072Y-6344903D01*
G01X20482476Y-6300518D01*
G01X20497124Y-6272360D01*
G01X20501656Y-6263836D01*
G01X20501656Y-6263836D01*
G01X20543250Y-6190731D01*
G01X20580578Y-6131219D01*
G01X20610781Y-6086825D01*
G01X20631000Y-6059071D01*
G01X20638375Y-6049481D01*
G01X20638375Y-6049481D01*
G01X20638375Y-6049481D01*
G01X20673531Y-6051434D01*
G01X20704781Y-6051434D01*
G01X20844429Y-6051434D01*
G01X20844429Y-6539715D01*
G01X21010445Y-6539715D01*
G37*
%LPC*%
G36*
G01X20844429Y-5915692D02*
G01X20738961Y-5915692D01*
G01X20738961Y-5915692D01*
G01X20663808Y-5912394D01*
G01X20617414Y-5907136D01*
G01X20609566Y-5905926D01*
G01X20609566Y-5905926D01*
G01X20541192Y-5884682D01*
G01X20511617Y-5868945D01*
G01X20511422Y-5868817D01*
G01X20511422Y-5868817D01*
G01X20463916Y-5820550D01*
G01X20448433Y-5794598D01*
G01X20448433Y-5794598D01*
G01X20431207Y-5731036D01*
G01X20426637Y-5679848D01*
G01X20426461Y-5671551D01*
G01X20426461Y-5671551D01*
G01X20434833Y-5595897D01*
G01X20446926Y-5556832D01*
G01X20448433Y-5553387D01*
G01X20448433Y-5553387D01*
G01X20488497Y-5496921D01*
G01X20506539Y-5480633D01*
G01X20506539Y-5480633D01*
G01X20566492Y-5450104D01*
G01X20591500Y-5442547D01*
G01X20591500Y-5442547D01*
G01X20659166Y-5432896D01*
G01X20694757Y-5431318D01*
G01X20695015Y-5431317D01*
G01X20695015Y-5431317D01*
G01X20763231Y-5431907D01*
G01X20783883Y-5432293D01*
G01X20783883Y-5432293D01*
G01X20842867Y-5437773D01*
G01X20844429Y-5438153D01*
G01X20844429Y-5915692D01*
G37*
%LPD*%
G36*
G01X20048531Y-6223309D02*
G01X20048531Y-6111981D01*
G01X20048531Y-6111981D01*
G01X20019616Y-6049435D01*
G01X19989327Y-5989911D01*
G01X19965447Y-5945401D01*
G01X19955758Y-5927899D01*
G01X19955758Y-5927899D01*
G01X19955758Y-5927899D01*
G01X19919445Y-5865567D01*
G01X19883695Y-5807172D01*
G01X19852820Y-5758411D01*
G01X19831133Y-5724977D01*
G01X19822945Y-5712567D01*
G01X19822945Y-5712567D01*
G01X19822945Y-5712567D01*
G01X19780226Y-5650289D01*
G01X19739250Y-5593183D01*
G01X19703874Y-5545469D01*
G01X19677958Y-5511366D01*
G01X19665360Y-5495094D01*
G01X19664742Y-5494305D01*
G01X19664742Y-5494305D01*
G01X19614820Y-5433184D01*
G01X19568648Y-5380219D01*
G01X19530445Y-5338528D01*
G01X19504429Y-5311227D01*
G01X19494820Y-5301434D01*
G01X19494820Y-5301434D01*
G01X19334664Y-5301434D01*
G01X19334664Y-6087567D01*
G01X19189156Y-6087567D01*
G01X19189156Y-6223309D01*
G01X19334664Y-6223309D01*
G01X19334664Y-6539715D01*
G01X19494820Y-6539715D01*
G01X19494820Y-6223309D01*
G01X20048531Y-6223309D01*
G37*
%LPC*%
G36*
G01X19888375Y-6087567D02*
G01X19494820Y-6087567D01*
G01X19494820Y-5497723D01*
G01X19494820Y-5497723D01*
G01X19542026Y-5550765D01*
G01X19580847Y-5597215D01*
G01X19602108Y-5623626D01*
G01X19603707Y-5625653D01*
G01X19603707Y-5625653D01*
G01X19648189Y-5684386D01*
G01X19684697Y-5735172D01*
G01X19706863Y-5767078D01*
G01X19710640Y-5772625D01*
G01X19710640Y-5772625D01*
G01X19751673Y-5835991D01*
G01X19784474Y-5889967D01*
G01X19804026Y-5923556D01*
G01X19807320Y-5929364D01*
G01X19807320Y-5929364D01*
G01X19843518Y-5996681D01*
G01X19871279Y-6051867D01*
G01X19886603Y-6083773D01*
G01X19888375Y-6087567D01*
G37*
%LPD*%
G36*
G01X6358724Y-17567915D02*
G01X6358724Y-17567915D01*
G01X6427298Y-17524273D01*
G01X6484370Y-17481379D01*
G01X6528919Y-17443138D01*
G01X6559923Y-17413452D01*
G01X6576363Y-17396227D01*
G01X6578826Y-17393479D01*
G01X6578826Y-17393479D01*
G01X6626934Y-17330758D01*
G01X6662056Y-17273060D01*
G01X6684915Y-17227314D01*
G01X6696235Y-17200451D01*
G01X6697805Y-17196236D01*
G01X6697805Y-17196236D01*
G01X6716909Y-17121354D01*
G01X6723950Y-17055973D01*
G01X6724263Y-17009701D01*
G01X6723181Y-16992142D01*
G01X6723181Y-16992142D01*
G01X6723181Y-16992142D01*
G01X6708790Y-16918662D01*
G01X6687375Y-16856637D01*
G01X6667930Y-16813772D01*
G01X6659450Y-16797771D01*
G01X6659450Y-16797771D01*
G01X6659450Y-16797771D01*
G01X6619316Y-16738461D01*
G01X6583061Y-16694763D01*
G01X6566690Y-16677133D01*
G01X6566673Y-16677116D01*
G01X6566673Y-16677116D01*
G01X6511714Y-16629806D01*
G01X6462062Y-16595871D01*
G01X6435243Y-16580009D01*
G01X6434147Y-16579410D01*
G01X6340516Y-16688722D01*
G01X6340516Y-16688722D01*
G01X6410919Y-16736319D01*
G01X6464367Y-16783800D01*
G01X6501613Y-16825156D01*
G01X6523409Y-16854376D01*
G01X6530507Y-16865451D01*
G01X6530507Y-16865451D01*
G01X6530507Y-16865451D01*
G01X6559702Y-16933937D01*
G01X6571392Y-16987721D01*
G01X6573546Y-17010289D01*
G01X6573547Y-17010311D01*
G01X6573547Y-17010311D01*
G01X6565899Y-17082521D01*
G01X6549802Y-17137169D01*
G01X6541678Y-17157261D01*
G01X6541678Y-17157261D01*
G01X6506270Y-17217948D01*
G01X6468795Y-17266733D01*
G01X6443917Y-17294572D01*
G01X6440738Y-17297857D01*
G01X6440738Y-17297857D01*
G01X6386515Y-17345786D01*
G01X6332596Y-17385453D01*
G01X6291249Y-17412470D01*
G01X6274740Y-17422450D01*
G01X6274740Y-17422450D01*
G01X6274740Y-17422450D01*
G01X6201726Y-17460362D01*
G01X6139458Y-17486659D01*
G01X6093759Y-17502587D01*
G01X6070454Y-17509395D01*
G01X6068665Y-17509854D01*
G01X6068665Y-17509854D01*
G01X5991685Y-17522780D01*
G01X5932389Y-17525097D01*
G01X5899555Y-17523289D01*
G01X5895751Y-17522858D01*
G01X5895751Y-17522858D01*
G01X5824551Y-17503880D01*
G01X5775740Y-17480126D01*
G01X5758880Y-17469383D01*
G01X5758880Y-17469383D01*
G01X5706193Y-17420572D01*
G01X5671956Y-17376446D01*
G01X5660575Y-17358685D01*
G01X5660575Y-17358685D01*
G01X5630767Y-17295962D01*
G01X5614675Y-17251500D01*
G01X5612893Y-17245824D01*
G01X5612893Y-17245824D01*
G01X5598865Y-17178106D01*
G01X5593591Y-17123217D01*
G01X5592823Y-17104616D01*
G01X5452448Y-17134918D01*
G01X5452448Y-17134918D01*
G01X5458292Y-17209142D01*
G01X5468981Y-17266727D01*
G01X5475638Y-17293065D01*
G01X5475745Y-17293432D01*
G01X5475745Y-17293432D01*
G01X5500543Y-17361406D01*
G01X5526525Y-17417035D01*
G01X5542675Y-17447408D01*
G01X5543970Y-17449688D01*
G01X5543970Y-17449688D01*
G01X5588402Y-17514439D01*
G01X5632356Y-17563715D01*
G01X5665966Y-17595073D01*
G01X5679361Y-17606068D01*
G01X5679361Y-17606068D01*
G01X5679361Y-17606068D01*
G01X5741742Y-17644230D01*
G01X5800770Y-17668893D01*
G01X5844757Y-17682154D01*
G01X5862017Y-17686108D01*
G01X5862017Y-17686108D01*
G01X5862017Y-17686108D01*
G01X5931362Y-17692840D01*
G01X5997872Y-17690792D01*
G01X6052087Y-17684670D01*
G01X6084549Y-17679177D01*
G01X6089703Y-17678129D01*
G01X6089703Y-17678129D01*
G01X6158191Y-17658824D01*
G01X6224601Y-17633527D01*
G01X6283255Y-17607098D01*
G01X6328472Y-17584392D01*
G01X6354574Y-17570267D01*
G01X6358724Y-17567915D01*
G37*
G36*
G01X5858302Y-16702134D02*
G01X5858302Y-16702134D01*
G01X5941088Y-16650184D01*
G01X6011577Y-16598341D01*
G01X6070471Y-16548173D01*
G01X6118470Y-16501247D01*
G01X6156279Y-16459129D01*
G01X6184598Y-16423386D01*
G01X6204129Y-16395585D01*
G01X6215575Y-16377294D01*
G01X6219637Y-16370078D01*
G01X6219664Y-16370025D01*
G01X6219664Y-16370025D01*
G01X6247659Y-16296961D01*
G01X6258207Y-16227457D01*
G01X6256009Y-16164155D01*
G01X6245765Y-16109699D01*
G01X6232176Y-16066729D01*
G01X6219942Y-16037890D01*
G01X6213763Y-16025823D01*
G01X6213649Y-16025622D01*
G01X6213649Y-16025622D01*
G01X6167396Y-15963314D01*
G01X6114337Y-15917498D01*
G01X6059364Y-15885649D01*
G01X6007367Y-15865238D01*
G01X5963238Y-15853740D01*
G01X5931865Y-15848629D01*
G01X5918141Y-15847376D01*
G01X5917907Y-15847365D01*
G01X5917907Y-15847365D01*
G01X5850520Y-15850174D01*
G01X5780599Y-15862352D01*
G01X5710882Y-15881340D01*
G01X5644107Y-15904581D01*
G01X5583011Y-15929517D01*
G01X5530333Y-15953591D01*
G01X5488810Y-15974244D01*
G01X5461179Y-15988920D01*
G01X5450179Y-15995059D01*
G01X5450098Y-15995106D01*
G01X5450098Y-15995106D01*
G01X5367296Y-16047027D01*
G01X5296762Y-16098794D01*
G01X5237805Y-16148851D01*
G01X5189729Y-16195646D01*
G01X5151841Y-16237625D01*
G01X5123445Y-16273235D01*
G01X5103849Y-16300922D01*
G01X5092357Y-16319134D01*
G01X5088275Y-16326317D01*
G01X5088247Y-16326369D01*
G01X5088247Y-16326369D01*
G01X5060128Y-16399216D01*
G01X5049586Y-16468731D01*
G01X5051882Y-16532203D01*
G01X5062276Y-16586919D01*
G01X5076026Y-16630168D01*
G01X5088393Y-16659237D01*
G01X5094636Y-16671415D01*
G01X5094751Y-16671618D01*
G01X5094751Y-16671618D01*
G01X5140675Y-16733355D01*
G01X5193544Y-16778843D01*
G01X5248436Y-16810552D01*
G01X5300427Y-16830953D01*
G01X5344595Y-16842517D01*
G01X5376017Y-16847714D01*
G01X5389770Y-16849017D01*
G01X5390005Y-16849029D01*
G01X5390005Y-16849029D01*
G01X5457536Y-16846469D01*
G01X5527569Y-16834487D01*
G01X5597371Y-16815645D01*
G01X5664207Y-16792510D01*
G01X5725344Y-16767645D01*
G01X5778048Y-16743616D01*
G01X5819584Y-16722985D01*
G01X5847220Y-16708319D01*
G01X5858221Y-16702181D01*
G01X5858302Y-16702134D01*
G37*
%LPC*%
G36*
G01X5774317Y-16556669D02*
G01X5774317Y-16556669D01*
G01X5707543Y-16592858D01*
G01X5650793Y-16620515D01*
G01X5612625Y-16637673D01*
G01X5601182Y-16642533D01*
G01X5601182Y-16642533D01*
G01X5527643Y-16668176D01*
G01X5471896Y-16682112D01*
G01X5444780Y-16687054D01*
G01X5443732Y-16687204D01*
G01X5443732Y-16687204D01*
G01X5369724Y-16688311D01*
G01X5322783Y-16680034D01*
G01X5313414Y-16677306D01*
G01X5313414Y-16677306D01*
G01X5255099Y-16639934D01*
G01X5224870Y-16603555D01*
G01X5221610Y-16598376D01*
G01X5221610Y-16598376D01*
G01X5198747Y-16529431D01*
G01X5198353Y-16484864D01*
G01X5199156Y-16479406D01*
G01X5199156Y-16479406D01*
G01X5222598Y-16415109D01*
G01X5249070Y-16370849D01*
G01X5255744Y-16361599D01*
G01X5255744Y-16361599D01*
G01X5302462Y-16309822D01*
G01X5347227Y-16268870D01*
G01X5372123Y-16248382D01*
G01X5373155Y-16247578D01*
G01X5373155Y-16247578D01*
G01X5431122Y-16205727D01*
G01X5484520Y-16170745D01*
G01X5522360Y-16147489D01*
G01X5534083Y-16140571D01*
G01X5534083Y-16140571D01*
G01X5600928Y-16104341D01*
G01X5657831Y-16076595D01*
G01X5696145Y-16059353D01*
G01X5707641Y-16054463D01*
G01X5707641Y-16054463D01*
G01X5781464Y-16028656D01*
G01X5837326Y-16014653D01*
G01X5864466Y-16009698D01*
G01X5865514Y-16009548D01*
G01X5865514Y-16009548D01*
G01X5939522Y-16008440D01*
G01X5986463Y-16016717D01*
G01X5995832Y-16019445D01*
G01X5995832Y-16019445D01*
G01X6054147Y-16056817D01*
G01X6084376Y-16093197D01*
G01X6087636Y-16098376D01*
G01X6087636Y-16098376D01*
G01X6110499Y-16167321D01*
G01X6110893Y-16211888D01*
G01X6110090Y-16217345D01*
G01X6110090Y-16217345D01*
G01X6086648Y-16281643D01*
G01X6060176Y-16325902D01*
G01X6053502Y-16335153D01*
G01X6053502Y-16335153D01*
G01X6006687Y-16386985D01*
G01X5961733Y-16428046D01*
G01X5936706Y-16448610D01*
G01X5935668Y-16449418D01*
G01X5935668Y-16449418D01*
G01X5877449Y-16491414D01*
G01X5823927Y-16526468D01*
G01X5786045Y-16549748D01*
G01X5774317Y-16556669D01*
G37*
%LPD*%
G36*
G01X5729804Y-16434648D02*
G01X5729804Y-16434648D01*
G01X5779287Y-16386915D01*
G01X5793612Y-16360597D01*
G01X5793612Y-16360597D01*
G01X5796144Y-16293218D01*
G01X5786295Y-16267844D01*
G01X5786295Y-16267844D01*
G01X5735655Y-16224967D01*
G01X5711093Y-16217669D01*
G01X5711093Y-16217669D01*
G01X5643409Y-16224907D01*
G01X5615546Y-16236748D01*
G01X5615546Y-16236748D01*
G01X5566104Y-16284417D01*
G01X5552941Y-16308977D01*
G01X5552941Y-16308977D01*
G01X5551477Y-16375672D01*
G01X5560485Y-16398215D01*
G01X5560485Y-16398215D01*
G01X5610433Y-16443217D01*
G01X5635461Y-16451905D01*
G01X5635461Y-16451905D01*
G01X5703108Y-16445946D01*
G01X5729804Y-16434648D01*
G37*
G36*
G01X14407277Y-12411992D02*
G01X14407277Y-11192266D01*
G01X14407277Y-11192266D01*
G01X14346473Y-11179491D01*
G01X14338429Y-11178106D01*
G01X14338429Y-11178106D01*
G01X14273483Y-11170056D01*
G01X14258840Y-11168828D01*
G01X14258840Y-11168828D01*
G01X14192986Y-11164738D01*
G01X14177785Y-11163945D01*
G01X14177785Y-11163945D01*
G01X14113561Y-11162045D01*
G01X14105519Y-11161992D01*
G01X14105519Y-11161992D01*
G01X14012343Y-11167955D01*
G01X13934124Y-11183191D01*
G01X13870921Y-11203728D01*
G01X13822793Y-11225590D01*
G01X13789800Y-11244802D01*
G01X13772001Y-11257389D01*
G01X13768605Y-11260137D01*
G01X13768605Y-11260137D01*
G01X13722466Y-11313377D01*
G01X13690943Y-11374150D01*
G01X13671252Y-11435363D01*
G01X13660609Y-11489926D01*
G01X13656230Y-11530746D01*
G01X13655331Y-11550731D01*
G01X13655324Y-11551641D01*
G01X13655324Y-11551641D01*
G01X13664042Y-11628358D01*
G01X13683552Y-11690684D01*
G01X13703894Y-11733678D01*
G01X13715102Y-11752399D01*
G01X13715383Y-11752813D01*
G01X13715383Y-11752813D01*
G01X13763961Y-11808519D01*
G01X13815191Y-11849997D01*
G01X13857046Y-11876516D01*
G01X13877497Y-11887349D01*
G01X13877980Y-11887578D01*
G01X13810597Y-11996953D01*
G01X13735402Y-12126836D01*
G01X13660207Y-12269414D01*
G01X13660207Y-12269414D01*
G01X13627214Y-12336383D01*
G01X13602813Y-12388087D01*
G01X13591996Y-12411664D01*
G01X13591847Y-12411992D01*
G01X13767629Y-12411992D01*
G01X13767629Y-12411992D01*
G01X13798618Y-12340348D01*
G01X13829192Y-12274221D01*
G01X13856904Y-12217180D01*
G01X13879308Y-12172795D01*
G01X13893956Y-12144637D01*
G01X13898488Y-12136113D01*
G01X13898488Y-12136113D01*
G01X13940082Y-12063008D01*
G01X13977410Y-12003496D01*
G01X14007613Y-11959102D01*
G01X14027832Y-11931348D01*
G01X14035207Y-11921758D01*
G01X14035207Y-11921758D01*
G01X14035207Y-11921758D01*
G01X14070363Y-11923711D01*
G01X14101613Y-11923711D01*
G01X14241261Y-11923711D01*
G01X14241261Y-12411992D01*
G01X14407277Y-12411992D01*
G37*
%LPC*%
G36*
G01X14241261Y-11787969D02*
G01X14135793Y-11787969D01*
G01X14135793Y-11787969D01*
G01X14060640Y-11784671D01*
G01X14014246Y-11779413D01*
G01X14006398Y-11778203D01*
G01X14006398Y-11778203D01*
G01X13938024Y-11756959D01*
G01X13908449Y-11741222D01*
G01X13908254Y-11741094D01*
G01X13908254Y-11741094D01*
G01X13860748Y-11692827D01*
G01X13845265Y-11666875D01*
G01X13845265Y-11666875D01*
G01X13828039Y-11603313D01*
G01X13823469Y-11552125D01*
G01X13823293Y-11543828D01*
G01X13823293Y-11543828D01*
G01X13831665Y-11468174D01*
G01X13843758Y-11429109D01*
G01X13845265Y-11425664D01*
G01X13845265Y-11425664D01*
G01X13885329Y-11369198D01*
G01X13903371Y-11352910D01*
G01X13903371Y-11352910D01*
G01X13963324Y-11322381D01*
G01X13988332Y-11314824D01*
G01X13988332Y-11314824D01*
G01X14055998Y-11305173D01*
G01X14091589Y-11303595D01*
G01X14091847Y-11303594D01*
G01X14091847Y-11303594D01*
G01X14160063Y-11304184D01*
G01X14180715Y-11304570D01*
G01X14180715Y-11304570D01*
G01X14239699Y-11310050D01*
G01X14241261Y-11310430D01*
G01X14241261Y-11787969D01*
G37*
%LPD*%
G36*
G01X13367238Y-11429570D02*
G01X13367238Y-11429570D01*
G01X13299117Y-11399675D01*
G01X13239331Y-11369188D01*
G01X13194510Y-11344025D01*
G01X13171285Y-11330105D01*
G01X13169484Y-11328984D01*
G01X13169484Y-11328984D01*
G01X13108777Y-11285433D01*
G01X13056517Y-11240192D01*
G01X13017042Y-11201496D01*
G01X12994688Y-11177580D01*
G01X12991261Y-11173711D01*
G01X12876027Y-11173711D01*
G01X12876027Y-12272344D01*
G01X12641652Y-12272344D01*
G01X12641652Y-12411992D01*
G01X13307668Y-12411992D01*
G01X13307668Y-12272344D01*
G01X13040090Y-12272344D01*
G01X13040090Y-11404180D01*
G01X13040090Y-11404180D01*
G01X13088155Y-11441121D01*
G01X13093312Y-11444707D01*
G01X13093312Y-11444707D01*
G01X13148439Y-11478828D01*
G01X13160695Y-11485723D01*
G01X13160695Y-11485723D01*
G01X13220159Y-11515808D01*
G01X13237355Y-11523809D01*
G01X13237355Y-11523809D01*
G01X13299511Y-11548313D01*
G01X13315480Y-11553594D01*
G37*
G36*
G01X13457832Y-19983646D02*
G01X14677559Y-19983646D01*
G01X14677559Y-19983646D01*
G01X14690333Y-19922842D01*
G01X14691719Y-19914799D01*
G01X14691719Y-19914799D01*
G01X14699768Y-19849853D01*
G01X14700996Y-19835209D01*
G01X14700996Y-19835209D01*
G01X14705086Y-19769356D01*
G01X14705879Y-19754154D01*
G01X14705879Y-19754154D01*
G01X14707779Y-19689930D01*
G01X14707832Y-19681888D01*
G01X14707832Y-19681888D01*
G01X14701870Y-19588712D01*
G01X14686633Y-19510493D01*
G01X14666096Y-19447290D01*
G01X14644234Y-19399162D01*
G01X14625023Y-19366169D01*
G01X14612436Y-19348370D01*
G01X14609688Y-19344974D01*
G01X14609688Y-19344974D01*
G01X14556448Y-19298835D01*
G01X14495675Y-19267312D01*
G01X14434461Y-19247621D01*
G01X14379898Y-19236978D01*
G01X14339078Y-19232599D01*
G01X14319093Y-19231700D01*
G01X14318184Y-19231693D01*
G01X14318184Y-19231693D01*
G01X14241467Y-19240411D01*
G01X14179140Y-19259922D01*
G01X14136146Y-19280263D01*
G01X14117425Y-19291471D01*
G01X14117012Y-19291752D01*
G01X14117012Y-19291752D01*
G01X14061305Y-19340330D01*
G01X14019828Y-19391561D01*
G01X13993308Y-19433416D01*
G01X13982475Y-19453866D01*
G01X13982246Y-19454349D01*
G01X13872871Y-19386967D01*
G01X13742988Y-19311771D01*
G01X13600410Y-19236576D01*
G01X13600410Y-19236576D01*
G01X13533442Y-19203583D01*
G01X13481737Y-19179182D01*
G01X13458161Y-19168365D01*
G01X13457832Y-19168217D01*
G01X13457832Y-19343998D01*
G01X13457832Y-19343998D01*
G01X13529476Y-19374987D01*
G01X13595604Y-19405561D01*
G01X13652644Y-19433273D01*
G01X13697029Y-19455677D01*
G01X13725188Y-19470325D01*
G01X13733711Y-19474857D01*
G01X13733711Y-19474857D01*
G01X13806816Y-19516451D01*
G01X13866328Y-19553779D01*
G01X13910723Y-19583982D01*
G01X13938477Y-19604201D01*
G01X13948066Y-19611576D01*
G01X13948066Y-19611576D01*
G01X13948066Y-19611576D01*
G01X13946113Y-19646732D01*
G01X13946113Y-19677982D01*
G01X13946113Y-19817631D01*
G01X13457832Y-19817631D01*
G01X13457832Y-19983646D01*
G37*
%LPC*%
G36*
G01X14081856Y-19817631D02*
G01X14081856Y-19712162D01*
G01X14081856Y-19712162D01*
G01X14085153Y-19637009D01*
G01X14090411Y-19590615D01*
G01X14091621Y-19582767D01*
G01X14091621Y-19582767D01*
G01X14112866Y-19514393D01*
G01X14128602Y-19484818D01*
G01X14128731Y-19484623D01*
G01X14128731Y-19484623D01*
G01X14176998Y-19437117D01*
G01X14202949Y-19421635D01*
G01X14202949Y-19421635D01*
G01X14266512Y-19404408D01*
G01X14317699Y-19399838D01*
G01X14325996Y-19399662D01*
G01X14325996Y-19399662D01*
G01X14401650Y-19408034D01*
G01X14440715Y-19420127D01*
G01X14444160Y-19421635D01*
G01X14444160Y-19421635D01*
G01X14500627Y-19461698D01*
G01X14516914Y-19479740D01*
G01X14516914Y-19479740D01*
G01X14547443Y-19539693D01*
G01X14555000Y-19564701D01*
G01X14555000Y-19564701D01*
G01X14564651Y-19632367D01*
G01X14566230Y-19667958D01*
G01X14566231Y-19668217D01*
G01X14566231Y-19668217D01*
G01X14565640Y-19736432D01*
G01X14565254Y-19757084D01*
G01X14565254Y-19757084D01*
G01X14559775Y-19816068D01*
G01X14559395Y-19817631D01*
G01X14081856Y-19817631D01*
G37*
%LPD*%
G36*
G01X14575996Y-18979740D02*
G01X14575996Y-18979740D01*
G01X14616185Y-18936409D01*
G01X14619941Y-18931888D01*
G01X14619941Y-18931888D01*
G01X14657096Y-18876780D01*
G01X14669258Y-18854740D01*
G01X14669258Y-18854740D01*
G01X14695901Y-18790954D01*
G01X14707665Y-18754258D01*
G01X14707832Y-18753666D01*
G01X14707832Y-18753666D01*
G01X14720408Y-18684283D01*
G01X14723393Y-18638622D01*
G01X14723457Y-18634037D01*
G01X14723457Y-18634037D01*
G01X14716626Y-18543688D01*
G01X14699624Y-18470691D01*
G01X14677691Y-18414786D01*
G01X14656066Y-18375716D01*
G01X14639989Y-18353219D01*
G01X14634590Y-18346928D01*
G01X14634590Y-18346928D01*
G01X14577248Y-18303458D01*
G01X14513204Y-18276265D01*
G01X14452463Y-18261530D01*
G01X14405033Y-18255437D01*
G01X14380922Y-18254166D01*
G01X14379707Y-18254154D01*
G01X14379707Y-18254154D01*
G01X14308207Y-18262920D01*
G01X14262395Y-18276467D01*
G01X14255684Y-18279056D01*
G01X14255684Y-18279056D01*
G01X14191516Y-18311291D01*
G01X14147266Y-18338677D01*
G01X14138008Y-18344974D01*
G01X14138008Y-18344974D01*
G01X14080176Y-18389309D01*
G01X14037831Y-18425461D01*
G01X14024238Y-18437748D01*
G01X13913887Y-18544193D01*
G01X13841621Y-18613529D01*
G01X13841621Y-18613529D01*
G01X13788967Y-18661367D01*
G01X13757503Y-18688196D01*
G01X13755684Y-18689701D01*
G01X13755684Y-18689701D01*
G01X13698180Y-18731999D01*
G01X13669945Y-18749645D01*
G01X13669746Y-18749760D01*
G01X13669746Y-18749760D01*
G01X13607250Y-18772745D01*
G01X13597481Y-18773685D01*
G01X13597481Y-18204349D01*
G01X13457832Y-18204349D01*
G01X13457832Y-18954349D01*
G01X13457832Y-18954349D01*
G01X13479316Y-18956303D01*
G01X13499824Y-18956303D01*
G01X13499824Y-18956303D01*
G01X13574747Y-18949459D01*
G01X13630458Y-18936351D01*
G01X13655245Y-18928115D01*
G01X13655586Y-18927982D01*
G01X13655586Y-18927982D01*
G01X13722200Y-18896981D01*
G01X13771710Y-18868615D01*
G01X13791797Y-18855730D01*
G01X13791816Y-18855717D01*
G01X13791816Y-18855717D01*
G01X13849692Y-18812373D01*
G01X13893166Y-18775294D01*
G01X13912641Y-18757342D01*
G01X13912910Y-18757084D01*
G01X14024238Y-18647709D01*
G01X14110176Y-18562748D01*
G01X14110176Y-18562748D01*
G01X14164038Y-18514652D01*
G01X14193376Y-18491551D01*
G01X14194160Y-18490970D01*
G01X14194160Y-18490970D01*
G01X14253364Y-18454533D01*
G01X14281074Y-18441166D01*
G01X14281074Y-18441166D01*
G01X14281074Y-18441166D01*
G01X14347409Y-18424100D01*
G01X14373848Y-18422123D01*
G01X14373848Y-18422123D01*
G01X14443654Y-18431691D01*
G01X14465645Y-18439213D01*
G01X14465645Y-18439213D01*
G01X14519498Y-18475801D01*
G01X14528633Y-18485111D01*
G01X14528633Y-18485111D01*
G01X14561235Y-18540040D01*
G01X14565742Y-18552006D01*
G01X14565742Y-18552006D01*
G01X14577225Y-18616939D01*
G01X14577949Y-18634037D01*
G01X14577949Y-18634037D01*
G01X14570233Y-18703837D01*
G01X14563789Y-18728763D01*
G01X14563789Y-18728763D01*
G01X14537563Y-18790498D01*
G01X14529609Y-18804935D01*
G01X14529609Y-18804935D01*
G01X14494356Y-18857120D01*
G01X14490547Y-18862064D01*
G01X14490547Y-18862064D01*
G01X14459785Y-18897709D01*
G37*
G36*
G01X4677573Y-11674709D02*
G01X4677573Y-10454983D01*
G01X4677573Y-10454983D01*
G01X4616769Y-10442208D01*
G01X4608725Y-10440823D01*
G01X4608725Y-10440823D01*
G01X4543779Y-10432773D01*
G01X4529136Y-10431545D01*
G01X4529136Y-10431545D01*
G01X4463282Y-10427455D01*
G01X4448081Y-10426662D01*
G01X4448081Y-10426662D01*
G01X4383857Y-10424762D01*
G01X4375815Y-10424709D01*
G01X4375815Y-10424709D01*
G01X4282639Y-10430672D01*
G01X4204420Y-10445908D01*
G01X4141217Y-10466445D01*
G01X4093089Y-10488307D01*
G01X4060096Y-10507519D01*
G01X4042297Y-10520106D01*
G01X4038901Y-10522854D01*
G01X4038901Y-10522854D01*
G01X3992762Y-10576094D01*
G01X3961239Y-10636867D01*
G01X3941548Y-10698080D01*
G01X3930905Y-10752643D01*
G01X3926526Y-10793463D01*
G01X3925627Y-10813448D01*
G01X3925620Y-10814358D01*
G01X3925620Y-10814358D01*
G01X3934338Y-10891075D01*
G01X3953848Y-10953401D01*
G01X3974190Y-10996395D01*
G01X3985398Y-11015116D01*
G01X3985679Y-11015530D01*
G01X3985679Y-11015530D01*
G01X4034257Y-11071236D01*
G01X4085487Y-11112714D01*
G01X4127343Y-11139233D01*
G01X4147793Y-11150066D01*
G01X4148276Y-11150295D01*
G01X4080893Y-11259670D01*
G01X4005698Y-11389553D01*
G01X3930503Y-11532131D01*
G01X3930503Y-11532131D01*
G01X3897510Y-11599100D01*
G01X3873109Y-11650804D01*
G01X3862292Y-11674381D01*
G01X3862143Y-11674709D01*
G01X4037925Y-11674709D01*
G01X4037925Y-11674709D01*
G01X4068914Y-11603065D01*
G01X4099488Y-11536938D01*
G01X4127200Y-11479897D01*
G01X4149604Y-11435512D01*
G01X4164252Y-11407354D01*
G01X4168784Y-11398830D01*
G01X4168784Y-11398830D01*
G01X4210378Y-11325725D01*
G01X4247706Y-11266213D01*
G01X4277909Y-11221819D01*
G01X4298128Y-11194065D01*
G01X4305503Y-11184475D01*
G01X4305503Y-11184475D01*
G01X4305503Y-11184475D01*
G01X4340659Y-11186428D01*
G01X4371909Y-11186428D01*
G01X4511557Y-11186428D01*
G01X4511557Y-11674709D01*
G01X4677573Y-11674709D01*
G37*
%LPC*%
G36*
G01X4511557Y-11050686D02*
G01X4406089Y-11050686D01*
G01X4406089Y-11050686D01*
G01X4330936Y-11047388D01*
G01X4284542Y-11042130D01*
G01X4276694Y-11040920D01*
G01X4276694Y-11040920D01*
G01X4208320Y-11019676D01*
G01X4178745Y-11003939D01*
G01X4178550Y-11003811D01*
G01X4178550Y-11003811D01*
G01X4131044Y-10955544D01*
G01X4115561Y-10929592D01*
G01X4115561Y-10929592D01*
G01X4098335Y-10866030D01*
G01X4093764Y-10814842D01*
G01X4093589Y-10806545D01*
G01X4093589Y-10806545D01*
G01X4101961Y-10730891D01*
G01X4114054Y-10691826D01*
G01X4115561Y-10688381D01*
G01X4115561Y-10688381D01*
G01X4155625Y-10631915D01*
G01X4173667Y-10615627D01*
G01X4173667Y-10615627D01*
G01X4233620Y-10585098D01*
G01X4258628Y-10577541D01*
G01X4258628Y-10577541D01*
G01X4326294Y-10567890D01*
G01X4361885Y-10566312D01*
G01X4362143Y-10566311D01*
G01X4362143Y-10566311D01*
G01X4430359Y-10566901D01*
G01X4451011Y-10567287D01*
G01X4451011Y-10567287D01*
G01X4509995Y-10572767D01*
G01X4511557Y-10573147D01*
G01X4511557Y-11050686D01*
G37*
%LPD*%
G36*
G01X3669761Y-11636623D02*
G01X3637534Y-11495022D01*
G01X3637534Y-11495022D01*
G01X3579650Y-11517857D01*
G01X3536769Y-11532212D01*
G01X3535483Y-11532619D01*
G01X3535483Y-11532619D01*
G01X3469980Y-11546728D01*
G01X3407967Y-11552964D01*
G01X3368953Y-11554544D01*
G01X3364097Y-11554592D01*
G01X3364097Y-11554592D01*
G01X3272681Y-11546788D01*
G01X3206221Y-11528740D01*
G01X3163157Y-11508497D01*
G01X3141931Y-11494107D01*
G01X3138999Y-11491604D01*
G01X3138999Y-11491604D01*
G01X3098127Y-11434205D01*
G01X3078616Y-11375698D01*
G01X3072563Y-11333554D01*
G01X3072104Y-11323147D01*
G01X3072104Y-11323147D01*
G01X3083117Y-11249286D01*
G01X3098453Y-11211523D01*
G01X3099936Y-11208889D01*
G01X3099936Y-11208889D01*
G01X3145428Y-11156133D01*
G01X3173451Y-11134805D01*
G01X3173667Y-11134670D01*
G01X3173667Y-11134670D01*
G01X3236155Y-11106514D01*
G01X3277158Y-11095146D01*
G01X3279624Y-11094631D01*
G01X3279624Y-11094631D01*
G01X3350085Y-11085444D01*
G01X3398702Y-11083006D01*
G01X3406089Y-11082912D01*
G01X3448081Y-11082912D01*
G01X3448081Y-10949123D01*
G01X3389487Y-10949123D01*
G01X3389487Y-10949123D01*
G01X3322605Y-10943791D01*
G01X3298667Y-10939846D01*
G01X3298667Y-10939846D01*
G01X3233612Y-10918224D01*
G01X3212729Y-10907619D01*
G01X3212729Y-10907619D01*
G01X3162888Y-10863019D01*
G01X3149741Y-10844631D01*
G01X3149741Y-10844631D01*
G01X3129179Y-10781305D01*
G01X3125817Y-10743359D01*
G01X3125815Y-10743069D01*
G01X3125815Y-10743069D01*
G01X3140222Y-10664931D01*
G01X3168430Y-10617679D01*
G01X3187921Y-10598693D01*
G01X3188804Y-10598049D01*
G01X3188804Y-10598049D01*
G01X3254249Y-10567662D01*
G01X3310777Y-10556300D01*
G01X3335751Y-10554592D01*
G01X3335776Y-10554592D01*
G01X3335776Y-10554592D01*
G01X3413114Y-10561271D01*
G01X3464442Y-10573476D01*
G01X3481772Y-10579494D01*
G01X3481772Y-10579494D01*
G01X3548865Y-10611466D01*
G01X3580689Y-10630001D01*
G01X3581870Y-10630764D01*
G01X3646323Y-10504787D01*
G01X3646323Y-10504787D01*
G01X3590234Y-10472783D01*
G01X3536544Y-10448722D01*
G01X3519370Y-10441799D01*
G01X3519370Y-10441799D01*
G01X3451319Y-10422341D01*
G01X3388426Y-10412702D01*
G01X3343769Y-10409433D01*
G01X3329917Y-10409084D01*
G01X3329917Y-10409084D01*
G01X3250569Y-10414252D01*
G01X3192948Y-10424588D01*
G01X3164015Y-10432340D01*
G01X3161948Y-10433010D01*
G01X3161948Y-10433010D01*
G01X3093863Y-10465448D01*
G01X3054206Y-10494172D01*
G01X3046714Y-10500881D01*
G01X3046714Y-10500881D01*
G01X3002966Y-10557452D01*
G01X2981961Y-10598599D01*
G01X2979819Y-10603908D01*
G01X2979819Y-10603908D01*
G01X2962834Y-10672992D01*
G01X2958081Y-10723106D01*
G01X2957847Y-10732326D01*
G01X2957847Y-10732326D01*
G01X2968281Y-10808943D01*
G01X2989581Y-10865060D01*
G01X3006742Y-10894962D01*
G01X3009116Y-10898342D01*
G01X3009116Y-10898342D01*
G01X3059886Y-10951059D01*
G01X3108362Y-10985741D01*
G01X3137221Y-11001754D01*
G01X3139487Y-11002834D01*
G01X3139487Y-11002834D01*
G01X3073249Y-11031795D01*
G01X3020835Y-11067898D01*
G01X2986365Y-11098690D01*
G01X2973960Y-11111721D01*
G01X2973960Y-11111721D01*
G01X2973960Y-11111721D01*
G01X2937271Y-11170752D01*
G01X2916398Y-11233451D01*
G01X2906880Y-11287743D01*
G01X2904256Y-11321558D01*
G01X2904136Y-11327053D01*
G01X2904136Y-11327053D01*
G01X2910979Y-11400591D01*
G01X2923789Y-11454367D01*
G01X2930983Y-11475958D01*
G01X2930991Y-11475979D01*
G01X2930991Y-11475979D01*
G01X2966017Y-11539952D01*
G01X3000379Y-11582014D01*
G01X3013022Y-11594631D01*
G01X3013022Y-11594631D01*
G01X3069951Y-11634552D01*
G01X3123972Y-11660863D01*
G01X3153875Y-11672342D01*
G01X3155112Y-11672756D01*
G01X3155112Y-11672756D01*
G01X3221308Y-11688645D01*
G01X3286262Y-11697094D01*
G01X3337258Y-11700455D01*
G01X3361577Y-11701075D01*
G01X3362143Y-11701076D01*
G01X3362143Y-11701076D01*
G01X3429885Y-11697085D01*
G01X3456870Y-11693752D01*
G01X3456870Y-11693752D01*
G01X3524456Y-11681127D01*
G01X3547690Y-11675686D01*
G01X3547690Y-11675686D01*
G01X3611115Y-11657533D01*
G01X3622886Y-11653713D01*
G01X3622886Y-11653713D01*
G01X3669761Y-11636623D01*
G37*
G36*
G01X13105615Y-16097202D02*
G01X13105615Y-16097202D01*
G01X13102107Y-16015995D01*
G01X13093495Y-15945122D01*
G01X13082652Y-15887421D01*
G01X13072446Y-15845728D01*
G01X13065748Y-15822878D01*
G01X13064599Y-15819370D01*
G01X13064599Y-15819370D01*
G01X13034336Y-15746347D01*
G01X13001928Y-15687082D01*
G01X12973741Y-15644412D01*
G01X12956137Y-15621177D01*
G01X12953271Y-15617710D01*
G01X12953271Y-15617710D01*
G01X12897973Y-15563724D01*
G01X12844873Y-15524937D01*
G01X12804956Y-15501530D01*
G01X12789209Y-15493687D01*
G01X12789209Y-15493687D01*
G01X12789209Y-15493687D01*
G01X12718378Y-15469410D01*
G01X12653955Y-15456943D01*
G01X12607110Y-15452351D01*
G01X12589014Y-15451694D01*
G01X12589014Y-15451694D01*
G01X12589014Y-15451694D01*
G01X12517582Y-15456796D01*
G01X12461611Y-15466345D01*
G01X12438158Y-15471708D01*
G01X12438135Y-15471714D01*
G01X12438135Y-15471714D01*
G01X12369683Y-15495655D01*
G01X12315469Y-15521687D01*
G01X12288322Y-15536982D01*
G01X12287256Y-15537632D01*
G01X12335107Y-15673374D01*
G01X12335107Y-15673374D01*
G01X12411529Y-15636202D01*
G01X12479373Y-15613655D01*
G01X12533810Y-15602077D01*
G01X12570014Y-15597812D01*
G01X12583154Y-15597202D01*
G01X12583154Y-15597202D01*
G01X12583154Y-15597202D01*
G01X12657062Y-15606161D01*
G01X12709486Y-15622930D01*
G01X12730107Y-15632348D01*
G01X12730127Y-15632359D01*
G01X12730127Y-15632359D01*
G01X12788838Y-15675086D01*
G01X12828117Y-15716351D01*
G01X12841455Y-15733433D01*
G01X12841455Y-15733433D01*
G01X12876308Y-15794441D01*
G01X12899819Y-15851287D01*
G01X12911489Y-15886752D01*
G01X12912744Y-15891148D01*
G01X12912744Y-15891148D01*
G01X12927141Y-15962070D01*
G01X12934534Y-16028599D01*
G01X12937257Y-16077915D01*
G01X12937646Y-16097202D01*
G01X12937646Y-16097202D01*
G01X12937646Y-16097202D01*
G01X12933972Y-16179390D01*
G01X12925612Y-16246465D01*
G01X12916557Y-16294005D01*
G01X12910800Y-16317592D01*
G01X12910303Y-16319370D01*
G01X12910303Y-16319370D01*
G01X12883007Y-16392500D01*
G01X12855366Y-16445010D01*
G01X12837383Y-16472542D01*
G01X12835107Y-16475620D01*
G01X12835107Y-16475620D01*
G01X12783072Y-16527792D01*
G01X12738095Y-16558187D01*
G01X12720361Y-16567417D01*
G01X12720361Y-16567417D01*
G01X12651746Y-16588639D01*
G01X12596414Y-16596226D01*
G01X12575342Y-16597202D01*
G01X12575342Y-16597202D01*
G01X12506117Y-16591655D01*
G01X12459567Y-16583360D01*
G01X12453760Y-16582066D01*
G01X12453760Y-16582066D01*
G01X12388101Y-16560355D01*
G01X12337928Y-16537478D01*
G01X12321435Y-16528843D01*
G01X12277490Y-16665562D01*
G01X12277490Y-16665562D01*
G01X12344692Y-16697613D01*
G01X12399906Y-16717149D01*
G01X12426044Y-16724552D01*
G01X12426416Y-16724644D01*
G01X12426416Y-16724644D01*
G01X12497682Y-16737155D01*
G01X12558849Y-16742468D01*
G01X12593228Y-16743668D01*
G01X12595849Y-16743687D01*
G01X12595849Y-16743687D01*
G01X12674142Y-16737583D01*
G01X12738794Y-16724155D01*
G01X12782754Y-16710728D01*
G01X12798974Y-16704624D01*
G01X12798974Y-16704624D01*
G01X12798974Y-16704624D01*
G01X12863214Y-16669682D01*
G01X12914087Y-16630894D01*
G01X12947565Y-16599430D01*
G01X12959619Y-16586460D01*
G01X12959619Y-16586460D01*
G01X12959619Y-16586460D01*
G01X13000122Y-16529771D01*
G01X13031603Y-16471148D01*
G01X13053409Y-16421135D01*
G01X13064883Y-16390276D01*
G01X13066553Y-16385288D01*
G01X13066553Y-16385288D01*
G01X13084077Y-16316323D01*
G01X13095375Y-16246162D01*
G01X13101813Y-16182152D01*
G01X13104758Y-16131640D01*
G01X13105576Y-16101973D01*
G01X13105615Y-16097202D01*
G37*
G36*
G01X12083154Y-15599155D02*
G01X12083154Y-15599155D01*
G01X12039823Y-15558967D01*
G01X12035303Y-15555210D01*
G01X12035303Y-15555210D01*
G01X11980194Y-15518056D01*
G01X11958154Y-15505894D01*
G01X11958154Y-15505894D01*
G01X11894368Y-15479251D01*
G01X11857672Y-15467486D01*
G01X11857080Y-15467319D01*
G01X11857080Y-15467319D01*
G01X11787697Y-15454743D01*
G01X11742036Y-15451758D01*
G01X11737451Y-15451694D01*
G01X11737451Y-15451694D01*
G01X11647102Y-15458526D01*
G01X11574105Y-15475528D01*
G01X11518200Y-15497461D01*
G01X11479130Y-15519086D01*
G01X11456634Y-15535163D01*
G01X11450342Y-15540562D01*
G01X11450342Y-15540562D01*
G01X11406872Y-15597903D01*
G01X11379679Y-15661948D01*
G01X11364944Y-15722689D01*
G01X11358851Y-15770118D01*
G01X11357580Y-15794230D01*
G01X11357568Y-15795444D01*
G01X11357568Y-15795444D01*
G01X11366334Y-15866944D01*
G01X11379881Y-15912757D01*
G01X11382471Y-15919468D01*
G01X11382471Y-15919468D01*
G01X11414705Y-15983635D01*
G01X11442091Y-16027886D01*
G01X11448389Y-16037144D01*
G01X11448389Y-16037144D01*
G01X11492723Y-16094975D01*
G01X11528875Y-16137321D01*
G01X11541162Y-16150913D01*
G01X11647607Y-16261265D01*
G01X11716943Y-16333530D01*
G01X11716943Y-16333530D01*
G01X11764781Y-16386185D01*
G01X11791610Y-16417649D01*
G01X11793115Y-16419468D01*
G01X11793115Y-16419468D01*
G01X11835413Y-16476971D01*
G01X11853060Y-16505206D01*
G01X11853174Y-16505405D01*
G01X11853174Y-16505405D01*
G01X11876159Y-16567901D01*
G01X11877099Y-16577671D01*
G01X11307764Y-16577671D01*
G01X11307764Y-16717319D01*
G01X12057764Y-16717319D01*
G01X12057764Y-16717319D01*
G01X12059717Y-16695835D01*
G01X12059717Y-16675327D01*
G01X12059717Y-16675327D01*
G01X12052873Y-16600404D01*
G01X12039765Y-16544693D01*
G01X12031529Y-16519906D01*
G01X12031396Y-16519566D01*
G01X12031396Y-16519566D01*
G01X12000395Y-16452952D01*
G01X11972030Y-16403442D01*
G01X11959144Y-16383354D01*
G01X11959131Y-16383335D01*
G01X11959131Y-16383335D01*
G01X11915787Y-16325460D01*
G01X11878708Y-16281985D01*
G01X11860756Y-16262510D01*
G01X11860498Y-16262241D01*
G01X11751123Y-16150913D01*
G01X11666162Y-16064976D01*
G01X11666162Y-16064976D01*
G01X11618066Y-16011114D01*
G01X11594965Y-15981776D01*
G01X11594385Y-15980991D01*
G01X11594385Y-15980991D01*
G01X11557947Y-15921787D01*
G01X11544580Y-15894077D01*
G01X11544580Y-15894077D01*
G01X11544580Y-15894077D01*
G01X11527514Y-15827743D01*
G01X11525537Y-15801304D01*
G01X11525537Y-15801304D01*
G01X11535105Y-15731498D01*
G01X11542627Y-15709507D01*
G01X11542627Y-15709507D01*
G01X11579215Y-15655654D01*
G01X11588525Y-15646519D01*
G01X11588525Y-15646519D01*
G01X11643454Y-15613916D01*
G01X11655420Y-15609409D01*
G01X11655420Y-15609409D01*
G01X11720353Y-15597926D01*
G01X11737451Y-15597202D01*
G01X11737451Y-15597202D01*
G01X11807251Y-15604919D01*
G01X11832178Y-15611362D01*
G01X11832178Y-15611362D01*
G01X11893912Y-15637589D01*
G01X11908349Y-15645542D01*
G01X11908349Y-15645542D01*
G01X11960534Y-15680796D01*
G01X11965478Y-15684605D01*
G01X11965478Y-15684605D01*
G01X12001123Y-15715366D01*
G37*
G36*
G01X10298779Y-8586504D02*
G01X10298779Y-8586504D01*
G01X10295271Y-8505297D01*
G01X10286659Y-8434424D01*
G01X10275816Y-8376723D01*
G01X10265610Y-8335030D01*
G01X10258912Y-8312180D01*
G01X10257763Y-8308672D01*
G01X10257763Y-8308672D01*
G01X10227500Y-8235649D01*
G01X10195092Y-8176384D01*
G01X10166905Y-8133714D01*
G01X10149301Y-8110479D01*
G01X10146435Y-8107012D01*
G01X10146435Y-8107012D01*
G01X10091137Y-8053026D01*
G01X10038037Y-8014239D01*
G01X9998120Y-7990832D01*
G01X9982373Y-7982989D01*
G01X9982373Y-7982989D01*
G01X9982373Y-7982989D01*
G01X9911542Y-7958712D01*
G01X9847119Y-7946245D01*
G01X9800274Y-7941653D01*
G01X9782178Y-7940996D01*
G01X9782178Y-7940996D01*
G01X9782178Y-7940996D01*
G01X9710746Y-7946098D01*
G01X9654775Y-7955647D01*
G01X9631322Y-7961010D01*
G01X9631299Y-7961016D01*
G01X9631299Y-7961016D01*
G01X9562847Y-7984957D01*
G01X9508633Y-8010989D01*
G01X9481486Y-8026284D01*
G01X9480420Y-8026934D01*
G01X9528271Y-8162676D01*
G01X9528271Y-8162676D01*
G01X9604693Y-8125504D01*
G01X9672537Y-8102957D01*
G01X9726974Y-8091379D01*
G01X9763178Y-8087114D01*
G01X9776318Y-8086504D01*
G01X9776318Y-8086504D01*
G01X9776318Y-8086504D01*
G01X9850226Y-8095463D01*
G01X9902650Y-8112232D01*
G01X9923271Y-8121650D01*
G01X9923291Y-8121661D01*
G01X9923291Y-8121661D01*
G01X9982002Y-8164388D01*
G01X10021281Y-8205653D01*
G01X10034619Y-8222735D01*
G01X10034619Y-8222735D01*
G01X10069472Y-8283743D01*
G01X10092983Y-8340589D01*
G01X10104653Y-8376054D01*
G01X10105908Y-8380450D01*
G01X10105908Y-8380450D01*
G01X10120305Y-8451372D01*
G01X10127698Y-8517901D01*
G01X10130421Y-8567217D01*
G01X10130810Y-8586504D01*
G01X10130810Y-8586504D01*
G01X10130810Y-8586504D01*
G01X10127136Y-8668692D01*
G01X10118776Y-8735767D01*
G01X10109721Y-8783307D01*
G01X10103964Y-8806894D01*
G01X10103467Y-8808672D01*
G01X10103467Y-8808672D01*
G01X10076171Y-8881802D01*
G01X10048530Y-8934312D01*
G01X10030547Y-8961844D01*
G01X10028271Y-8964922D01*
G01X10028271Y-8964922D01*
G01X9976236Y-9017094D01*
G01X9931259Y-9047489D01*
G01X9913525Y-9056719D01*
G01X9913525Y-9056719D01*
G01X9844910Y-9077941D01*
G01X9789578Y-9085528D01*
G01X9768506Y-9086504D01*
G01X9768506Y-9086504D01*
G01X9699281Y-9080957D01*
G01X9652731Y-9072662D01*
G01X9646924Y-9071368D01*
G01X9646924Y-9071368D01*
G01X9581265Y-9049657D01*
G01X9531092Y-9026780D01*
G01X9514599Y-9018145D01*
G01X9470654Y-9154864D01*
G01X9470654Y-9154864D01*
G01X9537856Y-9186915D01*
G01X9593070Y-9206451D01*
G01X9619208Y-9213854D01*
G01X9619580Y-9213946D01*
G01X9619580Y-9213946D01*
G01X9690846Y-9226457D01*
G01X9752013Y-9231770D01*
G01X9786392Y-9232970D01*
G01X9789013Y-9232989D01*
G01X9789013Y-9232989D01*
G01X9867306Y-9226885D01*
G01X9931958Y-9213457D01*
G01X9975918Y-9200030D01*
G01X9992138Y-9193926D01*
G01X9992138Y-9193926D01*
G01X9992138Y-9193926D01*
G01X10056378Y-9158984D01*
G01X10107251Y-9120196D01*
G01X10140729Y-9088732D01*
G01X10152783Y-9075762D01*
G01X10152783Y-9075762D01*
G01X10152783Y-9075762D01*
G01X10193286Y-9019073D01*
G01X10224767Y-8960450D01*
G01X10246573Y-8910438D01*
G01X10258047Y-8879578D01*
G01X10259717Y-8874590D01*
G01X10259717Y-8874590D01*
G01X10277241Y-8805625D01*
G01X10288539Y-8735464D01*
G01X10294977Y-8671454D01*
G01X10297922Y-8620942D01*
G01X10298740Y-8591275D01*
G01X10298779Y-8586504D01*
G37*
G36*
G01X9240185Y-8224200D02*
G01X9240185Y-8224200D01*
G01X9172065Y-8194304D01*
G01X9112279Y-8163817D01*
G01X9067458Y-8138655D01*
G01X9044232Y-8124735D01*
G01X9042431Y-8123614D01*
G01X9042431Y-8123614D01*
G01X8981724Y-8080062D01*
G01X8929465Y-8034821D01*
G01X8889990Y-7996125D01*
G01X8867635Y-7972210D01*
G01X8864209Y-7968340D01*
G01X8748974Y-7968340D01*
G01X8748974Y-9066973D01*
G01X8514599Y-9066973D01*
G01X8514599Y-9206621D01*
G01X9180615Y-9206621D01*
G01X9180615Y-9066973D01*
G01X8913037Y-9066973D01*
G01X8913037Y-8198809D01*
G01X8913037Y-8198809D01*
G01X8961102Y-8235750D01*
G01X8966260Y-8239336D01*
G01X8966260Y-8239336D01*
G01X9021386Y-8273457D01*
G01X9033642Y-8280352D01*
G01X9033642Y-8280352D01*
G01X9093106Y-8310438D01*
G01X9110303Y-8318438D01*
G01X9110303Y-8318438D01*
G01X9172459Y-8342942D01*
G01X9188428Y-8348223D01*
G37*
G36*
G01X7226318Y-11873359D02*
G01X7086670Y-11873359D01*
G01X7086670Y-12113594D01*
G01X6128662Y-12113594D01*
G01X6128662Y-11873359D01*
G01X5988037Y-11873359D01*
G01X5988037Y-12517891D01*
G01X6128662Y-12517891D01*
G01X6128662Y-12277656D01*
G01X7086670Y-12277656D01*
G01X7086670Y-12517891D01*
G01X7226318Y-12517891D01*
G01X7226318Y-11873359D01*
G37*
G36*
G01X6606201Y-12787422D02*
G01X6606201Y-12787422D01*
G01X6524993Y-12790930D01*
G01X6454121Y-12799541D01*
G01X6396420Y-12810385D01*
G01X6354726Y-12820591D01*
G01X6331877Y-12827289D01*
G01X6328369Y-12828437D01*
G01X6328369Y-12828437D01*
G01X6255346Y-12858701D01*
G01X6196080Y-12891109D01*
G01X6153411Y-12919296D01*
G01X6130176Y-12936900D01*
G01X6126709Y-12939766D01*
G01X6126709Y-12939766D01*
G01X6072723Y-12995063D01*
G01X6033935Y-13048164D01*
G01X6010528Y-13088081D01*
G01X6002685Y-13103828D01*
G01X6002685Y-13103828D01*
G01X6002685Y-13103828D01*
G01X5978409Y-13174659D01*
G01X5965942Y-13239082D01*
G01X5961349Y-13285926D01*
G01X5960693Y-13304023D01*
G01X5960693Y-13304023D01*
G01X5960693Y-13304023D01*
G01X5965795Y-13375455D01*
G01X5975344Y-13431426D01*
G01X5980707Y-13454879D01*
G01X5980713Y-13454902D01*
G01X5980713Y-13454902D01*
G01X6004653Y-13523354D01*
G01X6030686Y-13577568D01*
G01X6045980Y-13604715D01*
G01X6046631Y-13605781D01*
G01X6182373Y-13557930D01*
G01X6182373Y-13557930D01*
G01X6145201Y-13481508D01*
G01X6122654Y-13413664D01*
G01X6111076Y-13359226D01*
G01X6106810Y-13323023D01*
G01X6106201Y-13309883D01*
G01X6106201Y-13309883D01*
G01X6106201Y-13309883D01*
G01X6115160Y-13235975D01*
G01X6131929Y-13183551D01*
G01X6141347Y-13162930D01*
G01X6141357Y-13162910D01*
G01X6141357Y-13162910D01*
G01X6184085Y-13104199D01*
G01X6225349Y-13064920D01*
G01X6242431Y-13051582D01*
G01X6242431Y-13051582D01*
G01X6303439Y-13016729D01*
G01X6360286Y-12993218D01*
G01X6395751Y-12981548D01*
G01X6400146Y-12980293D01*
G01X6400146Y-12980293D01*
G01X6471069Y-12965896D01*
G01X6537597Y-12958503D01*
G01X6586914Y-12955780D01*
G01X6606201Y-12955391D01*
G01X6606201Y-12955391D01*
G01X6606201Y-12955391D01*
G01X6688389Y-12959065D01*
G01X6755463Y-12967425D01*
G01X6803004Y-12976480D01*
G01X6826591Y-12982237D01*
G01X6828369Y-12982734D01*
G01X6828369Y-12982734D01*
G01X6901499Y-13010030D01*
G01X6954009Y-13037671D01*
G01X6981540Y-13055654D01*
G01X6984619Y-13057930D01*
G01X6984619Y-13057930D01*
G01X7036791Y-13109965D01*
G01X7067186Y-13154942D01*
G01X7076416Y-13172676D01*
G01X7076416Y-13172676D01*
G01X7097638Y-13241291D01*
G01X7105225Y-13296623D01*
G01X7106201Y-13317695D01*
G01X7106201Y-13317695D01*
G01X7100654Y-13386919D01*
G01X7092359Y-13433470D01*
G01X7091064Y-13439277D01*
G01X7091064Y-13439277D01*
G01X7069354Y-13504936D01*
G01X7046477Y-13555109D01*
G01X7037842Y-13571601D01*
G01X7174560Y-13615547D01*
G01X7174560Y-13615547D01*
G01X7206612Y-13548345D01*
G01X7226147Y-13493131D01*
G01X7233551Y-13466993D01*
G01X7233642Y-13466621D01*
G01X7233642Y-13466621D01*
G01X7246154Y-13395355D01*
G01X7251467Y-13334187D01*
G01X7252666Y-13299809D01*
G01X7252685Y-13297187D01*
G01X7252685Y-13297187D01*
G01X7246582Y-13218895D01*
G01X7233154Y-13154243D01*
G01X7219726Y-13110283D01*
G01X7213623Y-13094062D01*
G01X7213623Y-13094062D01*
G01X7213623Y-13094062D01*
G01X7178680Y-13029823D01*
G01X7139892Y-12978950D01*
G01X7108429Y-12945472D01*
G01X7095459Y-12933418D01*
G01X7095459Y-12933418D01*
G01X7095459Y-12933418D01*
G01X7038770Y-12892915D01*
G01X6980147Y-12861434D01*
G01X6930134Y-12839628D01*
G01X6899275Y-12828154D01*
G01X6894287Y-12826484D01*
G01X6894287Y-12826484D01*
G01X6825322Y-12808960D01*
G01X6755161Y-12797662D01*
G01X6691151Y-12791224D01*
G01X6640639Y-12788279D01*
G01X6610971Y-12787461D01*
G01X6606201Y-12787422D01*
G37*
G36*
G01X6243896Y-13846016D02*
G01X6243896Y-13846016D01*
G01X6214001Y-13914136D01*
G01X6183513Y-13973922D01*
G01X6158351Y-14018743D01*
G01X6144431Y-14041969D01*
G01X6143310Y-14043769D01*
G01X6143310Y-14043769D01*
G01X6099759Y-14104477D01*
G01X6054518Y-14156736D01*
G01X6015821Y-14196211D01*
G01X5991906Y-14218566D01*
G01X5988037Y-14221992D01*
G01X5988037Y-14337226D01*
G01X7086670Y-14337226D01*
G01X7086670Y-14571601D01*
G01X7226318Y-14571601D01*
G01X7226318Y-13905586D01*
G01X7086670Y-13905586D01*
G01X7086670Y-14173164D01*
G01X6218506Y-14173164D01*
G01X6218506Y-14173164D01*
G01X6255447Y-14125099D01*
G01X6259033Y-14119941D01*
G01X6259033Y-14119941D01*
G01X6293153Y-14064815D01*
G01X6300049Y-14052559D01*
G01X6300049Y-14052559D01*
G01X6330134Y-13993095D01*
G01X6338134Y-13975898D01*
G01X6338134Y-13975898D01*
G01X6362638Y-13913742D01*
G01X6367920Y-13897773D01*
G37*
G36*
G01X25950422Y-11725000D02*
G01X27150422Y-11725000D01*
G01X27150422Y-12925000D01*
G01X25950422Y-12925000D01*
G01X25950422Y-11725000D01*
G37*
G36*
G01X27400422Y-11876758D02*
G01X27400422Y-11876758D01*
G01X27443781Y-11873242D01*
G01X27443781Y-11873242D01*
G01X27495172Y-11905441D01*
G01X27497687Y-11918945D01*
G01X27497687Y-11918945D01*
G01X27497404Y-11964271D01*
G01X27496862Y-12034544D01*
G01X27496521Y-12076774D01*
G01X27496516Y-12077442D01*
G01X27496516Y-12077442D01*
G01X27495781Y-12174262D01*
G01X27495444Y-12230763D01*
G01X27495349Y-12255552D01*
G01X27495344Y-12258789D01*
G01X27495344Y-12258789D01*
G01X27564024Y-12220803D01*
G01X27625374Y-12201985D01*
G01X27668026Y-12195602D01*
G01X27681086Y-12194922D01*
G01X27681086Y-12194922D01*
G01X27755273Y-12209603D01*
G01X27806615Y-12238966D01*
G01X27831411Y-12260988D01*
G01X27833137Y-12262891D01*
G01X27833137Y-12262891D01*
G01X27865845Y-12320499D01*
G01X27883240Y-12384369D01*
G01X27890158Y-12437879D01*
G01X27891434Y-12464408D01*
G01X27891437Y-12465039D01*
G01X27891437Y-12465039D01*
G01X27883379Y-12545456D01*
G01X27864743Y-12610638D01*
G01X27843841Y-12657513D01*
G01X27828983Y-12683014D01*
G01X27826398Y-12686817D01*
G01X27826398Y-12686817D01*
G01X27772134Y-12737276D01*
G01X27712946Y-12764112D01*
G01X27663752Y-12774784D01*
G01X27639475Y-12776752D01*
G01X27638898Y-12776758D01*
G01X27638898Y-12776758D01*
G01X27561129Y-12767491D01*
G01X27496171Y-12745725D01*
G01X27447377Y-12720511D01*
G01X27418102Y-12700900D01*
G01X27410969Y-12695313D01*
G01X27410969Y-12695313D01*
G01X27415033Y-12640825D01*
G01X27417606Y-12573428D01*
G01X27419027Y-12507494D01*
G01X27419631Y-12457394D01*
G01X27419758Y-12437500D01*
G01X27419758Y-12437500D01*
G01X27419758Y-12437500D01*
G01X27419285Y-12376138D01*
G01X27418108Y-12306754D01*
G01X27416589Y-12238244D01*
G01X27415092Y-12179502D01*
G01X27413979Y-12139425D01*
G01X27413605Y-12126660D01*
G01X27413605Y-12126660D01*
G01X27409872Y-12022258D01*
G01X27406307Y-11950481D01*
G01X27403291Y-11905914D01*
G01X27401202Y-11883145D01*
G01X27400422Y-11876758D01*
G01X27400422Y-11876758D01*
G37*
%LPC*%
G36*
G01X27494172Y-12647266D02*
G01X27494172Y-12647266D01*
G01X27559104Y-12688198D01*
G01X27615587Y-12705780D01*
G01X27647581Y-12709883D01*
G01X27650031Y-12709961D01*
G01X27650031Y-12709961D01*
G01X27718388Y-12690481D01*
G01X27757545Y-12655755D01*
G01X27768098Y-12640821D01*
G01X27768098Y-12640821D01*
G01X27793698Y-12574892D01*
G01X27804569Y-12514596D01*
G01X27807023Y-12479485D01*
G01X27807062Y-12476758D01*
G01X27807062Y-12476758D01*
G01X27797760Y-12394408D01*
G01X27779155Y-12341294D01*
G01X27765202Y-12317226D01*
G01X27763996Y-12315625D01*
G01X27763996Y-12315625D01*
G01X27705940Y-12273256D01*
G01X27661705Y-12262616D01*
G01X27655891Y-12262305D01*
G01X27654133Y-12262305D01*
G01X27654133Y-12262305D01*
G01X27584793Y-12275184D01*
G01X27530494Y-12301474D01*
G01X27500067Y-12322656D01*
G01X27496516Y-12325586D01*
G01X27496516Y-12325586D01*
G01X27496936Y-12384427D01*
G01X27497102Y-12402637D01*
G01X27497102Y-12402637D01*
G01X27497614Y-12476575D01*
G01X27497687Y-12503711D01*
G01X27497687Y-12503711D01*
G01X27497687Y-12503711D01*
G01X27496697Y-12586787D01*
G01X27494931Y-12634420D01*
G01X27494172Y-12647266D01*
G37*
%LPD*%
G36*
G01X27991633Y-12486719D02*
G01X27991633Y-12486719D01*
G01X28000563Y-12407536D01*
G01X28021213Y-12345209D01*
G01X28044374Y-12301534D01*
G01X28060839Y-12278309D01*
G01X28063703Y-12274903D01*
G01X28063703Y-12274903D01*
G01X28121061Y-12230032D01*
G01X28180444Y-12206168D01*
G01X28228487Y-12196678D01*
G01X28251826Y-12194927D01*
G01X28252375Y-12194922D01*
G01X28252375Y-12194922D01*
G01X28328867Y-12206531D01*
G01X28387325Y-12232514D01*
G01X28425610Y-12259603D01*
G01X28441583Y-12274529D01*
G01X28441926Y-12274903D01*
G01X28441926Y-12274903D01*
G01X28479641Y-12333263D01*
G01X28501098Y-12394947D01*
G01X28510882Y-12448218D01*
G01X28513579Y-12481341D01*
G01X28513703Y-12486719D01*
G01X28513703Y-12486719D01*
G01X28504059Y-12568996D01*
G01X28482112Y-12632610D01*
G01X28458343Y-12675637D01*
G01X28443230Y-12696151D01*
G01X28441926Y-12697656D01*
G01X28441926Y-12697656D01*
G01X28384562Y-12742034D01*
G01X28324885Y-12765636D01*
G01X28276480Y-12775022D01*
G01X28252930Y-12776753D01*
G01X28252375Y-12776758D01*
G01X28252375Y-12776758D01*
G01X28176498Y-12765276D01*
G01X28118294Y-12739579D01*
G01X28080049Y-12712788D01*
G01X28064047Y-12698026D01*
G01X28063703Y-12697656D01*
G01X28063703Y-12697656D01*
G01X28025834Y-12639758D01*
G01X28004289Y-12578337D01*
G01X27994465Y-12525185D01*
G01X27991757Y-12492095D01*
G01X27991633Y-12486719D01*
G37*
%LPC*%
G36*
G01X28076008Y-12469727D02*
G01X28076008Y-12469727D01*
G01X28084919Y-12547475D01*
G01X28103471Y-12604485D01*
G01X28119394Y-12636281D01*
G01X28122590Y-12641406D01*
G01X28122590Y-12641406D01*
G01X28176364Y-12689342D01*
G01X28228230Y-12707267D01*
G01X28252350Y-12709961D01*
G01X28252375Y-12709961D01*
G01X28252375Y-12709961D01*
G01X28326360Y-12694113D01*
G01X28370652Y-12665861D01*
G01X28383039Y-12653711D01*
G01X28383039Y-12653711D01*
G01X28415175Y-12592492D01*
G01X28427727Y-12534038D01*
G01X28429911Y-12504153D01*
G01X28429914Y-12503711D01*
G01X28429914Y-12503711D01*
G01X28420723Y-12425851D01*
G01X28401587Y-12368608D01*
G01X28385164Y-12336611D01*
G01X28381867Y-12331445D01*
G01X28381867Y-12331445D01*
G01X28327517Y-12283100D01*
G01X28276106Y-12265022D01*
G01X28252399Y-12262305D01*
G01X28252375Y-12262305D01*
G01X28252375Y-12262305D01*
G01X28178555Y-12278318D01*
G01X28134558Y-12306864D01*
G01X28122297Y-12319141D01*
G01X28122297Y-12319141D01*
G01X28090563Y-12380762D01*
G01X28078167Y-12439373D01*
G01X28076011Y-12469285D01*
G01X28076008Y-12469727D01*
G37*
%LPD*%
G36*
G01X28567609Y-12250000D02*
G01X28567609Y-12250000D01*
G01X28585480Y-12214844D01*
G01X28585480Y-12214844D01*
G01X28642487Y-12207279D01*
G01X28646711Y-12207227D01*
G01X28680695Y-12207227D01*
G01X28680695Y-12207227D01*
G01X28677204Y-12128459D01*
G01X28673876Y-12081480D01*
G01X28673078Y-12072461D01*
G01X28673078Y-12072461D01*
G01X28712922Y-12068945D01*
G01X28712922Y-12068945D01*
G01X28767193Y-12099866D01*
G01X28770344Y-12114649D01*
G01X28770344Y-12114649D01*
G01X28767719Y-12172961D01*
G01X28765656Y-12208399D01*
G01X28765656Y-12208399D01*
G01X28861420Y-12207392D01*
G01X28923566Y-12205176D01*
G01X28957148Y-12202960D01*
G01X28967219Y-12201953D01*
G01X28967219Y-12201953D01*
G01X28967219Y-12201953D01*
G01X28971906Y-12230078D01*
G01X28971906Y-12230078D01*
G01X28959309Y-12262305D01*
G01X28959309Y-12262305D01*
G01X28919172Y-12271680D01*
G01X28919172Y-12271680D01*
G01X28861227Y-12272499D01*
G01X28795725Y-12272806D01*
G01X28763347Y-12272852D01*
G01X28763312Y-12272852D01*
G01X28763312Y-12272852D01*
G01X28762214Y-12347049D01*
G01X28761527Y-12417726D01*
G01X28761155Y-12478446D01*
G01X28761001Y-12522770D01*
G01X28760969Y-12544260D01*
G01X28760969Y-12545313D01*
G01X28760969Y-12545313D01*
G01X28767894Y-12631013D01*
G01X28779923Y-12672473D01*
G01X28784406Y-12680957D01*
G01X28784406Y-12680957D01*
G01X28839474Y-12711067D01*
G01X28861750Y-12713477D01*
G01X28861750Y-12713477D01*
G01X28926386Y-12693680D01*
G01X28947883Y-12677149D01*
G01X28947883Y-12677149D01*
G01X28969562Y-12720508D01*
G01X28969562Y-12720508D01*
G01X28938830Y-12761064D01*
G01X28938508Y-12761231D01*
G01X28938508Y-12761231D01*
G01X28876800Y-12776092D01*
G01X28862922Y-12776758D01*
G01X28862922Y-12776758D01*
G01X28784650Y-12762881D01*
G01X28738857Y-12736304D01*
G01X28722203Y-12719604D01*
G01X28722004Y-12719336D01*
G01X28722004Y-12719336D01*
G01X28696114Y-12661490D01*
G01X28684214Y-12599443D01*
G01X28680864Y-12555731D01*
G01X28680695Y-12547656D01*
G01X28680695Y-12547656D01*
G01X28681793Y-12440258D01*
G01X28682480Y-12363129D01*
G01X28682853Y-12312148D01*
G01X28683007Y-12283190D01*
G01X28683039Y-12272132D01*
G01X28683039Y-12271680D01*
G01X28683039Y-12271680D01*
G01X28634012Y-12275417D01*
G01X28574164Y-12280223D01*
G01X28571125Y-12280469D01*
G01X28571125Y-12280469D01*
G01X28567609Y-12250000D01*
G37*
G36*
G01X28989484Y-12250000D02*
G01X28989484Y-12250000D01*
G01X29007355Y-12214844D01*
G01X29007355Y-12214844D01*
G01X29064362Y-12207279D01*
G01X29068586Y-12207227D01*
G01X29102570Y-12207227D01*
G01X29102570Y-12207227D01*
G01X29099079Y-12128459D01*
G01X29095751Y-12081480D01*
G01X29094953Y-12072461D01*
G01X29094953Y-12072461D01*
G01X29134797Y-12068945D01*
G01X29134797Y-12068945D01*
G01X29189068Y-12099866D01*
G01X29192219Y-12114649D01*
G01X29192219Y-12114649D01*
G01X29189594Y-12172961D01*
G01X29187531Y-12208399D01*
G01X29187531Y-12208399D01*
G01X29283295Y-12207392D01*
G01X29345441Y-12205176D01*
G01X29379023Y-12202960D01*
G01X29389094Y-12201953D01*
G01X29389094Y-12201953D01*
G01X29389094Y-12201953D01*
G01X29393781Y-12230078D01*
G01X29393781Y-12230078D01*
G01X29381184Y-12262305D01*
G01X29381184Y-12262305D01*
G01X29341047Y-12271680D01*
G01X29341047Y-12271680D01*
G01X29283102Y-12272499D01*
G01X29217600Y-12272806D01*
G01X29185222Y-12272852D01*
G01X29185187Y-12272852D01*
G01X29185187Y-12272852D01*
G01X29184089Y-12347049D01*
G01X29183402Y-12417726D01*
G01X29183030Y-12478446D01*
G01X29182876Y-12522770D01*
G01X29182844Y-12544260D01*
G01X29182844Y-12545313D01*
G01X29182844Y-12545313D01*
G01X29189769Y-12631013D01*
G01X29201798Y-12672473D01*
G01X29206281Y-12680957D01*
G01X29206281Y-12680957D01*
G01X29261349Y-12711067D01*
G01X29283625Y-12713477D01*
G01X29283625Y-12713477D01*
G01X29348261Y-12693680D01*
G01X29369758Y-12677149D01*
G01X29369758Y-12677149D01*
G01X29391437Y-12720508D01*
G01X29391437Y-12720508D01*
G01X29360705Y-12761064D01*
G01X29360383Y-12761231D01*
G01X29360383Y-12761231D01*
G01X29298675Y-12776092D01*
G01X29284797Y-12776758D01*
G01X29284797Y-12776758D01*
G01X29206525Y-12762881D01*
G01X29160732Y-12736304D01*
G01X29144078Y-12719604D01*
G01X29143879Y-12719336D01*
G01X29143879Y-12719336D01*
G01X29117989Y-12661490D01*
G01X29106089Y-12599443D01*
G01X29102739Y-12555731D01*
G01X29102570Y-12547656D01*
G01X29102570Y-12547656D01*
G01X29103668Y-12440258D01*
G01X29104355Y-12363129D01*
G01X29104728Y-12312148D01*
G01X29104882Y-12283190D01*
G01X29104914Y-12272132D01*
G01X29104914Y-12271680D01*
G01X29104914Y-12271680D01*
G01X29055887Y-12275417D01*
G01X28996039Y-12280223D01*
G01X28993000Y-12280469D01*
G01X28993000Y-12280469D01*
G01X28989484Y-12250000D01*
G37*
G36*
G01X29465266Y-12486719D02*
G01X29465266Y-12486719D01*
G01X29474195Y-12407536D01*
G01X29494846Y-12345209D01*
G01X29518007Y-12301534D01*
G01X29534472Y-12278309D01*
G01X29537336Y-12274903D01*
G01X29537336Y-12274903D01*
G01X29594694Y-12230032D01*
G01X29654077Y-12206168D01*
G01X29702120Y-12196678D01*
G01X29725458Y-12194927D01*
G01X29726008Y-12194922D01*
G01X29726008Y-12194922D01*
G01X29802500Y-12206531D01*
G01X29860958Y-12232514D01*
G01X29899242Y-12259603D01*
G01X29915216Y-12274529D01*
G01X29915559Y-12274903D01*
G01X29915559Y-12274903D01*
G01X29953274Y-12333263D01*
G01X29974731Y-12394947D01*
G01X29984515Y-12448218D01*
G01X29987212Y-12481341D01*
G01X29987336Y-12486719D01*
G01X29987336Y-12486719D01*
G01X29977691Y-12568996D01*
G01X29955745Y-12632610D01*
G01X29931975Y-12675637D01*
G01X29916863Y-12696151D01*
G01X29915559Y-12697656D01*
G01X29915559Y-12697656D01*
G01X29858195Y-12742034D01*
G01X29798518Y-12765636D01*
G01X29750113Y-12775022D01*
G01X29726563Y-12776753D01*
G01X29726008Y-12776758D01*
G01X29726008Y-12776758D01*
G01X29650130Y-12765276D01*
G01X29591927Y-12739579D01*
G01X29553682Y-12712788D01*
G01X29537680Y-12698026D01*
G01X29537336Y-12697656D01*
G01X29537336Y-12697656D01*
G01X29499467Y-12639758D01*
G01X29477922Y-12578337D01*
G01X29468098Y-12525185D01*
G01X29465390Y-12492095D01*
G01X29465266Y-12486719D01*
G37*
%LPC*%
G36*
G01X29549641Y-12469727D02*
G01X29549641Y-12469727D01*
G01X29558552Y-12547475D01*
G01X29577104Y-12604485D01*
G01X29593027Y-12636281D01*
G01X29596223Y-12641406D01*
G01X29596223Y-12641406D01*
G01X29649997Y-12689342D01*
G01X29701863Y-12707267D01*
G01X29725983Y-12709961D01*
G01X29726008Y-12709961D01*
G01X29726008Y-12709961D01*
G01X29799993Y-12694113D01*
G01X29844285Y-12665861D01*
G01X29856672Y-12653711D01*
G01X29856672Y-12653711D01*
G01X29888808Y-12592492D01*
G01X29901360Y-12534038D01*
G01X29903544Y-12504153D01*
G01X29903547Y-12503711D01*
G01X29903547Y-12503711D01*
G01X29894356Y-12425851D01*
G01X29875220Y-12368608D01*
G01X29858796Y-12336611D01*
G01X29855500Y-12331445D01*
G01X29855500Y-12331445D01*
G01X29801149Y-12283100D01*
G01X29749739Y-12265022D01*
G01X29726032Y-12262305D01*
G01X29726008Y-12262305D01*
G01X29726008Y-12262305D01*
G01X29652187Y-12278318D01*
G01X29608190Y-12306864D01*
G01X29595930Y-12319141D01*
G01X29595930Y-12319141D01*
G01X29564195Y-12380762D01*
G01X29551800Y-12439373D01*
G01X29549644Y-12469285D01*
G01X29549641Y-12469727D01*
G37*
%LPD*%
G36*
G01X30113312Y-12213086D02*
G01X30113312Y-12213086D01*
G01X30156672Y-12203711D01*
G01X30156672Y-12203711D01*
G01X30206731Y-12238061D01*
G01X30211750Y-12263477D01*
G01X30211750Y-12263477D01*
G01X30269831Y-12227661D01*
G01X30300227Y-12214258D01*
G01X30300227Y-12214258D01*
G01X30300227Y-12214258D01*
G01X30369367Y-12197339D01*
G01X30399836Y-12194922D01*
G01X30399836Y-12194922D01*
G01X30399836Y-12194922D01*
G01X30474236Y-12212746D01*
G01X30516814Y-12247645D01*
G01X30532911Y-12271760D01*
G01X30533430Y-12272852D01*
G01X30533430Y-12272852D01*
G01X30587388Y-12235024D01*
G01X30623346Y-12218018D01*
G01X30623957Y-12217774D01*
G01X30623957Y-12217774D01*
G01X30694485Y-12198724D01*
G01X30732318Y-12194945D01*
G01X30733820Y-12194922D01*
G01X30733820Y-12194922D01*
G01X30804151Y-12211395D01*
G01X30837851Y-12233464D01*
G01X30839582Y-12235059D01*
G01X30839582Y-12235059D01*
G01X30870122Y-12292715D01*
G01X30879589Y-12348621D01*
G01X30880305Y-12364258D01*
G01X30880305Y-12364258D01*
G01X30879035Y-12418473D01*
G01X30878254Y-12450684D01*
G01X30878254Y-12450684D01*
G01X30876646Y-12531867D01*
G01X30876220Y-12572943D01*
G01X30876203Y-12578125D01*
G01X30876203Y-12578125D01*
G01X30880126Y-12660728D01*
G01X30888294Y-12720697D01*
G01X30895304Y-12753864D01*
G01X30896711Y-12759180D01*
G01X30896711Y-12759180D01*
G01X30849836Y-12768555D01*
G01X30849836Y-12768555D01*
G01X30805012Y-12754785D01*
G01X30805012Y-12754785D01*
G01X30791242Y-12707617D01*
G01X30791242Y-12707617D01*
G01X30791242Y-12707617D01*
G01X30792046Y-12650627D01*
G01X30793621Y-12584183D01*
G01X30794709Y-12544106D01*
G01X30794758Y-12542383D01*
G01X30794758Y-12542383D01*
G01X30797308Y-12447209D01*
G01X30798178Y-12404964D01*
G01X30798273Y-12396485D01*
G01X30798273Y-12396485D01*
G01X30785475Y-12323205D01*
G01X30770440Y-12295472D01*
G01X30770148Y-12295117D01*
G01X30770148Y-12295117D01*
G01X30713421Y-12264251D01*
G01X30696320Y-12262305D01*
G01X30696320Y-12262305D01*
G01X30631408Y-12276778D01*
G01X30576904Y-12305117D01*
G01X30548625Y-12324699D01*
G01X30547492Y-12325586D01*
G01X30547492Y-12325586D01*
G01X30548680Y-12417196D01*
G01X30549379Y-12486413D01*
G01X30549717Y-12533792D01*
G01X30549826Y-12559885D01*
G01X30549836Y-12565821D01*
G01X30549836Y-12565821D01*
G01X30551113Y-12648826D01*
G01X30553873Y-12712692D01*
G01X30556509Y-12752534D01*
G01X30557453Y-12763867D01*
G01X30557453Y-12763867D01*
G01X30516437Y-12767383D01*
G01X30516437Y-12767383D01*
G01X30465046Y-12735185D01*
G01X30462531Y-12721680D01*
G01X30462531Y-12721680D01*
G01X30464289Y-12673340D01*
G01X30464289Y-12673340D01*
G01X30466150Y-12609405D01*
G01X30467131Y-12559466D01*
G01X30467219Y-12554102D01*
G01X30467219Y-12554102D01*
G01X30468022Y-12482458D01*
G01X30468336Y-12424250D01*
G01X30468391Y-12396873D01*
G01X30468391Y-12396485D01*
G01X30468391Y-12396485D01*
G01X30449476Y-12314503D01*
G01X30409342Y-12275365D01*
G01X30372897Y-12263225D01*
G01X30362922Y-12262305D01*
G01X30362922Y-12262305D01*
G01X30298796Y-12277449D01*
G01X30244613Y-12307100D01*
G01X30216398Y-12327588D01*
G01X30215266Y-12328516D01*
G01X30215266Y-12328516D01*
G01X30216497Y-12423562D01*
G01X30217198Y-12493585D01*
G01X30217517Y-12539595D01*
G01X30217605Y-12562604D01*
G01X30217609Y-12565821D01*
G01X30217609Y-12565821D01*
G01X30218788Y-12648826D01*
G01X30221336Y-12712692D01*
G01X30223769Y-12752534D01*
G01X30224641Y-12763867D01*
G01X30224641Y-12763867D01*
G01X30184211Y-12767383D01*
G01X30184211Y-12767383D01*
G01X30132820Y-12735185D01*
G01X30130305Y-12721680D01*
G01X30130305Y-12721680D01*
G01X30132075Y-12666907D01*
G01X30133234Y-12633496D01*
G01X30133234Y-12633496D01*
G01X30135202Y-12558533D01*
G01X30136003Y-12498688D01*
G01X30136163Y-12468569D01*
G01X30136164Y-12467383D01*
G01X30136164Y-12467383D01*
G01X30133787Y-12365336D01*
G01X30128120Y-12292821D01*
G01X30121356Y-12245899D01*
G01X30115689Y-12220633D01*
G01X30113312Y-12213086D01*
G01X30113312Y-12213086D01*
G37*
G36*
G01X31292805Y-12681250D02*
G01X31292805Y-12681250D01*
G01X31330782Y-12637147D01*
G01X31346711Y-12630860D01*
G01X31346711Y-12630860D01*
G01X31387612Y-12680156D01*
G01X31403840Y-12689746D01*
G01X31403840Y-12689746D01*
G01X31469992Y-12707726D01*
G01X31499055Y-12709961D01*
G01X31499055Y-12709961D01*
G01X31566563Y-12695817D01*
G01X31582551Y-12687110D01*
G01X31582551Y-12687110D01*
G01X31612867Y-12632234D01*
G01X31614484Y-12616211D01*
G01X31614484Y-12616211D01*
G01X31587186Y-12564434D01*
G01X31582551Y-12561133D01*
G01X31582551Y-12561133D01*
G01X31522435Y-12536152D01*
G01X31505207Y-12531543D01*
G01X31505207Y-12531543D01*
G01X31438629Y-12514578D01*
G01X31414094Y-12507520D01*
G01X31414094Y-12507520D01*
G01X31355734Y-12474265D01*
G01X31336457Y-12455371D01*
G01X31336457Y-12455371D01*
G01X31309278Y-12393910D01*
G01X31304530Y-12354375D01*
G01X31304523Y-12353711D01*
G01X31304523Y-12353711D01*
G01X31324518Y-12286198D01*
G01X31357367Y-12246881D01*
G01X31366340Y-12239453D01*
G01X31366340Y-12239453D01*
G01X31431284Y-12207725D01*
G01X31485228Y-12196381D01*
G01X31506086Y-12194922D01*
G01X31506086Y-12194922D01*
G01X31574703Y-12205263D01*
G01X31614284Y-12219116D01*
G01X31616535Y-12220117D01*
G01X31616535Y-12220117D01*
G01X31665459Y-12267792D01*
G01X31670734Y-12289844D01*
G01X31670734Y-12289844D01*
G01X31632757Y-12334530D01*
G01X31616828Y-12340235D01*
G01X31616828Y-12340235D01*
G01X31575911Y-12292443D01*
G01X31562629Y-12283985D01*
G01X31562629Y-12283985D01*
G01X31498233Y-12264029D01*
G01X31477375Y-12262305D01*
G01X31477375Y-12262305D01*
G01X31415565Y-12278897D01*
G01X31406477Y-12284570D01*
G01X31406477Y-12284570D01*
G01X31377401Y-12337932D01*
G01X31376594Y-12347266D01*
G01X31376594Y-12347266D01*
G01X31403538Y-12399753D01*
G01X31408527Y-12403516D01*
G01X31408527Y-12403516D01*
G01X31467843Y-12429735D01*
G01X31485871Y-12434863D01*
G01X31485871Y-12434863D01*
G01X31551472Y-12452082D01*
G01X31576984Y-12459473D01*
G01X31576984Y-12459473D01*
G01X31636118Y-12492077D01*
G01X31654621Y-12509278D01*
G01X31654621Y-12509278D01*
G01X31682563Y-12569812D01*
G01X31686555Y-12603320D01*
G01X31686555Y-12603320D01*
G01X31686555Y-12603320D01*
G01X31670133Y-12675720D01*
G01X31640121Y-12719045D01*
G01X31625324Y-12732520D01*
G01X31625324Y-12732520D01*
G01X31561009Y-12763453D01*
G01X31504754Y-12775019D01*
G01X31479744Y-12776758D01*
G01X31479719Y-12776758D01*
G01X31479719Y-12776758D01*
G01X31405548Y-12767850D01*
G01X31358903Y-12753216D01*
G01X31349641Y-12749219D01*
G01X31349641Y-12749219D01*
G01X31298337Y-12701725D01*
G01X31292805Y-12681250D01*
G37*
G36*
G01X31799055Y-12074805D02*
G01X31799055Y-12074805D01*
G01X31818098Y-12029981D01*
G01X31818098Y-12029981D01*
G01X31862336Y-12011524D01*
G01X31862336Y-12011524D01*
G01X31904230Y-12029981D01*
G01X31904230Y-12029981D01*
G01X31922102Y-12074805D01*
G01X31922102Y-12074805D01*
G01X31903081Y-12121071D01*
G01X31903059Y-12121094D01*
G01X31903059Y-12121094D01*
G01X31859992Y-12139844D01*
G01X31859992Y-12139844D01*
G01X31816926Y-12121973D01*
G01X31816926Y-12121973D01*
G01X31799055Y-12074883D01*
G01X31799055Y-12074805D01*
G37*
G36*
G01X31814289Y-12207227D02*
G01X31814289Y-12207227D01*
G01X31855305Y-12203711D01*
G01X31855305Y-12203711D01*
G01X31908705Y-12234869D01*
G01X31911555Y-12248828D01*
G01X31911555Y-12248828D01*
G01X31909211Y-12298047D01*
G01X31909211Y-12298047D01*
G01X31906095Y-12363633D01*
G01X31904535Y-12402343D01*
G01X31904523Y-12402637D01*
G01X31904523Y-12402637D01*
G01X31902614Y-12475740D01*
G01X31902186Y-12518119D01*
G01X31902180Y-12521289D01*
G01X31902180Y-12521289D01*
G01X31904780Y-12611941D01*
G01X31910887Y-12680478D01*
G01X31917961Y-12727421D01*
G01X31923463Y-12753291D01*
G01X31925031Y-12759180D01*
G01X31925031Y-12759180D01*
G01X31879328Y-12768555D01*
G01X31879328Y-12768555D01*
G01X31832457Y-12753032D01*
G01X31832453Y-12753027D01*
G01X31832453Y-12753027D01*
G01X31820157Y-12700868D01*
G01X31820148Y-12700000D01*
G01X31820148Y-12700000D01*
G01X31820947Y-12641641D01*
G01X31821613Y-12605371D01*
G01X31821613Y-12605371D01*
G01X31822807Y-12527329D01*
G01X31823074Y-12490346D01*
G01X31823078Y-12487891D01*
G01X31823078Y-12487891D01*
G01X31822326Y-12401548D01*
G01X31820481Y-12329012D01*
G01X31818157Y-12271904D01*
G01X31815970Y-12231844D01*
G01X31814535Y-12210450D01*
G01X31814289Y-12207227D01*
G37*
G36*
G01X32062727Y-11876758D02*
G01X32062727Y-11876758D01*
G01X32104914Y-11873242D01*
G01X32104914Y-11873242D01*
G01X32157202Y-11904805D01*
G01X32159992Y-11918945D01*
G01X32159992Y-11918945D01*
G01X32158452Y-11975687D01*
G01X32158234Y-11983106D01*
G01X32158234Y-11983106D01*
G01X32156392Y-12047525D01*
G01X32154701Y-12108741D01*
G01X32153852Y-12139969D01*
G01X32153840Y-12140430D01*
G01X32153840Y-12140430D01*
G01X32152272Y-12214936D01*
G01X32151495Y-12279009D01*
G01X32151231Y-12322454D01*
G01X32151203Y-12335547D01*
G01X32151203Y-12522461D01*
G01X32151203Y-12522461D01*
G01X32153803Y-12612058D01*
G01X32159910Y-12680210D01*
G01X32166985Y-12727177D01*
G01X32172487Y-12753221D01*
G01X32174055Y-12759180D01*
G01X32174055Y-12759180D01*
G01X32128937Y-12768555D01*
G01X32128937Y-12768555D01*
G01X32082648Y-12754199D01*
G01X32082648Y-12754199D01*
G01X32069758Y-12706445D01*
G01X32069758Y-12706445D01*
G01X32069758Y-12706445D01*
G01X32070056Y-12656353D01*
G01X32070615Y-12588978D01*
G01X32070929Y-12553847D01*
G01X32070930Y-12553809D01*
G01X32070930Y-12553809D01*
G01X32071646Y-12464596D01*
G01X32071987Y-12403343D01*
G01X32072093Y-12369945D01*
G01X32072102Y-12363086D01*
G01X32072102Y-12223633D01*
G01X32072102Y-12223633D01*
G01X32071532Y-12110547D01*
G01X32070077Y-12023902D01*
G01X32068115Y-11960551D01*
G01X32066027Y-11917352D01*
G01X32064191Y-11891159D01*
G01X32062989Y-11878829D01*
G01X32062727Y-11876758D01*
G37*
G36*
G01X32318195Y-11876758D02*
G01X32318195Y-11876758D01*
G01X32360383Y-11873242D01*
G01X32360383Y-11873242D01*
G01X32412671Y-11904805D01*
G01X32415461Y-11918945D01*
G01X32415461Y-11918945D01*
G01X32413743Y-11972869D01*
G01X32413703Y-11974024D01*
G01X32413703Y-11974024D01*
G01X32411511Y-12039412D01*
G01X32409716Y-12095094D01*
G01X32409309Y-12107910D01*
G01X32409309Y-12107910D01*
G01X32407576Y-12180866D01*
G01X32406841Y-12240358D01*
G01X32406674Y-12272766D01*
G01X32406672Y-12275195D01*
G01X32406672Y-12275195D01*
G01X32471262Y-12228787D01*
G01X32530524Y-12204956D01*
G01X32573856Y-12196176D01*
G01X32590656Y-12194922D01*
G01X32590656Y-12194922D01*
G01X32590656Y-12194922D01*
G01X32664648Y-12209365D01*
G01X32703433Y-12232396D01*
G01X32709309Y-12237695D01*
G01X32709309Y-12237695D01*
G01X32742880Y-12298449D01*
G01X32749961Y-12340036D01*
G01X32750031Y-12342578D01*
G01X32750031Y-12342578D01*
G01X32736163Y-12414003D01*
G01X32712722Y-12458914D01*
G01X32705207Y-12469141D01*
G01X32705207Y-12469141D01*
G01X32649910Y-12510294D01*
G01X32598199Y-12527912D01*
G01X32579523Y-12531250D01*
G01X32579523Y-12531250D01*
G01X32629681Y-12610211D01*
G01X32658987Y-12651200D01*
G01X32669631Y-12664123D01*
G01X32669758Y-12664258D01*
G01X32669758Y-12664258D01*
G01X32727886Y-12700265D01*
G01X32744172Y-12702930D01*
G01X32744172Y-12702930D01*
G01X32775227Y-12697656D01*
G01X32775227Y-12697656D01*
G01X32786359Y-12732813D01*
G01X32786359Y-12732813D01*
G01X32761164Y-12765625D01*
G01X32761164Y-12765625D01*
G01X32713117Y-12776758D01*
G01X32713117Y-12776758D01*
G01X32651238Y-12754730D01*
G01X32626398Y-12733985D01*
G01X32626398Y-12733985D01*
G01X32596223Y-12697949D01*
G01X32596223Y-12697949D01*
G01X32566413Y-12654996D01*
G01X32566340Y-12654883D01*
G01X32566340Y-12654883D01*
G01X32541145Y-12614453D01*
G01X32541145Y-12614453D01*
G01X32513859Y-12568300D01*
G01X32513605Y-12567871D01*
G01X32513605Y-12567871D01*
G01X32489875Y-12527149D01*
G01X32489875Y-12527149D01*
G01X32458234Y-12501953D01*
G01X32458234Y-12501953D01*
G01X32464680Y-12473242D01*
G01X32464680Y-12473242D01*
G01X32523487Y-12481933D01*
G01X32525617Y-12482031D01*
G01X32525617Y-12482031D01*
G01X32597262Y-12465913D01*
G01X32627174Y-12446076D01*
G01X32627863Y-12445410D01*
G01X32627863Y-12445410D01*
G01X32660391Y-12385454D01*
G01X32663898Y-12360742D01*
G01X32663898Y-12360742D01*
G01X32645560Y-12299806D01*
G01X32639289Y-12291016D01*
G01X32639289Y-12291016D01*
G01X32583750Y-12263536D01*
G01X32570148Y-12262305D01*
G01X32570148Y-12262305D01*
G01X32506926Y-12276814D01*
G01X32484895Y-12286914D01*
G01X32484895Y-12286914D01*
G01X32427928Y-12327639D01*
G01X32406672Y-12348438D01*
G01X32406672Y-12522461D01*
G01X32406672Y-12522461D01*
G01X32409272Y-12612058D01*
G01X32415379Y-12680210D01*
G01X32422453Y-12727177D01*
G01X32427956Y-12753221D01*
G01X32429523Y-12759180D01*
G01X32429523Y-12759180D01*
G01X32384406Y-12768555D01*
G01X32384406Y-12768555D01*
G01X32338117Y-12754199D01*
G01X32338117Y-12754199D01*
G01X32325227Y-12706445D01*
G01X32325227Y-12706445D01*
G01X32325227Y-12706445D01*
G01X32325525Y-12656353D01*
G01X32326084Y-12588978D01*
G01X32326398Y-12553847D01*
G01X32326398Y-12553809D01*
G01X32326398Y-12553809D01*
G01X32327114Y-12464596D01*
G01X32327456Y-12403343D01*
G01X32327562Y-12369945D01*
G01X32327570Y-12363086D01*
G01X32327570Y-12223633D01*
G01X32327570Y-12223633D01*
G01X32327001Y-12110547D01*
G01X32325545Y-12023901D01*
G01X32323584Y-11960551D01*
G01X32321495Y-11917352D01*
G01X32319660Y-11891159D01*
G01X32318458Y-11878829D01*
G01X32318195Y-11876758D01*
G37*
G36*
G01X32866047Y-12681250D02*
G01X32866047Y-12681250D01*
G01X32904024Y-12637147D01*
G01X32919953Y-12630860D01*
G01X32919953Y-12630860D01*
G01X32960854Y-12680156D01*
G01X32977082Y-12689746D01*
G01X32977082Y-12689746D01*
G01X33043234Y-12707726D01*
G01X33072297Y-12709961D01*
G01X33072297Y-12709961D01*
G01X33139805Y-12695817D01*
G01X33155793Y-12687110D01*
G01X33155793Y-12687110D01*
G01X33186109Y-12632234D01*
G01X33187727Y-12616211D01*
G01X33187727Y-12616211D01*
G01X33160428Y-12564434D01*
G01X33155793Y-12561133D01*
G01X33155793Y-12561133D01*
G01X33095677Y-12536152D01*
G01X33078449Y-12531543D01*
G01X33078449Y-12531543D01*
G01X33011871Y-12514578D01*
G01X32987336Y-12507520D01*
G01X32987336Y-12507520D01*
G01X32928976Y-12474265D01*
G01X32909699Y-12455371D01*
G01X32909699Y-12455371D01*
G01X32882520Y-12393910D01*
G01X32877772Y-12354375D01*
G01X32877766Y-12353711D01*
G01X32877766Y-12353711D01*
G01X32897760Y-12286198D01*
G01X32930609Y-12246881D01*
G01X32939582Y-12239453D01*
G01X32939582Y-12239453D01*
G01X33004527Y-12207725D01*
G01X33058470Y-12196381D01*
G01X33079328Y-12194922D01*
G01X33079328Y-12194922D01*
G01X33147945Y-12205263D01*
G01X33187526Y-12219116D01*
G01X33189777Y-12220117D01*
G01X33189777Y-12220117D01*
G01X33238701Y-12267792D01*
G01X33243977Y-12289844D01*
G01X33243977Y-12289844D01*
G01X33205999Y-12334530D01*
G01X33190070Y-12340235D01*
G01X33190070Y-12340235D01*
G01X33149153Y-12292443D01*
G01X33135871Y-12283985D01*
G01X33135871Y-12283985D01*
G01X33071475Y-12264029D01*
G01X33050617Y-12262305D01*
G01X33050617Y-12262305D01*
G01X32988808Y-12278897D01*
G01X32979719Y-12284570D01*
G01X32979719Y-12284570D01*
G01X32950643Y-12337932D01*
G01X32949836Y-12347266D01*
G01X32949836Y-12347266D01*
G01X32976780Y-12399753D01*
G01X32981769Y-12403516D01*
G01X32981769Y-12403516D01*
G01X33041085Y-12429735D01*
G01X33059113Y-12434863D01*
G01X33059113Y-12434863D01*
G01X33124715Y-12452082D01*
G01X33150227Y-12459473D01*
G01X33150227Y-12459473D01*
G01X33209360Y-12492077D01*
G01X33227863Y-12509278D01*
G01X33227863Y-12509278D01*
G01X33255805Y-12569812D01*
G01X33259797Y-12603320D01*
G01X33259797Y-12603320D01*
G01X33259797Y-12603320D01*
G01X33243375Y-12675720D01*
G01X33213364Y-12719045D01*
G01X33198566Y-12732520D01*
G01X33198566Y-12732520D01*
G01X33134251Y-12763453D01*
G01X33077996Y-12775019D01*
G01X33052986Y-12776758D01*
G01X33052961Y-12776758D01*
G01X33052961Y-12776758D01*
G01X32978790Y-12767850D01*
G01X32932145Y-12753216D01*
G01X32922883Y-12749219D01*
G01X32922883Y-12749219D01*
G01X32871579Y-12701725D01*
G01X32866047Y-12681250D01*
G37*
G36*
G01X33362336Y-12492578D02*
G01X33362336Y-12492578D01*
G01X33369769Y-12417492D01*
G01X33382332Y-12368819D01*
G01X33386359Y-12357520D01*
G01X33386359Y-12357520D01*
G01X33422397Y-12294543D01*
G01X33448320Y-12265516D01*
G01X33449934Y-12264063D01*
G01X33449934Y-12264063D01*
G01X33508066Y-12225024D01*
G01X33534602Y-12212500D01*
G01X33534602Y-12212500D01*
G01X33601571Y-12196633D01*
G01X33626594Y-12194922D01*
G01X33626594Y-12194922D01*
G01X33696739Y-12205415D01*
G01X33738854Y-12220572D01*
G01X33742902Y-12222461D01*
G01X33742902Y-12222461D01*
G01X33791352Y-12271753D01*
G01X33798273Y-12300391D01*
G01X33798273Y-12300391D01*
G01X33798273Y-12300391D01*
G01X33760684Y-12346291D01*
G01X33740266Y-12351953D01*
G01X33740266Y-12351953D01*
G01X33704669Y-12296919D01*
G01X33689582Y-12285449D01*
G01X33689582Y-12285449D01*
G01X33626666Y-12264020D01*
G01X33607258Y-12262305D01*
G01X33607258Y-12262305D01*
G01X33541056Y-12281542D01*
G01X33501487Y-12313145D01*
G01X33493879Y-12321778D01*
G01X33493879Y-12321778D01*
G01X33462993Y-12383557D01*
G01X33450407Y-12442602D01*
G01X33447899Y-12475399D01*
G01X33447883Y-12476758D01*
G01X33447883Y-12476758D01*
G01X33456604Y-12560288D01*
G01X33475111Y-12616840D01*
G01X33491916Y-12647246D01*
G01X33496516Y-12653418D01*
G01X33496516Y-12653418D01*
G01X33555081Y-12695139D01*
G01X33606155Y-12708720D01*
G01X33621906Y-12709961D01*
G01X33621906Y-12709961D01*
G01X33684090Y-12698391D01*
G01X33694855Y-12694434D01*
G01X33694855Y-12694434D01*
G01X33743461Y-12654519D01*
G01X33747883Y-12647266D01*
G01X33747883Y-12647266D01*
G01X33794291Y-12688998D01*
G01X33795344Y-12695313D01*
G01X33795344Y-12695313D01*
G01X33761614Y-12745080D01*
G01X33740852Y-12755957D01*
G01X33740852Y-12755957D01*
G01X33673998Y-12772265D01*
G01X33625370Y-12776592D01*
G01X33617805Y-12776758D01*
G01X33617805Y-12776758D01*
G01X33540704Y-12764823D01*
G01X33482056Y-12739028D01*
G01X33445814Y-12714387D01*
G01X33435578Y-12705567D01*
G01X33435578Y-12705567D01*
G01X33397093Y-12650590D01*
G01X33375198Y-12588680D01*
G01X33365215Y-12533405D01*
G01X33362462Y-12498337D01*
G01X33362336Y-12492578D01*
G37*
G36*
G01X33916633Y-12207227D02*
G01X33916633Y-12207227D01*
G01X33957648Y-12203711D01*
G01X33957648Y-12203711D01*
G01X34007184Y-12236728D01*
G01X34009211Y-12248828D01*
G01X34009211Y-12248828D01*
G01X34008625Y-12265235D01*
G01X34008625Y-12265235D01*
G01X34008039Y-12291016D01*
G01X34008039Y-12291016D01*
G01X34052196Y-12241128D01*
G01X34072199Y-12224512D01*
G01X34072199Y-12224512D01*
G01X34134441Y-12196961D01*
G01X34151594Y-12194922D01*
G01X34151594Y-12194922D01*
G01X34194953Y-12207520D01*
G01X34194953Y-12207520D01*
G01X34210773Y-12241797D01*
G01X34210773Y-12241797D01*
G01X34188398Y-12293479D01*
G01X34186750Y-12295703D01*
G01X34186750Y-12295703D01*
G01X34132586Y-12273063D01*
G01X34128742Y-12272852D01*
G01X34128742Y-12272852D01*
G01X34070353Y-12293188D01*
G01X34061652Y-12299219D01*
G01X34061652Y-12299219D01*
G01X34017358Y-12348903D01*
G01X34005109Y-12368945D01*
G01X34005109Y-12368945D01*
G01X34004290Y-12425994D01*
G01X34003984Y-12489820D01*
G01X34003937Y-12521256D01*
G01X34003937Y-12521289D01*
G01X34003937Y-12521289D01*
G01X34006537Y-12611941D01*
G01X34012644Y-12680478D01*
G01X34019719Y-12727421D01*
G01X34025221Y-12753291D01*
G01X34026789Y-12759180D01*
G01X34026789Y-12759180D01*
G01X33981086Y-12768555D01*
G01X33981086Y-12768555D01*
G01X33934504Y-12753028D01*
G01X33934504Y-12753028D01*
G01X33934504Y-12753028D01*
G01X33922501Y-12700868D01*
G01X33922492Y-12700000D01*
G01X33922492Y-12700000D01*
G01X33923131Y-12641641D01*
G01X33923664Y-12605371D01*
G01X33923664Y-12605371D01*
G01X33924619Y-12527329D01*
G01X33924833Y-12490346D01*
G01X33924836Y-12487891D01*
G01X33924836Y-12487891D01*
G01X33924134Y-12401548D01*
G01X33922412Y-12329012D01*
G01X33920243Y-12271904D01*
G01X33918202Y-12231844D01*
G01X33916862Y-12210450D01*
G01X33916633Y-12207227D01*
G37*
G36*
G01X34276398Y-12489063D02*
G01X34276398Y-12489063D01*
G01X34286308Y-12405118D01*
G01X34309225Y-12340904D01*
G01X34334929Y-12297096D01*
G01X34353200Y-12274366D01*
G01X34356379Y-12271094D01*
G01X34356379Y-12271094D01*
G01X34419463Y-12227057D01*
G01X34480268Y-12204444D01*
G01X34526076Y-12196112D01*
G01X34544172Y-12194922D01*
G01X34544172Y-12194922D01*
G01X34544172Y-12194922D01*
G01X34619643Y-12208294D01*
G01X34666583Y-12232131D01*
G01X34680109Y-12242383D01*
G01X34680109Y-12242383D01*
G01X34720994Y-12302074D01*
G01X34731841Y-12346689D01*
G01X34732258Y-12353711D01*
G01X34732258Y-12353711D01*
G01X34720725Y-12419658D01*
G01X34715559Y-12431641D01*
G01X34715559Y-12431641D01*
G01X34676049Y-12477543D01*
G01X34671906Y-12480567D01*
G01X34671906Y-12480567D01*
G01X34612788Y-12503781D01*
G01X34593977Y-12508106D01*
G01X34593977Y-12508106D01*
G01X34524763Y-12517737D01*
G01X34493781Y-12520117D01*
G01X34493781Y-12520117D01*
G01X34493781Y-12520117D01*
G01X34428629Y-12521929D01*
G01X34374759Y-12522436D01*
G01X34364289Y-12522461D01*
G01X34364289Y-12522461D01*
G01X34382362Y-12597424D01*
G01X34405571Y-12644207D01*
G01X34416145Y-12659278D01*
G01X34416145Y-12659278D01*
G01X34472949Y-12697882D01*
G01X34522652Y-12709260D01*
G01X34534211Y-12709961D01*
G01X34534211Y-12709961D01*
G01X34609602Y-12693147D01*
G01X34650416Y-12662417D01*
G01X34661945Y-12647266D01*
G01X34661945Y-12647266D01*
G01X34708109Y-12689978D01*
G01X34709406Y-12697656D01*
G01X34709406Y-12697656D01*
G01X34674095Y-12745160D01*
G01X34654914Y-12755078D01*
G01X34654914Y-12755078D01*
G01X34586920Y-12772305D01*
G01X34539120Y-12776632D01*
G01X34533039Y-12776758D01*
G01X34533039Y-12776758D01*
G01X34456446Y-12765634D01*
G01X34398200Y-12741162D01*
G01X34361158Y-12716690D01*
G01X34348176Y-12705567D01*
G01X34348176Y-12705567D01*
G01X34348176Y-12705567D01*
G01X34310460Y-12650154D01*
G01X34289004Y-12587237D01*
G01X34279220Y-12530832D01*
G01X34276522Y-12494961D01*
G01X34276398Y-12489063D01*
G37*
%LPC*%
G36*
G01X34363117Y-12462695D02*
G01X34363117Y-12462695D01*
G01X34433376Y-12461953D01*
G01X34449250Y-12461524D01*
G01X34449250Y-12461524D01*
G01X34512209Y-12455895D01*
G01X34524836Y-12454199D01*
G01X34524836Y-12454199D01*
G01X34585908Y-12439272D01*
G01X34591047Y-12437207D01*
G01X34591047Y-12437207D01*
G01X34632309Y-12406206D01*
G01X34632355Y-12406153D01*
G01X34632355Y-12406153D01*
G01X34649635Y-12356481D01*
G01X34649641Y-12356055D01*
G01X34649641Y-12356055D01*
G01X34626486Y-12298321D01*
G01X34618000Y-12289258D01*
G01X34618000Y-12289258D01*
G01X34558843Y-12263071D01*
G01X34539484Y-12261133D01*
G01X34539484Y-12261133D01*
G01X34469663Y-12276361D01*
G01X34426250Y-12302100D01*
G01X34416437Y-12310352D01*
G01X34416437Y-12310352D01*
G01X34381671Y-12366988D01*
G01X34366672Y-12426638D01*
G01X34363167Y-12461233D01*
G01X34363117Y-12462695D01*
G37*
%LPD*%
G36*
G01X34840070Y-12489063D02*
G01X34840070Y-12489063D01*
G01X34849980Y-12405118D01*
G01X34872897Y-12340904D01*
G01X34898601Y-12297096D01*
G01X34916872Y-12274366D01*
G01X34920051Y-12271094D01*
G01X34920051Y-12271094D01*
G01X34983135Y-12227057D01*
G01X35043940Y-12204444D01*
G01X35089748Y-12196112D01*
G01X35107844Y-12194922D01*
G01X35107844Y-12194922D01*
G01X35107844Y-12194922D01*
G01X35183315Y-12208294D01*
G01X35230255Y-12232131D01*
G01X35243781Y-12242383D01*
G01X35243781Y-12242383D01*
G01X35284666Y-12302074D01*
G01X35295512Y-12346689D01*
G01X35295930Y-12353711D01*
G01X35295930Y-12353711D01*
G01X35284397Y-12419658D01*
G01X35279230Y-12431641D01*
G01X35279230Y-12431641D01*
G01X35239721Y-12477543D01*
G01X35235578Y-12480567D01*
G01X35235578Y-12480567D01*
G01X35176460Y-12503781D01*
G01X35157648Y-12508106D01*
G01X35157648Y-12508106D01*
G01X35088435Y-12517737D01*
G01X35057453Y-12520117D01*
G01X35057453Y-12520117D01*
G01X35057453Y-12520117D01*
G01X34992301Y-12521929D01*
G01X34938431Y-12522436D01*
G01X34927961Y-12522461D01*
G01X34927961Y-12522461D01*
G01X34946034Y-12597424D01*
G01X34969243Y-12644207D01*
G01X34979816Y-12659278D01*
G01X34979816Y-12659278D01*
G01X35036621Y-12697882D01*
G01X35086324Y-12709260D01*
G01X35097883Y-12709961D01*
G01X35097883Y-12709961D01*
G01X35173274Y-12693147D01*
G01X35214088Y-12662417D01*
G01X35225617Y-12647266D01*
G01X35225617Y-12647266D01*
G01X35271781Y-12689978D01*
G01X35273078Y-12697656D01*
G01X35273078Y-12697656D01*
G01X35237767Y-12745160D01*
G01X35218586Y-12755078D01*
G01X35218586Y-12755078D01*
G01X35150592Y-12772305D01*
G01X35102792Y-12776632D01*
G01X35096711Y-12776758D01*
G01X35096711Y-12776758D01*
G01X35020118Y-12765634D01*
G01X34961872Y-12741162D01*
G01X34924830Y-12716690D01*
G01X34911848Y-12705567D01*
G01X34911848Y-12705567D01*
G01X34911848Y-12705567D01*
G01X34874132Y-12650154D01*
G01X34852676Y-12587237D01*
G01X34842891Y-12530832D01*
G01X34840194Y-12494961D01*
G01X34840070Y-12489063D01*
G37*
%LPC*%
G36*
G01X34926789Y-12462695D02*
G01X34926789Y-12462695D01*
G01X34997048Y-12461953D01*
G01X35012922Y-12461524D01*
G01X35012922Y-12461524D01*
G01X35075881Y-12455895D01*
G01X35088508Y-12454199D01*
G01X35088508Y-12454199D01*
G01X35149580Y-12439272D01*
G01X35154719Y-12437207D01*
G01X35154719Y-12437207D01*
G01X35195981Y-12406206D01*
G01X35196027Y-12406153D01*
G01X35196027Y-12406153D01*
G01X35213307Y-12356481D01*
G01X35213312Y-12356055D01*
G01X35213312Y-12356055D01*
G01X35190158Y-12298321D01*
G01X35181672Y-12289258D01*
G01X35181672Y-12289258D01*
G01X35122515Y-12263071D01*
G01X35103156Y-12261133D01*
G01X35103156Y-12261133D01*
G01X35033335Y-12276361D01*
G01X34989922Y-12302100D01*
G01X34980109Y-12310352D01*
G01X34980109Y-12310352D01*
G01X34945343Y-12366988D01*
G01X34930344Y-12426638D01*
G01X34926839Y-12461233D01*
G01X34926789Y-12462695D01*
G37*
%LPD*%
G36*
G01X35421906Y-12213086D02*
G01X35421906Y-12213086D01*
G01X35465266Y-12203711D01*
G01X35465266Y-12203711D01*
G01X35515325Y-12238061D01*
G01X35520344Y-12263477D01*
G01X35520344Y-12263477D01*
G01X35577636Y-12230171D01*
G01X35612362Y-12215527D01*
G01X35612629Y-12215430D01*
G01X35612629Y-12215430D01*
G01X35682688Y-12198334D01*
G01X35721512Y-12194943D01*
G01X35723078Y-12194922D01*
G01X35723078Y-12194922D01*
G01X35795842Y-12209630D01*
G01X35834553Y-12231626D01*
G01X35838801Y-12235059D01*
G01X35838801Y-12235059D01*
G01X35871875Y-12290991D01*
G01X35882641Y-12346340D01*
G01X35883625Y-12364258D01*
G01X35883625Y-12364258D01*
G01X35882537Y-12418473D01*
G01X35881867Y-12450684D01*
G01X35881867Y-12450684D01*
G01X35880489Y-12531867D01*
G01X35880123Y-12572943D01*
G01X35880109Y-12578125D01*
G01X35880109Y-12578125D01*
G01X35884032Y-12660728D01*
G01X35892200Y-12720697D01*
G01X35899210Y-12753864D01*
G01X35900617Y-12759180D01*
G01X35900617Y-12759180D01*
G01X35853742Y-12768555D01*
G01X35853742Y-12768555D01*
G01X35808918Y-12754785D01*
G01X35808918Y-12754785D01*
G01X35795148Y-12707617D01*
G01X35795148Y-12707617D01*
G01X35795148Y-12707617D01*
G01X35795952Y-12650627D01*
G01X35797527Y-12584183D01*
G01X35798615Y-12544106D01*
G01X35798664Y-12542383D01*
G01X35798664Y-12542383D01*
G01X35801214Y-12447209D01*
G01X35802085Y-12404964D01*
G01X35802180Y-12396485D01*
G01X35802180Y-12396485D01*
G01X35787115Y-12323935D01*
G01X35769417Y-12296064D01*
G01X35769074Y-12295703D01*
G01X35769074Y-12295703D01*
G01X35710323Y-12265556D01*
G01X35684406Y-12262305D01*
G01X35684406Y-12262305D01*
G01X35616012Y-12275780D01*
G01X35560033Y-12303288D01*
G01X35527701Y-12325450D01*
G01X35523859Y-12328516D01*
G01X35523859Y-12328516D01*
G01X35525091Y-12423562D01*
G01X35525791Y-12493585D01*
G01X35526111Y-12539595D01*
G01X35526199Y-12562604D01*
G01X35526203Y-12565821D01*
G01X35526203Y-12565821D01*
G01X35527382Y-12648826D01*
G01X35529930Y-12712692D01*
G01X35532363Y-12752534D01*
G01X35533234Y-12763867D01*
G01X35533234Y-12763867D01*
G01X35492805Y-12767383D01*
G01X35492805Y-12767383D01*
G01X35441413Y-12735185D01*
G01X35438898Y-12721680D01*
G01X35438898Y-12721680D01*
G01X35440669Y-12666907D01*
G01X35441828Y-12633496D01*
G01X35441828Y-12633496D01*
G01X35443795Y-12558533D01*
G01X35444597Y-12498688D01*
G01X35444757Y-12468569D01*
G01X35444758Y-12467383D01*
G01X35444758Y-12467383D01*
G01X35442381Y-12365336D01*
G01X35436714Y-12292821D01*
G01X35429950Y-12245899D01*
G01X35424283Y-12220633D01*
G01X35421906Y-12213086D01*
G01X35421906Y-12213086D01*
G37*

G04 Pad flashes *
%LPD*%
D11*

G04 end of program *
M02*
