G04 #@! TF.FileFunction,Soldermask,Bot*

G04 leading zeros omitted (L); absolute data (A); 6 integer digits and 6 fractional digits *
%FSLAX66Y66*%

G04 mode (MO): millimeters (MM) *
%MOMM*%

G04 Aperture definitions *
%ADD10C,0.001X*%
%ADD11C,0.001X*%

%LPD*%
G36*
G01X13820382Y-6539715D02*
G01X13820382Y-6539715D01*
G01X13884489Y-6541789D01*
G01X13947488Y-6547925D01*
G01X14009251Y-6557995D01*
G01X14069651Y-6571870D01*
G01X14128558Y-6589421D01*
G01X14185843Y-6610521D01*
G01X14241379Y-6635041D01*
G01X14295037Y-6662852D01*
G01X14346688Y-6693826D01*
G01X14396204Y-6727834D01*
G01X14443457Y-6764748D01*
G01X14488318Y-6804439D01*
G01X14530658Y-6846779D01*
G01X14570350Y-6891640D01*
G01X14607264Y-6938893D01*
G01X14641272Y-6988409D01*
G01X14672246Y-7040061D01*
G01X14700056Y-7093718D01*
G01X14724576Y-7149254D01*
G01X14745676Y-7206540D01*
G01X14763228Y-7265447D01*
G01X14777102Y-7325846D01*
G01X14787172Y-7387609D01*
G01X14793308Y-7450609D01*
G01X14795382Y-7514715D01*
G01X14795382Y-7514715D01*
G01X14795382Y-7514715D01*
G01X14793308Y-7578822D01*
G01X14787172Y-7641821D01*
G01X14777102Y-7703585D01*
G01X14763228Y-7763984D01*
G01X14745676Y-7822891D01*
G01X14724576Y-7880176D01*
G01X14700056Y-7935712D01*
G01X14672246Y-7989370D01*
G01X14641272Y-8041021D01*
G01X14607264Y-8090538D01*
G01X14570350Y-8137790D01*
G01X14530658Y-8182651D01*
G01X14488318Y-8224991D01*
G01X14443457Y-8264683D01*
G01X14396204Y-8301597D01*
G01X14346688Y-8335605D01*
G01X14295037Y-8366579D01*
G01X14241379Y-8394390D01*
G01X14185843Y-8418909D01*
G01X14128558Y-8440009D01*
G01X14069651Y-8457561D01*
G01X14009251Y-8471436D01*
G01X13947488Y-8481505D01*
G01X13884489Y-8487641D01*
G01X13820382Y-8489715D01*
G01X13820382Y-8489715D01*
G01X13820382Y-8489715D01*
G01X13756276Y-8487641D01*
G01X13693276Y-8481505D01*
G01X13631513Y-8471436D01*
G01X13571113Y-8457561D01*
G01X13512207Y-8440009D01*
G01X13454921Y-8418909D01*
G01X13399385Y-8394390D01*
G01X13345727Y-8366579D01*
G01X13294076Y-8335605D01*
G01X13244560Y-8301597D01*
G01X13197307Y-8264683D01*
G01X13152446Y-8224991D01*
G01X13110106Y-8182651D01*
G01X13070415Y-8137790D01*
G01X13033501Y-8090538D01*
G01X12999492Y-8041021D01*
G01X12968519Y-7989370D01*
G01X12940708Y-7935712D01*
G01X12916188Y-7880176D01*
G01X12895088Y-7822891D01*
G01X12877537Y-7763984D01*
G01X12863662Y-7703585D01*
G01X12853592Y-7641821D01*
G01X12847456Y-7578822D01*
G01X12845382Y-7514715D01*
G01X12845382Y-7514715D01*
G01X12845382Y-7514715D01*
G01X12847456Y-7450609D01*
G01X12853592Y-7387609D01*
G01X12863662Y-7325846D01*
G01X12877537Y-7265447D01*
G01X12895088Y-7206540D01*
G01X12916188Y-7149254D01*
G01X12940708Y-7093718D01*
G01X12968519Y-7040061D01*
G01X12999492Y-6988409D01*
G01X13033501Y-6938893D01*
G01X13070415Y-6891640D01*
G01X13110106Y-6846779D01*
G01X13152446Y-6804439D01*
G01X13197307Y-6764748D01*
G01X13244560Y-6727834D01*
G01X13294076Y-6693826D01*
G01X13345727Y-6662852D01*
G01X13399385Y-6635041D01*
G01X13454921Y-6610521D01*
G01X13512207Y-6589421D01*
G01X13571113Y-6571870D01*
G01X13631513Y-6557995D01*
G01X13693276Y-6547925D01*
G01X13756276Y-6541789D01*
G01X13820382Y-6539715D01*
G01X13820382Y-6539715D01*
G37*
G36*
G01X15385382Y-7514715D02*
G01X15385382Y-8189715D01*
G01X15385382Y-8189715D01*
G01X15389309Y-8238377D01*
G01X15400676Y-8284538D01*
G01X15418868Y-8327582D01*
G01X15443265Y-8366891D01*
G01X15473250Y-8401847D01*
G01X15508206Y-8431833D01*
G01X15547515Y-8456230D01*
G01X15590559Y-8474421D01*
G01X15636721Y-8485789D01*
G01X15685382Y-8489715D01*
G01X15685382Y-8489715D01*
G01X16360382Y-8489715D01*
G01X17035382Y-8489715D01*
G01X17035382Y-8489715D01*
G01X17084044Y-8485789D01*
G01X17130205Y-8474421D01*
G01X17173249Y-8456230D01*
G01X17212558Y-8431833D01*
G01X17247514Y-8401847D01*
G01X17277499Y-8366891D01*
G01X17301897Y-8327582D01*
G01X17320088Y-8284538D01*
G01X17331456Y-8238377D01*
G01X17335382Y-8189715D01*
G01X17335382Y-8189715D01*
G01X17335382Y-7514715D01*
G01X17335382Y-6839715D01*
G01X17335382Y-6839715D01*
G01X17331456Y-6791054D01*
G01X17320088Y-6744892D01*
G01X17301897Y-6701848D01*
G01X17277499Y-6662539D01*
G01X17247514Y-6627583D01*
G01X17212558Y-6597598D01*
G01X17173249Y-6573201D01*
G01X17130205Y-6555010D01*
G01X17084044Y-6543642D01*
G01X17035382Y-6539715D01*
G01X17035382Y-6539715D01*
G01X16360382Y-6539715D01*
G01X15685382Y-6539715D01*
G01X15685382Y-6539715D01*
G01X15636721Y-6543642D01*
G01X15590559Y-6555010D01*
G01X15547515Y-6573201D01*
G01X15508206Y-6597598D01*
G01X15473250Y-6627583D01*
G01X15443265Y-6662539D01*
G01X15418868Y-6701848D01*
G01X15400676Y-6744892D01*
G01X15389309Y-6791054D01*
G01X15385382Y-6839715D01*
G01X15385382Y-6839715D01*
G01X15385382Y-7514715D01*
G37*
G36*
G01X21724800Y-8057434D02*
G01X21724800Y-8057434D01*
G01X21692113Y-8090121D01*
G01X21659425Y-8122809D01*
G01X21626737Y-8155497D01*
G01X21594049Y-8188185D01*
G01X21561361Y-8220873D01*
G01X21532519Y-8249716D01*
G01X21532519Y-8249716D01*
G01X21481056Y-8249716D01*
G01X21429593Y-8249716D01*
G01X21378129Y-8249716D01*
G01X21326666Y-8249716D01*
G01X21275203Y-8249716D01*
G01X21223740Y-8249716D01*
G01X21172277Y-8249716D01*
G01X21120814Y-8249716D01*
G01X21069351Y-8249716D01*
G01X21017888Y-8249716D01*
G01X20966425Y-8249716D01*
G01X20914961Y-8249716D01*
G01X20863498Y-8249716D01*
G01X20812035Y-8249716D01*
G01X20760572Y-8249716D01*
G01X20709109Y-8249716D01*
G01X20674800Y-8249716D01*
G01X20674800Y-8249716D01*
G01X20674800Y-8190915D01*
G01X20674800Y-8132115D01*
G01X20674800Y-8073315D01*
G01X20674800Y-8014515D01*
G01X20674800Y-7955715D01*
G01X20674800Y-7896915D01*
G01X20674800Y-7838115D01*
G01X20674800Y-7779315D01*
G01X20674800Y-7720515D01*
G01X20674800Y-7661715D01*
G01X20674800Y-7602915D01*
G01X20674800Y-7544116D01*
G01X20674800Y-7485316D01*
G01X20674800Y-7426516D01*
G01X20674800Y-7367716D01*
G01X20674800Y-7308916D01*
G01X20674800Y-7250116D01*
G01X20674800Y-7191316D01*
G01X20674800Y-7132516D01*
G01X20674800Y-7073716D01*
G01X20674800Y-7014916D01*
G01X20674800Y-6956116D01*
G01X20674800Y-6897316D01*
G01X20674800Y-6838516D01*
G01X20674800Y-6779716D01*
G01X20674800Y-6779716D01*
G01X20674800Y-6779716D01*
G01X20726263Y-6779716D01*
G01X20777726Y-6779716D01*
G01X20829190Y-6779716D01*
G01X20880653Y-6779716D01*
G01X20932116Y-6779716D01*
G01X20983579Y-6779716D01*
G01X21035042Y-6779716D01*
G01X21086505Y-6779716D01*
G01X21137968Y-6779716D01*
G01X21189431Y-6779716D01*
G01X21240894Y-6779716D01*
G01X21292358Y-6779716D01*
G01X21343821Y-6779716D01*
G01X21395284Y-6779716D01*
G01X21446747Y-6779716D01*
G01X21498210Y-6779716D01*
G01X21532519Y-6779716D01*
G01X21532519Y-6779716D01*
G01X21565206Y-6812403D01*
G01X21597894Y-6845090D01*
G01X21630582Y-6877778D01*
G01X21663270Y-6910466D01*
G01X21695958Y-6943154D01*
G01X21724800Y-6971997D01*
G01X21724800Y-6971997D01*
G01X21724800Y-7026269D01*
G01X21724800Y-7080540D01*
G01X21724800Y-7134812D01*
G01X21724800Y-7189084D01*
G01X21724800Y-7243356D01*
G01X21724800Y-7297628D01*
G01X21724800Y-7351900D01*
G01X21724800Y-7406172D01*
G01X21724800Y-7460444D01*
G01X21724800Y-7514716D01*
G01X21724800Y-7568987D01*
G01X21724800Y-7623259D01*
G01X21724800Y-7677531D01*
G01X21724800Y-7731803D01*
G01X21724800Y-7786075D01*
G01X21724800Y-7840347D01*
G01X21724800Y-7894619D01*
G01X21724800Y-7948891D01*
G01X21724800Y-8003162D01*
G01X21724800Y-8057434D01*
G01X21724800Y-8057434D01*
G37*
G36*
G01X18474800Y-6971996D02*
G01X18474800Y-6971996D01*
G01X18507487Y-6939309D01*
G01X18540175Y-6906622D01*
G01X18572863Y-6873934D01*
G01X18605551Y-6841246D01*
G01X18638239Y-6808557D01*
G01X18667081Y-6779715D01*
G01X18667081Y-6779715D01*
G01X18718545Y-6779715D01*
G01X18770008Y-6779715D01*
G01X18821471Y-6779715D01*
G01X18872934Y-6779715D01*
G01X18924397Y-6779715D01*
G01X18975860Y-6779715D01*
G01X19027323Y-6779715D01*
G01X19078786Y-6779715D01*
G01X19130249Y-6779715D01*
G01X19181713Y-6779715D01*
G01X19233176Y-6779715D01*
G01X19284639Y-6779715D01*
G01X19336102Y-6779715D01*
G01X19387565Y-6779715D01*
G01X19439028Y-6779715D01*
G01X19490491Y-6779715D01*
G01X19524800Y-6779715D01*
G01X19524800Y-6779715D01*
G01X19524800Y-6838515D01*
G01X19524800Y-6897315D01*
G01X19524800Y-6956115D01*
G01X19524800Y-7014915D01*
G01X19524800Y-7073715D01*
G01X19524800Y-7132515D01*
G01X19524800Y-7191315D01*
G01X19524800Y-7250115D01*
G01X19524800Y-7308915D01*
G01X19524800Y-7367715D01*
G01X19524800Y-7426515D01*
G01X19524800Y-7485315D01*
G01X19524800Y-7544115D01*
G01X19524800Y-7602915D01*
G01X19524800Y-7661715D01*
G01X19524800Y-7720515D01*
G01X19524800Y-7779315D01*
G01X19524800Y-7838115D01*
G01X19524800Y-7896915D01*
G01X19524800Y-7955715D01*
G01X19524800Y-8014515D01*
G01X19524800Y-8073315D01*
G01X19524800Y-8132115D01*
G01X19524800Y-8190915D01*
G01X19524800Y-8249715D01*
G01X19524800Y-8249715D01*
G01X19524800Y-8249715D01*
G01X19473337Y-8249715D01*
G01X19421874Y-8249715D01*
G01X19370411Y-8249715D01*
G01X19318948Y-8249715D01*
G01X19267484Y-8249715D01*
G01X19216021Y-8249715D01*
G01X19164558Y-8249715D01*
G01X19113095Y-8249715D01*
G01X19061632Y-8249715D01*
G01X19010169Y-8249715D01*
G01X18958706Y-8249715D01*
G01X18907243Y-8249715D01*
G01X18855780Y-8249715D01*
G01X18804316Y-8249715D01*
G01X18752853Y-8249715D01*
G01X18701390Y-8249715D01*
G01X18667081Y-8249715D01*
G01X18667081Y-8249715D01*
G01X18634394Y-8217028D01*
G01X18601707Y-8184340D01*
G01X18569019Y-8151652D01*
G01X18536331Y-8118964D01*
G01X18503643Y-8086276D01*
G01X18474800Y-8057434D01*
G01X18474800Y-8057434D01*
G01X18474800Y-8003162D01*
G01X18474800Y-7948890D01*
G01X18474800Y-7894618D01*
G01X18474800Y-7840346D01*
G01X18474800Y-7786074D01*
G01X18474800Y-7731803D01*
G01X18474800Y-7677531D01*
G01X18474800Y-7623259D01*
G01X18474800Y-7568987D01*
G01X18474800Y-7514715D01*
G01X18474800Y-7460443D01*
G01X18474800Y-7406171D01*
G01X18474800Y-7351899D01*
G01X18474800Y-7297627D01*
G01X18474800Y-7243356D01*
G01X18474800Y-7189084D01*
G01X18474800Y-7134812D01*
G01X18474800Y-7080540D01*
G01X18474800Y-7026268D01*
G01X18474800Y-6971996D01*
G01X18474800Y-6971996D01*
G37*
G36*
G01X9831256Y-20718998D02*
G01X9831256Y-20718998D01*
G01X9798569Y-20686311D01*
G01X9765881Y-20653624D01*
G01X9733193Y-20620936D01*
G01X9700505Y-20588248D01*
G01X9667817Y-20555559D01*
G01X9638975Y-20526717D01*
G01X9638975Y-20526717D01*
G01X9638975Y-20475254D01*
G01X9638975Y-20423791D01*
G01X9638975Y-20372328D01*
G01X9638975Y-20320864D01*
G01X9638975Y-20269401D01*
G01X9638975Y-20217938D01*
G01X9638975Y-20166475D01*
G01X9638975Y-20115012D01*
G01X9638975Y-20063549D01*
G01X9638975Y-20012086D01*
G01X9638975Y-19960623D01*
G01X9638975Y-19909160D01*
G01X9638975Y-19857697D01*
G01X9638975Y-19806233D01*
G01X9638975Y-19754770D01*
G01X9638975Y-19703307D01*
G01X9638975Y-19668998D01*
G01X9638975Y-19668998D01*
G01X9697775Y-19668998D01*
G01X9756575Y-19668998D01*
G01X9815375Y-19668998D01*
G01X9874175Y-19668998D01*
G01X9932975Y-19668998D01*
G01X9991775Y-19668998D01*
G01X10050575Y-19668998D01*
G01X10109375Y-19668998D01*
G01X10168175Y-19668998D01*
G01X10226975Y-19668998D01*
G01X10285775Y-19668998D01*
G01X10344575Y-19668998D01*
G01X10403375Y-19668998D01*
G01X10462175Y-19668998D01*
G01X10520975Y-19668998D01*
G01X10579775Y-19668998D01*
G01X10638575Y-19668998D01*
G01X10697375Y-19668998D01*
G01X10756175Y-19668998D01*
G01X10814975Y-19668998D01*
G01X10873775Y-19668998D01*
G01X10932575Y-19668998D01*
G01X10991375Y-19668998D01*
G01X11050175Y-19668998D01*
G01X11108975Y-19668998D01*
G01X11108975Y-19668998D01*
G01X11108975Y-19668998D01*
G01X11108975Y-19720461D01*
G01X11108975Y-19771925D01*
G01X11108975Y-19823388D01*
G01X11108975Y-19874851D01*
G01X11108975Y-19926314D01*
G01X11108975Y-19977777D01*
G01X11108975Y-20029240D01*
G01X11108975Y-20080703D01*
G01X11108975Y-20132166D01*
G01X11108975Y-20183629D01*
G01X11108975Y-20235093D01*
G01X11108975Y-20286556D01*
G01X11108975Y-20338019D01*
G01X11108975Y-20389482D01*
G01X11108975Y-20440945D01*
G01X11108975Y-20492408D01*
G01X11108975Y-20526717D01*
G01X11108975Y-20526717D01*
G01X11076288Y-20559404D01*
G01X11043600Y-20592092D01*
G01X11010912Y-20624780D01*
G01X10978224Y-20657468D01*
G01X10945536Y-20690156D01*
G01X10916694Y-20718998D01*
G01X10916694Y-20718998D01*
G01X10862422Y-20718998D01*
G01X10808150Y-20718998D01*
G01X10753878Y-20718998D01*
G01X10699606Y-20718998D01*
G01X10645334Y-20718998D01*
G01X10591062Y-20718998D01*
G01X10536791Y-20718998D01*
G01X10482519Y-20718998D01*
G01X10428247Y-20718998D01*
G01X10373975Y-20718998D01*
G01X10319703Y-20718998D01*
G01X10265431Y-20718998D01*
G01X10211159Y-20718998D01*
G01X10156887Y-20718998D01*
G01X10102615Y-20718998D01*
G01X10048343Y-20718998D01*
G01X9994072Y-20718998D01*
G01X9939800Y-20718998D01*
G01X9885528Y-20718998D01*
G01X9831256Y-20718998D01*
G01X9831256Y-20718998D01*
G37*
G36*
G01X10916694Y-17468998D02*
G01X10916694Y-17468998D01*
G01X10949381Y-17501685D01*
G01X10982069Y-17534373D01*
G01X11014757Y-17567061D01*
G01X11047445Y-17599749D01*
G01X11080133Y-17632437D01*
G01X11108975Y-17661280D01*
G01X11108975Y-17661280D01*
G01X11108975Y-17712743D01*
G01X11108975Y-17764206D01*
G01X11108975Y-17815669D01*
G01X11108975Y-17867132D01*
G01X11108975Y-17918595D01*
G01X11108975Y-17970058D01*
G01X11108975Y-18021521D01*
G01X11108975Y-18072985D01*
G01X11108975Y-18124448D01*
G01X11108975Y-18175911D01*
G01X11108975Y-18227374D01*
G01X11108975Y-18278837D01*
G01X11108975Y-18330300D01*
G01X11108975Y-18381763D01*
G01X11108975Y-18433226D01*
G01X11108975Y-18484689D01*
G01X11108975Y-18518998D01*
G01X11108975Y-18518998D01*
G01X11050175Y-18518998D01*
G01X10991375Y-18518998D01*
G01X10932575Y-18518998D01*
G01X10873775Y-18518998D01*
G01X10814975Y-18518998D01*
G01X10756175Y-18518998D01*
G01X10697375Y-18518998D01*
G01X10638575Y-18518998D01*
G01X10579775Y-18518998D01*
G01X10520975Y-18518998D01*
G01X10462175Y-18518998D01*
G01X10403375Y-18518998D01*
G01X10344575Y-18518998D01*
G01X10285775Y-18518998D01*
G01X10226975Y-18518998D01*
G01X10168175Y-18518998D01*
G01X10109375Y-18518998D01*
G01X10050575Y-18518998D01*
G01X9991775Y-18518998D01*
G01X9932975Y-18518998D01*
G01X9874175Y-18518998D01*
G01X9815375Y-18518998D01*
G01X9756575Y-18518998D01*
G01X9697775Y-18518998D01*
G01X9638975Y-18518998D01*
G01X9638975Y-18518998D01*
G01X9638975Y-18518998D01*
G01X9638975Y-18467535D01*
G01X9638975Y-18416072D01*
G01X9638975Y-18364609D01*
G01X9638975Y-18313146D01*
G01X9638975Y-18261683D01*
G01X9638975Y-18210219D01*
G01X9638975Y-18158756D01*
G01X9638975Y-18107293D01*
G01X9638975Y-18055830D01*
G01X9638975Y-18004367D01*
G01X9638975Y-17952904D01*
G01X9638975Y-17901441D01*
G01X9638975Y-17849978D01*
G01X9638975Y-17798515D01*
G01X9638975Y-17747051D01*
G01X9638975Y-17695588D01*
G01X9638975Y-17661280D01*
G01X9638975Y-17661280D01*
G01X9671663Y-17628592D01*
G01X9704350Y-17595905D01*
G01X9737038Y-17563217D01*
G01X9769726Y-17530529D01*
G01X9802414Y-17497841D01*
G01X9831257Y-17468998D01*
G01X9831257Y-17468998D01*
G01X9885528Y-17468998D01*
G01X9939800Y-17468998D01*
G01X9994072Y-17468998D01*
G01X10048344Y-17468998D01*
G01X10102616Y-17468998D01*
G01X10156888Y-17468998D01*
G01X10211160Y-17468998D01*
G01X10265432Y-17468998D01*
G01X10319703Y-17468998D01*
G01X10373975Y-17468998D01*
G01X10428247Y-17468998D01*
G01X10482519Y-17468998D01*
G01X10536791Y-17468998D01*
G01X10591063Y-17468998D01*
G01X10645335Y-17468998D01*
G01X10699607Y-17468998D01*
G01X10753879Y-17468998D01*
G01X10808150Y-17468998D01*
G01X10862422Y-17468998D01*
G01X10916694Y-17468998D01*
G01X10916694Y-17468998D01*
G37*
G36*
G01X5106500Y-15885412D02*
G01X5106500Y-15885412D01*
G01X5061849Y-15873448D01*
G01X5017197Y-15861483D01*
G01X4972544Y-15849519D01*
G01X4927891Y-15837554D01*
G01X4883238Y-15825589D01*
G01X4843839Y-15815032D01*
G01X4843839Y-15815032D01*
G01X4818107Y-15770464D01*
G01X4792376Y-15725896D01*
G01X4766644Y-15681327D01*
G01X4740913Y-15636759D01*
G01X4715181Y-15592190D01*
G01X4689450Y-15547622D01*
G01X4663718Y-15503054D01*
G01X4637987Y-15458485D01*
G01X4612255Y-15413917D01*
G01X4586523Y-15369349D01*
G01X4560792Y-15324780D01*
G01X4535060Y-15280212D01*
G01X4509329Y-15235644D01*
G01X4483597Y-15191075D01*
G01X4457866Y-15146507D01*
G01X4432134Y-15101938D01*
G01X4414980Y-15072226D01*
G01X4414980Y-15072226D01*
G01X4465902Y-15042826D01*
G01X4516824Y-15013426D01*
G01X4567747Y-14984026D01*
G01X4618669Y-14954626D01*
G01X4669591Y-14925226D01*
G01X4720514Y-14895826D01*
G01X4771436Y-14866426D01*
G01X4822358Y-14837026D01*
G01X4873280Y-14807626D01*
G01X4924203Y-14778226D01*
G01X4975125Y-14748826D01*
G01X5026047Y-14719426D01*
G01X5076969Y-14690026D01*
G01X5127892Y-14660626D01*
G01X5178814Y-14631226D01*
G01X5229736Y-14601826D01*
G01X5280659Y-14572426D01*
G01X5331581Y-14543026D01*
G01X5382503Y-14513626D01*
G01X5433425Y-14484226D01*
G01X5484348Y-14454826D01*
G01X5535270Y-14425426D01*
G01X5586192Y-14396026D01*
G01X5637115Y-14366626D01*
G01X5688037Y-14337226D01*
G01X5688037Y-14337226D01*
G01X5688037Y-14337226D01*
G01X5713769Y-14381795D01*
G01X5739500Y-14426363D01*
G01X5765232Y-14470931D01*
G01X5790963Y-14515500D01*
G01X5816695Y-14560068D01*
G01X5842426Y-14604636D01*
G01X5868158Y-14649205D01*
G01X5893890Y-14693773D01*
G01X5919621Y-14738342D01*
G01X5945353Y-14782910D01*
G01X5971084Y-14827478D01*
G01X5996816Y-14872047D01*
G01X6022547Y-14916615D01*
G01X6048279Y-14961183D01*
G01X6074010Y-15005752D01*
G01X6099742Y-15050320D01*
G01X6116896Y-15080032D01*
G01X6116896Y-15080032D01*
G01X6104932Y-15124684D01*
G01X6092968Y-15169336D01*
G01X6081003Y-15213988D01*
G01X6069038Y-15258641D01*
G01X6057074Y-15303294D01*
G01X6046517Y-15342693D01*
G01X6046517Y-15342693D01*
G01X5999516Y-15369829D01*
G01X5952515Y-15396965D01*
G01X5905514Y-15424101D01*
G01X5858513Y-15451237D01*
G01X5811513Y-15478373D01*
G01X5764512Y-15505509D01*
G01X5717511Y-15532645D01*
G01X5670510Y-15559781D01*
G01X5623509Y-15586917D01*
G01X5576508Y-15614053D01*
G01X5529507Y-15641189D01*
G01X5482507Y-15668325D01*
G01X5435506Y-15695461D01*
G01X5388505Y-15722597D01*
G01X5341504Y-15749733D01*
G01X5294503Y-15776869D01*
G01X5247502Y-15804004D01*
G01X5200502Y-15831140D01*
G01X5153501Y-15858276D01*
G01X5106500Y-15885412D01*
G01X5106500Y-15885412D01*
G37*
G36*
G01X4421516Y-12528110D02*
G01X4421516Y-12528110D01*
G01X4466168Y-12540075D01*
G01X4510820Y-12552039D01*
G01X4555472Y-12564004D01*
G01X4600125Y-12575968D01*
G01X4644778Y-12587933D01*
G01X4684177Y-12598490D01*
G01X4684177Y-12598490D01*
G01X4709909Y-12643059D01*
G01X4735640Y-12687627D01*
G01X4761372Y-12732195D01*
G01X4787103Y-12776764D01*
G01X4812835Y-12821332D01*
G01X4838567Y-12865900D01*
G01X4864298Y-12910469D01*
G01X4890030Y-12955037D01*
G01X4915761Y-12999606D01*
G01X4941493Y-13044174D01*
G01X4967224Y-13088742D01*
G01X4992956Y-13133311D01*
G01X5018687Y-13177879D01*
G01X5044419Y-13222447D01*
G01X5070151Y-13267016D01*
G01X5095882Y-13311584D01*
G01X5113037Y-13341296D01*
G01X5113037Y-13341296D01*
G01X5062114Y-13370696D01*
G01X5011192Y-13400096D01*
G01X4960270Y-13429496D01*
G01X4909347Y-13458896D01*
G01X4858425Y-13488296D01*
G01X4807503Y-13517696D01*
G01X4756580Y-13547096D01*
G01X4705658Y-13576496D01*
G01X4654736Y-13605896D01*
G01X4603814Y-13635296D01*
G01X4552891Y-13664696D01*
G01X4501969Y-13694096D01*
G01X4451047Y-13723496D01*
G01X4400124Y-13752896D01*
G01X4349202Y-13782296D01*
G01X4298280Y-13811696D01*
G01X4247358Y-13841096D01*
G01X4196435Y-13870496D01*
G01X4145513Y-13899896D01*
G01X4094591Y-13929296D01*
G01X4043668Y-13958696D01*
G01X3992746Y-13988096D01*
G01X3941824Y-14017496D01*
G01X3890902Y-14046896D01*
G01X3839979Y-14076296D01*
G01X3839979Y-14076296D01*
G01X3839979Y-14076296D01*
G01X3814248Y-14031728D01*
G01X3788516Y-13987160D01*
G01X3762784Y-13942591D01*
G01X3737053Y-13898023D01*
G01X3711321Y-13853454D01*
G01X3685590Y-13808886D01*
G01X3659858Y-13764318D01*
G01X3634127Y-13719749D01*
G01X3608395Y-13675181D01*
G01X3582664Y-13630613D01*
G01X3556932Y-13586044D01*
G01X3531201Y-13541476D01*
G01X3505469Y-13496908D01*
G01X3479737Y-13452339D01*
G01X3454006Y-13407771D01*
G01X3428274Y-13363202D01*
G01X3411120Y-13333490D01*
G01X3411120Y-13333490D01*
G01X3423084Y-13288839D01*
G01X3435049Y-13244187D01*
G01X3447013Y-13199534D01*
G01X3458978Y-13154881D01*
G01X3470943Y-13110229D01*
G01X3481500Y-13070829D01*
G01X3481500Y-13070829D01*
G01X3528500Y-13043693D01*
G01X3575501Y-13016557D01*
G01X3622502Y-12989421D01*
G01X3669503Y-12962285D01*
G01X3716504Y-12935149D01*
G01X3763505Y-12908014D01*
G01X3810505Y-12880878D01*
G01X3857506Y-12853742D01*
G01X3904507Y-12826606D01*
G01X3951508Y-12799470D01*
G01X3998509Y-12772334D01*
G01X4045510Y-12745198D01*
G01X4092510Y-12718062D01*
G01X4139511Y-12690926D01*
G01X4186512Y-12663790D01*
G01X4233513Y-12636654D01*
G01X4280514Y-12609518D01*
G01X4327515Y-12582382D01*
G01X4374515Y-12555246D01*
G01X4421516Y-12528110D01*
G01X4421516Y-12528110D01*
G37*
G36*
G01X15149464Y-10729711D02*
G01X15149464Y-10729711D01*
G01X15116777Y-10762398D01*
G01X15084089Y-10795086D01*
G01X15051401Y-10827774D01*
G01X15018713Y-10860462D01*
G01X14986025Y-10893150D01*
G01X14957183Y-10921993D01*
G01X14957183Y-10921993D01*
G01X14905720Y-10921993D01*
G01X14854257Y-10921993D01*
G01X14802793Y-10921993D01*
G01X14751330Y-10921993D01*
G01X14699867Y-10921993D01*
G01X14648404Y-10921993D01*
G01X14596941Y-10921993D01*
G01X14545478Y-10921993D01*
G01X14494015Y-10921993D01*
G01X14442552Y-10921993D01*
G01X14391089Y-10921993D01*
G01X14339625Y-10921993D01*
G01X14288162Y-10921993D01*
G01X14236699Y-10921993D01*
G01X14185236Y-10921993D01*
G01X14133773Y-10921993D01*
G01X14099464Y-10921993D01*
G01X14099464Y-10921993D01*
G01X14099464Y-10863192D01*
G01X14099464Y-10804392D01*
G01X14099464Y-10745592D01*
G01X14099464Y-10686792D01*
G01X14099464Y-10627992D01*
G01X14099464Y-10569192D01*
G01X14099464Y-10510392D01*
G01X14099464Y-10451592D01*
G01X14099464Y-10392792D01*
G01X14099464Y-10333992D01*
G01X14099464Y-10275192D01*
G01X14099464Y-10216393D01*
G01X14099464Y-10157593D01*
G01X14099464Y-10098793D01*
G01X14099464Y-10039993D01*
G01X14099464Y-9981193D01*
G01X14099464Y-9922393D01*
G01X14099464Y-9863593D01*
G01X14099464Y-9804793D01*
G01X14099464Y-9745993D01*
G01X14099464Y-9687193D01*
G01X14099464Y-9628393D01*
G01X14099464Y-9569593D01*
G01X14099464Y-9510793D01*
G01X14099464Y-9451993D01*
G01X14099464Y-9451993D01*
G01X14099464Y-9451993D01*
G01X14150927Y-9451993D01*
G01X14202390Y-9451993D01*
G01X14253854Y-9451993D01*
G01X14305317Y-9451993D01*
G01X14356780Y-9451993D01*
G01X14408243Y-9451993D01*
G01X14459706Y-9451993D01*
G01X14511169Y-9451993D01*
G01X14562632Y-9451993D01*
G01X14614095Y-9451993D01*
G01X14665558Y-9451993D01*
G01X14717022Y-9451993D01*
G01X14768485Y-9451993D01*
G01X14819948Y-9451993D01*
G01X14871411Y-9451993D01*
G01X14922874Y-9451993D01*
G01X14957183Y-9451993D01*
G01X14957183Y-9451993D01*
G01X14989870Y-9484680D01*
G01X15022558Y-9517367D01*
G01X15055246Y-9550055D01*
G01X15087934Y-9582743D01*
G01X15120622Y-9615431D01*
G01X15149464Y-9644274D01*
G01X15149464Y-9644274D01*
G01X15149464Y-9698546D01*
G01X15149464Y-9752817D01*
G01X15149464Y-9807089D01*
G01X15149464Y-9861361D01*
G01X15149464Y-9915633D01*
G01X15149464Y-9969905D01*
G01X15149464Y-10024177D01*
G01X15149464Y-10078449D01*
G01X15149464Y-10132721D01*
G01X15149464Y-10186993D01*
G01X15149464Y-10241264D01*
G01X15149464Y-10295536D01*
G01X15149464Y-10349808D01*
G01X15149464Y-10404080D01*
G01X15149464Y-10458352D01*
G01X15149464Y-10512624D01*
G01X15149464Y-10566896D01*
G01X15149464Y-10621168D01*
G01X15149464Y-10675439D01*
G01X15149464Y-10729711D01*
G01X15149464Y-10729711D01*
G37*
G36*
G01X11899464Y-9644273D02*
G01X11899464Y-9644273D01*
G01X11932151Y-9611586D01*
G01X11964839Y-9578899D01*
G01X11997527Y-9546211D01*
G01X12030215Y-9513523D01*
G01X12062903Y-9480834D01*
G01X12091745Y-9451992D01*
G01X12091745Y-9451992D01*
G01X12143209Y-9451992D01*
G01X12194672Y-9451992D01*
G01X12246135Y-9451992D01*
G01X12297598Y-9451992D01*
G01X12349061Y-9451992D01*
G01X12400524Y-9451992D01*
G01X12451987Y-9451992D01*
G01X12503450Y-9451992D01*
G01X12554913Y-9451992D01*
G01X12606377Y-9451992D01*
G01X12657840Y-9451992D01*
G01X12709303Y-9451992D01*
G01X12760766Y-9451992D01*
G01X12812229Y-9451992D01*
G01X12863692Y-9451992D01*
G01X12915155Y-9451992D01*
G01X12949464Y-9451992D01*
G01X12949464Y-9451992D01*
G01X12949464Y-9510792D01*
G01X12949464Y-9569592D01*
G01X12949464Y-9628392D01*
G01X12949464Y-9687192D01*
G01X12949464Y-9745992D01*
G01X12949464Y-9804792D01*
G01X12949464Y-9863592D01*
G01X12949464Y-9922392D01*
G01X12949464Y-9981192D01*
G01X12949464Y-10039992D01*
G01X12949464Y-10098792D01*
G01X12949464Y-10157592D01*
G01X12949464Y-10216392D01*
G01X12949464Y-10275192D01*
G01X12949464Y-10333992D01*
G01X12949464Y-10392792D01*
G01X12949464Y-10451592D01*
G01X12949464Y-10510392D01*
G01X12949464Y-10569192D01*
G01X12949464Y-10627992D01*
G01X12949464Y-10686792D01*
G01X12949464Y-10745592D01*
G01X12949464Y-10804392D01*
G01X12949464Y-10863192D01*
G01X12949464Y-10921992D01*
G01X12949464Y-10921992D01*
G01X12949464Y-10921992D01*
G01X12898001Y-10921992D01*
G01X12846538Y-10921992D01*
G01X12795075Y-10921992D01*
G01X12743612Y-10921992D01*
G01X12692148Y-10921992D01*
G01X12640685Y-10921992D01*
G01X12589222Y-10921992D01*
G01X12537759Y-10921992D01*
G01X12486296Y-10921992D01*
G01X12434833Y-10921992D01*
G01X12383370Y-10921992D01*
G01X12331907Y-10921992D01*
G01X12280444Y-10921992D01*
G01X12228980Y-10921992D01*
G01X12177517Y-10921992D01*
G01X12126054Y-10921992D01*
G01X12091745Y-10921992D01*
G01X12091745Y-10921992D01*
G01X12059058Y-10889305D01*
G01X12026371Y-10856617D01*
G01X11993683Y-10823929D01*
G01X11960995Y-10791241D01*
G01X11928306Y-10758553D01*
G01X11899464Y-10729711D01*
G01X11899464Y-10729711D01*
G01X11899464Y-10675439D01*
G01X11899464Y-10621167D01*
G01X11899464Y-10566895D01*
G01X11899464Y-10512623D01*
G01X11899464Y-10458351D01*
G01X11899464Y-10404080D01*
G01X11899464Y-10349808D01*
G01X11899464Y-10295536D01*
G01X11899464Y-10241264D01*
G01X11899464Y-10186992D01*
G01X11899464Y-10132720D01*
G01X11899464Y-10078448D01*
G01X11899464Y-10024176D01*
G01X11899464Y-9969904D01*
G01X11899464Y-9915633D01*
G01X11899464Y-9861361D01*
G01X11899464Y-9807089D01*
G01X11899464Y-9752817D01*
G01X11899464Y-9698545D01*
G01X11899464Y-9644273D01*
G01X11899464Y-9644273D01*
G37*
G36*
G01X11947925Y-20718998D02*
G01X11947925Y-20718998D01*
G01X11915238Y-20686311D01*
G01X11882550Y-20653624D01*
G01X11849862Y-20620936D01*
G01X11817174Y-20588248D01*
G01X11784486Y-20555559D01*
G01X11755644Y-20526717D01*
G01X11755644Y-20526717D01*
G01X11755644Y-20475254D01*
G01X11755644Y-20423791D01*
G01X11755644Y-20372328D01*
G01X11755644Y-20320864D01*
G01X11755644Y-20269401D01*
G01X11755644Y-20217938D01*
G01X11755644Y-20166475D01*
G01X11755644Y-20115012D01*
G01X11755644Y-20063549D01*
G01X11755644Y-20012086D01*
G01X11755644Y-19960623D01*
G01X11755644Y-19909160D01*
G01X11755644Y-19857697D01*
G01X11755644Y-19806233D01*
G01X11755644Y-19754770D01*
G01X11755644Y-19703307D01*
G01X11755644Y-19668998D01*
G01X11755644Y-19668998D01*
G01X11814444Y-19668998D01*
G01X11873244Y-19668998D01*
G01X11932044Y-19668998D01*
G01X11990844Y-19668998D01*
G01X12049644Y-19668998D01*
G01X12108444Y-19668998D01*
G01X12167244Y-19668998D01*
G01X12226044Y-19668998D01*
G01X12284844Y-19668998D01*
G01X12343644Y-19668998D01*
G01X12402444Y-19668998D01*
G01X12461244Y-19668998D01*
G01X12520044Y-19668998D01*
G01X12578844Y-19668998D01*
G01X12637644Y-19668998D01*
G01X12696444Y-19668998D01*
G01X12755244Y-19668998D01*
G01X12814044Y-19668998D01*
G01X12872844Y-19668998D01*
G01X12931644Y-19668998D01*
G01X12990444Y-19668998D01*
G01X13049244Y-19668998D01*
G01X13108044Y-19668998D01*
G01X13166844Y-19668998D01*
G01X13225644Y-19668998D01*
G01X13225644Y-19668998D01*
G01X13225644Y-19668998D01*
G01X13225644Y-19720461D01*
G01X13225644Y-19771925D01*
G01X13225644Y-19823388D01*
G01X13225644Y-19874851D01*
G01X13225644Y-19926314D01*
G01X13225644Y-19977777D01*
G01X13225644Y-20029240D01*
G01X13225644Y-20080703D01*
G01X13225644Y-20132166D01*
G01X13225644Y-20183629D01*
G01X13225644Y-20235093D01*
G01X13225644Y-20286556D01*
G01X13225644Y-20338019D01*
G01X13225644Y-20389482D01*
G01X13225644Y-20440945D01*
G01X13225644Y-20492408D01*
G01X13225644Y-20526717D01*
G01X13225644Y-20526717D01*
G01X13192957Y-20559404D01*
G01X13160269Y-20592092D01*
G01X13127581Y-20624780D01*
G01X13094893Y-20657468D01*
G01X13062205Y-20690156D01*
G01X13033363Y-20718998D01*
G01X13033363Y-20718998D01*
G01X12979091Y-20718998D01*
G01X12924819Y-20718998D01*
G01X12870547Y-20718998D01*
G01X12816275Y-20718998D01*
G01X12762003Y-20718998D01*
G01X12707731Y-20718998D01*
G01X12653460Y-20718998D01*
G01X12599188Y-20718998D01*
G01X12544916Y-20718998D01*
G01X12490644Y-20718998D01*
G01X12436372Y-20718998D01*
G01X12382100Y-20718998D01*
G01X12327828Y-20718998D01*
G01X12273556Y-20718998D01*
G01X12219284Y-20718998D01*
G01X12165012Y-20718998D01*
G01X12110741Y-20718998D01*
G01X12056469Y-20718998D01*
G01X12002197Y-20718998D01*
G01X11947925Y-20718998D01*
G01X11947925Y-20718998D01*
G37*
G36*
G01X13033363Y-17468998D02*
G01X13033363Y-17468998D01*
G01X13066050Y-17501685D01*
G01X13098738Y-17534373D01*
G01X13131426Y-17567061D01*
G01X13164114Y-17599749D01*
G01X13196802Y-17632437D01*
G01X13225644Y-17661280D01*
G01X13225644Y-17661280D01*
G01X13225644Y-17712743D01*
G01X13225644Y-17764206D01*
G01X13225644Y-17815669D01*
G01X13225644Y-17867132D01*
G01X13225644Y-17918595D01*
G01X13225644Y-17970058D01*
G01X13225644Y-18021521D01*
G01X13225644Y-18072985D01*
G01X13225644Y-18124448D01*
G01X13225644Y-18175911D01*
G01X13225644Y-18227374D01*
G01X13225644Y-18278837D01*
G01X13225644Y-18330300D01*
G01X13225644Y-18381763D01*
G01X13225644Y-18433226D01*
G01X13225644Y-18484689D01*
G01X13225644Y-18518998D01*
G01X13225644Y-18518998D01*
G01X13166844Y-18518998D01*
G01X13108044Y-18518998D01*
G01X13049244Y-18518998D01*
G01X12990444Y-18518998D01*
G01X12931644Y-18518998D01*
G01X12872844Y-18518998D01*
G01X12814044Y-18518998D01*
G01X12755244Y-18518998D01*
G01X12696444Y-18518998D01*
G01X12637644Y-18518998D01*
G01X12578844Y-18518998D01*
G01X12520044Y-18518998D01*
G01X12461244Y-18518998D01*
G01X12402444Y-18518998D01*
G01X12343644Y-18518998D01*
G01X12284844Y-18518998D01*
G01X12226044Y-18518998D01*
G01X12167244Y-18518998D01*
G01X12108444Y-18518998D01*
G01X12049644Y-18518998D01*
G01X11990844Y-18518998D01*
G01X11932044Y-18518998D01*
G01X11873244Y-18518998D01*
G01X11814444Y-18518998D01*
G01X11755644Y-18518998D01*
G01X11755644Y-18518998D01*
G01X11755644Y-18518998D01*
G01X11755644Y-18467535D01*
G01X11755644Y-18416072D01*
G01X11755644Y-18364609D01*
G01X11755644Y-18313146D01*
G01X11755644Y-18261683D01*
G01X11755644Y-18210219D01*
G01X11755644Y-18158756D01*
G01X11755644Y-18107293D01*
G01X11755644Y-18055830D01*
G01X11755644Y-18004367D01*
G01X11755644Y-17952904D01*
G01X11755644Y-17901441D01*
G01X11755644Y-17849978D01*
G01X11755644Y-17798515D01*
G01X11755644Y-17747051D01*
G01X11755644Y-17695588D01*
G01X11755644Y-17661280D01*
G01X11755644Y-17661280D01*
G01X11788332Y-17628592D01*
G01X11821019Y-17595905D01*
G01X11853707Y-17563217D01*
G01X11886395Y-17530529D01*
G01X11919083Y-17497841D01*
G01X11947926Y-17468998D01*
G01X11947926Y-17468998D01*
G01X12002197Y-17468998D01*
G01X12056469Y-17468998D01*
G01X12110741Y-17468998D01*
G01X12165013Y-17468998D01*
G01X12219285Y-17468998D01*
G01X12273557Y-17468998D01*
G01X12327829Y-17468998D01*
G01X12382101Y-17468998D01*
G01X12436372Y-17468998D01*
G01X12490644Y-17468998D01*
G01X12544916Y-17468998D01*
G01X12599188Y-17468998D01*
G01X12653460Y-17468998D01*
G01X12707732Y-17468998D01*
G01X12762004Y-17468998D01*
G01X12816276Y-17468998D01*
G01X12870548Y-17468998D01*
G01X12924819Y-17468998D01*
G01X12979091Y-17468998D01*
G01X13033363Y-17468998D01*
G01X13033363Y-17468998D01*
G37*
G36*
G01X5415854Y-9997799D02*
G01X5415854Y-9997799D01*
G01X5383167Y-10030486D01*
G01X5350479Y-10063174D01*
G01X5317791Y-10095862D01*
G01X5285103Y-10128550D01*
G01X5252415Y-10161238D01*
G01X5223573Y-10190081D01*
G01X5223573Y-10190081D01*
G01X5172110Y-10190081D01*
G01X5120647Y-10190081D01*
G01X5069183Y-10190081D01*
G01X5017720Y-10190081D01*
G01X4966257Y-10190081D01*
G01X4914794Y-10190081D01*
G01X4863331Y-10190081D01*
G01X4811868Y-10190081D01*
G01X4760405Y-10190081D01*
G01X4708942Y-10190081D01*
G01X4657479Y-10190081D01*
G01X4606015Y-10190081D01*
G01X4554552Y-10190081D01*
G01X4503089Y-10190081D01*
G01X4451626Y-10190081D01*
G01X4400163Y-10190081D01*
G01X4365854Y-10190081D01*
G01X4365854Y-10190081D01*
G01X4365854Y-10131280D01*
G01X4365854Y-10072480D01*
G01X4365854Y-10013680D01*
G01X4365854Y-9954880D01*
G01X4365854Y-9896080D01*
G01X4365854Y-9837280D01*
G01X4365854Y-9778480D01*
G01X4365854Y-9719680D01*
G01X4365854Y-9660880D01*
G01X4365854Y-9602080D01*
G01X4365854Y-9543280D01*
G01X4365854Y-9484481D01*
G01X4365854Y-9425681D01*
G01X4365854Y-9366881D01*
G01X4365854Y-9308081D01*
G01X4365854Y-9249281D01*
G01X4365854Y-9190481D01*
G01X4365854Y-9131681D01*
G01X4365854Y-9072881D01*
G01X4365854Y-9014081D01*
G01X4365854Y-8955281D01*
G01X4365854Y-8896481D01*
G01X4365854Y-8837681D01*
G01X4365854Y-8778881D01*
G01X4365854Y-8720081D01*
G01X4365854Y-8720081D01*
G01X4365854Y-8720081D01*
G01X4417317Y-8720081D01*
G01X4468780Y-8720081D01*
G01X4520244Y-8720081D01*
G01X4571707Y-8720081D01*
G01X4623170Y-8720081D01*
G01X4674633Y-8720081D01*
G01X4726096Y-8720081D01*
G01X4777559Y-8720081D01*
G01X4829022Y-8720081D01*
G01X4880485Y-8720081D01*
G01X4931948Y-8720081D01*
G01X4983412Y-8720081D01*
G01X5034875Y-8720081D01*
G01X5086338Y-8720081D01*
G01X5137801Y-8720081D01*
G01X5189264Y-8720081D01*
G01X5223573Y-8720081D01*
G01X5223573Y-8720081D01*
G01X5256260Y-8752768D01*
G01X5288948Y-8785455D01*
G01X5321636Y-8818143D01*
G01X5354324Y-8850831D01*
G01X5387012Y-8883519D01*
G01X5415854Y-8912362D01*
G01X5415854Y-8912362D01*
G01X5415854Y-8966634D01*
G01X5415854Y-9020905D01*
G01X5415854Y-9075177D01*
G01X5415854Y-9129449D01*
G01X5415854Y-9183721D01*
G01X5415854Y-9237993D01*
G01X5415854Y-9292265D01*
G01X5415854Y-9346537D01*
G01X5415854Y-9400809D01*
G01X5415854Y-9455081D01*
G01X5415854Y-9509352D01*
G01X5415854Y-9563624D01*
G01X5415854Y-9617896D01*
G01X5415854Y-9672168D01*
G01X5415854Y-9726440D01*
G01X5415854Y-9780712D01*
G01X5415854Y-9834984D01*
G01X5415854Y-9889256D01*
G01X5415854Y-9943527D01*
G01X5415854Y-9997799D01*
G01X5415854Y-9997799D01*
G37*
G36*
G01X2165854Y-8912361D02*
G01X2165854Y-8912361D01*
G01X2198541Y-8879674D01*
G01X2231229Y-8846987D01*
G01X2263917Y-8814299D01*
G01X2296605Y-8781611D01*
G01X2329293Y-8748922D01*
G01X2358135Y-8720080D01*
G01X2358135Y-8720080D01*
G01X2409599Y-8720080D01*
G01X2461062Y-8720080D01*
G01X2512525Y-8720080D01*
G01X2563988Y-8720080D01*
G01X2615451Y-8720080D01*
G01X2666914Y-8720080D01*
G01X2718377Y-8720080D01*
G01X2769840Y-8720080D01*
G01X2821303Y-8720080D01*
G01X2872767Y-8720080D01*
G01X2924230Y-8720080D01*
G01X2975693Y-8720080D01*
G01X3027156Y-8720080D01*
G01X3078619Y-8720080D01*
G01X3130082Y-8720080D01*
G01X3181545Y-8720080D01*
G01X3215854Y-8720080D01*
G01X3215854Y-8720080D01*
G01X3215854Y-8778880D01*
G01X3215854Y-8837680D01*
G01X3215854Y-8896480D01*
G01X3215854Y-8955280D01*
G01X3215854Y-9014080D01*
G01X3215854Y-9072880D01*
G01X3215854Y-9131680D01*
G01X3215854Y-9190480D01*
G01X3215854Y-9249280D01*
G01X3215854Y-9308080D01*
G01X3215854Y-9366880D01*
G01X3215854Y-9425680D01*
G01X3215854Y-9484480D01*
G01X3215854Y-9543280D01*
G01X3215854Y-9602080D01*
G01X3215854Y-9660880D01*
G01X3215854Y-9719680D01*
G01X3215854Y-9778480D01*
G01X3215854Y-9837280D01*
G01X3215854Y-9896080D01*
G01X3215854Y-9954880D01*
G01X3215854Y-10013680D01*
G01X3215854Y-10072480D01*
G01X3215854Y-10131280D01*
G01X3215854Y-10190080D01*
G01X3215854Y-10190080D01*
G01X3215854Y-10190080D01*
G01X3164391Y-10190080D01*
G01X3112928Y-10190080D01*
G01X3061465Y-10190080D01*
G01X3010001Y-10190080D01*
G01X2958538Y-10190080D01*
G01X2907075Y-10190080D01*
G01X2855612Y-10190080D01*
G01X2804149Y-10190080D01*
G01X2752686Y-10190080D01*
G01X2701223Y-10190080D01*
G01X2649760Y-10190080D01*
G01X2598297Y-10190080D01*
G01X2546834Y-10190080D01*
G01X2495370Y-10190080D01*
G01X2443907Y-10190080D01*
G01X2392444Y-10190080D01*
G01X2358135Y-10190080D01*
G01X2358135Y-10190080D01*
G01X2325448Y-10157393D01*
G01X2292761Y-10124705D01*
G01X2260073Y-10092017D01*
G01X2227385Y-10059329D01*
G01X2194697Y-10026641D01*
G01X2165854Y-9997799D01*
G01X2165854Y-9997799D01*
G01X2165854Y-9943527D01*
G01X2165854Y-9889255D01*
G01X2165854Y-9834983D01*
G01X2165854Y-9780711D01*
G01X2165854Y-9726439D01*
G01X2165854Y-9672168D01*
G01X2165854Y-9617896D01*
G01X2165854Y-9563624D01*
G01X2165854Y-9509352D01*
G01X2165854Y-9455080D01*
G01X2165854Y-9400808D01*
G01X2165854Y-9346536D01*
G01X2165854Y-9292264D01*
G01X2165854Y-9237992D01*
G01X2165854Y-9183721D01*
G01X2165854Y-9129449D01*
G01X2165854Y-9075177D01*
G01X2165854Y-9020905D01*
G01X2165854Y-8966633D01*
G01X2165854Y-8912361D01*
G01X2165854Y-8912361D01*
G37*
G36*
G01X4166111Y-16015285D02*
G01X3741111Y-15279163D01*
G01X1965759Y-16304163D01*
G01X2390759Y-17040285D01*
G01X4166111Y-16015285D01*
G37*
G36*
G01X3166111Y-14283234D02*
G01X2741111Y-13547112D01*
G01X0965759Y-14572112D01*
G01X1390759Y-15308234D01*
G01X3166111Y-14283234D01*
G37*
G36*
G01X6691854Y-8056816D02*
G01X6691854Y-8056816D01*
G01X6627748Y-8054742D01*
G01X6564748Y-8048606D01*
G01X6502985Y-8038537D01*
G01X6442585Y-8024662D01*
G01X6383679Y-8007110D01*
G01X6326393Y-7986010D01*
G01X6270857Y-7961491D01*
G01X6217199Y-7933680D01*
G01X6165548Y-7902706D01*
G01X6116032Y-7868698D01*
G01X6068779Y-7831784D01*
G01X6023918Y-7792092D01*
G01X5981578Y-7749752D01*
G01X5941887Y-7704891D01*
G01X5904973Y-7657639D01*
G01X5870964Y-7608122D01*
G01X5839991Y-7556471D01*
G01X5812180Y-7502813D01*
G01X5787660Y-7447277D01*
G01X5766560Y-7389992D01*
G01X5749009Y-7331085D01*
G01X5735134Y-7270686D01*
G01X5725064Y-7208922D01*
G01X5718928Y-7145923D01*
G01X5716854Y-7081816D01*
G01X5716854Y-7081816D01*
G01X5716854Y-7081816D01*
G01X5718928Y-7017710D01*
G01X5725064Y-6954710D01*
G01X5735134Y-6892947D01*
G01X5749009Y-6832548D01*
G01X5766560Y-6773641D01*
G01X5787660Y-6716355D01*
G01X5812180Y-6660819D01*
G01X5839991Y-6607162D01*
G01X5870964Y-6555510D01*
G01X5904973Y-6505994D01*
G01X5941887Y-6458741D01*
G01X5981578Y-6413880D01*
G01X6023918Y-6371540D01*
G01X6068779Y-6331849D01*
G01X6116032Y-6294935D01*
G01X6165548Y-6260927D01*
G01X6217199Y-6229953D01*
G01X6270857Y-6202142D01*
G01X6326393Y-6177622D01*
G01X6383679Y-6156522D01*
G01X6442585Y-6138971D01*
G01X6502985Y-6125096D01*
G01X6564748Y-6115026D01*
G01X6627748Y-6108890D01*
G01X6691854Y-6106816D01*
G01X6691854Y-6106816D01*
G01X6691854Y-6106816D01*
G01X6755961Y-6108890D01*
G01X6818960Y-6115026D01*
G01X6880723Y-6125096D01*
G01X6941123Y-6138971D01*
G01X7000030Y-6156522D01*
G01X7057315Y-6177622D01*
G01X7112851Y-6202142D01*
G01X7166509Y-6229953D01*
G01X7218160Y-6260927D01*
G01X7267676Y-6294935D01*
G01X7314929Y-6331849D01*
G01X7359790Y-6371540D01*
G01X7402130Y-6413880D01*
G01X7441822Y-6458741D01*
G01X7478736Y-6505994D01*
G01X7512744Y-6555510D01*
G01X7543718Y-6607162D01*
G01X7571528Y-6660819D01*
G01X7596048Y-6716355D01*
G01X7617148Y-6773641D01*
G01X7634700Y-6832548D01*
G01X7648574Y-6892947D01*
G01X7658644Y-6954710D01*
G01X7664780Y-7017710D01*
G01X7666854Y-7081816D01*
G01X7666854Y-7081816D01*
G01X7666854Y-7081816D01*
G01X7664780Y-7145923D01*
G01X7658644Y-7208922D01*
G01X7648574Y-7270686D01*
G01X7634700Y-7331085D01*
G01X7617148Y-7389992D01*
G01X7596048Y-7447277D01*
G01X7571528Y-7502813D01*
G01X7543718Y-7556471D01*
G01X7512744Y-7608122D01*
G01X7478736Y-7657639D01*
G01X7441822Y-7704891D01*
G01X7402130Y-7749752D01*
G01X7359790Y-7792092D01*
G01X7314929Y-7831784D01*
G01X7267676Y-7868698D01*
G01X7218160Y-7902706D01*
G01X7166509Y-7933680D01*
G01X7112851Y-7961491D01*
G01X7057315Y-7986010D01*
G01X7000030Y-8007110D01*
G01X6941123Y-8024662D01*
G01X6880723Y-8038537D01*
G01X6818960Y-8048606D01*
G01X6755961Y-8054742D01*
G01X6691854Y-8056816D01*
G01X6691854Y-8056816D01*
G37*
G36*
G01X5126854Y-7081816D02*
G01X5126854Y-6406816D01*
G01X5126854Y-6406816D01*
G01X5122928Y-6358155D01*
G01X5111560Y-6311993D01*
G01X5093369Y-6268949D01*
G01X5068971Y-6229640D01*
G01X5038986Y-6194684D01*
G01X5004030Y-6164699D01*
G01X4964721Y-6140302D01*
G01X4921677Y-6122111D01*
G01X4875516Y-6110743D01*
G01X4826854Y-6106816D01*
G01X4826854Y-6106816D01*
G01X4151854Y-6106816D01*
G01X3476854Y-6106816D01*
G01X3476854Y-6106816D01*
G01X3428193Y-6110743D01*
G01X3382031Y-6122111D01*
G01X3338987Y-6140302D01*
G01X3299678Y-6164699D01*
G01X3264722Y-6194684D01*
G01X3234737Y-6229640D01*
G01X3210340Y-6268949D01*
G01X3192148Y-6311993D01*
G01X3180781Y-6358155D01*
G01X3176854Y-6406816D01*
G01X3176854Y-6406816D01*
G01X3176854Y-7081816D01*
G01X3176854Y-7756816D01*
G01X3176854Y-7756816D01*
G01X3180781Y-7805478D01*
G01X3192148Y-7851639D01*
G01X3210340Y-7894683D01*
G01X3234737Y-7933992D01*
G01X3264722Y-7968948D01*
G01X3299678Y-7998934D01*
G01X3338987Y-8023331D01*
G01X3382031Y-8041522D01*
G01X3428193Y-8052890D01*
G01X3476854Y-8056816D01*
G01X3476854Y-8056816D01*
G01X4151854Y-8056816D01*
G01X4826854Y-8056816D01*
G01X4826854Y-8056816D01*
G01X4875516Y-8052890D01*
G01X4921677Y-8041522D01*
G01X4964721Y-8023331D01*
G01X5004030Y-7998934D01*
G01X5038986Y-7968948D01*
G01X5068971Y-7933992D01*
G01X5093369Y-7894683D01*
G01X5111560Y-7851639D01*
G01X5122928Y-7805478D01*
G01X5126854Y-7756816D01*
G01X5126854Y-7756816D01*
G01X5126854Y-7081816D01*
G37*
G36*
G01X7714586Y-20718998D02*
G01X7714586Y-20718998D01*
G01X7681899Y-20686311D01*
G01X7649211Y-20653624D01*
G01X7616523Y-20620936D01*
G01X7583835Y-20588248D01*
G01X7551147Y-20555559D01*
G01X7522305Y-20526717D01*
G01X7522305Y-20526717D01*
G01X7522305Y-20475254D01*
G01X7522305Y-20423791D01*
G01X7522305Y-20372328D01*
G01X7522305Y-20320864D01*
G01X7522305Y-20269401D01*
G01X7522305Y-20217938D01*
G01X7522305Y-20166475D01*
G01X7522305Y-20115012D01*
G01X7522305Y-20063549D01*
G01X7522305Y-20012086D01*
G01X7522305Y-19960623D01*
G01X7522305Y-19909160D01*
G01X7522305Y-19857697D01*
G01X7522305Y-19806233D01*
G01X7522305Y-19754770D01*
G01X7522305Y-19703307D01*
G01X7522305Y-19668998D01*
G01X7522305Y-19668998D01*
G01X7581105Y-19668998D01*
G01X7639905Y-19668998D01*
G01X7698705Y-19668998D01*
G01X7757505Y-19668998D01*
G01X7816305Y-19668998D01*
G01X7875105Y-19668998D01*
G01X7933905Y-19668998D01*
G01X7992705Y-19668998D01*
G01X8051505Y-19668998D01*
G01X8110305Y-19668998D01*
G01X8169105Y-19668998D01*
G01X8227905Y-19668998D01*
G01X8286705Y-19668998D01*
G01X8345505Y-19668998D01*
G01X8404305Y-19668998D01*
G01X8463105Y-19668998D01*
G01X8521905Y-19668998D01*
G01X8580705Y-19668998D01*
G01X8639505Y-19668998D01*
G01X8698305Y-19668998D01*
G01X8757105Y-19668998D01*
G01X8815905Y-19668998D01*
G01X8874705Y-19668998D01*
G01X8933505Y-19668998D01*
G01X8992305Y-19668998D01*
G01X8992305Y-19668998D01*
G01X8992305Y-19668998D01*
G01X8992305Y-19720461D01*
G01X8992305Y-19771925D01*
G01X8992305Y-19823388D01*
G01X8992305Y-19874851D01*
G01X8992305Y-19926314D01*
G01X8992305Y-19977777D01*
G01X8992305Y-20029240D01*
G01X8992305Y-20080703D01*
G01X8992305Y-20132166D01*
G01X8992305Y-20183629D01*
G01X8992305Y-20235093D01*
G01X8992305Y-20286556D01*
G01X8992305Y-20338019D01*
G01X8992305Y-20389482D01*
G01X8992305Y-20440945D01*
G01X8992305Y-20492408D01*
G01X8992305Y-20526717D01*
G01X8992305Y-20526717D01*
G01X8959618Y-20559404D01*
G01X8926930Y-20592092D01*
G01X8894242Y-20624780D01*
G01X8861554Y-20657468D01*
G01X8828866Y-20690156D01*
G01X8800024Y-20718998D01*
G01X8800024Y-20718998D01*
G01X8745752Y-20718998D01*
G01X8691480Y-20718998D01*
G01X8637208Y-20718998D01*
G01X8582936Y-20718998D01*
G01X8528664Y-20718998D01*
G01X8474392Y-20718998D01*
G01X8420121Y-20718998D01*
G01X8365849Y-20718998D01*
G01X8311577Y-20718998D01*
G01X8257305Y-20718998D01*
G01X8203033Y-20718998D01*
G01X8148761Y-20718998D01*
G01X8094489Y-20718998D01*
G01X8040217Y-20718998D01*
G01X7985945Y-20718998D01*
G01X7931673Y-20718998D01*
G01X7877402Y-20718998D01*
G01X7823130Y-20718998D01*
G01X7768858Y-20718998D01*
G01X7714586Y-20718998D01*
G01X7714586Y-20718998D01*
G37*
G36*
G01X8800024Y-17468998D02*
G01X8800024Y-17468998D01*
G01X8832711Y-17501685D01*
G01X8865399Y-17534373D01*
G01X8898087Y-17567061D01*
G01X8930775Y-17599749D01*
G01X8963463Y-17632437D01*
G01X8992305Y-17661280D01*
G01X8992305Y-17661280D01*
G01X8992305Y-17712743D01*
G01X8992305Y-17764206D01*
G01X8992305Y-17815669D01*
G01X8992305Y-17867132D01*
G01X8992305Y-17918595D01*
G01X8992305Y-17970058D01*
G01X8992305Y-18021521D01*
G01X8992305Y-18072985D01*
G01X8992305Y-18124448D01*
G01X8992305Y-18175911D01*
G01X8992305Y-18227374D01*
G01X8992305Y-18278837D01*
G01X8992305Y-18330300D01*
G01X8992305Y-18381763D01*
G01X8992305Y-18433226D01*
G01X8992305Y-18484689D01*
G01X8992305Y-18518998D01*
G01X8992305Y-18518998D01*
G01X8933505Y-18518998D01*
G01X8874705Y-18518998D01*
G01X8815905Y-18518998D01*
G01X8757105Y-18518998D01*
G01X8698305Y-18518998D01*
G01X8639505Y-18518998D01*
G01X8580705Y-18518998D01*
G01X8521905Y-18518998D01*
G01X8463105Y-18518998D01*
G01X8404305Y-18518998D01*
G01X8345505Y-18518998D01*
G01X8286705Y-18518998D01*
G01X8227905Y-18518998D01*
G01X8169105Y-18518998D01*
G01X8110305Y-18518998D01*
G01X8051505Y-18518998D01*
G01X7992705Y-18518998D01*
G01X7933905Y-18518998D01*
G01X7875105Y-18518998D01*
G01X7816305Y-18518998D01*
G01X7757505Y-18518998D01*
G01X7698705Y-18518998D01*
G01X7639905Y-18518998D01*
G01X7581105Y-18518998D01*
G01X7522305Y-18518998D01*
G01X7522305Y-18518998D01*
G01X7522305Y-18518998D01*
G01X7522305Y-18467535D01*
G01X7522305Y-18416072D01*
G01X7522305Y-18364609D01*
G01X7522305Y-18313146D01*
G01X7522305Y-18261683D01*
G01X7522305Y-18210219D01*
G01X7522305Y-18158756D01*
G01X7522305Y-18107293D01*
G01X7522305Y-18055830D01*
G01X7522305Y-18004367D01*
G01X7522305Y-17952904D01*
G01X7522305Y-17901441D01*
G01X7522305Y-17849978D01*
G01X7522305Y-17798515D01*
G01X7522305Y-17747051D01*
G01X7522305Y-17695588D01*
G01X7522305Y-17661280D01*
G01X7522305Y-17661280D01*
G01X7554993Y-17628592D01*
G01X7587680Y-17595905D01*
G01X7620368Y-17563217D01*
G01X7653056Y-17530529D01*
G01X7685744Y-17497841D01*
G01X7714587Y-17468998D01*
G01X7714587Y-17468998D01*
G01X7768858Y-17468998D01*
G01X7823130Y-17468998D01*
G01X7877402Y-17468998D01*
G01X7931674Y-17468998D01*
G01X7985946Y-17468998D01*
G01X8040218Y-17468998D01*
G01X8094490Y-17468998D01*
G01X8148762Y-17468998D01*
G01X8203033Y-17468998D01*
G01X8257305Y-17468998D01*
G01X8311577Y-17468998D01*
G01X8365849Y-17468998D01*
G01X8420121Y-17468998D01*
G01X8474393Y-17468998D01*
G01X8528665Y-17468998D01*
G01X8582937Y-17468998D01*
G01X8637209Y-17468998D01*
G01X8691480Y-17468998D01*
G01X8745752Y-17468998D01*
G01X8800024Y-17468998D01*
G01X8800024Y-17468998D01*
G37*
G36*
G01X11031689Y-16640409D02*
G01X11031689Y-16640409D01*
G01X10999002Y-16673096D01*
G01X10966314Y-16705784D01*
G01X10933626Y-16738472D01*
G01X10900938Y-16771160D01*
G01X10868250Y-16803848D01*
G01X10839408Y-16832691D01*
G01X10839408Y-16832691D01*
G01X10787945Y-16832691D01*
G01X10736482Y-16832691D01*
G01X10685018Y-16832691D01*
G01X10633555Y-16832691D01*
G01X10582092Y-16832691D01*
G01X10530629Y-16832691D01*
G01X10479166Y-16832691D01*
G01X10427703Y-16832691D01*
G01X10376240Y-16832691D01*
G01X10324777Y-16832691D01*
G01X10273314Y-16832691D01*
G01X10221850Y-16832691D01*
G01X10170387Y-16832691D01*
G01X10118924Y-16832691D01*
G01X10067461Y-16832691D01*
G01X10015998Y-16832691D01*
G01X9981689Y-16832691D01*
G01X9981689Y-16832691D01*
G01X9981689Y-16773890D01*
G01X9981689Y-16715090D01*
G01X9981689Y-16656290D01*
G01X9981689Y-16597490D01*
G01X9981689Y-16538690D01*
G01X9981689Y-16479890D01*
G01X9981689Y-16421090D01*
G01X9981689Y-16362290D01*
G01X9981689Y-16303490D01*
G01X9981689Y-16244690D01*
G01X9981689Y-16185890D01*
G01X9981689Y-16127091D01*
G01X9981689Y-16068291D01*
G01X9981689Y-16009491D01*
G01X9981689Y-15950691D01*
G01X9981689Y-15891891D01*
G01X9981689Y-15833091D01*
G01X9981689Y-15774291D01*
G01X9981689Y-15715491D01*
G01X9981689Y-15656691D01*
G01X9981689Y-15597891D01*
G01X9981689Y-15539091D01*
G01X9981689Y-15480291D01*
G01X9981689Y-15421491D01*
G01X9981689Y-15362691D01*
G01X9981689Y-15362691D01*
G01X9981689Y-15362691D01*
G01X10033152Y-15362691D01*
G01X10084615Y-15362691D01*
G01X10136079Y-15362691D01*
G01X10187542Y-15362691D01*
G01X10239005Y-15362691D01*
G01X10290468Y-15362691D01*
G01X10341931Y-15362691D01*
G01X10393394Y-15362691D01*
G01X10444857Y-15362691D01*
G01X10496320Y-15362691D01*
G01X10547783Y-15362691D01*
G01X10599247Y-15362691D01*
G01X10650710Y-15362691D01*
G01X10702173Y-15362691D01*
G01X10753636Y-15362691D01*
G01X10805099Y-15362691D01*
G01X10839408Y-15362691D01*
G01X10839408Y-15362691D01*
G01X10872095Y-15395378D01*
G01X10904783Y-15428065D01*
G01X10937471Y-15460753D01*
G01X10970159Y-15493441D01*
G01X11002847Y-15526129D01*
G01X11031689Y-15554972D01*
G01X11031689Y-15554972D01*
G01X11031689Y-15609244D01*
G01X11031689Y-15663515D01*
G01X11031689Y-15717787D01*
G01X11031689Y-15772059D01*
G01X11031689Y-15826331D01*
G01X11031689Y-15880603D01*
G01X11031689Y-15934875D01*
G01X11031689Y-15989147D01*
G01X11031689Y-16043419D01*
G01X11031689Y-16097691D01*
G01X11031689Y-16151962D01*
G01X11031689Y-16206234D01*
G01X11031689Y-16260506D01*
G01X11031689Y-16314778D01*
G01X11031689Y-16369050D01*
G01X11031689Y-16423322D01*
G01X11031689Y-16477594D01*
G01X11031689Y-16531866D01*
G01X11031689Y-16586137D01*
G01X11031689Y-16640409D01*
G01X11031689Y-16640409D01*
G37*
G36*
G01X7781689Y-15554971D02*
G01X7781689Y-15554971D01*
G01X7814376Y-15522284D01*
G01X7847064Y-15489597D01*
G01X7879752Y-15456909D01*
G01X7912440Y-15424221D01*
G01X7945128Y-15391532D01*
G01X7973970Y-15362690D01*
G01X7973970Y-15362690D01*
G01X8025434Y-15362690D01*
G01X8076897Y-15362690D01*
G01X8128360Y-15362690D01*
G01X8179823Y-15362690D01*
G01X8231286Y-15362690D01*
G01X8282749Y-15362690D01*
G01X8334212Y-15362690D01*
G01X8385675Y-15362690D01*
G01X8437138Y-15362690D01*
G01X8488602Y-15362690D01*
G01X8540065Y-15362690D01*
G01X8591528Y-15362690D01*
G01X8642991Y-15362690D01*
G01X8694454Y-15362690D01*
G01X8745917Y-15362690D01*
G01X8797380Y-15362690D01*
G01X8831689Y-15362690D01*
G01X8831689Y-15362690D01*
G01X8831689Y-15421490D01*
G01X8831689Y-15480290D01*
G01X8831689Y-15539090D01*
G01X8831689Y-15597890D01*
G01X8831689Y-15656690D01*
G01X8831689Y-15715490D01*
G01X8831689Y-15774290D01*
G01X8831689Y-15833090D01*
G01X8831689Y-15891890D01*
G01X8831689Y-15950690D01*
G01X8831689Y-16009490D01*
G01X8831689Y-16068290D01*
G01X8831689Y-16127090D01*
G01X8831689Y-16185890D01*
G01X8831689Y-16244690D01*
G01X8831689Y-16303490D01*
G01X8831689Y-16362290D01*
G01X8831689Y-16421090D01*
G01X8831689Y-16479890D01*
G01X8831689Y-16538690D01*
G01X8831689Y-16597490D01*
G01X8831689Y-16656290D01*
G01X8831689Y-16715090D01*
G01X8831689Y-16773890D01*
G01X8831689Y-16832690D01*
G01X8831689Y-16832690D01*
G01X8831689Y-16832690D01*
G01X8780226Y-16832690D01*
G01X8728763Y-16832690D01*
G01X8677300Y-16832690D01*
G01X8625837Y-16832690D01*
G01X8574373Y-16832690D01*
G01X8522910Y-16832690D01*
G01X8471447Y-16832690D01*
G01X8419984Y-16832690D01*
G01X8368521Y-16832690D01*
G01X8317058Y-16832690D01*
G01X8265595Y-16832690D01*
G01X8214132Y-16832690D01*
G01X8162669Y-16832690D01*
G01X8111205Y-16832690D01*
G01X8059742Y-16832690D01*
G01X8008279Y-16832690D01*
G01X7973970Y-16832690D01*
G01X7973970Y-16832690D01*
G01X7941283Y-16800003D01*
G01X7908596Y-16767315D01*
G01X7875908Y-16734627D01*
G01X7843220Y-16701939D01*
G01X7810531Y-16669251D01*
G01X7781689Y-16640409D01*
G01X7781689Y-16640409D01*
G01X7781689Y-16586137D01*
G01X7781689Y-16531865D01*
G01X7781689Y-16477593D01*
G01X7781689Y-16423321D01*
G01X7781689Y-16369049D01*
G01X7781689Y-16314778D01*
G01X7781689Y-16260506D01*
G01X7781689Y-16206234D01*
G01X7781689Y-16151962D01*
G01X7781689Y-16097690D01*
G01X7781689Y-16043418D01*
G01X7781689Y-15989146D01*
G01X7781689Y-15934874D01*
G01X7781689Y-15880602D01*
G01X7781689Y-15826331D01*
G01X7781689Y-15772059D01*
G01X7781689Y-15717787D01*
G01X7781689Y-15663515D01*
G01X7781689Y-15609243D01*
G01X7781689Y-15554971D01*
G01X7781689Y-15554971D01*
G37*
G36*
G01X11031689Y-10729711D02*
G01X11031689Y-10729711D01*
G01X10999002Y-10762398D01*
G01X10966314Y-10795086D01*
G01X10933626Y-10827774D01*
G01X10900938Y-10860462D01*
G01X10868250Y-10893150D01*
G01X10839408Y-10921993D01*
G01X10839408Y-10921993D01*
G01X10787945Y-10921993D01*
G01X10736482Y-10921993D01*
G01X10685018Y-10921993D01*
G01X10633555Y-10921993D01*
G01X10582092Y-10921993D01*
G01X10530629Y-10921993D01*
G01X10479166Y-10921993D01*
G01X10427703Y-10921993D01*
G01X10376240Y-10921993D01*
G01X10324777Y-10921993D01*
G01X10273314Y-10921993D01*
G01X10221850Y-10921993D01*
G01X10170387Y-10921993D01*
G01X10118924Y-10921993D01*
G01X10067461Y-10921993D01*
G01X10015998Y-10921993D01*
G01X9981689Y-10921993D01*
G01X9981689Y-10921993D01*
G01X9981689Y-10863192D01*
G01X9981689Y-10804392D01*
G01X9981689Y-10745592D01*
G01X9981689Y-10686792D01*
G01X9981689Y-10627992D01*
G01X9981689Y-10569192D01*
G01X9981689Y-10510392D01*
G01X9981689Y-10451592D01*
G01X9981689Y-10392792D01*
G01X9981689Y-10333992D01*
G01X9981689Y-10275192D01*
G01X9981689Y-10216393D01*
G01X9981689Y-10157593D01*
G01X9981689Y-10098793D01*
G01X9981689Y-10039993D01*
G01X9981689Y-9981193D01*
G01X9981689Y-9922393D01*
G01X9981689Y-9863593D01*
G01X9981689Y-9804793D01*
G01X9981689Y-9745993D01*
G01X9981689Y-9687193D01*
G01X9981689Y-9628393D01*
G01X9981689Y-9569593D01*
G01X9981689Y-9510793D01*
G01X9981689Y-9451993D01*
G01X9981689Y-9451993D01*
G01X9981689Y-9451993D01*
G01X10033152Y-9451993D01*
G01X10084615Y-9451993D01*
G01X10136079Y-9451993D01*
G01X10187542Y-9451993D01*
G01X10239005Y-9451993D01*
G01X10290468Y-9451993D01*
G01X10341931Y-9451993D01*
G01X10393394Y-9451993D01*
G01X10444857Y-9451993D01*
G01X10496320Y-9451993D01*
G01X10547783Y-9451993D01*
G01X10599247Y-9451993D01*
G01X10650710Y-9451993D01*
G01X10702173Y-9451993D01*
G01X10753636Y-9451993D01*
G01X10805099Y-9451993D01*
G01X10839408Y-9451993D01*
G01X10839408Y-9451993D01*
G01X10872095Y-9484680D01*
G01X10904783Y-9517367D01*
G01X10937471Y-9550055D01*
G01X10970159Y-9582743D01*
G01X11002847Y-9615431D01*
G01X11031689Y-9644274D01*
G01X11031689Y-9644274D01*
G01X11031689Y-9698546D01*
G01X11031689Y-9752817D01*
G01X11031689Y-9807089D01*
G01X11031689Y-9861361D01*
G01X11031689Y-9915633D01*
G01X11031689Y-9969905D01*
G01X11031689Y-10024177D01*
G01X11031689Y-10078449D01*
G01X11031689Y-10132721D01*
G01X11031689Y-10186993D01*
G01X11031689Y-10241264D01*
G01X11031689Y-10295536D01*
G01X11031689Y-10349808D01*
G01X11031689Y-10404080D01*
G01X11031689Y-10458352D01*
G01X11031689Y-10512624D01*
G01X11031689Y-10566896D01*
G01X11031689Y-10621168D01*
G01X11031689Y-10675439D01*
G01X11031689Y-10729711D01*
G01X11031689Y-10729711D01*
G37*
G36*
G01X7781689Y-9644273D02*
G01X7781689Y-9644273D01*
G01X7814376Y-9611586D01*
G01X7847064Y-9578899D01*
G01X7879752Y-9546211D01*
G01X7912440Y-9513523D01*
G01X7945128Y-9480834D01*
G01X7973970Y-9451992D01*
G01X7973970Y-9451992D01*
G01X8025434Y-9451992D01*
G01X8076897Y-9451992D01*
G01X8128360Y-9451992D01*
G01X8179823Y-9451992D01*
G01X8231286Y-9451992D01*
G01X8282749Y-9451992D01*
G01X8334212Y-9451992D01*
G01X8385675Y-9451992D01*
G01X8437138Y-9451992D01*
G01X8488602Y-9451992D01*
G01X8540065Y-9451992D01*
G01X8591528Y-9451992D01*
G01X8642991Y-9451992D01*
G01X8694454Y-9451992D01*
G01X8745917Y-9451992D01*
G01X8797380Y-9451992D01*
G01X8831689Y-9451992D01*
G01X8831689Y-9451992D01*
G01X8831689Y-9510792D01*
G01X8831689Y-9569592D01*
G01X8831689Y-9628392D01*
G01X8831689Y-9687192D01*
G01X8831689Y-9745992D01*
G01X8831689Y-9804792D01*
G01X8831689Y-9863592D01*
G01X8831689Y-9922392D01*
G01X8831689Y-9981192D01*
G01X8831689Y-10039992D01*
G01X8831689Y-10098792D01*
G01X8831689Y-10157592D01*
G01X8831689Y-10216392D01*
G01X8831689Y-10275192D01*
G01X8831689Y-10333992D01*
G01X8831689Y-10392792D01*
G01X8831689Y-10451592D01*
G01X8831689Y-10510392D01*
G01X8831689Y-10569192D01*
G01X8831689Y-10627992D01*
G01X8831689Y-10686792D01*
G01X8831689Y-10745592D01*
G01X8831689Y-10804392D01*
G01X8831689Y-10863192D01*
G01X8831689Y-10921992D01*
G01X8831689Y-10921992D01*
G01X8831689Y-10921992D01*
G01X8780226Y-10921992D01*
G01X8728763Y-10921992D01*
G01X8677300Y-10921992D01*
G01X8625837Y-10921992D01*
G01X8574373Y-10921992D01*
G01X8522910Y-10921992D01*
G01X8471447Y-10921992D01*
G01X8419984Y-10921992D01*
G01X8368521Y-10921992D01*
G01X8317058Y-10921992D01*
G01X8265595Y-10921992D01*
G01X8214132Y-10921992D01*
G01X8162669Y-10921992D01*
G01X8111205Y-10921992D01*
G01X8059742Y-10921992D01*
G01X8008279Y-10921992D01*
G01X7973970Y-10921992D01*
G01X7973970Y-10921992D01*
G01X7941283Y-10889305D01*
G01X7908596Y-10856617D01*
G01X7875908Y-10823929D01*
G01X7843220Y-10791241D01*
G01X7810531Y-10758553D01*
G01X7781689Y-10729711D01*
G01X7781689Y-10729711D01*
G01X7781689Y-10675439D01*
G01X7781689Y-10621167D01*
G01X7781689Y-10566895D01*
G01X7781689Y-10512623D01*
G01X7781689Y-10458351D01*
G01X7781689Y-10404080D01*
G01X7781689Y-10349808D01*
G01X7781689Y-10295536D01*
G01X7781689Y-10241264D01*
G01X7781689Y-10186992D01*
G01X7781689Y-10132720D01*
G01X7781689Y-10078448D01*
G01X7781689Y-10024176D01*
G01X7781689Y-9969904D01*
G01X7781689Y-9915633D01*
G01X7781689Y-9861361D01*
G01X7781689Y-9807089D01*
G01X7781689Y-9752817D01*
G01X7781689Y-9698545D01*
G01X7781689Y-9644273D01*
G01X7781689Y-9644273D01*
G37*
G36*
G01X10681689Y-12397480D02*
G01X9971689Y-12397480D01*
G01X9971689Y-12747480D01*
G01X10681689Y-12747480D01*
G01X10681689Y-12397480D01*
G37*
G36*
G01X10681689Y-13697480D02*
G01X9971689Y-13697480D01*
G01X9971689Y-14047480D01*
G01X10681689Y-14047480D01*
G01X10681689Y-13697480D01*
G37*
G36*
G01X10681689Y-13047480D02*
G01X9971689Y-13047480D01*
G01X9971689Y-13397480D01*
G01X10681689Y-13397480D01*
G01X10681689Y-13047480D01*
G37*
G36*
G01X8841689Y-13047480D02*
G01X8131689Y-13047480D01*
G01X8131689Y-13397480D01*
G01X8841689Y-13397480D01*
G01X8841689Y-13047480D01*
G37*
G36*
G01X8841689Y-13697480D02*
G01X8131689Y-13697480D01*
G01X8131689Y-14047480D01*
G01X8841689Y-14047480D01*
G01X8841689Y-13697480D01*
G37*
G36*
G01X8841689Y-12397480D02*
G01X8131689Y-12397480D01*
G01X8131689Y-12747480D01*
G01X8841689Y-12747480D01*
G01X8841689Y-12397480D01*
G37*
G36*
G01X23050823Y-20068034D02*
G01X23050823Y-20068034D01*
G01X23109998Y-20066120D01*
G01X23168152Y-20060456D01*
G01X23225164Y-20051161D01*
G01X23280917Y-20038353D01*
G01X23335293Y-20022152D01*
G01X23388172Y-20002675D01*
G01X23439436Y-19980041D01*
G01X23488966Y-19954370D01*
G01X23536644Y-19925779D01*
G01X23582351Y-19894386D01*
G01X23625969Y-19860312D01*
G01X23667379Y-19823674D01*
G01X23706463Y-19784590D01*
G01X23743101Y-19743181D01*
G01X23777175Y-19699563D01*
G01X23808567Y-19653855D01*
G01X23837159Y-19606177D01*
G01X23862830Y-19556647D01*
G01X23885464Y-19505383D01*
G01X23904940Y-19452504D01*
G01X23921142Y-19398128D01*
G01X23933950Y-19342375D01*
G01X23943245Y-19285363D01*
G01X23948909Y-19227210D01*
G01X23950823Y-19168034D01*
G01X23950823Y-19168034D01*
G01X23950823Y-19168034D01*
G01X23948909Y-19108859D01*
G01X23943245Y-19050706D01*
G01X23933950Y-18993693D01*
G01X23921142Y-18937940D01*
G01X23904940Y-18883565D01*
G01X23885464Y-18830686D01*
G01X23862830Y-18779422D01*
G01X23837159Y-18729891D01*
G01X23808567Y-18682213D01*
G01X23777175Y-18636506D01*
G01X23743101Y-18592888D01*
G01X23706463Y-18551478D01*
G01X23667379Y-18512395D01*
G01X23625969Y-18475757D01*
G01X23582351Y-18441682D01*
G01X23536644Y-18410290D01*
G01X23488966Y-18381699D01*
G01X23439436Y-18356027D01*
G01X23388172Y-18333394D01*
G01X23335293Y-18313917D01*
G01X23280917Y-18297715D01*
G01X23225164Y-18284908D01*
G01X23168152Y-18275613D01*
G01X23109998Y-18269949D01*
G01X23050823Y-18268034D01*
G01X23050823Y-18268034D01*
G01X23050823Y-18268034D01*
G01X22991648Y-18269949D01*
G01X22933495Y-18275613D01*
G01X22876482Y-18284908D01*
G01X22820729Y-18297715D01*
G01X22766353Y-18313917D01*
G01X22713475Y-18333394D01*
G01X22662211Y-18356027D01*
G01X22612680Y-18381699D01*
G01X22565002Y-18410290D01*
G01X22519295Y-18441682D01*
G01X22475677Y-18475757D01*
G01X22434267Y-18512395D01*
G01X22395184Y-18551478D01*
G01X22358545Y-18592888D01*
G01X22324471Y-18636506D01*
G01X22293079Y-18682213D01*
G01X22264488Y-18729891D01*
G01X22238816Y-18779422D01*
G01X22216182Y-18830686D01*
G01X22196706Y-18883565D01*
G01X22180504Y-18937940D01*
G01X22167697Y-18993693D01*
G01X22158402Y-19050706D01*
G01X22152737Y-19108859D01*
G01X22150823Y-19168034D01*
G01X22150823Y-19168034D01*
G01X22150823Y-19168034D01*
G01X22152737Y-19227210D01*
G01X22158402Y-19285363D01*
G01X22167697Y-19342375D01*
G01X22180504Y-19398128D01*
G01X22196706Y-19452504D01*
G01X22216182Y-19505383D01*
G01X22238816Y-19556647D01*
G01X22264488Y-19606177D01*
G01X22293079Y-19653855D01*
G01X22324471Y-19699563D01*
G01X22358545Y-19743181D01*
G01X22395184Y-19784590D01*
G01X22434267Y-19823674D01*
G01X22475677Y-19860312D01*
G01X22519295Y-19894386D01*
G01X22565002Y-19925779D01*
G01X22612680Y-19954370D01*
G01X22662211Y-19980041D01*
G01X22713475Y-20002675D01*
G01X22766353Y-20022152D01*
G01X22820729Y-20038353D01*
G01X22876482Y-20051161D01*
G01X22933495Y-20060456D01*
G01X22991648Y-20066120D01*
G01X23050823Y-20068034D01*
G01X23050823Y-20068034D01*
G37*
G36*
G01X9911345Y-5633094D02*
G01X9911345Y-5633094D01*
G01X9827173Y-5631731D01*
G01X9743682Y-5627670D01*
G01X9660915Y-5620953D01*
G01X9578915Y-5611622D01*
G01X9497722Y-5599719D01*
G01X9417379Y-5585286D01*
G01X9337928Y-5568365D01*
G01X9259412Y-5548998D01*
G01X9181871Y-5527227D01*
G01X9105348Y-5503094D01*
G01X9029885Y-5476640D01*
G01X8955524Y-5447909D01*
G01X8882307Y-5416942D01*
G01X8810276Y-5383781D01*
G01X8739473Y-5348468D01*
G01X8669940Y-5311045D01*
G01X8601719Y-5271554D01*
G01X8534852Y-5230036D01*
G01X8469381Y-5186535D01*
G01X8405348Y-5141092D01*
G01X8342795Y-5093749D01*
G01X8281764Y-5044548D01*
G01X8222297Y-4993531D01*
G01X8164436Y-4940740D01*
G01X8108223Y-4886217D01*
G01X8053700Y-4830003D01*
G01X8000909Y-4772142D01*
G01X7949891Y-4712675D01*
G01X7900690Y-4651644D01*
G01X7853347Y-4589091D01*
G01X7807904Y-4525058D01*
G01X7764403Y-4459587D01*
G01X7722886Y-4392720D01*
G01X7683395Y-4324499D01*
G01X7645971Y-4254966D01*
G01X7610658Y-4184163D01*
G01X7577497Y-4112132D01*
G01X7546530Y-4038915D01*
G01X7517799Y-3964554D01*
G01X7491346Y-3889092D01*
G01X7467213Y-3812569D01*
G01X7445442Y-3735028D01*
G01X7426074Y-3656511D01*
G01X7409153Y-3577060D01*
G01X7394720Y-3496718D01*
G01X7382817Y-3415525D01*
G01X7373486Y-3333524D01*
G01X7366769Y-3250757D01*
G01X7362708Y-3167267D01*
G01X7361345Y-3083094D01*
G01X7361345Y-3083094D01*
G01X7361345Y-3083094D01*
G01X7362708Y-2998922D01*
G01X7366769Y-2915431D01*
G01X7373486Y-2832664D01*
G01X7382817Y-2750664D01*
G01X7394720Y-2669471D01*
G01X7409153Y-2589128D01*
G01X7426074Y-2509678D01*
G01X7445442Y-2431161D01*
G01X7467213Y-2353620D01*
G01X7491346Y-2277097D01*
G01X7517799Y-2201634D01*
G01X7546530Y-2127273D01*
G01X7577497Y-2054056D01*
G01X7610658Y-1982025D01*
G01X7645971Y-1911222D01*
G01X7683395Y-1841689D01*
G01X7722886Y-1773468D01*
G01X7764403Y-1706601D01*
G01X7807904Y-1641130D01*
G01X7853347Y-1577097D01*
G01X7900690Y-1514544D01*
G01X7949891Y-1453513D01*
G01X8000909Y-1394046D01*
G01X8053700Y-1336185D01*
G01X8108223Y-1279972D01*
G01X8164436Y-1225449D01*
G01X8222297Y-1172658D01*
G01X8281764Y-1121641D01*
G01X8342795Y-1072439D01*
G01X8405348Y-1025096D01*
G01X8469381Y-0979653D01*
G01X8534852Y-0936152D01*
G01X8601719Y-0894635D01*
G01X8669940Y-0855144D01*
G01X8739473Y-0817721D01*
G01X8810276Y-0782408D01*
G01X8882307Y-0749246D01*
G01X8955524Y-0718279D01*
G01X9029885Y-0689548D01*
G01X9105348Y-0663095D01*
G01X9181871Y-0638962D01*
G01X9259412Y-0617191D01*
G01X9337928Y-0597824D01*
G01X9417379Y-0580903D01*
G01X9497722Y-0566469D01*
G01X9578915Y-0554566D01*
G01X9660915Y-0545235D01*
G01X9743682Y-0538518D01*
G01X9827173Y-0534457D01*
G01X9911345Y-0533094D01*
G01X9911345Y-0533094D01*
G01X9911345Y-0533094D01*
G01X9995518Y-0534457D01*
G01X10079008Y-0538518D01*
G01X10161775Y-0545235D01*
G01X10243776Y-0554566D01*
G01X10324968Y-0566469D01*
G01X10405311Y-0580903D01*
G01X10484762Y-0597824D01*
G01X10563279Y-0617191D01*
G01X10640819Y-0638962D01*
G01X10717342Y-0663095D01*
G01X10792805Y-0689548D01*
G01X10867166Y-0718279D01*
G01X10940383Y-0749246D01*
G01X11012414Y-0782408D01*
G01X11083217Y-0817721D01*
G01X11152750Y-0855144D01*
G01X11220971Y-0894635D01*
G01X11287838Y-0936152D01*
G01X11353309Y-0979653D01*
G01X11417342Y-1025096D01*
G01X11479895Y-1072439D01*
G01X11540926Y-1121641D01*
G01X11600393Y-1172658D01*
G01X11658254Y-1225449D01*
G01X11714467Y-1279972D01*
G01X11768990Y-1336185D01*
G01X11821782Y-1394046D01*
G01X11872799Y-1453513D01*
G01X11922000Y-1514544D01*
G01X11969343Y-1577097D01*
G01X12014786Y-1641130D01*
G01X12058287Y-1706601D01*
G01X12099804Y-1773468D01*
G01X12139296Y-1841689D01*
G01X12176719Y-1911222D01*
G01X12212032Y-1982025D01*
G01X12245193Y-2054056D01*
G01X12276160Y-2127273D01*
G01X12304891Y-2201634D01*
G01X12331344Y-2277097D01*
G01X12355478Y-2353620D01*
G01X12377249Y-2431161D01*
G01X12396616Y-2509678D01*
G01X12413537Y-2589128D01*
G01X12427970Y-2669471D01*
G01X12439873Y-2750664D01*
G01X12449204Y-2832664D01*
G01X12455921Y-2915431D01*
G01X12459982Y-2998922D01*
G01X12461345Y-3083094D01*
G01X12461345Y-3083094D01*
G01X12461345Y-3083094D01*
G01X12459982Y-3167267D01*
G01X12455921Y-3250757D01*
G01X12449204Y-3333524D01*
G01X12439873Y-3415525D01*
G01X12427970Y-3496718D01*
G01X12413537Y-3577060D01*
G01X12396616Y-3656511D01*
G01X12377249Y-3735028D01*
G01X12355478Y-3812569D01*
G01X12331344Y-3889092D01*
G01X12304891Y-3964554D01*
G01X12276160Y-4038915D01*
G01X12245193Y-4112132D01*
G01X12212032Y-4184163D01*
G01X12176719Y-4254966D01*
G01X12139296Y-4324499D01*
G01X12099804Y-4392720D01*
G01X12058287Y-4459587D01*
G01X12014786Y-4525058D01*
G01X11969343Y-4589091D01*
G01X11922000Y-4651644D01*
G01X11872799Y-4712675D01*
G01X11821782Y-4772142D01*
G01X11768990Y-4830003D01*
G01X11714467Y-4886217D01*
G01X11658254Y-4940740D01*
G01X11600393Y-4993531D01*
G01X11540926Y-5044548D01*
G01X11479895Y-5093749D01*
G01X11417342Y-5141092D01*
G01X11353309Y-5186535D01*
G01X11287838Y-5230036D01*
G01X11220971Y-5271554D01*
G01X11152750Y-5311045D01*
G01X11083217Y-5348468D01*
G01X11012414Y-5383781D01*
G01X10940383Y-5416942D01*
G01X10867166Y-5447909D01*
G01X10792805Y-5476640D01*
G01X10717342Y-5503094D01*
G01X10640819Y-5527227D01*
G01X10563279Y-5548998D01*
G01X10484762Y-5568365D01*
G01X10405311Y-5585286D01*
G01X10324968Y-5599719D01*
G01X10243776Y-5611622D01*
G01X10161775Y-5620953D01*
G01X10079008Y-5627670D01*
G01X9995518Y-5631731D01*
G01X9911345Y-5633094D01*
G01X9911345Y-5633094D01*
G37*
G36*
G01X25950422Y-10275000D02*
G01X27150422Y-10275000D01*
G01X27150422Y-11475000D01*
G01X25950422Y-11475000D01*
G01X25950422Y-10275000D01*
G37*
G36*
G01X27400422Y-10426758D02*
G01X27400422Y-10426758D01*
G01X27443782Y-10423242D01*
G01X27443782Y-10423242D01*
G01X27495173Y-10455441D01*
G01X27497688Y-10468945D01*
G01X27497688Y-10468945D01*
G01X27497405Y-10514271D01*
G01X27496862Y-10584544D01*
G01X27496522Y-10626774D01*
G01X27496516Y-10627442D01*
G01X27496516Y-10627442D01*
G01X27495782Y-10724262D01*
G01X27495444Y-10780763D01*
G01X27495349Y-10805552D01*
G01X27495344Y-10808789D01*
G01X27495344Y-10808789D01*
G01X27564024Y-10770803D01*
G01X27625375Y-10751985D01*
G01X27668026Y-10745602D01*
G01X27681087Y-10744922D01*
G01X27681087Y-10744922D01*
G01X27755273Y-10759603D01*
G01X27806615Y-10788966D01*
G01X27831411Y-10810988D01*
G01X27833137Y-10812891D01*
G01X27833137Y-10812891D01*
G01X27865845Y-10870499D01*
G01X27883241Y-10934369D01*
G01X27890158Y-10987879D01*
G01X27891434Y-11014408D01*
G01X27891438Y-11015039D01*
G01X27891438Y-11015039D01*
G01X27883379Y-11095456D01*
G01X27864744Y-11160638D01*
G01X27843842Y-11207513D01*
G01X27828984Y-11233014D01*
G01X27826399Y-11236817D01*
G01X27826399Y-11236817D01*
G01X27772135Y-11287276D01*
G01X27712946Y-11314111D01*
G01X27663753Y-11324784D01*
G01X27639475Y-11326752D01*
G01X27638899Y-11326758D01*
G01X27638899Y-11326758D01*
G01X27561130Y-11317491D01*
G01X27496172Y-11295725D01*
G01X27447378Y-11270511D01*
G01X27418102Y-11250900D01*
G01X27410969Y-11245313D01*
G01X27410969Y-11245313D01*
G01X27415033Y-11190825D01*
G01X27417607Y-11123428D01*
G01X27419027Y-11057494D01*
G01X27419632Y-11007394D01*
G01X27419758Y-10987500D01*
G01X27419758Y-10987500D01*
G01X27419758Y-10987500D01*
G01X27419285Y-10926138D01*
G01X27418108Y-10856754D01*
G01X27416590Y-10788244D01*
G01X27415093Y-10729502D01*
G01X27413980Y-10689425D01*
G01X27413606Y-10676660D01*
G01X27413606Y-10676660D01*
G01X27409872Y-10572258D01*
G01X27406308Y-10500481D01*
G01X27403291Y-10455914D01*
G01X27401203Y-10433145D01*
G01X27400422Y-10426758D01*
G01X27400422Y-10426758D01*
G37*
%LPC*%
G36*
G01X27494172Y-11197266D02*
G01X27494172Y-11197266D01*
G01X27559104Y-11238198D01*
G01X27615588Y-11255780D01*
G01X27647582Y-11259883D01*
G01X27650032Y-11259961D01*
G01X27650032Y-11259961D01*
G01X27718388Y-11240481D01*
G01X27757546Y-11205755D01*
G01X27768098Y-11190820D01*
G01X27768098Y-11190820D01*
G01X27793698Y-11124892D01*
G01X27804569Y-11064595D01*
G01X27807024Y-11029485D01*
G01X27807063Y-11026758D01*
G01X27807063Y-11026758D01*
G01X27797761Y-10944408D01*
G01X27779156Y-10891294D01*
G01X27765203Y-10867226D01*
G01X27763997Y-10865625D01*
G01X27763997Y-10865625D01*
G01X27705941Y-10823256D01*
G01X27661706Y-10812616D01*
G01X27655891Y-10812305D01*
G01X27654133Y-10812305D01*
G01X27654133Y-10812305D01*
G01X27584794Y-10825184D01*
G01X27530495Y-10851474D01*
G01X27500067Y-10872656D01*
G01X27496516Y-10875586D01*
G01X27496516Y-10875586D01*
G01X27496937Y-10934427D01*
G01X27497102Y-10952637D01*
G01X27497102Y-10952637D01*
G01X27497615Y-11026575D01*
G01X27497688Y-11053711D01*
G01X27497688Y-11053711D01*
G01X27497688Y-11053711D01*
G01X27496698Y-11136787D01*
G01X27494932Y-11184420D01*
G01X27494172Y-11197266D01*
G37*
%LPD*%
G36*
G01X27991633Y-11036719D02*
G01X27991633Y-11036719D01*
G01X28000563Y-10957536D01*
G01X28021213Y-10895209D01*
G01X28044375Y-10851534D01*
G01X28060839Y-10828309D01*
G01X28063704Y-10824903D01*
G01X28063704Y-10824903D01*
G01X28121062Y-10780032D01*
G01X28180445Y-10756168D01*
G01X28228488Y-10746678D01*
G01X28251826Y-10744927D01*
G01X28252376Y-10744922D01*
G01X28252376Y-10744922D01*
G01X28328868Y-10756531D01*
G01X28387326Y-10782514D01*
G01X28425610Y-10809603D01*
G01X28441583Y-10824529D01*
G01X28441926Y-10824903D01*
G01X28441926Y-10824903D01*
G01X28479642Y-10883263D01*
G01X28501098Y-10944947D01*
G01X28510883Y-10998218D01*
G01X28513580Y-11031341D01*
G01X28513704Y-11036719D01*
G01X28513704Y-11036719D01*
G01X28504059Y-11118996D01*
G01X28482112Y-11182610D01*
G01X28458343Y-11225637D01*
G01X28443231Y-11246151D01*
G01X28441926Y-11247656D01*
G01X28441926Y-11247656D01*
G01X28384563Y-11292034D01*
G01X28324886Y-11315636D01*
G01X28276481Y-11325022D01*
G01X28252930Y-11326753D01*
G01X28252376Y-11326758D01*
G01X28252376Y-11326758D01*
G01X28176498Y-11315276D01*
G01X28118295Y-11289579D01*
G01X28080050Y-11262788D01*
G01X28064048Y-11248026D01*
G01X28063704Y-11247656D01*
G01X28063704Y-11247656D01*
G01X28025835Y-11189758D01*
G01X28004290Y-11128337D01*
G01X27994466Y-11075185D01*
G01X27991758Y-11042095D01*
G01X27991633Y-11036719D01*
G37*
%LPC*%
G36*
G01X28076008Y-11019727D02*
G01X28076008Y-11019727D01*
G01X28084919Y-11097475D01*
G01X28103472Y-11154485D01*
G01X28119395Y-11186281D01*
G01X28122590Y-11191406D01*
G01X28122590Y-11191406D01*
G01X28176365Y-11239342D01*
G01X28228230Y-11257267D01*
G01X28252351Y-11259961D01*
G01X28252376Y-11259961D01*
G01X28252376Y-11259961D01*
G01X28326361Y-11244113D01*
G01X28370652Y-11215861D01*
G01X28383040Y-11203711D01*
G01X28383040Y-11203711D01*
G01X28415176Y-11142492D01*
G01X28427728Y-11084038D01*
G01X28429912Y-11054153D01*
G01X28429915Y-11053711D01*
G01X28429915Y-11053711D01*
G01X28420723Y-10975851D01*
G01X28401588Y-10918608D01*
G01X28385164Y-10886611D01*
G01X28381868Y-10881445D01*
G01X28381868Y-10881445D01*
G01X28327517Y-10833100D01*
G01X28276107Y-10815022D01*
G01X28252400Y-10812305D01*
G01X28252376Y-10812305D01*
G01X28252376Y-10812305D01*
G01X28178555Y-10828318D01*
G01X28134558Y-10856864D01*
G01X28122297Y-10869141D01*
G01X28122297Y-10869141D01*
G01X28090563Y-10930762D01*
G01X28078168Y-10989373D01*
G01X28076011Y-11019285D01*
G01X28076008Y-11019727D01*
G37*
%LPD*%
G36*
G01X28567610Y-10800000D02*
G01X28567610Y-10800000D01*
G01X28585481Y-10764844D01*
G01X28585481Y-10764844D01*
G01X28642488Y-10757279D01*
G01X28646712Y-10757227D01*
G01X28680696Y-10757227D01*
G01X28680696Y-10757227D01*
G01X28677205Y-10678459D01*
G01X28673877Y-10631480D01*
G01X28673079Y-10622461D01*
G01X28673079Y-10622461D01*
G01X28712922Y-10618945D01*
G01X28712922Y-10618945D01*
G01X28767193Y-10649866D01*
G01X28770344Y-10664649D01*
G01X28770344Y-10664649D01*
G01X28767720Y-10722961D01*
G01X28765657Y-10758399D01*
G01X28765657Y-10758399D01*
G01X28861421Y-10757392D01*
G01X28923567Y-10755176D01*
G01X28957149Y-10752960D01*
G01X28967219Y-10751953D01*
G01X28967219Y-10751953D01*
G01X28967219Y-10751953D01*
G01X28971907Y-10780078D01*
G01X28971907Y-10780078D01*
G01X28959309Y-10812305D01*
G01X28959309Y-10812305D01*
G01X28919172Y-10821680D01*
G01X28919172Y-10821680D01*
G01X28861228Y-10822499D01*
G01X28795725Y-10822806D01*
G01X28763347Y-10822852D01*
G01X28763313Y-10822852D01*
G01X28763313Y-10822852D01*
G01X28762215Y-10897049D01*
G01X28761528Y-10967726D01*
G01X28761156Y-11028446D01*
G01X28761002Y-11072770D01*
G01X28760970Y-11094260D01*
G01X28760969Y-11095313D01*
G01X28760969Y-11095313D01*
G01X28767895Y-11181013D01*
G01X28779923Y-11222473D01*
G01X28784407Y-11230957D01*
G01X28784407Y-11230957D01*
G01X28839475Y-11261067D01*
G01X28861751Y-11263477D01*
G01X28861751Y-11263477D01*
G01X28926387Y-11243680D01*
G01X28947883Y-11227149D01*
G01X28947883Y-11227149D01*
G01X28969563Y-11270508D01*
G01X28969563Y-11270508D01*
G01X28938830Y-11311064D01*
G01X28938508Y-11311231D01*
G01X28938508Y-11311231D01*
G01X28876801Y-11326092D01*
G01X28862922Y-11326758D01*
G01X28862922Y-11326758D01*
G01X28784651Y-11312881D01*
G01X28738858Y-11286304D01*
G01X28722204Y-11269604D01*
G01X28722004Y-11269336D01*
G01X28722004Y-11269336D01*
G01X28696114Y-11211490D01*
G01X28684215Y-11149443D01*
G01X28680865Y-11105731D01*
G01X28680696Y-11097656D01*
G01X28680696Y-11097656D01*
G01X28681794Y-10990258D01*
G01X28682481Y-10913130D01*
G01X28682853Y-10862148D01*
G01X28683007Y-10833190D01*
G01X28683039Y-10822132D01*
G01X28683040Y-10821680D01*
G01X28683040Y-10821680D01*
G01X28634012Y-10825417D01*
G01X28574164Y-10830223D01*
G01X28571126Y-10830469D01*
G01X28571126Y-10830469D01*
G01X28567610Y-10800000D01*
G37*
G36*
G01X28989485Y-10800000D02*
G01X28989485Y-10800000D01*
G01X29007356Y-10764844D01*
G01X29007356Y-10764844D01*
G01X29064363Y-10757279D01*
G01X29068587Y-10757227D01*
G01X29102571Y-10757227D01*
G01X29102571Y-10757227D01*
G01X29099080Y-10678459D01*
G01X29095752Y-10631480D01*
G01X29094954Y-10622461D01*
G01X29094954Y-10622461D01*
G01X29134797Y-10618945D01*
G01X29134797Y-10618945D01*
G01X29189068Y-10649866D01*
G01X29192219Y-10664649D01*
G01X29192219Y-10664649D01*
G01X29189595Y-10722961D01*
G01X29187532Y-10758399D01*
G01X29187532Y-10758399D01*
G01X29283296Y-10757392D01*
G01X29345442Y-10755176D01*
G01X29379024Y-10752960D01*
G01X29389094Y-10751953D01*
G01X29389094Y-10751953D01*
G01X29389094Y-10751953D01*
G01X29393782Y-10780078D01*
G01X29393782Y-10780078D01*
G01X29381184Y-10812305D01*
G01X29381184Y-10812305D01*
G01X29341047Y-10821680D01*
G01X29341047Y-10821680D01*
G01X29283103Y-10822499D01*
G01X29217600Y-10822806D01*
G01X29185222Y-10822852D01*
G01X29185188Y-10822852D01*
G01X29185188Y-10822852D01*
G01X29184090Y-10897049D01*
G01X29183403Y-10967726D01*
G01X29183031Y-11028446D01*
G01X29182877Y-11072770D01*
G01X29182845Y-11094260D01*
G01X29182844Y-11095313D01*
G01X29182844Y-11095313D01*
G01X29189770Y-11181013D01*
G01X29201798Y-11222473D01*
G01X29206282Y-11230957D01*
G01X29206282Y-11230957D01*
G01X29261350Y-11261067D01*
G01X29283626Y-11263477D01*
G01X29283626Y-11263477D01*
G01X29348262Y-11243680D01*
G01X29369758Y-11227149D01*
G01X29369758Y-11227149D01*
G01X29391438Y-11270508D01*
G01X29391438Y-11270508D01*
G01X29360705Y-11311064D01*
G01X29360383Y-11311231D01*
G01X29360383Y-11311231D01*
G01X29298676Y-11326092D01*
G01X29284797Y-11326758D01*
G01X29284797Y-11326758D01*
G01X29206526Y-11312881D01*
G01X29160733Y-11286304D01*
G01X29144079Y-11269604D01*
G01X29143879Y-11269336D01*
G01X29143879Y-11269336D01*
G01X29117989Y-11211490D01*
G01X29106090Y-11149443D01*
G01X29102740Y-11105731D01*
G01X29102571Y-11097656D01*
G01X29102571Y-11097656D01*
G01X29103669Y-10990258D01*
G01X29104356Y-10913130D01*
G01X29104728Y-10862148D01*
G01X29104882Y-10833190D01*
G01X29104914Y-10822132D01*
G01X29104915Y-10821680D01*
G01X29104915Y-10821680D01*
G01X29055887Y-10825417D01*
G01X28996039Y-10830223D01*
G01X28993001Y-10830469D01*
G01X28993001Y-10830469D01*
G01X28989485Y-10800000D01*
G37*
G36*
G01X29465266Y-11036719D02*
G01X29465266Y-11036719D01*
G01X29474196Y-10957536D01*
G01X29494846Y-10895209D01*
G01X29518008Y-10851534D01*
G01X29534472Y-10828309D01*
G01X29537337Y-10824903D01*
G01X29537337Y-10824903D01*
G01X29594695Y-10780032D01*
G01X29654078Y-10756168D01*
G01X29702121Y-10746678D01*
G01X29725459Y-10744927D01*
G01X29726008Y-10744922D01*
G01X29726008Y-10744922D01*
G01X29802501Y-10756531D01*
G01X29860958Y-10782514D01*
G01X29899243Y-10809603D01*
G01X29915216Y-10824529D01*
G01X29915559Y-10824903D01*
G01X29915559Y-10824903D01*
G01X29953274Y-10883263D01*
G01X29974731Y-10944947D01*
G01X29984515Y-10998218D01*
G01X29987212Y-11031341D01*
G01X29987337Y-11036719D01*
G01X29987337Y-11036719D01*
G01X29977692Y-11118996D01*
G01X29955745Y-11182610D01*
G01X29931976Y-11225637D01*
G01X29916864Y-11246151D01*
G01X29915559Y-11247656D01*
G01X29915559Y-11247656D01*
G01X29858195Y-11292034D01*
G01X29798519Y-11315636D01*
G01X29750114Y-11325022D01*
G01X29726563Y-11326753D01*
G01X29726008Y-11326758D01*
G01X29726008Y-11326758D01*
G01X29650131Y-11315276D01*
G01X29591928Y-11289579D01*
G01X29553683Y-11262788D01*
G01X29537681Y-11248026D01*
G01X29537337Y-11247656D01*
G01X29537337Y-11247656D01*
G01X29499467Y-11189758D01*
G01X29477923Y-11128337D01*
G01X29468099Y-11075185D01*
G01X29465391Y-11042095D01*
G01X29465266Y-11036719D01*
G37*
%LPC*%
G36*
G01X29549641Y-11019727D02*
G01X29549641Y-11019727D01*
G01X29558552Y-11097475D01*
G01X29577104Y-11154485D01*
G01X29593027Y-11186281D01*
G01X29596223Y-11191406D01*
G01X29596223Y-11191406D01*
G01X29649997Y-11239342D01*
G01X29701863Y-11257267D01*
G01X29725984Y-11259961D01*
G01X29726008Y-11259961D01*
G01X29726008Y-11259961D01*
G01X29799994Y-11244113D01*
G01X29844285Y-11215861D01*
G01X29856672Y-11203711D01*
G01X29856672Y-11203711D01*
G01X29888808Y-11142492D01*
G01X29901360Y-11084038D01*
G01X29903544Y-11054153D01*
G01X29903547Y-11053711D01*
G01X29903547Y-11053711D01*
G01X29894356Y-10975851D01*
G01X29875221Y-10918608D01*
G01X29858797Y-10886611D01*
G01X29855501Y-10881445D01*
G01X29855501Y-10881445D01*
G01X29801150Y-10833100D01*
G01X29749740Y-10815022D01*
G01X29726033Y-10812305D01*
G01X29726008Y-10812305D01*
G01X29726008Y-10812305D01*
G01X29652188Y-10828318D01*
G01X29608191Y-10856864D01*
G01X29595930Y-10869141D01*
G01X29595930Y-10869141D01*
G01X29564196Y-10930762D01*
G01X29551801Y-10989373D01*
G01X29549644Y-11019285D01*
G01X29549641Y-11019727D01*
G37*
%LPD*%
G36*
G01X30113313Y-10763086D02*
G01X30113313Y-10763086D01*
G01X30156672Y-10753711D01*
G01X30156672Y-10753711D01*
G01X30206732Y-10788061D01*
G01X30211751Y-10813477D01*
G01X30211751Y-10813477D01*
G01X30269832Y-10777661D01*
G01X30300227Y-10764258D01*
G01X30300227Y-10764258D01*
G01X30300227Y-10764258D01*
G01X30369368Y-10747339D01*
G01X30399837Y-10744922D01*
G01X30399837Y-10744922D01*
G01X30399837Y-10744922D01*
G01X30474237Y-10762746D01*
G01X30516815Y-10797645D01*
G01X30532912Y-10821760D01*
G01X30533430Y-10822852D01*
G01X30533430Y-10822852D01*
G01X30587389Y-10785024D01*
G01X30623346Y-10768018D01*
G01X30623958Y-10767774D01*
G01X30623958Y-10767774D01*
G01X30694486Y-10748724D01*
G01X30732319Y-10744945D01*
G01X30733821Y-10744922D01*
G01X30733821Y-10744922D01*
G01X30804152Y-10761395D01*
G01X30837852Y-10783464D01*
G01X30839583Y-10785059D01*
G01X30839583Y-10785059D01*
G01X30870123Y-10842715D01*
G01X30879590Y-10898621D01*
G01X30880305Y-10914258D01*
G01X30880305Y-10914258D01*
G01X30879036Y-10968473D01*
G01X30878254Y-11000684D01*
G01X30878254Y-11000684D01*
G01X30876647Y-11081867D01*
G01X30876220Y-11122943D01*
G01X30876204Y-11128125D01*
G01X30876204Y-11128125D01*
G01X30880127Y-11210728D01*
G01X30888294Y-11270697D01*
G01X30895305Y-11303864D01*
G01X30896712Y-11309180D01*
G01X30896712Y-11309180D01*
G01X30849837Y-11318555D01*
G01X30849837Y-11318555D01*
G01X30805012Y-11304785D01*
G01X30805012Y-11304785D01*
G01X30791243Y-11257617D01*
G01X30791243Y-11257617D01*
G01X30791243Y-11257617D01*
G01X30792047Y-11200627D01*
G01X30793621Y-11134183D01*
G01X30794709Y-11094106D01*
G01X30794758Y-11092383D01*
G01X30794758Y-11092383D01*
G01X30797309Y-10997209D01*
G01X30798179Y-10954964D01*
G01X30798274Y-10946485D01*
G01X30798274Y-10946485D01*
G01X30785476Y-10873205D01*
G01X30770441Y-10845472D01*
G01X30770149Y-10845117D01*
G01X30770149Y-10845117D01*
G01X30713421Y-10814251D01*
G01X30696321Y-10812305D01*
G01X30696321Y-10812305D01*
G01X30631408Y-10826778D01*
G01X30576905Y-10855117D01*
G01X30548625Y-10874699D01*
G01X30547493Y-10875586D01*
G01X30547493Y-10875586D01*
G01X30548681Y-10967196D01*
G01X30549379Y-11036413D01*
G01X30549718Y-11083792D01*
G01X30549827Y-11109885D01*
G01X30549837Y-11115821D01*
G01X30549837Y-11115821D01*
G01X30551114Y-11198826D01*
G01X30553874Y-11262692D01*
G01X30556510Y-11302534D01*
G01X30557454Y-11313867D01*
G01X30557454Y-11313867D01*
G01X30516438Y-11317383D01*
G01X30516438Y-11317383D01*
G01X30465047Y-11285185D01*
G01X30462532Y-11271680D01*
G01X30462532Y-11271680D01*
G01X30464290Y-11223340D01*
G01X30464290Y-11223340D01*
G01X30466151Y-11159405D01*
G01X30467132Y-11109466D01*
G01X30467219Y-11104102D01*
G01X30467219Y-11104102D01*
G01X30468023Y-11032458D01*
G01X30468337Y-10974250D01*
G01X30468391Y-10946873D01*
G01X30468391Y-10946485D01*
G01X30468391Y-10946485D01*
G01X30449477Y-10864503D01*
G01X30409342Y-10825365D01*
G01X30372898Y-10813225D01*
G01X30362922Y-10812305D01*
G01X30362922Y-10812305D01*
G01X30298797Y-10827449D01*
G01X30244614Y-10857100D01*
G01X30216398Y-10877588D01*
G01X30215266Y-10878516D01*
G01X30215266Y-10878516D01*
G01X30216498Y-10973562D01*
G01X30217198Y-11043585D01*
G01X30217518Y-11089595D01*
G01X30217606Y-11112604D01*
G01X30217610Y-11115821D01*
G01X30217610Y-11115821D01*
G01X30218789Y-11198826D01*
G01X30221336Y-11262692D01*
G01X30223770Y-11302534D01*
G01X30224641Y-11313867D01*
G01X30224641Y-11313867D01*
G01X30184212Y-11317383D01*
G01X30184212Y-11317383D01*
G01X30132820Y-11285185D01*
G01X30130305Y-11271680D01*
G01X30130305Y-11271680D01*
G01X30132076Y-11216907D01*
G01X30133235Y-11183496D01*
G01X30133235Y-11183496D01*
G01X30135202Y-11108533D01*
G01X30136004Y-11048688D01*
G01X30136164Y-11018569D01*
G01X30136165Y-11017383D01*
G01X30136165Y-11017383D01*
G01X30133788Y-10915336D01*
G01X30128121Y-10842821D01*
G01X30121357Y-10795899D01*
G01X30115690Y-10770633D01*
G01X30113313Y-10763086D01*
G01X30113313Y-10763086D01*
G37*
G36*
G01X31292805Y-11231250D02*
G01X31292805Y-11231250D01*
G01X31330783Y-11187147D01*
G01X31346712Y-11180860D01*
G01X31346712Y-11180860D01*
G01X31387612Y-11230156D01*
G01X31403840Y-11239746D01*
G01X31403840Y-11239746D01*
G01X31469992Y-11257725D01*
G01X31499055Y-11259961D01*
G01X31499055Y-11259961D01*
G01X31566564Y-11245817D01*
G01X31582551Y-11237110D01*
G01X31582551Y-11237110D01*
G01X31612867Y-11182234D01*
G01X31614485Y-11166211D01*
G01X31614485Y-11166211D01*
G01X31587187Y-11114434D01*
G01X31582551Y-11111133D01*
G01X31582551Y-11111133D01*
G01X31522435Y-11086152D01*
G01X31505208Y-11081543D01*
G01X31505208Y-11081543D01*
G01X31438630Y-11064578D01*
G01X31414094Y-11057520D01*
G01X31414094Y-11057520D01*
G01X31355734Y-11024265D01*
G01X31336458Y-11005371D01*
G01X31336458Y-11005371D01*
G01X31309278Y-10943910D01*
G01X31304531Y-10904375D01*
G01X31304524Y-10903711D01*
G01X31304524Y-10903711D01*
G01X31324519Y-10836198D01*
G01X31357368Y-10796881D01*
G01X31366340Y-10789453D01*
G01X31366340Y-10789453D01*
G01X31431285Y-10757725D01*
G01X31485228Y-10746381D01*
G01X31506087Y-10744922D01*
G01X31506087Y-10744922D01*
G01X31574703Y-10755263D01*
G01X31614284Y-10769116D01*
G01X31616536Y-10770117D01*
G01X31616536Y-10770117D01*
G01X31665459Y-10817792D01*
G01X31670735Y-10839844D01*
G01X31670735Y-10839844D01*
G01X31632757Y-10884530D01*
G01X31616829Y-10890235D01*
G01X31616829Y-10890235D01*
G01X31575911Y-10842443D01*
G01X31562629Y-10833985D01*
G01X31562629Y-10833985D01*
G01X31498234Y-10814029D01*
G01X31477376Y-10812305D01*
G01X31477376Y-10812305D01*
G01X31415566Y-10828897D01*
G01X31406477Y-10834570D01*
G01X31406477Y-10834570D01*
G01X31377401Y-10887932D01*
G01X31376594Y-10897266D01*
G01X31376594Y-10897266D01*
G01X31403538Y-10949753D01*
G01X31408528Y-10953516D01*
G01X31408528Y-10953516D01*
G01X31467844Y-10979735D01*
G01X31485872Y-10984863D01*
G01X31485872Y-10984863D01*
G01X31551473Y-11002082D01*
G01X31576985Y-11009473D01*
G01X31576985Y-11009473D01*
G01X31636118Y-11042077D01*
G01X31654622Y-11059278D01*
G01X31654622Y-11059278D01*
G01X31682564Y-11119812D01*
G01X31686555Y-11153320D01*
G01X31686555Y-11153320D01*
G01X31686555Y-11153320D01*
G01X31670134Y-11225720D01*
G01X31640122Y-11269045D01*
G01X31625325Y-11282520D01*
G01X31625325Y-11282520D01*
G01X31561009Y-11313453D01*
G01X31504755Y-11325019D01*
G01X31479745Y-11326758D01*
G01X31479719Y-11326758D01*
G01X31479719Y-11326758D01*
G01X31405549Y-11317850D01*
G01X31358904Y-11303216D01*
G01X31349641Y-11299219D01*
G01X31349641Y-11299219D01*
G01X31298337Y-11251725D01*
G01X31292805Y-11231250D01*
G37*
G36*
G01X31789094Y-11036719D02*
G01X31789094Y-11036719D01*
G01X31798024Y-10957536D01*
G01X31818674Y-10895209D01*
G01X31841836Y-10851534D01*
G01X31858300Y-10828309D01*
G01X31861165Y-10824903D01*
G01X31861165Y-10824903D01*
G01X31918523Y-10780032D01*
G01X31977906Y-10756168D01*
G01X32025949Y-10746678D01*
G01X32049287Y-10744927D01*
G01X32049837Y-10744922D01*
G01X32049837Y-10744922D01*
G01X32126329Y-10756531D01*
G01X32184787Y-10782514D01*
G01X32223071Y-10809603D01*
G01X32239044Y-10824529D01*
G01X32239387Y-10824903D01*
G01X32239387Y-10824903D01*
G01X32277103Y-10883263D01*
G01X32298559Y-10944947D01*
G01X32308343Y-10998218D01*
G01X32311041Y-11031341D01*
G01X32311165Y-11036719D01*
G01X32311165Y-11036719D01*
G01X32301520Y-11118996D01*
G01X32279573Y-11182610D01*
G01X32255804Y-11225637D01*
G01X32240692Y-11246151D01*
G01X32239387Y-11247656D01*
G01X32239387Y-11247656D01*
G01X32182023Y-11292034D01*
G01X32122347Y-11315636D01*
G01X32073942Y-11325022D01*
G01X32050391Y-11326753D01*
G01X32049837Y-11326758D01*
G01X32049837Y-11326758D01*
G01X31973959Y-11315276D01*
G01X31915756Y-11289579D01*
G01X31877511Y-11262788D01*
G01X31861509Y-11248026D01*
G01X31861165Y-11247656D01*
G01X31861165Y-11247656D01*
G01X31823295Y-11189758D01*
G01X31801751Y-11128337D01*
G01X31791927Y-11075185D01*
G01X31789219Y-11042095D01*
G01X31789094Y-11036719D01*
G37*
%LPC*%
G36*
G01X31873469Y-11019727D02*
G01X31873469Y-11019727D01*
G01X31882380Y-11097475D01*
G01X31900933Y-11154485D01*
G01X31916855Y-11186281D01*
G01X31920051Y-11191406D01*
G01X31920051Y-11191406D01*
G01X31973826Y-11239342D01*
G01X32025691Y-11257267D01*
G01X32049812Y-11259961D01*
G01X32049837Y-11259961D01*
G01X32049837Y-11259961D01*
G01X32123822Y-11244113D01*
G01X32168113Y-11215861D01*
G01X32180501Y-11203711D01*
G01X32180501Y-11203711D01*
G01X32212637Y-11142492D01*
G01X32225189Y-11084038D01*
G01X32227373Y-11054153D01*
G01X32227376Y-11053711D01*
G01X32227376Y-11053711D01*
G01X32218184Y-10975851D01*
G01X32199049Y-10918608D01*
G01X32182625Y-10886611D01*
G01X32179329Y-10881445D01*
G01X32179329Y-10881445D01*
G01X32124978Y-10833100D01*
G01X32073568Y-10815022D01*
G01X32049861Y-10812305D01*
G01X32049837Y-10812305D01*
G01X32049837Y-10812305D01*
G01X31976016Y-10828318D01*
G01X31932019Y-10856864D01*
G01X31919758Y-10869141D01*
G01X31919758Y-10869141D01*
G01X31888024Y-10930762D01*
G01X31875629Y-10989373D01*
G01X31873472Y-11019285D01*
G01X31873469Y-11019727D01*
G37*
%LPD*%
G36*
G01X32437141Y-10426758D02*
G01X32437141Y-10426758D01*
G01X32479329Y-10423242D01*
G01X32479329Y-10423242D01*
G01X32531617Y-10454805D01*
G01X32534407Y-10468945D01*
G01X32534407Y-10468945D01*
G01X32532867Y-10525687D01*
G01X32532649Y-10533106D01*
G01X32532649Y-10533106D01*
G01X32530807Y-10597525D01*
G01X32529116Y-10658741D01*
G01X32528267Y-10689969D01*
G01X32528255Y-10690430D01*
G01X32528255Y-10690430D01*
G01X32526686Y-10764936D01*
G01X32525909Y-10829009D01*
G01X32525646Y-10872454D01*
G01X32525618Y-10885547D01*
G01X32525618Y-11072461D01*
G01X32525618Y-11072461D01*
G01X32528218Y-11162058D01*
G01X32534325Y-11230210D01*
G01X32541399Y-11277177D01*
G01X32546902Y-11303221D01*
G01X32548469Y-11309180D01*
G01X32548469Y-11309180D01*
G01X32503352Y-11318555D01*
G01X32503352Y-11318555D01*
G01X32457063Y-11304199D01*
G01X32457063Y-11304199D01*
G01X32444172Y-11256445D01*
G01X32444172Y-11256445D01*
G01X32444172Y-11256445D01*
G01X32444471Y-11206353D01*
G01X32445030Y-11138978D01*
G01X32445344Y-11103847D01*
G01X32445344Y-11103809D01*
G01X32445344Y-11103809D01*
G01X32446060Y-11014596D01*
G01X32446402Y-10953343D01*
G01X32446508Y-10919945D01*
G01X32446516Y-10913086D01*
G01X32446516Y-10773633D01*
G01X32446516Y-10773633D01*
G01X32445947Y-10660547D01*
G01X32444491Y-10573902D01*
G01X32442529Y-10510551D01*
G01X32440441Y-10467352D01*
G01X32438606Y-10441159D01*
G01X32437404Y-10428829D01*
G01X32437141Y-10426758D01*
G37*
G36*
G01X32674446Y-11036719D02*
G01X32674446Y-11036719D01*
G01X32683594Y-10958079D01*
G01X32704747Y-10895935D01*
G01X32728474Y-10852231D01*
G01X32745340Y-10828916D01*
G01X32748274Y-10825488D01*
G01X32748274Y-10825488D01*
G01X32807252Y-10778911D01*
G01X32865022Y-10754993D01*
G01X32908949Y-10746181D01*
G01X32926399Y-10744922D01*
G01X32926399Y-10744922D01*
G01X32926399Y-10744922D01*
G01X32997662Y-10756478D01*
G01X33049352Y-10777078D01*
G01X33065852Y-10785938D01*
G01X33065852Y-10785938D01*
G01X33067715Y-10707337D01*
G01X33068182Y-10665690D01*
G01X33068196Y-10661133D01*
G01X33068196Y-10661133D01*
G01X33067034Y-10572802D01*
G01X33064348Y-10503815D01*
G01X33061335Y-10455819D01*
G01X33059194Y-10430460D01*
G01X33058821Y-10426758D01*
G01X33058821Y-10426758D01*
G01X33101594Y-10423242D01*
G01X33101594Y-10423242D01*
G01X33152986Y-10455441D01*
G01X33155501Y-10468945D01*
G01X33155501Y-10468945D01*
G01X33155002Y-10510266D01*
G01X33153795Y-10573801D01*
G01X33152314Y-10643058D01*
G01X33150993Y-10701542D01*
G01X33150265Y-10732760D01*
G01X33150227Y-10734375D01*
G01X33150227Y-10734375D01*
G01X33148079Y-10831055D01*
G01X33146612Y-10908567D01*
G01X33145695Y-10967908D01*
G01X33145200Y-11010069D01*
G01X33144996Y-11036044D01*
G01X33144954Y-11046827D01*
G01X33144954Y-11047266D01*
G01X33144954Y-11047266D01*
G01X33147115Y-11146980D01*
G01X33152345Y-11219798D01*
G01X33158763Y-11268903D01*
G01X33164488Y-11297479D01*
G01X33167640Y-11308709D01*
G01X33167805Y-11309180D01*
G01X33167805Y-11309180D01*
G01X33122102Y-11318555D01*
G01X33122102Y-11318555D01*
G01X33074302Y-11282438D01*
G01X33069368Y-11258789D01*
G01X33069368Y-11258789D01*
G01X33006296Y-11302431D01*
G01X32950953Y-11321722D01*
G01X32917573Y-11326609D01*
G01X32913508Y-11326758D01*
G01X32912337Y-11326758D01*
G01X32912337Y-11326758D01*
G01X32840910Y-11312047D01*
G01X32785902Y-11280831D01*
G01X32752709Y-11252485D01*
G01X32745344Y-11244727D01*
G01X32745344Y-11244727D01*
G01X32706813Y-11183218D01*
G01X32685610Y-11120167D01*
G01X32676558Y-11067976D01*
G01X32674482Y-11039051D01*
G01X32674446Y-11036719D01*
G37*
%LPC*%
G36*
G01X32758821Y-11019727D02*
G01X32758821Y-11019727D01*
G01X32768460Y-11099678D01*
G01X32788530Y-11157701D01*
G01X32805754Y-11189782D01*
G01X32809212Y-11194922D01*
G01X32809212Y-11194922D01*
G01X32865904Y-11244650D01*
G01X32914285Y-11261626D01*
G01X32931087Y-11263477D01*
G01X32931087Y-11263477D01*
G01X32996936Y-11246007D01*
G01X33045937Y-11213308D01*
G01X33065833Y-11194942D01*
G01X33065852Y-11194922D01*
G01X33065852Y-11194922D01*
G01X33064948Y-11073073D01*
G01X33064312Y-10983304D01*
G01X33063898Y-10920833D01*
G01X33063658Y-10880878D01*
G01X33063545Y-10858658D01*
G01X33063511Y-10849391D01*
G01X33063508Y-10848047D01*
G01X33063508Y-10848047D01*
G01X32993957Y-10820418D01*
G01X32947961Y-10812685D01*
G01X32939876Y-10812305D01*
G01X32939876Y-10812305D01*
G01X32867133Y-10827548D01*
G01X32821952Y-10855406D01*
G01X32807454Y-10869141D01*
G01X32807454Y-10869141D01*
G01X32774113Y-10930762D01*
G01X32761090Y-10989373D01*
G01X32758824Y-11019285D01*
G01X32758821Y-11019727D01*
G37*
%LPD*%
G36*
G01X33293196Y-11039063D02*
G01X33293196Y-11039063D01*
G01X33303106Y-10955118D01*
G01X33326022Y-10890904D01*
G01X33351726Y-10847096D01*
G01X33369998Y-10824366D01*
G01X33373176Y-10821094D01*
G01X33373176Y-10821094D01*
G01X33436261Y-10777057D01*
G01X33497066Y-10754444D01*
G01X33542874Y-10746112D01*
G01X33560969Y-10744922D01*
G01X33560969Y-10744922D01*
G01X33560969Y-10744922D01*
G01X33636441Y-10758294D01*
G01X33683380Y-10782131D01*
G01X33696907Y-10792383D01*
G01X33696907Y-10792383D01*
G01X33737791Y-10852074D01*
G01X33748638Y-10896689D01*
G01X33749055Y-10903711D01*
G01X33749055Y-10903711D01*
G01X33737523Y-10969658D01*
G01X33732356Y-10981641D01*
G01X33732356Y-10981641D01*
G01X33692847Y-11027543D01*
G01X33688704Y-11030567D01*
G01X33688704Y-11030567D01*
G01X33629586Y-11053781D01*
G01X33610774Y-11058106D01*
G01X33610774Y-11058106D01*
G01X33541560Y-11067737D01*
G01X33510579Y-11070117D01*
G01X33510579Y-11070117D01*
G01X33510579Y-11070117D01*
G01X33445426Y-11071929D01*
G01X33391557Y-11072436D01*
G01X33381087Y-11072461D01*
G01X33381087Y-11072461D01*
G01X33399159Y-11147424D01*
G01X33422369Y-11194207D01*
G01X33432942Y-11209278D01*
G01X33432942Y-11209278D01*
G01X33489747Y-11247882D01*
G01X33539450Y-11259260D01*
G01X33551008Y-11259961D01*
G01X33551008Y-11259961D01*
G01X33626399Y-11243147D01*
G01X33667213Y-11212417D01*
G01X33678743Y-11197266D01*
G01X33678743Y-11197266D01*
G01X33724906Y-11239978D01*
G01X33726204Y-11247656D01*
G01X33726204Y-11247656D01*
G01X33690893Y-11295160D01*
G01X33671712Y-11305078D01*
G01X33671712Y-11305078D01*
G01X33603718Y-11322305D01*
G01X33555918Y-11326632D01*
G01X33549837Y-11326758D01*
G01X33549837Y-11326758D01*
G01X33473244Y-11315634D01*
G01X33414998Y-11291162D01*
G01X33377955Y-11266690D01*
G01X33364973Y-11255567D01*
G01X33364973Y-11255567D01*
G01X33364973Y-11255567D01*
G01X33327258Y-11200154D01*
G01X33305801Y-11137237D01*
G01X33296017Y-11080832D01*
G01X33293320Y-11044961D01*
G01X33293196Y-11039063D01*
G37*
%LPC*%
G36*
G01X33379915Y-11012695D02*
G01X33379915Y-11012695D01*
G01X33450174Y-11011953D01*
G01X33466047Y-11011524D01*
G01X33466047Y-11011524D01*
G01X33529006Y-11005895D01*
G01X33541633Y-11004199D01*
G01X33541633Y-11004199D01*
G01X33602706Y-10989272D01*
G01X33607844Y-10987207D01*
G01X33607844Y-10987207D01*
G01X33649107Y-10956206D01*
G01X33649153Y-10956153D01*
G01X33649153Y-10956153D01*
G01X33666432Y-10906481D01*
G01X33666438Y-10906055D01*
G01X33666438Y-10906055D01*
G01X33643283Y-10848321D01*
G01X33634797Y-10839258D01*
G01X33634797Y-10839258D01*
G01X33575640Y-10813071D01*
G01X33556282Y-10811133D01*
G01X33556282Y-10811133D01*
G01X33486461Y-10826361D01*
G01X33443048Y-10852100D01*
G01X33433235Y-10860352D01*
G01X33433235Y-10860352D01*
G01X33398469Y-10916988D01*
G01X33383470Y-10976638D01*
G01X33379965Y-11011233D01*
G01X33379915Y-11012695D01*
G37*
%LPD*%
G36*
G01X33875032Y-10757227D02*
G01X33875032Y-10757227D01*
G01X33916047Y-10753711D01*
G01X33916047Y-10753711D01*
G01X33965583Y-10786728D01*
G01X33967610Y-10798828D01*
G01X33967610Y-10798828D01*
G01X33967024Y-10815235D01*
G01X33967024Y-10815235D01*
G01X33966438Y-10841016D01*
G01X33966438Y-10841016D01*
G01X34010595Y-10791128D01*
G01X34030598Y-10774512D01*
G01X34030598Y-10774512D01*
G01X34092840Y-10746961D01*
G01X34109993Y-10744922D01*
G01X34109993Y-10744922D01*
G01X34153352Y-10757520D01*
G01X34153352Y-10757520D01*
G01X34169172Y-10791797D01*
G01X34169172Y-10791797D01*
G01X34146797Y-10843479D01*
G01X34145149Y-10845703D01*
G01X34145149Y-10845703D01*
G01X34090985Y-10823063D01*
G01X34087141Y-10822852D01*
G01X34087141Y-10822852D01*
G01X34028752Y-10843188D01*
G01X34020051Y-10849219D01*
G01X34020051Y-10849219D01*
G01X33975757Y-10898903D01*
G01X33963508Y-10918945D01*
G01X33963508Y-10918945D01*
G01X33962689Y-10975994D01*
G01X33962383Y-11039820D01*
G01X33962337Y-11071256D01*
G01X33962337Y-11071289D01*
G01X33962337Y-11071289D01*
G01X33964937Y-11161941D01*
G01X33971044Y-11230478D01*
G01X33978118Y-11277421D01*
G01X33983620Y-11303291D01*
G01X33985188Y-11309180D01*
G01X33985188Y-11309180D01*
G01X33939485Y-11318555D01*
G01X33939485Y-11318555D01*
G01X33892903Y-11303028D01*
G01X33892903Y-11303028D01*
G01X33892903Y-11303028D01*
G01X33880900Y-11250868D01*
G01X33880891Y-11250000D01*
G01X33880891Y-11250000D01*
G01X33881530Y-11191641D01*
G01X33882063Y-11155371D01*
G01X33882063Y-11155371D01*
G01X33883018Y-11077329D01*
G01X33883232Y-11040346D01*
G01X33883235Y-11037891D01*
G01X33883235Y-11037891D01*
G01X33882533Y-10951548D01*
G01X33880811Y-10879012D01*
G01X33878642Y-10821904D01*
G01X33876601Y-10781844D01*
G01X33875262Y-10760450D01*
G01X33875032Y-10757227D01*
G37*
G36*
G01X34252962Y-10763086D02*
G01X34252962Y-10763086D01*
G01X34296321Y-10753711D01*
G01X34296321Y-10753711D01*
G01X34346380Y-10788061D01*
G01X34351399Y-10813477D01*
G01X34351399Y-10813477D01*
G01X34409480Y-10777661D01*
G01X34439876Y-10764258D01*
G01X34439876Y-10764258D01*
G01X34439876Y-10764258D01*
G01X34509016Y-10747339D01*
G01X34539485Y-10744922D01*
G01X34539485Y-10744922D01*
G01X34539485Y-10744922D01*
G01X34613885Y-10762746D01*
G01X34656463Y-10797645D01*
G01X34672560Y-10821760D01*
G01X34673079Y-10822852D01*
G01X34673079Y-10822852D01*
G01X34727037Y-10785024D01*
G01X34762995Y-10768018D01*
G01X34763606Y-10767774D01*
G01X34763606Y-10767774D01*
G01X34834134Y-10748724D01*
G01X34871967Y-10744945D01*
G01X34873469Y-10744922D01*
G01X34873469Y-10744922D01*
G01X34943800Y-10761395D01*
G01X34977500Y-10783464D01*
G01X34979231Y-10785059D01*
G01X34979231Y-10785059D01*
G01X35009771Y-10842715D01*
G01X35019238Y-10898621D01*
G01X35019954Y-10914258D01*
G01X35019954Y-10914258D01*
G01X35018684Y-10968473D01*
G01X35017903Y-11000684D01*
G01X35017903Y-11000684D01*
G01X35016295Y-11081867D01*
G01X35015869Y-11122943D01*
G01X35015852Y-11128125D01*
G01X35015852Y-11128125D01*
G01X35019775Y-11210728D01*
G01X35027943Y-11270697D01*
G01X35034953Y-11303864D01*
G01X35036360Y-11309180D01*
G01X35036360Y-11309180D01*
G01X34989485Y-11318555D01*
G01X34989485Y-11318555D01*
G01X34944661Y-11304785D01*
G01X34944661Y-11304785D01*
G01X34930891Y-11257617D01*
G01X34930891Y-11257617D01*
G01X34930891Y-11257617D01*
G01X34931695Y-11200627D01*
G01X34933270Y-11134183D01*
G01X34934358Y-11094106D01*
G01X34934407Y-11092383D01*
G01X34934407Y-11092383D01*
G01X34936957Y-10997209D01*
G01X34937828Y-10954964D01*
G01X34937922Y-10946485D01*
G01X34937922Y-10946485D01*
G01X34925124Y-10873205D01*
G01X34910089Y-10845472D01*
G01X34909797Y-10845117D01*
G01X34909797Y-10845117D01*
G01X34853070Y-10814251D01*
G01X34835969Y-10812305D01*
G01X34835969Y-10812305D01*
G01X34771057Y-10826778D01*
G01X34716553Y-10855117D01*
G01X34688274Y-10874699D01*
G01X34687141Y-10875586D01*
G01X34687141Y-10875586D01*
G01X34688329Y-10967196D01*
G01X34689028Y-11036413D01*
G01X34689366Y-11083792D01*
G01X34689475Y-11109885D01*
G01X34689485Y-11115821D01*
G01X34689485Y-11115821D01*
G01X34690762Y-11198826D01*
G01X34693522Y-11262692D01*
G01X34696158Y-11302534D01*
G01X34697102Y-11313867D01*
G01X34697102Y-11313867D01*
G01X34656087Y-11317383D01*
G01X34656087Y-11317383D01*
G01X34604695Y-11285185D01*
G01X34602180Y-11271680D01*
G01X34602180Y-11271680D01*
G01X34603938Y-11223340D01*
G01X34603938Y-11223340D01*
G01X34605799Y-11159405D01*
G01X34606780Y-11109466D01*
G01X34606868Y-11104102D01*
G01X34606868Y-11104102D01*
G01X34607671Y-11032458D01*
G01X34607985Y-10974250D01*
G01X34608040Y-10946873D01*
G01X34608040Y-10946485D01*
G01X34608040Y-10946485D01*
G01X34589126Y-10864503D01*
G01X34548991Y-10825365D01*
G01X34512546Y-10813225D01*
G01X34502571Y-10812305D01*
G01X34502571Y-10812305D01*
G01X34438445Y-10827449D01*
G01X34384262Y-10857100D01*
G01X34356047Y-10877588D01*
G01X34354915Y-10878516D01*
G01X34354915Y-10878516D01*
G01X34356146Y-10973562D01*
G01X34356847Y-11043585D01*
G01X34357166Y-11089595D01*
G01X34357254Y-11112604D01*
G01X34357258Y-11115821D01*
G01X34357258Y-11115821D01*
G01X34358437Y-11198826D01*
G01X34360985Y-11262692D01*
G01X34363418Y-11302534D01*
G01X34364290Y-11313867D01*
G01X34364290Y-11313867D01*
G01X34323860Y-11317383D01*
G01X34323860Y-11317383D01*
G01X34272469Y-11285185D01*
G01X34269954Y-11271680D01*
G01X34269954Y-11271680D01*
G01X34271724Y-11216907D01*
G01X34272883Y-11183496D01*
G01X34272883Y-11183496D01*
G01X34274851Y-11108533D01*
G01X34275652Y-11048688D01*
G01X34275812Y-11018569D01*
G01X34275813Y-11017383D01*
G01X34275813Y-11017383D01*
G01X34273437Y-10915336D01*
G01X34267769Y-10842821D01*
G01X34261005Y-10795899D01*
G01X34255338Y-10770633D01*
G01X34252962Y-10763086D01*
G01X34252962Y-10763086D01*
G37*
G36*
G01X35162337Y-11158008D02*
G01X35162337Y-11158008D01*
G01X35177553Y-11088438D01*
G01X35191047Y-11068067D01*
G01X35191047Y-11068067D01*
G01X35246104Y-11033286D01*
G01X35270149Y-11024414D01*
G01X35270149Y-11024414D01*
G01X35334696Y-11010775D01*
G01X35401292Y-11001243D01*
G01X35458032Y-10995332D01*
G01X35493013Y-10992555D01*
G01X35498665Y-10992188D01*
G01X35498665Y-10992188D01*
G01X35491566Y-10907255D01*
G01X35478912Y-10862439D01*
G01X35473469Y-10851270D01*
G01X35473469Y-10851270D01*
G01X35420481Y-10819521D01*
G01X35370685Y-10812412D01*
G01X35366243Y-10812305D01*
G01X35366243Y-10812305D01*
G01X35306046Y-10828800D01*
G01X35296809Y-10833692D01*
G01X35296809Y-10833692D01*
G01X35251310Y-10880288D01*
G01X35242610Y-10896094D01*
G01X35242610Y-10896094D01*
G01X35190102Y-10859620D01*
G01X35187532Y-10848047D01*
G01X35187532Y-10848047D01*
G01X35217255Y-10792203D01*
G01X35245247Y-10773047D01*
G01X35245247Y-10773047D01*
G01X35312279Y-10751955D01*
G01X35365837Y-10745416D01*
G01X35379719Y-10744922D01*
G01X35379719Y-10744922D01*
G01X35462030Y-10755259D01*
G01X35511883Y-10775056D01*
G01X35530660Y-10787496D01*
G01X35530891Y-10787695D01*
G01X35530891Y-10787695D01*
G01X35563154Y-10841612D01*
G01X35576302Y-10902647D01*
G01X35578922Y-10939067D01*
G01X35578938Y-10940625D01*
G01X35578938Y-10940625D01*
G01X35578005Y-10998540D01*
G01X35577766Y-11011231D01*
G01X35577766Y-11011231D01*
G01X35576701Y-11084393D01*
G01X35576594Y-11102930D01*
G01X35576594Y-11102930D01*
G01X35580165Y-11193494D01*
G01X35588020Y-11257910D01*
G01X35595875Y-11296399D01*
G01X35599446Y-11309180D01*
G01X35599446Y-11309180D01*
G01X35599446Y-11309180D01*
G01X35552571Y-11318555D01*
G01X35552571Y-11318555D01*
G01X35515364Y-11305957D01*
G01X35515364Y-11305957D01*
G01X35501008Y-11265820D01*
G01X35501008Y-11265820D01*
G01X35435032Y-11305856D01*
G01X35380099Y-11322858D01*
G01X35349782Y-11326697D01*
G01X35347493Y-11326758D01*
G01X35347493Y-11326758D01*
G01X35264639Y-11312324D01*
G01X35211133Y-11276894D01*
G01X35180560Y-11232280D01*
G01X35166500Y-11190289D01*
G01X35162538Y-11162733D01*
G01X35162337Y-11158008D01*
G37*
%LPC*%
G36*
G01X35246712Y-11158008D02*
G01X35246712Y-11158008D01*
G01X35265478Y-11223208D01*
G01X35277766Y-11237695D01*
G01X35277766Y-11237695D01*
G01X35337968Y-11261827D01*
G01X35356868Y-11263477D01*
G01X35356868Y-11263477D01*
G01X35429984Y-11249020D01*
G01X35478301Y-11222598D01*
G01X35494563Y-11209570D01*
G01X35494563Y-11209570D01*
G01X35493393Y-11154664D01*
G01X35493391Y-11153320D01*
G01X35493391Y-11153320D01*
G01X35495719Y-11083941D01*
G01X35497493Y-11053711D01*
G01X35497493Y-11053711D01*
G01X35445429Y-11059559D01*
G01X35445344Y-11059570D01*
G01X35445344Y-11059570D01*
G01X35398176Y-11065430D01*
G01X35398176Y-11065430D01*
G01X35354231Y-11072461D01*
G01X35354231Y-11072461D01*
G01X35319075Y-11082129D01*
G01X35319075Y-11082129D01*
G01X35288020Y-11095606D01*
G01X35288020Y-11095606D01*
G01X35266340Y-11111719D01*
G01X35266340Y-11111719D01*
G01X35250813Y-11131934D01*
G01X35250813Y-11131934D01*
G01X35246712Y-11158008D01*
G37*
%LPD*%
G36*
G01X35713118Y-11231250D02*
G01X35713118Y-11231250D01*
G01X35751095Y-11187147D01*
G01X35767024Y-11180860D01*
G01X35767024Y-11180860D01*
G01X35807925Y-11230156D01*
G01X35824153Y-11239746D01*
G01X35824153Y-11239746D01*
G01X35890305Y-11257725D01*
G01X35919368Y-11259961D01*
G01X35919368Y-11259961D01*
G01X35986876Y-11245817D01*
G01X36002864Y-11237110D01*
G01X36002864Y-11237110D01*
G01X36033180Y-11182234D01*
G01X36034797Y-11166211D01*
G01X36034797Y-11166211D01*
G01X36007499Y-11114434D01*
G01X36002864Y-11111133D01*
G01X36002864Y-11111133D01*
G01X35942748Y-11086152D01*
G01X35925520Y-11081543D01*
G01X35925520Y-11081543D01*
G01X35858942Y-11064578D01*
G01X35834407Y-11057520D01*
G01X35834407Y-11057520D01*
G01X35776047Y-11024265D01*
G01X35756770Y-11005371D01*
G01X35756770Y-11005371D01*
G01X35729591Y-10943910D01*
G01X35724843Y-10904375D01*
G01X35724837Y-10903711D01*
G01X35724837Y-10903711D01*
G01X35744831Y-10836198D01*
G01X35777680Y-10796881D01*
G01X35786653Y-10789453D01*
G01X35786653Y-10789453D01*
G01X35851598Y-10757725D01*
G01X35905541Y-10746381D01*
G01X35926399Y-10744922D01*
G01X35926399Y-10744922D01*
G01X35995016Y-10755263D01*
G01X36034597Y-10769116D01*
G01X36036848Y-10770117D01*
G01X36036848Y-10770117D01*
G01X36085772Y-10817792D01*
G01X36091047Y-10839844D01*
G01X36091047Y-10839844D01*
G01X36053070Y-10884530D01*
G01X36037141Y-10890235D01*
G01X36037141Y-10890235D01*
G01X35996224Y-10842443D01*
G01X35982942Y-10833985D01*
G01X35982942Y-10833985D01*
G01X35918546Y-10814029D01*
G01X35897688Y-10812305D01*
G01X35897688Y-10812305D01*
G01X35835879Y-10828897D01*
G01X35826790Y-10834570D01*
G01X35826790Y-10834570D01*
G01X35797714Y-10887932D01*
G01X35796907Y-10897266D01*
G01X35796907Y-10897266D01*
G01X35823851Y-10949753D01*
G01X35828840Y-10953516D01*
G01X35828840Y-10953516D01*
G01X35888156Y-10979735D01*
G01X35906184Y-10984863D01*
G01X35906184Y-10984863D01*
G01X35971785Y-11002082D01*
G01X35997297Y-11009473D01*
G01X35997297Y-11009473D01*
G01X36056431Y-11042077D01*
G01X36074934Y-11059278D01*
G01X36074934Y-11059278D01*
G01X36102876Y-11119812D01*
G01X36106868Y-11153320D01*
G01X36106868Y-11153320D01*
G01X36106868Y-11153320D01*
G01X36090446Y-11225720D01*
G01X36060435Y-11269045D01*
G01X36045637Y-11282520D01*
G01X36045637Y-11282520D01*
G01X35981322Y-11313453D01*
G01X35925067Y-11325019D01*
G01X35900057Y-11326758D01*
G01X35900032Y-11326758D01*
G01X35900032Y-11326758D01*
G01X35825861Y-11317850D01*
G01X35779216Y-11303216D01*
G01X35769954Y-11299219D01*
G01X35769954Y-11299219D01*
G01X35718650Y-11251725D01*
G01X35713118Y-11231250D01*
G37*
G36*
G01X36227571Y-10426758D02*
G01X36227571Y-10426758D01*
G01X36269758Y-10423242D01*
G01X36269758Y-10423242D01*
G01X36322047Y-10454805D01*
G01X36324837Y-10468945D01*
G01X36324837Y-10468945D01*
G01X36323119Y-10522869D01*
G01X36323079Y-10524024D01*
G01X36323079Y-10524024D01*
G01X36320887Y-10589412D01*
G01X36319091Y-10645094D01*
G01X36318684Y-10657910D01*
G01X36318684Y-10657910D01*
G01X36316952Y-10730866D01*
G01X36316216Y-10790358D01*
G01X36316050Y-10822766D01*
G01X36316047Y-10825195D01*
G01X36316047Y-10825195D01*
G01X36380638Y-10778787D01*
G01X36439900Y-10754956D01*
G01X36483232Y-10746176D01*
G01X36500032Y-10744922D01*
G01X36500032Y-10744922D01*
G01X36500032Y-10744922D01*
G01X36574023Y-10759365D01*
G01X36612809Y-10782396D01*
G01X36618684Y-10787695D01*
G01X36618684Y-10787695D01*
G01X36652255Y-10848449D01*
G01X36659336Y-10890036D01*
G01X36659407Y-10892578D01*
G01X36659407Y-10892578D01*
G01X36645539Y-10964003D01*
G01X36622097Y-11008914D01*
G01X36614583Y-11019141D01*
G01X36614583Y-11019141D01*
G01X36559286Y-11060294D01*
G01X36507575Y-11077912D01*
G01X36488899Y-11081250D01*
G01X36488899Y-11081250D01*
G01X36539056Y-11160211D01*
G01X36568362Y-11201200D01*
G01X36579006Y-11214123D01*
G01X36579133Y-11214258D01*
G01X36579133Y-11214258D01*
G01X36637261Y-11250265D01*
G01X36653547Y-11252930D01*
G01X36653547Y-11252930D01*
G01X36684602Y-11247656D01*
G01X36684602Y-11247656D01*
G01X36695735Y-11282813D01*
G01X36695735Y-11282813D01*
G01X36670540Y-11315625D01*
G01X36670540Y-11315625D01*
G01X36622493Y-11326758D01*
G01X36622493Y-11326758D01*
G01X36560613Y-11304730D01*
G01X36535774Y-11283985D01*
G01X36535774Y-11283985D01*
G01X36505598Y-11247949D01*
G01X36505598Y-11247949D01*
G01X36475789Y-11204996D01*
G01X36475715Y-11204883D01*
G01X36475715Y-11204883D01*
G01X36450520Y-11164453D01*
G01X36450520Y-11164453D01*
G01X36423235Y-11118300D01*
G01X36422981Y-11117871D01*
G01X36422981Y-11117871D01*
G01X36399251Y-11077149D01*
G01X36399251Y-11077149D01*
G01X36367610Y-11051953D01*
G01X36367610Y-11051953D01*
G01X36374055Y-11023242D01*
G01X36374055Y-11023242D01*
G01X36432863Y-11031933D01*
G01X36434993Y-11032031D01*
G01X36434993Y-11032031D01*
G01X36506638Y-11015913D01*
G01X36536550Y-10996076D01*
G01X36537239Y-10995410D01*
G01X36537239Y-10995410D01*
G01X36569767Y-10935454D01*
G01X36573274Y-10910742D01*
G01X36573274Y-10910742D01*
G01X36554936Y-10849806D01*
G01X36548665Y-10841016D01*
G01X36548665Y-10841016D01*
G01X36493126Y-10813536D01*
G01X36479524Y-10812305D01*
G01X36479524Y-10812305D01*
G01X36416302Y-10826814D01*
G01X36394270Y-10836914D01*
G01X36394270Y-10836914D01*
G01X36337304Y-10877639D01*
G01X36316047Y-10898438D01*
G01X36316047Y-11072461D01*
G01X36316047Y-11072461D01*
G01X36318647Y-11162058D01*
G01X36324754Y-11230210D01*
G01X36331829Y-11277177D01*
G01X36337331Y-11303221D01*
G01X36338899Y-11309180D01*
G01X36338899Y-11309180D01*
G01X36293782Y-11318555D01*
G01X36293782Y-11318555D01*
G01X36247493Y-11304199D01*
G01X36247493Y-11304199D01*
G01X36234602Y-11256445D01*
G01X36234602Y-11256445D01*
G01X36234602Y-11256445D01*
G01X36234901Y-11206353D01*
G01X36235460Y-11138978D01*
G01X36235774Y-11103847D01*
G01X36235774Y-11103809D01*
G01X36235774Y-11103809D01*
G01X36236490Y-11014596D01*
G01X36236832Y-10953343D01*
G01X36236938Y-10919945D01*
G01X36236946Y-10913086D01*
G01X36236946Y-10773633D01*
G01X36236946Y-10773633D01*
G01X36236376Y-10660547D01*
G01X36234921Y-10573901D01*
G01X36232959Y-10510551D01*
G01X36230871Y-10467352D01*
G01X36229036Y-10441159D01*
G01X36227833Y-10428829D01*
G01X36227571Y-10426758D01*
G37*

G04 Pad flashes *
%LPD*%
D11*

G04 end of program *
M02*
