G04 #@! TF.FileFunction,Soldermask,Bot*

G04 leading zeros omitted (L); absolute data (A); 6 integer digits and 6 fractional digits *
%FSLAX66Y66*%

G04 mode (MO): millimeters (MM) *
%MOMM*%

G04 Aperture definitions *
%ADD10C,0.001X*%
%ADD11C,0.001X*%

%LPD*%
G36*
G01X26271048Y-12775392D02*
G01X26271048Y-12775392D01*
G01X26335155Y-12777466D01*
G01X26398154Y-12783602D01*
G01X26459917Y-12793672D01*
G01X26520317Y-12807547D01*
G01X26579223Y-12825098D01*
G01X26636509Y-12846198D01*
G01X26692045Y-12870718D01*
G01X26745703Y-12898529D01*
G01X26797354Y-12929502D01*
G01X26846870Y-12963511D01*
G01X26894123Y-13000424D01*
G01X26938984Y-13040116D01*
G01X26981324Y-13082456D01*
G01X27021016Y-13127317D01*
G01X27057930Y-13174570D01*
G01X27091938Y-13224086D01*
G01X27122911Y-13275737D01*
G01X27150722Y-13329395D01*
G01X27175242Y-13384931D01*
G01X27196342Y-13442217D01*
G01X27213893Y-13501123D01*
G01X27227768Y-13561523D01*
G01X27237838Y-13623286D01*
G01X27243974Y-13686286D01*
G01X27246048Y-13750392D01*
G01X27246048Y-13750392D01*
G01X27246048Y-13750392D01*
G01X27243974Y-13814499D01*
G01X27237838Y-13877498D01*
G01X27227768Y-13939261D01*
G01X27213893Y-13999661D01*
G01X27196342Y-14058567D01*
G01X27175242Y-14115853D01*
G01X27150722Y-14171389D01*
G01X27122911Y-14225047D01*
G01X27091938Y-14276698D01*
G01X27057930Y-14326214D01*
G01X27021016Y-14373467D01*
G01X26981324Y-14418328D01*
G01X26938984Y-14460668D01*
G01X26894123Y-14500360D01*
G01X26846870Y-14537274D01*
G01X26797354Y-14571282D01*
G01X26745703Y-14602255D01*
G01X26692045Y-14630066D01*
G01X26636509Y-14654586D01*
G01X26579223Y-14675686D01*
G01X26520317Y-14693238D01*
G01X26459917Y-14707112D01*
G01X26398154Y-14717182D01*
G01X26335155Y-14723318D01*
G01X26271048Y-14725392D01*
G01X26271048Y-14725392D01*
G01X26271048Y-14725392D01*
G01X26206941Y-14723318D01*
G01X26143942Y-14717182D01*
G01X26082179Y-14707112D01*
G01X26021779Y-14693238D01*
G01X25962873Y-14675686D01*
G01X25905587Y-14654586D01*
G01X25850051Y-14630066D01*
G01X25796393Y-14602255D01*
G01X25744742Y-14571282D01*
G01X25695226Y-14537274D01*
G01X25647973Y-14500360D01*
G01X25603112Y-14460668D01*
G01X25560772Y-14418328D01*
G01X25521080Y-14373467D01*
G01X25484166Y-14326214D01*
G01X25450158Y-14276698D01*
G01X25419185Y-14225047D01*
G01X25391374Y-14171389D01*
G01X25366854Y-14115853D01*
G01X25345754Y-14058567D01*
G01X25328203Y-13999661D01*
G01X25314328Y-13939261D01*
G01X25304258Y-13877498D01*
G01X25298122Y-13814499D01*
G01X25296048Y-13750392D01*
G01X25296048Y-13750392D01*
G01X25296048Y-13750392D01*
G01X25298122Y-13686286D01*
G01X25304258Y-13623286D01*
G01X25314328Y-13561523D01*
G01X25328203Y-13501123D01*
G01X25345754Y-13442217D01*
G01X25366854Y-13384931D01*
G01X25391374Y-13329395D01*
G01X25419185Y-13275737D01*
G01X25450158Y-13224086D01*
G01X25484166Y-13174570D01*
G01X25521080Y-13127317D01*
G01X25560772Y-13082456D01*
G01X25603112Y-13040116D01*
G01X25647973Y-13000424D01*
G01X25695226Y-12963511D01*
G01X25744742Y-12929502D01*
G01X25796393Y-12898529D01*
G01X25850051Y-12870718D01*
G01X25905587Y-12846198D01*
G01X25962873Y-12825098D01*
G01X26021779Y-12807547D01*
G01X26082179Y-12793672D01*
G01X26143942Y-12783602D01*
G01X26206941Y-12777466D01*
G01X26271048Y-12775392D01*
G01X26271048Y-12775392D01*
G37*
G36*
G01X27836048Y-13750392D02*
G01X27836048Y-14425392D01*
G01X27836048Y-14425392D01*
G01X27839975Y-14474054D01*
G01X27851342Y-14520215D01*
G01X27869534Y-14563259D01*
G01X27893931Y-14602568D01*
G01X27923916Y-14637524D01*
G01X27958872Y-14667509D01*
G01X27998181Y-14691907D01*
G01X28041225Y-14710098D01*
G01X28087387Y-14721466D01*
G01X28136048Y-14725392D01*
G01X28136048Y-14725392D01*
G01X28811048Y-14725392D01*
G01X29486048Y-14725392D01*
G01X29486048Y-14725392D01*
G01X29534709Y-14721466D01*
G01X29580871Y-14710098D01*
G01X29623915Y-14691907D01*
G01X29663224Y-14667509D01*
G01X29698180Y-14637524D01*
G01X29728165Y-14602568D01*
G01X29752562Y-14563259D01*
G01X29770754Y-14520215D01*
G01X29782122Y-14474054D01*
G01X29786048Y-14425392D01*
G01X29786048Y-14425392D01*
G01X29786048Y-13750392D01*
G01X29786048Y-13075392D01*
G01X29786048Y-13075392D01*
G01X29782122Y-13026731D01*
G01X29770754Y-12980569D01*
G01X29752562Y-12937525D01*
G01X29728165Y-12898216D01*
G01X29698180Y-12863260D01*
G01X29663224Y-12833275D01*
G01X29623915Y-12808878D01*
G01X29580871Y-12790686D01*
G01X29534709Y-12779319D01*
G01X29486048Y-12775392D01*
G01X29486048Y-12775392D01*
G01X28811048Y-12775392D01*
G01X28136048Y-12775392D01*
G01X28136048Y-12775392D01*
G01X28087387Y-12779319D01*
G01X28041225Y-12790686D01*
G01X27998181Y-12808878D01*
G01X27958872Y-12833275D01*
G01X27923916Y-12863260D01*
G01X27893931Y-12898216D01*
G01X27869534Y-12937525D01*
G01X27851342Y-12980569D01*
G01X27839975Y-13026731D01*
G01X27836048Y-13075392D01*
G01X27836048Y-13075392D01*
G01X27836048Y-13750392D01*
G37*
G36*
G01X28285811Y-10919886D02*
G01X28285811Y-10919886D01*
G01X28253124Y-10887199D01*
G01X28220436Y-10854511D01*
G01X28187748Y-10821823D01*
G01X28155060Y-10789135D01*
G01X28122372Y-10756447D01*
G01X28093530Y-10727605D01*
G01X28093530Y-10727605D01*
G01X28093530Y-10676142D01*
G01X28093530Y-10624678D01*
G01X28093530Y-10573215D01*
G01X28093530Y-10521752D01*
G01X28093530Y-10470289D01*
G01X28093530Y-10418826D01*
G01X28093530Y-10367363D01*
G01X28093530Y-10315900D01*
G01X28093530Y-10264437D01*
G01X28093530Y-10212974D01*
G01X28093530Y-10161511D01*
G01X28093530Y-10110047D01*
G01X28093530Y-10058584D01*
G01X28093530Y-10007121D01*
G01X28093530Y-9955658D01*
G01X28093530Y-9904195D01*
G01X28093530Y-9869886D01*
G01X28093530Y-9869886D01*
G01X28152330Y-9869886D01*
G01X28211130Y-9869886D01*
G01X28269930Y-9869886D01*
G01X28328730Y-9869886D01*
G01X28387530Y-9869886D01*
G01X28446330Y-9869886D01*
G01X28505130Y-9869886D01*
G01X28563930Y-9869886D01*
G01X28622730Y-9869886D01*
G01X28681530Y-9869886D01*
G01X28740330Y-9869886D01*
G01X28799130Y-9869886D01*
G01X28857930Y-9869886D01*
G01X28916730Y-9869886D01*
G01X28975530Y-9869886D01*
G01X29034330Y-9869886D01*
G01X29093130Y-9869886D01*
G01X29151930Y-9869886D01*
G01X29210730Y-9869886D01*
G01X29269530Y-9869886D01*
G01X29328330Y-9869886D01*
G01X29387130Y-9869886D01*
G01X29445930Y-9869886D01*
G01X29504730Y-9869886D01*
G01X29563530Y-9869886D01*
G01X29563530Y-9869886D01*
G01X29563530Y-9869886D01*
G01X29563530Y-9921349D01*
G01X29563530Y-9972812D01*
G01X29563530Y-10024276D01*
G01X29563530Y-10075739D01*
G01X29563530Y-10127202D01*
G01X29563530Y-10178665D01*
G01X29563530Y-10230128D01*
G01X29563530Y-10281591D01*
G01X29563530Y-10333054D01*
G01X29563530Y-10384517D01*
G01X29563530Y-10435980D01*
G01X29563530Y-10487443D01*
G01X29563530Y-10538907D01*
G01X29563530Y-10590370D01*
G01X29563530Y-10641833D01*
G01X29563530Y-10693296D01*
G01X29563530Y-10727605D01*
G01X29563530Y-10727605D01*
G01X29530843Y-10760292D01*
G01X29498155Y-10792980D01*
G01X29465467Y-10825667D01*
G01X29432779Y-10858356D01*
G01X29400091Y-10891044D01*
G01X29371249Y-10919886D01*
G01X29371249Y-10919886D01*
G01X29316977Y-10919886D01*
G01X29262705Y-10919886D01*
G01X29208433Y-10919886D01*
G01X29154161Y-10919886D01*
G01X29099889Y-10919886D01*
G01X29045617Y-10919886D01*
G01X28991345Y-10919886D01*
G01X28937074Y-10919886D01*
G01X28882802Y-10919886D01*
G01X28828530Y-10919886D01*
G01X28774258Y-10919886D01*
G01X28719986Y-10919886D01*
G01X28665714Y-10919886D01*
G01X28611442Y-10919886D01*
G01X28557170Y-10919886D01*
G01X28502898Y-10919886D01*
G01X28448627Y-10919886D01*
G01X28394355Y-10919886D01*
G01X28340083Y-10919886D01*
G01X28285811Y-10919886D01*
G01X28285811Y-10919886D01*
G37*
G36*
G01X29371249Y-7669886D02*
G01X29371249Y-7669886D01*
G01X29403936Y-7702573D01*
G01X29436624Y-7735261D01*
G01X29469312Y-7767949D01*
G01X29502000Y-7800637D01*
G01X29534688Y-7833325D01*
G01X29563530Y-7862167D01*
G01X29563530Y-7862167D01*
G01X29563530Y-7913631D01*
G01X29563530Y-7965094D01*
G01X29563530Y-8016557D01*
G01X29563530Y-8068020D01*
G01X29563530Y-8119483D01*
G01X29563530Y-8170946D01*
G01X29563530Y-8222409D01*
G01X29563530Y-8273872D01*
G01X29563530Y-8325335D01*
G01X29563530Y-8376799D01*
G01X29563530Y-8428262D01*
G01X29563530Y-8479725D01*
G01X29563530Y-8531188D01*
G01X29563530Y-8582651D01*
G01X29563530Y-8634114D01*
G01X29563530Y-8685577D01*
G01X29563530Y-8719886D01*
G01X29563530Y-8719886D01*
G01X29504730Y-8719886D01*
G01X29445930Y-8719886D01*
G01X29387130Y-8719886D01*
G01X29328330Y-8719886D01*
G01X29269530Y-8719886D01*
G01X29210730Y-8719886D01*
G01X29151930Y-8719886D01*
G01X29093130Y-8719886D01*
G01X29034330Y-8719886D01*
G01X28975530Y-8719886D01*
G01X28916730Y-8719886D01*
G01X28857930Y-8719886D01*
G01X28799130Y-8719886D01*
G01X28740330Y-8719886D01*
G01X28681530Y-8719886D01*
G01X28622730Y-8719886D01*
G01X28563930Y-8719886D01*
G01X28505130Y-8719886D01*
G01X28446330Y-8719886D01*
G01X28387530Y-8719886D01*
G01X28328730Y-8719886D01*
G01X28269930Y-8719886D01*
G01X28211130Y-8719886D01*
G01X28152330Y-8719886D01*
G01X28093530Y-8719886D01*
G01X28093530Y-8719886D01*
G01X28093530Y-8719886D01*
G01X28093530Y-8668423D01*
G01X28093530Y-8616960D01*
G01X28093530Y-8565497D01*
G01X28093530Y-8514033D01*
G01X28093530Y-8462570D01*
G01X28093530Y-8411107D01*
G01X28093530Y-8359644D01*
G01X28093530Y-8308181D01*
G01X28093530Y-8256718D01*
G01X28093530Y-8205255D01*
G01X28093530Y-8153792D01*
G01X28093530Y-8102329D01*
G01X28093530Y-8050866D01*
G01X28093530Y-7999402D01*
G01X28093530Y-7947939D01*
G01X28093530Y-7896476D01*
G01X28093530Y-7862167D01*
G01X28093530Y-7862167D01*
G01X28126217Y-7829480D01*
G01X28158905Y-7796793D01*
G01X28191593Y-7764105D01*
G01X28224281Y-7731417D01*
G01X28256969Y-7698728D01*
G01X28285812Y-7669886D01*
G01X28285812Y-7669886D01*
G01X28340083Y-7669886D01*
G01X28394355Y-7669886D01*
G01X28448627Y-7669886D01*
G01X28502899Y-7669886D01*
G01X28557171Y-7669886D01*
G01X28611443Y-7669886D01*
G01X28665715Y-7669886D01*
G01X28719986Y-7669886D01*
G01X28774258Y-7669886D01*
G01X28828530Y-7669886D01*
G01X28882802Y-7669886D01*
G01X28937074Y-7669886D01*
G01X28991346Y-7669886D01*
G01X29045618Y-7669886D01*
G01X29099890Y-7669886D01*
G01X29154162Y-7669886D01*
G01X29208433Y-7669886D01*
G01X29262705Y-7669886D01*
G01X29316977Y-7669886D01*
G01X29371249Y-7669886D01*
G01X29371249Y-7669886D01*
G37*
G36*
G01X19714175Y-19330733D02*
G01X19714175Y-19330733D01*
G01X19681488Y-19298046D01*
G01X19648800Y-19265358D01*
G01X19616112Y-19232670D01*
G01X19583424Y-19199982D01*
G01X19550736Y-19167294D01*
G01X19521894Y-19138452D01*
G01X19521894Y-19138452D01*
G01X19521894Y-19086989D01*
G01X19521894Y-19035525D01*
G01X19521894Y-18984062D01*
G01X19521894Y-18932599D01*
G01X19521894Y-18881136D01*
G01X19521894Y-18829673D01*
G01X19521894Y-18778210D01*
G01X19521894Y-18726747D01*
G01X19521894Y-18675284D01*
G01X19521894Y-18623821D01*
G01X19521894Y-18572358D01*
G01X19521894Y-18520894D01*
G01X19521894Y-18469431D01*
G01X19521894Y-18417968D01*
G01X19521894Y-18366505D01*
G01X19521894Y-18315042D01*
G01X19521894Y-18280733D01*
G01X19521894Y-18280733D01*
G01X19580694Y-18280733D01*
G01X19639494Y-18280733D01*
G01X19698294Y-18280733D01*
G01X19757094Y-18280733D01*
G01X19815894Y-18280733D01*
G01X19874694Y-18280733D01*
G01X19933494Y-18280733D01*
G01X19992294Y-18280733D01*
G01X20051094Y-18280733D01*
G01X20109894Y-18280733D01*
G01X20168694Y-18280733D01*
G01X20227494Y-18280733D01*
G01X20286294Y-18280733D01*
G01X20345094Y-18280733D01*
G01X20403894Y-18280733D01*
G01X20462694Y-18280733D01*
G01X20521494Y-18280733D01*
G01X20580294Y-18280733D01*
G01X20639094Y-18280733D01*
G01X20697894Y-18280733D01*
G01X20756694Y-18280733D01*
G01X20815494Y-18280733D01*
G01X20874294Y-18280733D01*
G01X20933094Y-18280733D01*
G01X20991894Y-18280733D01*
G01X20991894Y-18280733D01*
G01X20991894Y-18280733D01*
G01X20991894Y-18332196D01*
G01X20991894Y-18383659D01*
G01X20991894Y-18435123D01*
G01X20991894Y-18486586D01*
G01X20991894Y-18538049D01*
G01X20991894Y-18589512D01*
G01X20991894Y-18640975D01*
G01X20991894Y-18692438D01*
G01X20991894Y-18743901D01*
G01X20991894Y-18795364D01*
G01X20991894Y-18846827D01*
G01X20991894Y-18898290D01*
G01X20991894Y-18949754D01*
G01X20991894Y-19001217D01*
G01X20991894Y-19052680D01*
G01X20991894Y-19104143D01*
G01X20991894Y-19138452D01*
G01X20991894Y-19138452D01*
G01X20959207Y-19171139D01*
G01X20926519Y-19203827D01*
G01X20893831Y-19236514D01*
G01X20861143Y-19269203D01*
G01X20828455Y-19301891D01*
G01X20799613Y-19330733D01*
G01X20799613Y-19330733D01*
G01X20745341Y-19330733D01*
G01X20691069Y-19330733D01*
G01X20636797Y-19330733D01*
G01X20582525Y-19330733D01*
G01X20528253Y-19330733D01*
G01X20473981Y-19330733D01*
G01X20419709Y-19330733D01*
G01X20365438Y-19330733D01*
G01X20311166Y-19330733D01*
G01X20256894Y-19330733D01*
G01X20202622Y-19330733D01*
G01X20148350Y-19330733D01*
G01X20094078Y-19330733D01*
G01X20039806Y-19330733D01*
G01X19985534Y-19330733D01*
G01X19931262Y-19330733D01*
G01X19876991Y-19330733D01*
G01X19822719Y-19330733D01*
G01X19768447Y-19330733D01*
G01X19714175Y-19330733D01*
G01X19714175Y-19330733D01*
G37*
G36*
G01X20799613Y-16080733D02*
G01X20799613Y-16080733D01*
G01X20832300Y-16113420D01*
G01X20864988Y-16146108D01*
G01X20897676Y-16178796D01*
G01X20930364Y-16211484D01*
G01X20963052Y-16244172D01*
G01X20991894Y-16273014D01*
G01X20991894Y-16273014D01*
G01X20991894Y-16324478D01*
G01X20991894Y-16375941D01*
G01X20991894Y-16427404D01*
G01X20991894Y-16478867D01*
G01X20991894Y-16530330D01*
G01X20991894Y-16581793D01*
G01X20991894Y-16633256D01*
G01X20991894Y-16684719D01*
G01X20991894Y-16736182D01*
G01X20991894Y-16787646D01*
G01X20991894Y-16839109D01*
G01X20991894Y-16890572D01*
G01X20991894Y-16942035D01*
G01X20991894Y-16993498D01*
G01X20991894Y-17044961D01*
G01X20991894Y-17096424D01*
G01X20991894Y-17130733D01*
G01X20991894Y-17130733D01*
G01X20933094Y-17130733D01*
G01X20874294Y-17130733D01*
G01X20815494Y-17130733D01*
G01X20756694Y-17130733D01*
G01X20697894Y-17130733D01*
G01X20639094Y-17130733D01*
G01X20580294Y-17130733D01*
G01X20521494Y-17130733D01*
G01X20462694Y-17130733D01*
G01X20403894Y-17130733D01*
G01X20345094Y-17130733D01*
G01X20286294Y-17130733D01*
G01X20227494Y-17130733D01*
G01X20168694Y-17130733D01*
G01X20109894Y-17130733D01*
G01X20051094Y-17130733D01*
G01X19992294Y-17130733D01*
G01X19933494Y-17130733D01*
G01X19874694Y-17130733D01*
G01X19815894Y-17130733D01*
G01X19757094Y-17130733D01*
G01X19698294Y-17130733D01*
G01X19639494Y-17130733D01*
G01X19580694Y-17130733D01*
G01X19521894Y-17130733D01*
G01X19521894Y-17130733D01*
G01X19521894Y-17130733D01*
G01X19521894Y-17079270D01*
G01X19521894Y-17027807D01*
G01X19521894Y-16976344D01*
G01X19521894Y-16924880D01*
G01X19521894Y-16873417D01*
G01X19521894Y-16821954D01*
G01X19521894Y-16770491D01*
G01X19521894Y-16719028D01*
G01X19521894Y-16667565D01*
G01X19521894Y-16616102D01*
G01X19521894Y-16564639D01*
G01X19521894Y-16513176D01*
G01X19521894Y-16461713D01*
G01X19521894Y-16410249D01*
G01X19521894Y-16358786D01*
G01X19521894Y-16307323D01*
G01X19521894Y-16273014D01*
G01X19521894Y-16273014D01*
G01X19554581Y-16240327D01*
G01X19587269Y-16207640D01*
G01X19619957Y-16174952D01*
G01X19652645Y-16142264D01*
G01X19685333Y-16109575D01*
G01X19714176Y-16080733D01*
G01X19714176Y-16080733D01*
G01X19768447Y-16080733D01*
G01X19822719Y-16080733D01*
G01X19876991Y-16080733D01*
G01X19931263Y-16080733D01*
G01X19985535Y-16080733D01*
G01X20039807Y-16080733D01*
G01X20094079Y-16080733D01*
G01X20148350Y-16080733D01*
G01X20202622Y-16080733D01*
G01X20256894Y-16080733D01*
G01X20311166Y-16080733D01*
G01X20365438Y-16080733D01*
G01X20419710Y-16080733D01*
G01X20473982Y-16080733D01*
G01X20528254Y-16080733D01*
G01X20582526Y-16080733D01*
G01X20636797Y-16080733D01*
G01X20691069Y-16080733D01*
G01X20745341Y-16080733D01*
G01X20799613Y-16080733D01*
G01X20799613Y-16080733D01*
G37*
G36*
G01X13162688Y-18566984D02*
G01X13162688Y-18566984D01*
G01X13130001Y-18599671D01*
G01X13097313Y-18632359D01*
G01X13064625Y-18665047D01*
G01X13031937Y-18697735D01*
G01X12999249Y-18730423D01*
G01X12970407Y-18759265D01*
G01X12970407Y-18759265D01*
G01X12918944Y-18759265D01*
G01X12867480Y-18759265D01*
G01X12816017Y-18759265D01*
G01X12764554Y-18759265D01*
G01X12713091Y-18759265D01*
G01X12661628Y-18759265D01*
G01X12610165Y-18759265D01*
G01X12558702Y-18759265D01*
G01X12507239Y-18759265D01*
G01X12455776Y-18759265D01*
G01X12404312Y-18759265D01*
G01X12352849Y-18759265D01*
G01X12301386Y-18759265D01*
G01X12249923Y-18759265D01*
G01X12198460Y-18759265D01*
G01X12146997Y-18759265D01*
G01X12112688Y-18759265D01*
G01X12112688Y-18759265D01*
G01X12112688Y-18700465D01*
G01X12112688Y-18641665D01*
G01X12112688Y-18582865D01*
G01X12112688Y-18524065D01*
G01X12112688Y-18465265D01*
G01X12112688Y-18406465D01*
G01X12112688Y-18347665D01*
G01X12112688Y-18288865D01*
G01X12112688Y-18230065D01*
G01X12112688Y-18171265D01*
G01X12112688Y-18112465D01*
G01X12112688Y-18053665D01*
G01X12112688Y-17994865D01*
G01X12112688Y-17936065D01*
G01X12112688Y-17877265D01*
G01X12112688Y-17818465D01*
G01X12112688Y-17759665D01*
G01X12112688Y-17700865D01*
G01X12112688Y-17642065D01*
G01X12112688Y-17583265D01*
G01X12112688Y-17524465D01*
G01X12112688Y-17465665D01*
G01X12112688Y-17406865D01*
G01X12112688Y-17348065D01*
G01X12112688Y-17289265D01*
G01X12112688Y-17289265D01*
G01X12112688Y-17289265D01*
G01X12164151Y-17289265D01*
G01X12215614Y-17289265D01*
G01X12267077Y-17289265D01*
G01X12318541Y-17289265D01*
G01X12370004Y-17289265D01*
G01X12421467Y-17289265D01*
G01X12472930Y-17289265D01*
G01X12524393Y-17289265D01*
G01X12575856Y-17289265D01*
G01X12627319Y-17289265D01*
G01X12678782Y-17289265D01*
G01X12730245Y-17289265D01*
G01X12781709Y-17289265D01*
G01X12833172Y-17289265D01*
G01X12884635Y-17289265D01*
G01X12936098Y-17289265D01*
G01X12970407Y-17289265D01*
G01X12970407Y-17289265D01*
G01X13003094Y-17321952D01*
G01X13035782Y-17354640D01*
G01X13068469Y-17387328D01*
G01X13101157Y-17420016D01*
G01X13133846Y-17452704D01*
G01X13162688Y-17481547D01*
G01X13162688Y-17481547D01*
G01X13162688Y-17535818D01*
G01X13162688Y-17590090D01*
G01X13162688Y-17644362D01*
G01X13162688Y-17698634D01*
G01X13162688Y-17752906D01*
G01X13162688Y-17807178D01*
G01X13162688Y-17861450D01*
G01X13162688Y-17915722D01*
G01X13162688Y-17969993D01*
G01X13162688Y-18024265D01*
G01X13162688Y-18078537D01*
G01X13162688Y-18132809D01*
G01X13162688Y-18187081D01*
G01X13162688Y-18241353D01*
G01X13162688Y-18295625D01*
G01X13162688Y-18349897D01*
G01X13162688Y-18404169D01*
G01X13162688Y-18458440D01*
G01X13162688Y-18512712D01*
G01X13162688Y-18566984D01*
G01X13162688Y-18566984D01*
G37*
G36*
G01X9912688Y-17481546D02*
G01X9912688Y-17481546D01*
G01X9945375Y-17448859D01*
G01X9978063Y-17416171D01*
G01X10010751Y-17383483D01*
G01X10043439Y-17350795D01*
G01X10076127Y-17318107D01*
G01X10104969Y-17289265D01*
G01X10104969Y-17289265D01*
G01X10156432Y-17289265D01*
G01X10207896Y-17289265D01*
G01X10259359Y-17289265D01*
G01X10310822Y-17289265D01*
G01X10362285Y-17289265D01*
G01X10413748Y-17289265D01*
G01X10465211Y-17289265D01*
G01X10516674Y-17289265D01*
G01X10568137Y-17289265D01*
G01X10619600Y-17289265D01*
G01X10671064Y-17289265D01*
G01X10722527Y-17289265D01*
G01X10773990Y-17289265D01*
G01X10825453Y-17289265D01*
G01X10876916Y-17289265D01*
G01X10928379Y-17289265D01*
G01X10962688Y-17289265D01*
G01X10962688Y-17289265D01*
G01X10962688Y-17348065D01*
G01X10962688Y-17406865D01*
G01X10962688Y-17465665D01*
G01X10962688Y-17524465D01*
G01X10962688Y-17583265D01*
G01X10962688Y-17642065D01*
G01X10962688Y-17700865D01*
G01X10962688Y-17759665D01*
G01X10962688Y-17818465D01*
G01X10962688Y-17877265D01*
G01X10962688Y-17936065D01*
G01X10962688Y-17994865D01*
G01X10962688Y-18053665D01*
G01X10962688Y-18112465D01*
G01X10962688Y-18171265D01*
G01X10962688Y-18230065D01*
G01X10962688Y-18288865D01*
G01X10962688Y-18347665D01*
G01X10962688Y-18406465D01*
G01X10962688Y-18465265D01*
G01X10962688Y-18524065D01*
G01X10962688Y-18582865D01*
G01X10962688Y-18641665D01*
G01X10962688Y-18700465D01*
G01X10962688Y-18759265D01*
G01X10962688Y-18759265D01*
G01X10962688Y-18759265D01*
G01X10911225Y-18759265D01*
G01X10859762Y-18759265D01*
G01X10808299Y-18759265D01*
G01X10756835Y-18759265D01*
G01X10705372Y-18759265D01*
G01X10653909Y-18759265D01*
G01X10602446Y-18759265D01*
G01X10550983Y-18759265D01*
G01X10499520Y-18759265D01*
G01X10448057Y-18759265D01*
G01X10396594Y-18759265D01*
G01X10345131Y-18759265D01*
G01X10293667Y-18759265D01*
G01X10242204Y-18759265D01*
G01X10190741Y-18759265D01*
G01X10139278Y-18759265D01*
G01X10104969Y-18759265D01*
G01X10104969Y-18759265D01*
G01X10072282Y-18726578D01*
G01X10039594Y-18693890D01*
G01X10006907Y-18661202D01*
G01X9974219Y-18628514D01*
G01X9941530Y-18595826D01*
G01X9912688Y-18566984D01*
G01X9912688Y-18566984D01*
G01X9912688Y-18512712D01*
G01X9912688Y-18458440D01*
G01X9912688Y-18404168D01*
G01X9912688Y-18349896D01*
G01X9912688Y-18295624D01*
G01X9912688Y-18241352D01*
G01X9912688Y-18187081D01*
G01X9912688Y-18132809D01*
G01X9912688Y-18078537D01*
G01X9912688Y-18024265D01*
G01X9912688Y-17969993D01*
G01X9912688Y-17915721D01*
G01X9912688Y-17861449D01*
G01X9912688Y-17807177D01*
G01X9912688Y-17752905D01*
G01X9912688Y-17698633D01*
G01X9912688Y-17644362D01*
G01X9912688Y-17590090D01*
G01X9912688Y-17535818D01*
G01X9912688Y-17481546D01*
G01X9912688Y-17481546D01*
G37*
G36*
G01X24421845Y-9002143D02*
G01X24421845Y-9002143D01*
G01X24389158Y-9034830D01*
G01X24356470Y-9067518D01*
G01X24323782Y-9100206D01*
G01X24291094Y-9132894D01*
G01X24258406Y-9165582D01*
G01X24229564Y-9194424D01*
G01X24229564Y-9194424D01*
G01X24178101Y-9194424D01*
G01X24126637Y-9194424D01*
G01X24075174Y-9194424D01*
G01X24023711Y-9194424D01*
G01X23972248Y-9194424D01*
G01X23920785Y-9194424D01*
G01X23869322Y-9194424D01*
G01X23817859Y-9194424D01*
G01X23766396Y-9194424D01*
G01X23714933Y-9194424D01*
G01X23663469Y-9194424D01*
G01X23612006Y-9194424D01*
G01X23560543Y-9194424D01*
G01X23509080Y-9194424D01*
G01X23457617Y-9194424D01*
G01X23406154Y-9194424D01*
G01X23371845Y-9194424D01*
G01X23371845Y-9194424D01*
G01X23371845Y-9135624D01*
G01X23371845Y-9076824D01*
G01X23371845Y-9018024D01*
G01X23371845Y-8959224D01*
G01X23371845Y-8900424D01*
G01X23371845Y-8841624D01*
G01X23371845Y-8782824D01*
G01X23371845Y-8724024D01*
G01X23371845Y-8665224D01*
G01X23371845Y-8606424D01*
G01X23371845Y-8547624D01*
G01X23371845Y-8488824D01*
G01X23371845Y-8430024D01*
G01X23371845Y-8371224D01*
G01X23371845Y-8312424D01*
G01X23371845Y-8253624D01*
G01X23371845Y-8194824D01*
G01X23371845Y-8136024D01*
G01X23371845Y-8077224D01*
G01X23371845Y-8018424D01*
G01X23371845Y-7959624D01*
G01X23371845Y-7900824D01*
G01X23371845Y-7842024D01*
G01X23371845Y-7783224D01*
G01X23371845Y-7724424D01*
G01X23371845Y-7724424D01*
G01X23371845Y-7724424D01*
G01X23423308Y-7724424D01*
G01X23474771Y-7724424D01*
G01X23526234Y-7724424D01*
G01X23577698Y-7724424D01*
G01X23629161Y-7724424D01*
G01X23680624Y-7724424D01*
G01X23732087Y-7724424D01*
G01X23783550Y-7724424D01*
G01X23835013Y-7724424D01*
G01X23886476Y-7724424D01*
G01X23937939Y-7724424D01*
G01X23989402Y-7724424D01*
G01X24040866Y-7724424D01*
G01X24092329Y-7724424D01*
G01X24143792Y-7724424D01*
G01X24195255Y-7724424D01*
G01X24229564Y-7724424D01*
G01X24229564Y-7724424D01*
G01X24262251Y-7757111D01*
G01X24294939Y-7789799D01*
G01X24327626Y-7822487D01*
G01X24360315Y-7855175D01*
G01X24393003Y-7887863D01*
G01X24421845Y-7916706D01*
G01X24421845Y-7916706D01*
G01X24421845Y-7970977D01*
G01X24421845Y-8025249D01*
G01X24421845Y-8079521D01*
G01X24421845Y-8133793D01*
G01X24421845Y-8188065D01*
G01X24421845Y-8242337D01*
G01X24421845Y-8296609D01*
G01X24421845Y-8350881D01*
G01X24421845Y-8405152D01*
G01X24421845Y-8459424D01*
G01X24421845Y-8513696D01*
G01X24421845Y-8567968D01*
G01X24421845Y-8622240D01*
G01X24421845Y-8676512D01*
G01X24421845Y-8730784D01*
G01X24421845Y-8785056D01*
G01X24421845Y-8839328D01*
G01X24421845Y-8893599D01*
G01X24421845Y-8947871D01*
G01X24421845Y-9002143D01*
G01X24421845Y-9002143D01*
G37*
G36*
G01X21171845Y-7916705D02*
G01X21171845Y-7916705D01*
G01X21204532Y-7884018D01*
G01X21237220Y-7851330D01*
G01X21269908Y-7818642D01*
G01X21302596Y-7785954D01*
G01X21335284Y-7753266D01*
G01X21364126Y-7724424D01*
G01X21364126Y-7724424D01*
G01X21415589Y-7724424D01*
G01X21467053Y-7724424D01*
G01X21518516Y-7724424D01*
G01X21569979Y-7724424D01*
G01X21621442Y-7724424D01*
G01X21672905Y-7724424D01*
G01X21724368Y-7724424D01*
G01X21775831Y-7724424D01*
G01X21827294Y-7724424D01*
G01X21878757Y-7724424D01*
G01X21930221Y-7724424D01*
G01X21981684Y-7724424D01*
G01X22033147Y-7724424D01*
G01X22084610Y-7724424D01*
G01X22136073Y-7724424D01*
G01X22187536Y-7724424D01*
G01X22221845Y-7724424D01*
G01X22221845Y-7724424D01*
G01X22221845Y-7783224D01*
G01X22221845Y-7842024D01*
G01X22221845Y-7900824D01*
G01X22221845Y-7959624D01*
G01X22221845Y-8018424D01*
G01X22221845Y-8077224D01*
G01X22221845Y-8136024D01*
G01X22221845Y-8194824D01*
G01X22221845Y-8253624D01*
G01X22221845Y-8312424D01*
G01X22221845Y-8371224D01*
G01X22221845Y-8430024D01*
G01X22221845Y-8488824D01*
G01X22221845Y-8547624D01*
G01X22221845Y-8606424D01*
G01X22221845Y-8665224D01*
G01X22221845Y-8724024D01*
G01X22221845Y-8782824D01*
G01X22221845Y-8841624D01*
G01X22221845Y-8900424D01*
G01X22221845Y-8959224D01*
G01X22221845Y-9018024D01*
G01X22221845Y-9076824D01*
G01X22221845Y-9135624D01*
G01X22221845Y-9194424D01*
G01X22221845Y-9194424D01*
G01X22221845Y-9194424D01*
G01X22170382Y-9194424D01*
G01X22118919Y-9194424D01*
G01X22067456Y-9194424D01*
G01X22015992Y-9194424D01*
G01X21964529Y-9194424D01*
G01X21913066Y-9194424D01*
G01X21861603Y-9194424D01*
G01X21810140Y-9194424D01*
G01X21758677Y-9194424D01*
G01X21707214Y-9194424D01*
G01X21655751Y-9194424D01*
G01X21604288Y-9194424D01*
G01X21552824Y-9194424D01*
G01X21501361Y-9194424D01*
G01X21449898Y-9194424D01*
G01X21398435Y-9194424D01*
G01X21364126Y-9194424D01*
G01X21364126Y-9194424D01*
G01X21331439Y-9161737D01*
G01X21298752Y-9129049D01*
G01X21266064Y-9096361D01*
G01X21233376Y-9063673D01*
G01X21200687Y-9030985D01*
G01X21171845Y-9002143D01*
G01X21171845Y-9002143D01*
G01X21171845Y-8947871D01*
G01X21171845Y-8893599D01*
G01X21171845Y-8839327D01*
G01X21171845Y-8785055D01*
G01X21171845Y-8730783D01*
G01X21171845Y-8676511D01*
G01X21171845Y-8622240D01*
G01X21171845Y-8567968D01*
G01X21171845Y-8513696D01*
G01X21171845Y-8459424D01*
G01X21171845Y-8405152D01*
G01X21171845Y-8350880D01*
G01X21171845Y-8296608D01*
G01X21171845Y-8242336D01*
G01X21171845Y-8188064D01*
G01X21171845Y-8133792D01*
G01X21171845Y-8079521D01*
G01X21171845Y-8025249D01*
G01X21171845Y-7970977D01*
G01X21171845Y-7916705D01*
G01X21171845Y-7916705D01*
G37*
G36*
G01X22889175Y-19330733D02*
G01X22889175Y-19330733D01*
G01X22856488Y-19298046D01*
G01X22823800Y-19265358D01*
G01X22791112Y-19232670D01*
G01X22758424Y-19199982D01*
G01X22725736Y-19167294D01*
G01X22696894Y-19138452D01*
G01X22696894Y-19138452D01*
G01X22696894Y-19086989D01*
G01X22696894Y-19035525D01*
G01X22696894Y-18984062D01*
G01X22696894Y-18932599D01*
G01X22696894Y-18881136D01*
G01X22696894Y-18829673D01*
G01X22696894Y-18778210D01*
G01X22696894Y-18726747D01*
G01X22696894Y-18675284D01*
G01X22696894Y-18623821D01*
G01X22696894Y-18572358D01*
G01X22696894Y-18520894D01*
G01X22696894Y-18469431D01*
G01X22696894Y-18417968D01*
G01X22696894Y-18366505D01*
G01X22696894Y-18315042D01*
G01X22696894Y-18280733D01*
G01X22696894Y-18280733D01*
G01X22755694Y-18280733D01*
G01X22814494Y-18280733D01*
G01X22873294Y-18280733D01*
G01X22932094Y-18280733D01*
G01X22990894Y-18280733D01*
G01X23049694Y-18280733D01*
G01X23108494Y-18280733D01*
G01X23167294Y-18280733D01*
G01X23226094Y-18280733D01*
G01X23284894Y-18280733D01*
G01X23343694Y-18280733D01*
G01X23402494Y-18280733D01*
G01X23461294Y-18280733D01*
G01X23520094Y-18280733D01*
G01X23578894Y-18280733D01*
G01X23637694Y-18280733D01*
G01X23696494Y-18280733D01*
G01X23755294Y-18280733D01*
G01X23814094Y-18280733D01*
G01X23872894Y-18280733D01*
G01X23931694Y-18280733D01*
G01X23990494Y-18280733D01*
G01X24049294Y-18280733D01*
G01X24108094Y-18280733D01*
G01X24166894Y-18280733D01*
G01X24166894Y-18280733D01*
G01X24166894Y-18280733D01*
G01X24166894Y-18332196D01*
G01X24166894Y-18383659D01*
G01X24166894Y-18435123D01*
G01X24166894Y-18486586D01*
G01X24166894Y-18538049D01*
G01X24166894Y-18589512D01*
G01X24166894Y-18640975D01*
G01X24166894Y-18692438D01*
G01X24166894Y-18743901D01*
G01X24166894Y-18795364D01*
G01X24166894Y-18846827D01*
G01X24166894Y-18898290D01*
G01X24166894Y-18949754D01*
G01X24166894Y-19001217D01*
G01X24166894Y-19052680D01*
G01X24166894Y-19104143D01*
G01X24166894Y-19138452D01*
G01X24166894Y-19138452D01*
G01X24134207Y-19171139D01*
G01X24101519Y-19203827D01*
G01X24068831Y-19236514D01*
G01X24036143Y-19269203D01*
G01X24003455Y-19301891D01*
G01X23974613Y-19330733D01*
G01X23974613Y-19330733D01*
G01X23920341Y-19330733D01*
G01X23866069Y-19330733D01*
G01X23811797Y-19330733D01*
G01X23757525Y-19330733D01*
G01X23703253Y-19330733D01*
G01X23648981Y-19330733D01*
G01X23594709Y-19330733D01*
G01X23540438Y-19330733D01*
G01X23486166Y-19330733D01*
G01X23431894Y-19330733D01*
G01X23377622Y-19330733D01*
G01X23323350Y-19330733D01*
G01X23269078Y-19330733D01*
G01X23214806Y-19330733D01*
G01X23160534Y-19330733D01*
G01X23106262Y-19330733D01*
G01X23051991Y-19330733D01*
G01X22997719Y-19330733D01*
G01X22943447Y-19330733D01*
G01X22889175Y-19330733D01*
G01X22889175Y-19330733D01*
G37*
G36*
G01X23974613Y-16080733D02*
G01X23974613Y-16080733D01*
G01X24007300Y-16113420D01*
G01X24039988Y-16146108D01*
G01X24072676Y-16178796D01*
G01X24105364Y-16211484D01*
G01X24138052Y-16244172D01*
G01X24166894Y-16273014D01*
G01X24166894Y-16273014D01*
G01X24166894Y-16324478D01*
G01X24166894Y-16375941D01*
G01X24166894Y-16427404D01*
G01X24166894Y-16478867D01*
G01X24166894Y-16530330D01*
G01X24166894Y-16581793D01*
G01X24166894Y-16633256D01*
G01X24166894Y-16684719D01*
G01X24166894Y-16736182D01*
G01X24166894Y-16787646D01*
G01X24166894Y-16839109D01*
G01X24166894Y-16890572D01*
G01X24166894Y-16942035D01*
G01X24166894Y-16993498D01*
G01X24166894Y-17044961D01*
G01X24166894Y-17096424D01*
G01X24166894Y-17130733D01*
G01X24166894Y-17130733D01*
G01X24108094Y-17130733D01*
G01X24049294Y-17130733D01*
G01X23990494Y-17130733D01*
G01X23931694Y-17130733D01*
G01X23872894Y-17130733D01*
G01X23814094Y-17130733D01*
G01X23755294Y-17130733D01*
G01X23696494Y-17130733D01*
G01X23637694Y-17130733D01*
G01X23578894Y-17130733D01*
G01X23520094Y-17130733D01*
G01X23461294Y-17130733D01*
G01X23402494Y-17130733D01*
G01X23343694Y-17130733D01*
G01X23284894Y-17130733D01*
G01X23226094Y-17130733D01*
G01X23167294Y-17130733D01*
G01X23108494Y-17130733D01*
G01X23049694Y-17130733D01*
G01X22990894Y-17130733D01*
G01X22932094Y-17130733D01*
G01X22873294Y-17130733D01*
G01X22814494Y-17130733D01*
G01X22755694Y-17130733D01*
G01X22696894Y-17130733D01*
G01X22696894Y-17130733D01*
G01X22696894Y-17130733D01*
G01X22696894Y-17079270D01*
G01X22696894Y-17027807D01*
G01X22696894Y-16976344D01*
G01X22696894Y-16924880D01*
G01X22696894Y-16873417D01*
G01X22696894Y-16821954D01*
G01X22696894Y-16770491D01*
G01X22696894Y-16719028D01*
G01X22696894Y-16667565D01*
G01X22696894Y-16616102D01*
G01X22696894Y-16564639D01*
G01X22696894Y-16513176D01*
G01X22696894Y-16461713D01*
G01X22696894Y-16410249D01*
G01X22696894Y-16358786D01*
G01X22696894Y-16307323D01*
G01X22696894Y-16273014D01*
G01X22696894Y-16273014D01*
G01X22729581Y-16240327D01*
G01X22762269Y-16207640D01*
G01X22794957Y-16174952D01*
G01X22827645Y-16142264D01*
G01X22860333Y-16109575D01*
G01X22889176Y-16080733D01*
G01X22889176Y-16080733D01*
G01X22943447Y-16080733D01*
G01X22997719Y-16080733D01*
G01X23051991Y-16080733D01*
G01X23106263Y-16080733D01*
G01X23160535Y-16080733D01*
G01X23214807Y-16080733D01*
G01X23269079Y-16080733D01*
G01X23323350Y-16080733D01*
G01X23377622Y-16080733D01*
G01X23431894Y-16080733D01*
G01X23486166Y-16080733D01*
G01X23540438Y-16080733D01*
G01X23594710Y-16080733D01*
G01X23648982Y-16080733D01*
G01X23703254Y-16080733D01*
G01X23757526Y-16080733D01*
G01X23811797Y-16080733D01*
G01X23866069Y-16080733D01*
G01X23920341Y-16080733D01*
G01X23974613Y-16080733D01*
G01X23974613Y-16080733D01*
G37*
G36*
G01X5934204Y-13538471D02*
G01X5934204Y-13538471D01*
G01X5901517Y-13571158D01*
G01X5868829Y-13603846D01*
G01X5836141Y-13636534D01*
G01X5803453Y-13669222D01*
G01X5770765Y-13701910D01*
G01X5741923Y-13730752D01*
G01X5741923Y-13730752D01*
G01X5690460Y-13730752D01*
G01X5638996Y-13730752D01*
G01X5587533Y-13730752D01*
G01X5536070Y-13730752D01*
G01X5484607Y-13730752D01*
G01X5433144Y-13730752D01*
G01X5381681Y-13730752D01*
G01X5330218Y-13730752D01*
G01X5278755Y-13730752D01*
G01X5227292Y-13730752D01*
G01X5175828Y-13730752D01*
G01X5124365Y-13730752D01*
G01X5072902Y-13730752D01*
G01X5021439Y-13730752D01*
G01X4969976Y-13730752D01*
G01X4918513Y-13730752D01*
G01X4884204Y-13730752D01*
G01X4884204Y-13730752D01*
G01X4884204Y-13671952D01*
G01X4884204Y-13613152D01*
G01X4884204Y-13554352D01*
G01X4884204Y-13495552D01*
G01X4884204Y-13436752D01*
G01X4884204Y-13377952D01*
G01X4884204Y-13319152D01*
G01X4884204Y-13260352D01*
G01X4884204Y-13201552D01*
G01X4884204Y-13142752D01*
G01X4884204Y-13083952D01*
G01X4884204Y-13025152D01*
G01X4884204Y-12966352D01*
G01X4884204Y-12907552D01*
G01X4884204Y-12848752D01*
G01X4884204Y-12789952D01*
G01X4884204Y-12731152D01*
G01X4884204Y-12672352D01*
G01X4884204Y-12613552D01*
G01X4884204Y-12554752D01*
G01X4884204Y-12495952D01*
G01X4884204Y-12437152D01*
G01X4884204Y-12378352D01*
G01X4884204Y-12319552D01*
G01X4884204Y-12260752D01*
G01X4884204Y-12260752D01*
G01X4884204Y-12260752D01*
G01X4935667Y-12260752D01*
G01X4987130Y-12260752D01*
G01X5038593Y-12260752D01*
G01X5090057Y-12260752D01*
G01X5141520Y-12260752D01*
G01X5192983Y-12260752D01*
G01X5244446Y-12260752D01*
G01X5295909Y-12260752D01*
G01X5347372Y-12260752D01*
G01X5398835Y-12260752D01*
G01X5450298Y-12260752D01*
G01X5501761Y-12260752D01*
G01X5553225Y-12260752D01*
G01X5604688Y-12260752D01*
G01X5656151Y-12260752D01*
G01X5707614Y-12260752D01*
G01X5741923Y-12260752D01*
G01X5741923Y-12260752D01*
G01X5774610Y-12293439D01*
G01X5807298Y-12326127D01*
G01X5839985Y-12358815D01*
G01X5872674Y-12391503D01*
G01X5905362Y-12424191D01*
G01X5934204Y-12453034D01*
G01X5934204Y-12453034D01*
G01X5934204Y-12507305D01*
G01X5934204Y-12561577D01*
G01X5934204Y-12615849D01*
G01X5934204Y-12670121D01*
G01X5934204Y-12724393D01*
G01X5934204Y-12778665D01*
G01X5934204Y-12832937D01*
G01X5934204Y-12887209D01*
G01X5934204Y-12941480D01*
G01X5934204Y-12995752D01*
G01X5934204Y-13050024D01*
G01X5934204Y-13104296D01*
G01X5934204Y-13158568D01*
G01X5934204Y-13212840D01*
G01X5934204Y-13267112D01*
G01X5934204Y-13321384D01*
G01X5934204Y-13375656D01*
G01X5934204Y-13429927D01*
G01X5934204Y-13484199D01*
G01X5934204Y-13538471D01*
G01X5934204Y-13538471D01*
G37*
G36*
G01X2684204Y-12453033D02*
G01X2684204Y-12453033D01*
G01X2716891Y-12420346D01*
G01X2749579Y-12387658D01*
G01X2782267Y-12354970D01*
G01X2814955Y-12322282D01*
G01X2847643Y-12289594D01*
G01X2876485Y-12260752D01*
G01X2876485Y-12260752D01*
G01X2927948Y-12260752D01*
G01X2979412Y-12260752D01*
G01X3030875Y-12260752D01*
G01X3082338Y-12260752D01*
G01X3133801Y-12260752D01*
G01X3185264Y-12260752D01*
G01X3236727Y-12260752D01*
G01X3288190Y-12260752D01*
G01X3339653Y-12260752D01*
G01X3391116Y-12260752D01*
G01X3442580Y-12260752D01*
G01X3494043Y-12260752D01*
G01X3545506Y-12260752D01*
G01X3596969Y-12260752D01*
G01X3648432Y-12260752D01*
G01X3699895Y-12260752D01*
G01X3734204Y-12260752D01*
G01X3734204Y-12260752D01*
G01X3734204Y-12319552D01*
G01X3734204Y-12378352D01*
G01X3734204Y-12437152D01*
G01X3734204Y-12495952D01*
G01X3734204Y-12554752D01*
G01X3734204Y-12613552D01*
G01X3734204Y-12672352D01*
G01X3734204Y-12731152D01*
G01X3734204Y-12789952D01*
G01X3734204Y-12848752D01*
G01X3734204Y-12907552D01*
G01X3734204Y-12966352D01*
G01X3734204Y-13025152D01*
G01X3734204Y-13083952D01*
G01X3734204Y-13142752D01*
G01X3734204Y-13201552D01*
G01X3734204Y-13260352D01*
G01X3734204Y-13319152D01*
G01X3734204Y-13377952D01*
G01X3734204Y-13436752D01*
G01X3734204Y-13495552D01*
G01X3734204Y-13554352D01*
G01X3734204Y-13613152D01*
G01X3734204Y-13671952D01*
G01X3734204Y-13730752D01*
G01X3734204Y-13730752D01*
G01X3734204Y-13730752D01*
G01X3682741Y-13730752D01*
G01X3631278Y-13730752D01*
G01X3579815Y-13730752D01*
G01X3528351Y-13730752D01*
G01X3476888Y-13730752D01*
G01X3425425Y-13730752D01*
G01X3373962Y-13730752D01*
G01X3322499Y-13730752D01*
G01X3271036Y-13730752D01*
G01X3219573Y-13730752D01*
G01X3168110Y-13730752D01*
G01X3116647Y-13730752D01*
G01X3065183Y-13730752D01*
G01X3013720Y-13730752D01*
G01X2962257Y-13730752D01*
G01X2910794Y-13730752D01*
G01X2876485Y-13730752D01*
G01X2876485Y-13730752D01*
G01X2843798Y-13698065D01*
G01X2811110Y-13665377D01*
G01X2778423Y-13632689D01*
G01X2745735Y-13600001D01*
G01X2713046Y-13567313D01*
G01X2684204Y-13538471D01*
G01X2684204Y-13538471D01*
G01X2684204Y-13484199D01*
G01X2684204Y-13429927D01*
G01X2684204Y-13375655D01*
G01X2684204Y-13321383D01*
G01X2684204Y-13267111D01*
G01X2684204Y-13212839D01*
G01X2684204Y-13158568D01*
G01X2684204Y-13104296D01*
G01X2684204Y-13050024D01*
G01X2684204Y-12995752D01*
G01X2684204Y-12941480D01*
G01X2684204Y-12887208D01*
G01X2684204Y-12832936D01*
G01X2684204Y-12778664D01*
G01X2684204Y-12724392D01*
G01X2684204Y-12670120D01*
G01X2684204Y-12615849D01*
G01X2684204Y-12561577D01*
G01X2684204Y-12507305D01*
G01X2684204Y-12453033D01*
G01X2684204Y-12453033D01*
G37*
G36*
G01X28285811Y-19330733D02*
G01X28285811Y-19330733D01*
G01X28253124Y-19298046D01*
G01X28220436Y-19265358D01*
G01X28187748Y-19232670D01*
G01X28155060Y-19199982D01*
G01X28122372Y-19167294D01*
G01X28093530Y-19138452D01*
G01X28093530Y-19138452D01*
G01X28093530Y-19086989D01*
G01X28093530Y-19035525D01*
G01X28093530Y-18984062D01*
G01X28093530Y-18932599D01*
G01X28093530Y-18881136D01*
G01X28093530Y-18829673D01*
G01X28093530Y-18778210D01*
G01X28093530Y-18726747D01*
G01X28093530Y-18675284D01*
G01X28093530Y-18623821D01*
G01X28093530Y-18572358D01*
G01X28093530Y-18520894D01*
G01X28093530Y-18469431D01*
G01X28093530Y-18417968D01*
G01X28093530Y-18366505D01*
G01X28093530Y-18315042D01*
G01X28093530Y-18280733D01*
G01X28093530Y-18280733D01*
G01X28152330Y-18280733D01*
G01X28211130Y-18280733D01*
G01X28269930Y-18280733D01*
G01X28328730Y-18280733D01*
G01X28387530Y-18280733D01*
G01X28446330Y-18280733D01*
G01X28505130Y-18280733D01*
G01X28563930Y-18280733D01*
G01X28622730Y-18280733D01*
G01X28681530Y-18280733D01*
G01X28740330Y-18280733D01*
G01X28799130Y-18280733D01*
G01X28857930Y-18280733D01*
G01X28916730Y-18280733D01*
G01X28975530Y-18280733D01*
G01X29034330Y-18280733D01*
G01X29093130Y-18280733D01*
G01X29151930Y-18280733D01*
G01X29210730Y-18280733D01*
G01X29269530Y-18280733D01*
G01X29328330Y-18280733D01*
G01X29387130Y-18280733D01*
G01X29445930Y-18280733D01*
G01X29504730Y-18280733D01*
G01X29563530Y-18280733D01*
G01X29563530Y-18280733D01*
G01X29563530Y-18280733D01*
G01X29563530Y-18332196D01*
G01X29563530Y-18383659D01*
G01X29563530Y-18435123D01*
G01X29563530Y-18486586D01*
G01X29563530Y-18538049D01*
G01X29563530Y-18589512D01*
G01X29563530Y-18640975D01*
G01X29563530Y-18692438D01*
G01X29563530Y-18743901D01*
G01X29563530Y-18795364D01*
G01X29563530Y-18846827D01*
G01X29563530Y-18898290D01*
G01X29563530Y-18949754D01*
G01X29563530Y-19001217D01*
G01X29563530Y-19052680D01*
G01X29563530Y-19104143D01*
G01X29563530Y-19138452D01*
G01X29563530Y-19138452D01*
G01X29530843Y-19171139D01*
G01X29498155Y-19203827D01*
G01X29465467Y-19236514D01*
G01X29432779Y-19269203D01*
G01X29400091Y-19301891D01*
G01X29371249Y-19330733D01*
G01X29371249Y-19330733D01*
G01X29316977Y-19330733D01*
G01X29262705Y-19330733D01*
G01X29208433Y-19330733D01*
G01X29154161Y-19330733D01*
G01X29099889Y-19330733D01*
G01X29045617Y-19330733D01*
G01X28991345Y-19330733D01*
G01X28937074Y-19330733D01*
G01X28882802Y-19330733D01*
G01X28828530Y-19330733D01*
G01X28774258Y-19330733D01*
G01X28719986Y-19330733D01*
G01X28665714Y-19330733D01*
G01X28611442Y-19330733D01*
G01X28557170Y-19330733D01*
G01X28502898Y-19330733D01*
G01X28448627Y-19330733D01*
G01X28394355Y-19330733D01*
G01X28340083Y-19330733D01*
G01X28285811Y-19330733D01*
G01X28285811Y-19330733D01*
G37*
G36*
G01X29371249Y-16080733D02*
G01X29371249Y-16080733D01*
G01X29403936Y-16113420D01*
G01X29436624Y-16146108D01*
G01X29469312Y-16178796D01*
G01X29502000Y-16211484D01*
G01X29534688Y-16244172D01*
G01X29563530Y-16273014D01*
G01X29563530Y-16273014D01*
G01X29563530Y-16324478D01*
G01X29563530Y-16375941D01*
G01X29563530Y-16427404D01*
G01X29563530Y-16478867D01*
G01X29563530Y-16530330D01*
G01X29563530Y-16581793D01*
G01X29563530Y-16633256D01*
G01X29563530Y-16684719D01*
G01X29563530Y-16736182D01*
G01X29563530Y-16787646D01*
G01X29563530Y-16839109D01*
G01X29563530Y-16890572D01*
G01X29563530Y-16942035D01*
G01X29563530Y-16993498D01*
G01X29563530Y-17044961D01*
G01X29563530Y-17096424D01*
G01X29563530Y-17130733D01*
G01X29563530Y-17130733D01*
G01X29504730Y-17130733D01*
G01X29445930Y-17130733D01*
G01X29387130Y-17130733D01*
G01X29328330Y-17130733D01*
G01X29269530Y-17130733D01*
G01X29210730Y-17130733D01*
G01X29151930Y-17130733D01*
G01X29093130Y-17130733D01*
G01X29034330Y-17130733D01*
G01X28975530Y-17130733D01*
G01X28916730Y-17130733D01*
G01X28857930Y-17130733D01*
G01X28799130Y-17130733D01*
G01X28740330Y-17130733D01*
G01X28681530Y-17130733D01*
G01X28622730Y-17130733D01*
G01X28563930Y-17130733D01*
G01X28505130Y-17130733D01*
G01X28446330Y-17130733D01*
G01X28387530Y-17130733D01*
G01X28328730Y-17130733D01*
G01X28269930Y-17130733D01*
G01X28211130Y-17130733D01*
G01X28152330Y-17130733D01*
G01X28093530Y-17130733D01*
G01X28093530Y-17130733D01*
G01X28093530Y-17130733D01*
G01X28093530Y-17079270D01*
G01X28093530Y-17027807D01*
G01X28093530Y-16976344D01*
G01X28093530Y-16924880D01*
G01X28093530Y-16873417D01*
G01X28093530Y-16821954D01*
G01X28093530Y-16770491D01*
G01X28093530Y-16719028D01*
G01X28093530Y-16667565D01*
G01X28093530Y-16616102D01*
G01X28093530Y-16564639D01*
G01X28093530Y-16513176D01*
G01X28093530Y-16461713D01*
G01X28093530Y-16410249D01*
G01X28093530Y-16358786D01*
G01X28093530Y-16307323D01*
G01X28093530Y-16273014D01*
G01X28093530Y-16273014D01*
G01X28126217Y-16240327D01*
G01X28158905Y-16207640D01*
G01X28191593Y-16174952D01*
G01X28224281Y-16142264D01*
G01X28256969Y-16109575D01*
G01X28285812Y-16080733D01*
G01X28285812Y-16080733D01*
G01X28340083Y-16080733D01*
G01X28394355Y-16080733D01*
G01X28448627Y-16080733D01*
G01X28502899Y-16080733D01*
G01X28557171Y-16080733D01*
G01X28611443Y-16080733D01*
G01X28665715Y-16080733D01*
G01X28719986Y-16080733D01*
G01X28774258Y-16080733D01*
G01X28828530Y-16080733D01*
G01X28882802Y-16080733D01*
G01X28937074Y-16080733D01*
G01X28991346Y-16080733D01*
G01X29045618Y-16080733D01*
G01X29099890Y-16080733D01*
G01X29154162Y-16080733D01*
G01X29208433Y-16080733D01*
G01X29262705Y-16080733D01*
G01X29316977Y-16080733D01*
G01X29371249Y-16080733D01*
G01X29371249Y-16080733D01*
G37*
G36*
G01X24421845Y-11002143D02*
G01X24421845Y-11002143D01*
G01X24389158Y-11034830D01*
G01X24356470Y-11067518D01*
G01X24323782Y-11100206D01*
G01X24291094Y-11132894D01*
G01X24258406Y-11165582D01*
G01X24229564Y-11194424D01*
G01X24229564Y-11194424D01*
G01X24178101Y-11194424D01*
G01X24126637Y-11194424D01*
G01X24075174Y-11194424D01*
G01X24023711Y-11194424D01*
G01X23972248Y-11194424D01*
G01X23920785Y-11194424D01*
G01X23869322Y-11194424D01*
G01X23817859Y-11194424D01*
G01X23766396Y-11194424D01*
G01X23714933Y-11194424D01*
G01X23663469Y-11194424D01*
G01X23612006Y-11194424D01*
G01X23560543Y-11194424D01*
G01X23509080Y-11194424D01*
G01X23457617Y-11194424D01*
G01X23406154Y-11194424D01*
G01X23371845Y-11194424D01*
G01X23371845Y-11194424D01*
G01X23371845Y-11135624D01*
G01X23371845Y-11076824D01*
G01X23371845Y-11018024D01*
G01X23371845Y-10959224D01*
G01X23371845Y-10900424D01*
G01X23371845Y-10841624D01*
G01X23371845Y-10782824D01*
G01X23371845Y-10724024D01*
G01X23371845Y-10665224D01*
G01X23371845Y-10606424D01*
G01X23371845Y-10547624D01*
G01X23371845Y-10488824D01*
G01X23371845Y-10430024D01*
G01X23371845Y-10371224D01*
G01X23371845Y-10312424D01*
G01X23371845Y-10253624D01*
G01X23371845Y-10194824D01*
G01X23371845Y-10136024D01*
G01X23371845Y-10077224D01*
G01X23371845Y-10018424D01*
G01X23371845Y-9959624D01*
G01X23371845Y-9900824D01*
G01X23371845Y-9842024D01*
G01X23371845Y-9783224D01*
G01X23371845Y-9724424D01*
G01X23371845Y-9724424D01*
G01X23371845Y-9724424D01*
G01X23423308Y-9724424D01*
G01X23474771Y-9724424D01*
G01X23526234Y-9724424D01*
G01X23577698Y-9724424D01*
G01X23629161Y-9724424D01*
G01X23680624Y-9724424D01*
G01X23732087Y-9724424D01*
G01X23783550Y-9724424D01*
G01X23835013Y-9724424D01*
G01X23886476Y-9724424D01*
G01X23937939Y-9724424D01*
G01X23989402Y-9724424D01*
G01X24040866Y-9724424D01*
G01X24092329Y-9724424D01*
G01X24143792Y-9724424D01*
G01X24195255Y-9724424D01*
G01X24229564Y-9724424D01*
G01X24229564Y-9724424D01*
G01X24262251Y-9757111D01*
G01X24294939Y-9789799D01*
G01X24327626Y-9822487D01*
G01X24360315Y-9855175D01*
G01X24393003Y-9887863D01*
G01X24421845Y-9916706D01*
G01X24421845Y-9916706D01*
G01X24421845Y-9970977D01*
G01X24421845Y-10025249D01*
G01X24421845Y-10079521D01*
G01X24421845Y-10133793D01*
G01X24421845Y-10188065D01*
G01X24421845Y-10242337D01*
G01X24421845Y-10296609D01*
G01X24421845Y-10350881D01*
G01X24421845Y-10405152D01*
G01X24421845Y-10459424D01*
G01X24421845Y-10513696D01*
G01X24421845Y-10567968D01*
G01X24421845Y-10622240D01*
G01X24421845Y-10676512D01*
G01X24421845Y-10730784D01*
G01X24421845Y-10785056D01*
G01X24421845Y-10839328D01*
G01X24421845Y-10893599D01*
G01X24421845Y-10947871D01*
G01X24421845Y-11002143D01*
G01X24421845Y-11002143D01*
G37*
G36*
G01X21171845Y-9916705D02*
G01X21171845Y-9916705D01*
G01X21204532Y-9884018D01*
G01X21237220Y-9851330D01*
G01X21269908Y-9818642D01*
G01X21302596Y-9785954D01*
G01X21335284Y-9753266D01*
G01X21364126Y-9724424D01*
G01X21364126Y-9724424D01*
G01X21415589Y-9724424D01*
G01X21467053Y-9724424D01*
G01X21518516Y-9724424D01*
G01X21569979Y-9724424D01*
G01X21621442Y-9724424D01*
G01X21672905Y-9724424D01*
G01X21724368Y-9724424D01*
G01X21775831Y-9724424D01*
G01X21827294Y-9724424D01*
G01X21878757Y-9724424D01*
G01X21930221Y-9724424D01*
G01X21981684Y-9724424D01*
G01X22033147Y-9724424D01*
G01X22084610Y-9724424D01*
G01X22136073Y-9724424D01*
G01X22187536Y-9724424D01*
G01X22221845Y-9724424D01*
G01X22221845Y-9724424D01*
G01X22221845Y-9783224D01*
G01X22221845Y-9842024D01*
G01X22221845Y-9900824D01*
G01X22221845Y-9959624D01*
G01X22221845Y-10018424D01*
G01X22221845Y-10077224D01*
G01X22221845Y-10136024D01*
G01X22221845Y-10194824D01*
G01X22221845Y-10253624D01*
G01X22221845Y-10312424D01*
G01X22221845Y-10371224D01*
G01X22221845Y-10430024D01*
G01X22221845Y-10488824D01*
G01X22221845Y-10547624D01*
G01X22221845Y-10606424D01*
G01X22221845Y-10665224D01*
G01X22221845Y-10724024D01*
G01X22221845Y-10782824D01*
G01X22221845Y-10841624D01*
G01X22221845Y-10900424D01*
G01X22221845Y-10959224D01*
G01X22221845Y-11018024D01*
G01X22221845Y-11076824D01*
G01X22221845Y-11135624D01*
G01X22221845Y-11194424D01*
G01X22221845Y-11194424D01*
G01X22221845Y-11194424D01*
G01X22170382Y-11194424D01*
G01X22118919Y-11194424D01*
G01X22067456Y-11194424D01*
G01X22015992Y-11194424D01*
G01X21964529Y-11194424D01*
G01X21913066Y-11194424D01*
G01X21861603Y-11194424D01*
G01X21810140Y-11194424D01*
G01X21758677Y-11194424D01*
G01X21707214Y-11194424D01*
G01X21655751Y-11194424D01*
G01X21604288Y-11194424D01*
G01X21552824Y-11194424D01*
G01X21501361Y-11194424D01*
G01X21449898Y-11194424D01*
G01X21398435Y-11194424D01*
G01X21364126Y-11194424D01*
G01X21364126Y-11194424D01*
G01X21331439Y-11161737D01*
G01X21298752Y-11129049D01*
G01X21266064Y-11096361D01*
G01X21233376Y-11063673D01*
G01X21200687Y-11030985D01*
G01X21171845Y-11002143D01*
G01X21171845Y-11002143D01*
G01X21171845Y-10947871D01*
G01X21171845Y-10893599D01*
G01X21171845Y-10839327D01*
G01X21171845Y-10785055D01*
G01X21171845Y-10730783D01*
G01X21171845Y-10676511D01*
G01X21171845Y-10622240D01*
G01X21171845Y-10567968D01*
G01X21171845Y-10513696D01*
G01X21171845Y-10459424D01*
G01X21171845Y-10405152D01*
G01X21171845Y-10350880D01*
G01X21171845Y-10296608D01*
G01X21171845Y-10242336D01*
G01X21171845Y-10188064D01*
G01X21171845Y-10133792D01*
G01X21171845Y-10079521D01*
G01X21171845Y-10025249D01*
G01X21171845Y-9970977D01*
G01X21171845Y-9916705D01*
G01X21171845Y-9916705D01*
G37*
G36*
G01X10728661Y-13970752D02*
G01X10728661Y-13970752D01*
G01X10664554Y-13968678D01*
G01X10601555Y-13962542D01*
G01X10539792Y-13952472D01*
G01X10479392Y-13938598D01*
G01X10420486Y-13921046D01*
G01X10363200Y-13899946D01*
G01X10307664Y-13875426D01*
G01X10254006Y-13847615D01*
G01X10202355Y-13816642D01*
G01X10152839Y-13782634D01*
G01X10105586Y-13745720D01*
G01X10060725Y-13706028D01*
G01X10018385Y-13663688D01*
G01X9978693Y-13618827D01*
G01X9941779Y-13571574D01*
G01X9907771Y-13522058D01*
G01X9876798Y-13470407D01*
G01X9848987Y-13416749D01*
G01X9824467Y-13361213D01*
G01X9803367Y-13303927D01*
G01X9785816Y-13245021D01*
G01X9771941Y-13184621D01*
G01X9761871Y-13122858D01*
G01X9755735Y-13059859D01*
G01X9753661Y-12995752D01*
G01X9753661Y-12995752D01*
G01X9753661Y-12995752D01*
G01X9755735Y-12931646D01*
G01X9761871Y-12868646D01*
G01X9771941Y-12806883D01*
G01X9785816Y-12746483D01*
G01X9803367Y-12687577D01*
G01X9824467Y-12630291D01*
G01X9848987Y-12574755D01*
G01X9876798Y-12521097D01*
G01X9907771Y-12469446D01*
G01X9941779Y-12419930D01*
G01X9978693Y-12372677D01*
G01X10018385Y-12327816D01*
G01X10060725Y-12285476D01*
G01X10105586Y-12245784D01*
G01X10152839Y-12208871D01*
G01X10202355Y-12174862D01*
G01X10254006Y-12143889D01*
G01X10307664Y-12116078D01*
G01X10363200Y-12091558D01*
G01X10420486Y-12070458D01*
G01X10479392Y-12052907D01*
G01X10539792Y-12039032D01*
G01X10601555Y-12028962D01*
G01X10664554Y-12022826D01*
G01X10728661Y-12020752D01*
G01X10728661Y-12020752D01*
G01X10728661Y-12020752D01*
G01X10792768Y-12022826D01*
G01X10855767Y-12028962D01*
G01X10917530Y-12039032D01*
G01X10977930Y-12052907D01*
G01X11036836Y-12070458D01*
G01X11094122Y-12091558D01*
G01X11149658Y-12116078D01*
G01X11203316Y-12143889D01*
G01X11254967Y-12174862D01*
G01X11304483Y-12208871D01*
G01X11351736Y-12245784D01*
G01X11396597Y-12285476D01*
G01X11438937Y-12327816D01*
G01X11478629Y-12372677D01*
G01X11515543Y-12419930D01*
G01X11549551Y-12469446D01*
G01X11580524Y-12521097D01*
G01X11608335Y-12574755D01*
G01X11632855Y-12630291D01*
G01X11653955Y-12687577D01*
G01X11671506Y-12746483D01*
G01X11685381Y-12806883D01*
G01X11695451Y-12868646D01*
G01X11701587Y-12931646D01*
G01X11703661Y-12995752D01*
G01X11703661Y-12995752D01*
G01X11703661Y-12995752D01*
G01X11701587Y-13059859D01*
G01X11695451Y-13122858D01*
G01X11685381Y-13184621D01*
G01X11671506Y-13245021D01*
G01X11653955Y-13303927D01*
G01X11632855Y-13361213D01*
G01X11608335Y-13416749D01*
G01X11580524Y-13470407D01*
G01X11549551Y-13522058D01*
G01X11515543Y-13571574D01*
G01X11478629Y-13618827D01*
G01X11438937Y-13663688D01*
G01X11396597Y-13706028D01*
G01X11351736Y-13745720D01*
G01X11304483Y-13782634D01*
G01X11254967Y-13816642D01*
G01X11203316Y-13847615D01*
G01X11149658Y-13875426D01*
G01X11094122Y-13899946D01*
G01X11036836Y-13921046D01*
G01X10977930Y-13938598D01*
G01X10917530Y-13952472D01*
G01X10855767Y-13962542D01*
G01X10792768Y-13968678D01*
G01X10728661Y-13970752D01*
G01X10728661Y-13970752D01*
G37*
G36*
G01X9163661Y-12995752D02*
G01X9163661Y-12320752D01*
G01X9163661Y-12320752D01*
G01X9159735Y-12272091D01*
G01X9148367Y-12225929D01*
G01X9130175Y-12182885D01*
G01X9105778Y-12143576D01*
G01X9075793Y-12108620D01*
G01X9040837Y-12078635D01*
G01X9001528Y-12054238D01*
G01X8958484Y-12036046D01*
G01X8912322Y-12024679D01*
G01X8863661Y-12020752D01*
G01X8863661Y-12020752D01*
G01X8188661Y-12020752D01*
G01X7513661Y-12020752D01*
G01X7513661Y-12020752D01*
G01X7465000Y-12024679D01*
G01X7418838Y-12036046D01*
G01X7375794Y-12054238D01*
G01X7336485Y-12078635D01*
G01X7301529Y-12108620D01*
G01X7271544Y-12143576D01*
G01X7247147Y-12182885D01*
G01X7228955Y-12225929D01*
G01X7217588Y-12272091D01*
G01X7213661Y-12320752D01*
G01X7213661Y-12320752D01*
G01X7213661Y-12995752D01*
G01X7213661Y-13670752D01*
G01X7213661Y-13670752D01*
G01X7217588Y-13719414D01*
G01X7228955Y-13765575D01*
G01X7247147Y-13808619D01*
G01X7271544Y-13847928D01*
G01X7301529Y-13882884D01*
G01X7336485Y-13912869D01*
G01X7375794Y-13937267D01*
G01X7418838Y-13955458D01*
G01X7465000Y-13966826D01*
G01X7513661Y-13970752D01*
G01X7513661Y-13970752D01*
G01X8188661Y-13970752D01*
G01X8863661Y-13970752D01*
G01X8863661Y-13970752D01*
G01X8912322Y-13966826D01*
G01X8958484Y-13955458D01*
G01X9001528Y-13937267D01*
G01X9040837Y-13912869D01*
G01X9075793Y-13882884D01*
G01X9105778Y-13847928D01*
G01X9130175Y-13808619D01*
G01X9148367Y-13765575D01*
G01X9159735Y-13719414D01*
G01X9163661Y-13670752D01*
G01X9163661Y-13670752D01*
G01X9163661Y-12995752D01*
G37*
G36*
G01X11568588Y-28156542D02*
G01X9068588Y-28156542D01*
G01X9068588Y-33256542D01*
G01X11568588Y-33256542D01*
G01X11568588Y-28156542D01*
G37*
G36*
G01X31968588Y-33256542D02*
G01X34468588Y-33256542D01*
G01X34468588Y-28156542D01*
G01X31968588Y-28156542D01*
G01X31968588Y-33256542D01*
G37*
G36*
G01X21968883Y-35053930D02*
G01X21968883Y-35053930D01*
G01X21985770Y-35101642D01*
G01X22002657Y-35149354D01*
G01X22019543Y-35197066D01*
G01X22036430Y-35244778D01*
G01X22053317Y-35292490D01*
G01X22070204Y-35340202D01*
G01X22087091Y-35387914D01*
G01X22103977Y-35435626D01*
G01X22120864Y-35483339D01*
G01X22137751Y-35531051D01*
G01X22154638Y-35578763D01*
G01X22171525Y-35626475D01*
G01X22188411Y-35674187D01*
G01X22205298Y-35721899D01*
G01X22222185Y-35769611D01*
G01X22239072Y-35817323D01*
G01X22255959Y-35865035D01*
G01X22272845Y-35912747D01*
G01X22289732Y-35960459D01*
G01X22306619Y-36008171D01*
G01X22323506Y-36055883D01*
G01X22340393Y-36103595D01*
G01X22357279Y-36151307D01*
G01X22374166Y-36199019D01*
G01X22391053Y-36246731D01*
G01X22391053Y-36246731D01*
G01X22391053Y-36246731D01*
G01X22345834Y-36246731D01*
G01X22300615Y-36246731D01*
G01X22255396Y-36246731D01*
G01X22210176Y-36246731D01*
G01X22164957Y-36246731D01*
G01X22119738Y-36246731D01*
G01X22074519Y-36246731D01*
G01X22029300Y-36246731D01*
G01X21984080Y-36246731D01*
G01X21938861Y-36246731D01*
G01X21938861Y-36246731D01*
G01X21938861Y-36246731D01*
G01X21946768Y-36296100D01*
G01X21954674Y-36345468D01*
G01X21962581Y-36394837D01*
G01X21970487Y-36444205D01*
G01X21978394Y-36493573D01*
G01X21986300Y-36542942D01*
G01X21994207Y-36592310D01*
G01X22002113Y-36641679D01*
G01X22010020Y-36691047D01*
G01X22017926Y-36740416D01*
G01X22025832Y-36789784D01*
G01X22033739Y-36839153D01*
G01X22041645Y-36888521D01*
G01X22049552Y-36937890D01*
G01X22051811Y-36951995D01*
G01X22051811Y-36951995D01*
G01X22097439Y-36951033D01*
G01X22143067Y-36950095D01*
G01X22143067Y-36950095D01*
G01X22143067Y-36950095D01*
G01X22206426Y-36928312D01*
G01X22269786Y-36906528D01*
G01X22333145Y-36884745D01*
G01X22396505Y-36862962D01*
G01X22459864Y-36841179D01*
G01X22523224Y-36819395D01*
G01X22586583Y-36797612D01*
G01X22649943Y-36775829D01*
G01X22713302Y-36754045D01*
G01X22776662Y-36732262D01*
G01X22840021Y-36710479D01*
G01X22903381Y-36688695D01*
G01X22966740Y-36666912D01*
G01X23030100Y-36645129D01*
G01X23093459Y-36623346D01*
G01X23156819Y-36601562D01*
G01X23220178Y-36579779D01*
G01X23283538Y-36557996D01*
G01X23346897Y-36536212D01*
G01X23410257Y-36514429D01*
G01X23473616Y-36492646D01*
G01X23536976Y-36470862D01*
G01X23600335Y-36449079D01*
G01X23663695Y-36427296D01*
G01X23727054Y-36405513D01*
G01X23790414Y-36383729D01*
G01X23853773Y-36361946D01*
G01X23917133Y-36340163D01*
G01X23980492Y-36318379D01*
G01X24043852Y-36296596D01*
G01X24107211Y-36274813D01*
G01X24170571Y-36253029D01*
G01X24233930Y-36231246D01*
G01X24297290Y-36209463D01*
G01X24360650Y-36187680D01*
G01X24424009Y-36165896D01*
G01X24487369Y-36144113D01*
G01X24550728Y-36122330D01*
G01X24614088Y-36100546D01*
G01X24677447Y-36078763D01*
G01X24740807Y-36056980D01*
G01X24804166Y-36035196D01*
G01X24867526Y-36013413D01*
G01X24930885Y-35991630D01*
G01X24994245Y-35969847D01*
G01X25057604Y-35948063D01*
G01X25120964Y-35926280D01*
G01X25184323Y-35904497D01*
G01X25247683Y-35882713D01*
G01X25311042Y-35860930D01*
G01X25311042Y-35860930D01*
G01X25311042Y-35860930D01*
G01X25353515Y-35810759D01*
G01X25395989Y-35760587D01*
G01X25438462Y-35710416D01*
G01X25480935Y-35660244D01*
G01X25523408Y-35610073D01*
G01X25565881Y-35559901D01*
G01X25608355Y-35509730D01*
G01X25650828Y-35459558D01*
G01X25693301Y-35409387D01*
G01X25735774Y-35359215D01*
G01X25778247Y-35309044D01*
G01X25820721Y-35258872D01*
G01X25863194Y-35208701D01*
G01X25905667Y-35158529D01*
G01X25948140Y-35108358D01*
G01X25990613Y-35058186D01*
G01X26033087Y-35008015D01*
G01X26075560Y-34957843D01*
G01X26118033Y-34907672D01*
G01X26160506Y-34857500D01*
G01X26202979Y-34807329D01*
G01X26245453Y-34757157D01*
G01X26287926Y-34706986D01*
G01X26330399Y-34656814D01*
G01X26372872Y-34606643D01*
G01X26415345Y-34556471D01*
G01X26457818Y-34506300D01*
G01X26500292Y-34456128D01*
G01X26542765Y-34405957D01*
G01X26585238Y-34355785D01*
G01X26627711Y-34305614D01*
G01X26670184Y-34255443D01*
G01X26712658Y-34205271D01*
G01X26755131Y-34155100D01*
G01X26797604Y-34104928D01*
G01X26840077Y-34054757D01*
G01X26882550Y-34004585D01*
G01X26925024Y-33954414D01*
G01X26967497Y-33904242D01*
G01X27009970Y-33854071D01*
G01X27052443Y-33803899D01*
G01X27094916Y-33753728D01*
G01X27137390Y-33703556D01*
G01X27179863Y-33653385D01*
G01X27222336Y-33603213D01*
G01X27264809Y-33553042D01*
G01X27307282Y-33502870D01*
G01X27349756Y-33452699D01*
G01X27392229Y-33402527D01*
G01X27434702Y-33352356D01*
G01X27434702Y-33352356D01*
G01X27434702Y-33352356D01*
G01X27446380Y-33299530D01*
G01X27458057Y-33246705D01*
G01X27469735Y-33193880D01*
G01X27481413Y-33141054D01*
G01X27493091Y-33088229D01*
G01X27504768Y-33035404D01*
G01X27516446Y-32982578D01*
G01X27528124Y-32929753D01*
G01X27539801Y-32876928D01*
G01X27551479Y-32824102D01*
G01X27563157Y-32771277D01*
G01X27574835Y-32718452D01*
G01X27586512Y-32665626D01*
G01X27598190Y-32612801D01*
G01X27609868Y-32559976D01*
G01X27621545Y-32507150D01*
G01X27633223Y-32454325D01*
G01X27644901Y-32401500D01*
G01X27656579Y-32348674D01*
G01X27668256Y-32295849D01*
G01X27679934Y-32243024D01*
G01X27691612Y-32190198D01*
G01X27703289Y-32137373D01*
G01X27714967Y-32084548D01*
G01X27726645Y-32031722D01*
G01X27738323Y-31978897D01*
G01X27750000Y-31926072D01*
G01X27761678Y-31873246D01*
G01X27773356Y-31820421D01*
G01X27785033Y-31767596D01*
G01X27796711Y-31714770D01*
G01X27808389Y-31661945D01*
G01X27820067Y-31609120D01*
G01X27831744Y-31556294D01*
G01X27843422Y-31503469D01*
G01X27855100Y-31450644D01*
G01X27866778Y-31397818D01*
G01X27878455Y-31344993D01*
G01X27890133Y-31292168D01*
G01X27901811Y-31239342D01*
G01X27913488Y-31186517D01*
G01X27925166Y-31133692D01*
G01X27936844Y-31080866D01*
G01X27948522Y-31028041D01*
G01X27960199Y-30975216D01*
G01X27971877Y-30922390D01*
G01X27983555Y-30869565D01*
G01X27995232Y-30816740D01*
G01X28006910Y-30763914D01*
G01X28018588Y-30711089D01*
G01X28018588Y-30711089D01*
G01X28018588Y-30711089D01*
G01X28014386Y-30651930D01*
G01X28010184Y-30592770D01*
G01X28005982Y-30533611D01*
G01X28001781Y-30474451D01*
G01X27997579Y-30415292D01*
G01X27993377Y-30356132D01*
G01X27989175Y-30296973D01*
G01X27984973Y-30237814D01*
G01X27980771Y-30178654D01*
G01X27976570Y-30119495D01*
G01X27972368Y-30060335D01*
G01X27968166Y-30001176D01*
G01X27963964Y-29942016D01*
G01X27959762Y-29882857D01*
G01X27955561Y-29823698D01*
G01X27951359Y-29764538D01*
G01X27947157Y-29705379D01*
G01X27942955Y-29646219D01*
G01X27938753Y-29587060D01*
G01X27934551Y-29527900D01*
G01X27930350Y-29468741D01*
G01X27926148Y-29409582D01*
G01X27921946Y-29350422D01*
G01X27917744Y-29291263D01*
G01X27913542Y-29232103D01*
G01X27909341Y-29172944D01*
G01X27905139Y-29113784D01*
G01X27900937Y-29054625D01*
G01X27896735Y-28995466D01*
G01X27892533Y-28936306D01*
G01X27888331Y-28877147D01*
G01X27884130Y-28817987D01*
G01X27879928Y-28758828D01*
G01X27878527Y-28739108D01*
G01X27878527Y-28739108D01*
G01X27843512Y-28688266D01*
G01X27808496Y-28637424D01*
G01X27773480Y-28586582D01*
G01X27738465Y-28535740D01*
G01X27703449Y-28484898D01*
G01X27668434Y-28434056D01*
G01X27633418Y-28383214D01*
G01X27598402Y-28332373D01*
G01X27563387Y-28281531D01*
G01X27528371Y-28230689D01*
G01X27493355Y-28179847D01*
G01X27458340Y-28129005D01*
G01X27423324Y-28078163D01*
G01X27388309Y-28027321D01*
G01X27353293Y-27976479D01*
G01X27318277Y-27925637D01*
G01X27283262Y-27874795D01*
G01X27248246Y-27823953D01*
G01X27213231Y-27773111D01*
G01X27178215Y-27722269D01*
G01X27143199Y-27671427D01*
G01X27108184Y-27620586D01*
G01X27073168Y-27569744D01*
G01X27038152Y-27518902D01*
G01X27003137Y-27468060D01*
G01X26968121Y-27417218D01*
G01X26933106Y-27366376D01*
G01X26898090Y-27315534D01*
G01X26863074Y-27264692D01*
G01X26828059Y-27213850D01*
G01X26793043Y-27163008D01*
G01X26758027Y-27112166D01*
G01X26723012Y-27061324D01*
G01X26687996Y-27010482D01*
G01X26652981Y-26959640D01*
G01X26617965Y-26908799D01*
G01X26582949Y-26857957D01*
G01X26547934Y-26807115D01*
G01X26512918Y-26756273D01*
G01X26477903Y-26705431D01*
G01X26442887Y-26654589D01*
G01X26407871Y-26603747D01*
G01X26372856Y-26552905D01*
G01X26337840Y-26502063D01*
G01X26302824Y-26451221D01*
G01X26267809Y-26400379D01*
G01X26232793Y-26349537D01*
G01X26197778Y-26298695D01*
G01X26162762Y-26247854D01*
G01X26127746Y-26197012D01*
G01X26127746Y-26197012D01*
G01X26127746Y-26197012D01*
G01X26068561Y-26162252D01*
G01X26009375Y-26127492D01*
G01X25950189Y-26092733D01*
G01X25891003Y-26057973D01*
G01X25831818Y-26023214D01*
G01X25772632Y-25988454D01*
G01X25713446Y-25953695D01*
G01X25654261Y-25918935D01*
G01X25595075Y-25884176D01*
G01X25535889Y-25849416D01*
G01X25476703Y-25814657D01*
G01X25417518Y-25779897D01*
G01X25358332Y-25745138D01*
G01X25299146Y-25710378D01*
G01X25239961Y-25675619D01*
G01X25180775Y-25640859D01*
G01X25121589Y-25606100D01*
G01X25062403Y-25571340D01*
G01X25003218Y-25536580D01*
G01X24944032Y-25501821D01*
G01X24884846Y-25467061D01*
G01X24825661Y-25432302D01*
G01X24766475Y-25397542D01*
G01X24707289Y-25362783D01*
G01X24648103Y-25328023D01*
G01X24588918Y-25293264D01*
G01X24529732Y-25258504D01*
G01X24470546Y-25223745D01*
G01X24411361Y-25188985D01*
G01X24352175Y-25154226D01*
G01X24292989Y-25119466D01*
G01X24233803Y-25084707D01*
G01X24174618Y-25049947D01*
G01X24154889Y-25038360D01*
G01X24154889Y-25038360D01*
G01X24107163Y-25026815D01*
G01X24059437Y-25015270D01*
G01X24011711Y-25003724D01*
G01X23963985Y-24992179D01*
G01X23916259Y-24980633D01*
G01X23868533Y-24969088D01*
G01X23820807Y-24957542D01*
G01X23773081Y-24945997D01*
G01X23725355Y-24934452D01*
G01X23677629Y-24922906D01*
G01X23629903Y-24911361D01*
G01X23582177Y-24899815D01*
G01X23534451Y-24888270D01*
G01X23486725Y-24876724D01*
G01X23438999Y-24865179D01*
G01X23391273Y-24853634D01*
G01X23343547Y-24842088D01*
G01X23295821Y-24830543D01*
G01X23248095Y-24818997D01*
G01X23200369Y-24807452D01*
G01X23152643Y-24795906D01*
G01X23104917Y-24784361D01*
G01X23057191Y-24772815D01*
G01X23009464Y-24761270D01*
G01X22961738Y-24749725D01*
G01X22914012Y-24738179D01*
G01X22866286Y-24726634D01*
G01X22818560Y-24715088D01*
G01X22770834Y-24703543D01*
G01X22723108Y-24691997D01*
G01X22675382Y-24680452D01*
G01X22627656Y-24668907D01*
G01X22579930Y-24657361D01*
G01X22532204Y-24645816D01*
G01X22484478Y-24634270D01*
G01X22436752Y-24622725D01*
G01X22389026Y-24611179D01*
G01X22341300Y-24599634D01*
G01X22293574Y-24588089D01*
G01X22245848Y-24576543D01*
G01X22198122Y-24564998D01*
G01X22150396Y-24553452D01*
G01X22102670Y-24541907D01*
G01X22054944Y-24530361D01*
G01X22007218Y-24518816D01*
G01X21959492Y-24507271D01*
G01X21911766Y-24495725D01*
G01X21864040Y-24484180D01*
G01X21816314Y-24472634D01*
G01X21768588Y-24461089D01*
G01X21768588Y-24461089D01*
G01X21768588Y-24461089D01*
G01X21710881Y-24475177D01*
G01X21653175Y-24489266D01*
G01X21595468Y-24503354D01*
G01X21537762Y-24517442D01*
G01X21480055Y-24531531D01*
G01X21422348Y-24545619D01*
G01X21364642Y-24559708D01*
G01X21306935Y-24573796D01*
G01X21249229Y-24587884D01*
G01X21191522Y-24601973D01*
G01X21133816Y-24616061D01*
G01X21076109Y-24630150D01*
G01X21018402Y-24644238D01*
G01X20960696Y-24658326D01*
G01X20902989Y-24672415D01*
G01X20845283Y-24686503D01*
G01X20787576Y-24700592D01*
G01X20729870Y-24714680D01*
G01X20672163Y-24728769D01*
G01X20614456Y-24742857D01*
G01X20556750Y-24756945D01*
G01X20499043Y-24771034D01*
G01X20441337Y-24785122D01*
G01X20383630Y-24799211D01*
G01X20325924Y-24813299D01*
G01X20268217Y-24827387D01*
G01X20210510Y-24841476D01*
G01X20152804Y-24855564D01*
G01X20095097Y-24869653D01*
G01X20037391Y-24883741D01*
G01X19979684Y-24897829D01*
G01X19921978Y-24911918D01*
G01X19864271Y-24926006D01*
G01X19806565Y-24940095D01*
G01X19748858Y-24954183D01*
G01X19691151Y-24968271D01*
G01X19633445Y-24982360D01*
G01X19575738Y-24996448D01*
G01X19518032Y-25010537D01*
G01X19460325Y-25024625D01*
G01X19402619Y-25038714D01*
G01X19344912Y-25052802D01*
G01X19287205Y-25066890D01*
G01X19229499Y-25080979D01*
G01X19171792Y-25095067D01*
G01X19114086Y-25109156D01*
G01X19056379Y-25123244D01*
G01X18998673Y-25137332D01*
G01X18940966Y-25151421D01*
G01X18883259Y-25165509D01*
G01X18883259Y-25165509D01*
G01X18883259Y-25165509D01*
G01X18830449Y-25199322D01*
G01X18777638Y-25233135D01*
G01X18724827Y-25266948D01*
G01X18672016Y-25300761D01*
G01X18619205Y-25334574D01*
G01X18566394Y-25368387D01*
G01X18513583Y-25402200D01*
G01X18460772Y-25436013D01*
G01X18407961Y-25469826D01*
G01X18355150Y-25503639D01*
G01X18302339Y-25537452D01*
G01X18249529Y-25571265D01*
G01X18196718Y-25605078D01*
G01X18143907Y-25638891D01*
G01X18091096Y-25672704D01*
G01X18038285Y-25706518D01*
G01X17985474Y-25740331D01*
G01X17932663Y-25774144D01*
G01X17879852Y-25807957D01*
G01X17827041Y-25841770D01*
G01X17774230Y-25875583D01*
G01X17721419Y-25909396D01*
G01X17668608Y-25943209D01*
G01X17615798Y-25977022D01*
G01X17562987Y-26010835D01*
G01X17510176Y-26044648D01*
G01X17457365Y-26078461D01*
G01X17404554Y-26112274D01*
G01X17351743Y-26146087D01*
G01X17298932Y-26179900D01*
G01X17246121Y-26213713D01*
G01X17193310Y-26247526D01*
G01X17140499Y-26281339D01*
G01X17122896Y-26292610D01*
G01X17122896Y-26292610D01*
G01X17096737Y-26342834D01*
G01X17070578Y-26393058D01*
G01X17044419Y-26443282D01*
G01X17018260Y-26493506D01*
G01X16992101Y-26543730D01*
G01X16965942Y-26593954D01*
G01X16939783Y-26644178D01*
G01X16913624Y-26694402D01*
G01X16887465Y-26744626D01*
G01X16861307Y-26794850D01*
G01X16835148Y-26845074D01*
G01X16808989Y-26895298D01*
G01X16782830Y-26945522D01*
G01X16756671Y-26995746D01*
G01X16730512Y-27045970D01*
G01X16704353Y-27096193D01*
G01X16678194Y-27146417D01*
G01X16652035Y-27196641D01*
G01X16625876Y-27246865D01*
G01X16599717Y-27297089D01*
G01X16573558Y-27347313D01*
G01X16547400Y-27397537D01*
G01X16521241Y-27447761D01*
G01X16495082Y-27497985D01*
G01X16468923Y-27548209D01*
G01X16442764Y-27598433D01*
G01X16416605Y-27648657D01*
G01X16390446Y-27698881D01*
G01X16364287Y-27749105D01*
G01X16338128Y-27799329D01*
G01X16311969Y-27849553D01*
G01X16285810Y-27899777D01*
G01X16259651Y-27950001D01*
G01X16233493Y-28000225D01*
G01X16207334Y-28050449D01*
G01X16181175Y-28100673D01*
G01X16155016Y-28150897D01*
G01X16128857Y-28201121D01*
G01X16102698Y-28251345D01*
G01X16076539Y-28301569D01*
G01X16050380Y-28351793D01*
G01X16024221Y-28402017D01*
G01X15998062Y-28452241D01*
G01X15971903Y-28502465D01*
G01X15945744Y-28552689D01*
G01X15919586Y-28602913D01*
G01X15893427Y-28653137D01*
G01X15867268Y-28703361D01*
G01X15841109Y-28753585D01*
G01X15814950Y-28803809D01*
G01X15814950Y-28803809D01*
G01X15814950Y-28803809D01*
G01X15806059Y-28861027D01*
G01X15797168Y-28918245D01*
G01X15788277Y-28975464D01*
G01X15779386Y-29032682D01*
G01X15770496Y-29089901D01*
G01X15761605Y-29147119D01*
G01X15752714Y-29204338D01*
G01X15743823Y-29261556D01*
G01X15734932Y-29318774D01*
G01X15726041Y-29375993D01*
G01X15717150Y-29433211D01*
G01X15708260Y-29490430D01*
G01X15699369Y-29547648D01*
G01X15690478Y-29604866D01*
G01X15681587Y-29662085D01*
G01X15672696Y-29719303D01*
G01X15663805Y-29776522D01*
G01X15654914Y-29833740D01*
G01X15646024Y-29890958D01*
G01X15637133Y-29948177D01*
G01X15628242Y-30005395D01*
G01X15619351Y-30062614D01*
G01X15610460Y-30119832D01*
G01X15601569Y-30177051D01*
G01X15592678Y-30234269D01*
G01X15583787Y-30291487D01*
G01X15574897Y-30348706D01*
G01X15566006Y-30405924D01*
G01X15557115Y-30463143D01*
G01X15548224Y-30520361D01*
G01X15539333Y-30577579D01*
G01X15530442Y-30634798D01*
G01X15521551Y-30692016D01*
G01X15518588Y-30711089D01*
G01X15518588Y-30711089D01*
G01X15520646Y-30766148D01*
G01X15522704Y-30821207D01*
G01X15524762Y-30876266D01*
G01X15526820Y-30931325D01*
G01X15528878Y-30986384D01*
G01X15530937Y-31041443D01*
G01X15532995Y-31096502D01*
G01X15535053Y-31151561D01*
G01X15537111Y-31206620D01*
G01X15539169Y-31261679D01*
G01X15541227Y-31316738D01*
G01X15543285Y-31371797D01*
G01X15545343Y-31426856D01*
G01X15547402Y-31481915D01*
G01X15549460Y-31536974D01*
G01X15551518Y-31592033D01*
G01X15553576Y-31647092D01*
G01X15555634Y-31702151D01*
G01X15557692Y-31757210D01*
G01X15559750Y-31812269D01*
G01X15561808Y-31867328D01*
G01X15563866Y-31922387D01*
G01X15565925Y-31977446D01*
G01X15567983Y-32032505D01*
G01X15570041Y-32087564D01*
G01X15572099Y-32142623D01*
G01X15574157Y-32197682D01*
G01X15576215Y-32252741D01*
G01X15578273Y-32307800D01*
G01X15580331Y-32362859D01*
G01X15582390Y-32417918D01*
G01X15584448Y-32472977D01*
G01X15586506Y-32528036D01*
G01X15587192Y-32546389D01*
G01X15587192Y-32546389D01*
G01X15618605Y-32598276D01*
G01X15650017Y-32650163D01*
G01X15681430Y-32702051D01*
G01X15712842Y-32753938D01*
G01X15744255Y-32805825D01*
G01X15775668Y-32857712D01*
G01X15807080Y-32909600D01*
G01X15838493Y-32961487D01*
G01X15869906Y-33013374D01*
G01X15901318Y-33065261D01*
G01X15932731Y-33117148D01*
G01X15964144Y-33169036D01*
G01X15995556Y-33220923D01*
G01X16026969Y-33272810D01*
G01X16058382Y-33324697D01*
G01X16089794Y-33376585D01*
G01X16121207Y-33428472D01*
G01X16152620Y-33480359D01*
G01X16184032Y-33532246D01*
G01X16215445Y-33584134D01*
G01X16246858Y-33636021D01*
G01X16278270Y-33687908D01*
G01X16309683Y-33739795D01*
G01X16341096Y-33791682D01*
G01X16372508Y-33843570D01*
G01X16403921Y-33895457D01*
G01X16435334Y-33947344D01*
G01X16466746Y-33999231D01*
G01X16498159Y-34051119D01*
G01X16529572Y-34103006D01*
G01X16560984Y-34154893D01*
G01X16592397Y-34206780D01*
G01X16623810Y-34258668D01*
G01X16634281Y-34275963D01*
G01X16634281Y-34275963D01*
G01X16677023Y-34314382D01*
G01X16719765Y-34352801D01*
G01X16762508Y-34391219D01*
G01X16805250Y-34429638D01*
G01X16847993Y-34468056D01*
G01X16890735Y-34506475D01*
G01X16933477Y-34544894D01*
G01X16976220Y-34583312D01*
G01X17018962Y-34621731D01*
G01X17061705Y-34660150D01*
G01X17104447Y-34698568D01*
G01X17147189Y-34736987D01*
G01X17189932Y-34775406D01*
G01X17232674Y-34813824D01*
G01X17275417Y-34852243D01*
G01X17318159Y-34890661D01*
G01X17360901Y-34929080D01*
G01X17403644Y-34967499D01*
G01X17446386Y-35005917D01*
G01X17489129Y-35044336D01*
G01X17531871Y-35082755D01*
G01X17574613Y-35121173D01*
G01X17617356Y-35159592D01*
G01X17660098Y-35198011D01*
G01X17702841Y-35236429D01*
G01X17745583Y-35274848D01*
G01X17788325Y-35313266D01*
G01X17831068Y-35351685D01*
G01X17873810Y-35390104D01*
G01X17916553Y-35428522D01*
G01X17959295Y-35466941D01*
G01X18002037Y-35505360D01*
G01X18044780Y-35543778D01*
G01X18087522Y-35582197D01*
G01X18130265Y-35620616D01*
G01X18173007Y-35659034D01*
G01X18215749Y-35697453D01*
G01X18258492Y-35735871D01*
G01X18301234Y-35774290D01*
G01X18343977Y-35812709D01*
G01X18386719Y-35851127D01*
G01X18429461Y-35889546D01*
G01X18472204Y-35927965D01*
G01X18514946Y-35966383D01*
G01X18557689Y-36004802D01*
G01X18600431Y-36043221D01*
G01X18643173Y-36081639D01*
G01X18685916Y-36120058D01*
G01X18728658Y-36158476D01*
G01X18771401Y-36196895D01*
G01X18771401Y-36196895D01*
G01X18771401Y-36196895D01*
G01X18823303Y-36211924D01*
G01X18875206Y-36226954D01*
G01X18927108Y-36241983D01*
G01X18979011Y-36257013D01*
G01X19030913Y-36272042D01*
G01X19082815Y-36287071D01*
G01X19134718Y-36302101D01*
G01X19186620Y-36317130D01*
G01X19238523Y-36332160D01*
G01X19290425Y-36347189D01*
G01X19342328Y-36362218D01*
G01X19394230Y-36377248D01*
G01X19446133Y-36392277D01*
G01X19498035Y-36407307D01*
G01X19549938Y-36422336D01*
G01X19601840Y-36437365D01*
G01X19653743Y-36452395D01*
G01X19705645Y-36467424D01*
G01X19757548Y-36482454D01*
G01X19809450Y-36497483D01*
G01X19861353Y-36512512D01*
G01X19913255Y-36527542D01*
G01X19965157Y-36542571D01*
G01X20017060Y-36557601D01*
G01X20068962Y-36572630D01*
G01X20120865Y-36587659D01*
G01X20172767Y-36602689D01*
G01X20224670Y-36617718D01*
G01X20276572Y-36632748D01*
G01X20328475Y-36647777D01*
G01X20380377Y-36662806D01*
G01X20432280Y-36677836D01*
G01X20484182Y-36692865D01*
G01X20536085Y-36707895D01*
G01X20587987Y-36722924D01*
G01X20639890Y-36737953D01*
G01X20691792Y-36752983D01*
G01X20743695Y-36768012D01*
G01X20795597Y-36783042D01*
G01X20847499Y-36798071D01*
G01X20899402Y-36813100D01*
G01X20951304Y-36828130D01*
G01X21003207Y-36843159D01*
G01X21055109Y-36858189D01*
G01X21107012Y-36873218D01*
G01X21158914Y-36888247D01*
G01X21210817Y-36903277D01*
G01X21262719Y-36918306D01*
G01X21314622Y-36933336D01*
G01X21366524Y-36948365D01*
G01X21366524Y-36948365D01*
G01X21366524Y-36948365D01*
G01X21396013Y-36949653D01*
G01X21425501Y-36950965D01*
G01X21425501Y-36950965D01*
G01X21425501Y-36950965D01*
G01X21429783Y-36901669D01*
G01X21434065Y-36852372D01*
G01X21438346Y-36803076D01*
G01X21442628Y-36753779D01*
G01X21446910Y-36704483D01*
G01X21451192Y-36655187D01*
G01X21455474Y-36605890D01*
G01X21459755Y-36556594D01*
G01X21464037Y-36507298D01*
G01X21468319Y-36458001D01*
G01X21472601Y-36408705D01*
G01X21476883Y-36359409D01*
G01X21481165Y-36310112D01*
G01X21485446Y-36260816D01*
G01X21486670Y-36246731D01*
G01X21486670Y-36246731D01*
G01X21441451Y-36246731D01*
G01X21396231Y-36246731D01*
G01X21351012Y-36246731D01*
G01X21305793Y-36246731D01*
G01X21260574Y-36246731D01*
G01X21215355Y-36246731D01*
G01X21170136Y-36246731D01*
G01X21124916Y-36246731D01*
G01X21079697Y-36246731D01*
G01X21034478Y-36246731D01*
G01X21034478Y-36246731D01*
G01X21034478Y-36246731D01*
G01X21054406Y-36199147D01*
G01X21074335Y-36151562D01*
G01X21094263Y-36103978D01*
G01X21114192Y-36056393D01*
G01X21134120Y-36008809D01*
G01X21154049Y-35961224D01*
G01X21173977Y-35913640D01*
G01X21193906Y-35866056D01*
G01X21213834Y-35818471D01*
G01X21233763Y-35770887D01*
G01X21253691Y-35723302D01*
G01X21273619Y-35675718D01*
G01X21293548Y-35628133D01*
G01X21313476Y-35580549D01*
G01X21333405Y-35532964D01*
G01X21353333Y-35485380D01*
G01X21373262Y-35437795D01*
G01X21393190Y-35390211D01*
G01X21413119Y-35342627D01*
G01X21433047Y-35295042D01*
G01X21452975Y-35247458D01*
G01X21472904Y-35199873D01*
G01X21492832Y-35152289D01*
G01X21512761Y-35104704D01*
G01X21532689Y-35057120D01*
G01X21532689Y-35057120D01*
G01X21532689Y-35057120D01*
G01X21585033Y-35056737D01*
G01X21637376Y-35056354D01*
G01X21689719Y-35055972D01*
G01X21742062Y-35055589D01*
G01X21794406Y-35055206D01*
G01X21846749Y-35054823D01*
G01X21899092Y-35054440D01*
G01X21951435Y-35054058D01*
G01X21968883Y-35053930D01*
G37*
G36*
G01X16539173Y-19330733D02*
G01X16539173Y-19330733D01*
G01X16506486Y-19298046D01*
G01X16473798Y-19265358D01*
G01X16441110Y-19232670D01*
G01X16408422Y-19199982D01*
G01X16375734Y-19167294D01*
G01X16346892Y-19138452D01*
G01X16346892Y-19138452D01*
G01X16346892Y-19086989D01*
G01X16346892Y-19035525D01*
G01X16346892Y-18984062D01*
G01X16346892Y-18932599D01*
G01X16346892Y-18881136D01*
G01X16346892Y-18829673D01*
G01X16346892Y-18778210D01*
G01X16346892Y-18726747D01*
G01X16346892Y-18675284D01*
G01X16346892Y-18623821D01*
G01X16346892Y-18572358D01*
G01X16346892Y-18520894D01*
G01X16346892Y-18469431D01*
G01X16346892Y-18417968D01*
G01X16346892Y-18366505D01*
G01X16346892Y-18315042D01*
G01X16346892Y-18280733D01*
G01X16346892Y-18280733D01*
G01X16405692Y-18280733D01*
G01X16464492Y-18280733D01*
G01X16523292Y-18280733D01*
G01X16582092Y-18280733D01*
G01X16640892Y-18280733D01*
G01X16699692Y-18280733D01*
G01X16758492Y-18280733D01*
G01X16817292Y-18280733D01*
G01X16876092Y-18280733D01*
G01X16934892Y-18280733D01*
G01X16993692Y-18280733D01*
G01X17052492Y-18280733D01*
G01X17111292Y-18280733D01*
G01X17170092Y-18280733D01*
G01X17228892Y-18280733D01*
G01X17287692Y-18280733D01*
G01X17346492Y-18280733D01*
G01X17405292Y-18280733D01*
G01X17464092Y-18280733D01*
G01X17522892Y-18280733D01*
G01X17581692Y-18280733D01*
G01X17640492Y-18280733D01*
G01X17699292Y-18280733D01*
G01X17758092Y-18280733D01*
G01X17816892Y-18280733D01*
G01X17816892Y-18280733D01*
G01X17816892Y-18280733D01*
G01X17816892Y-18332196D01*
G01X17816892Y-18383659D01*
G01X17816892Y-18435123D01*
G01X17816892Y-18486586D01*
G01X17816892Y-18538049D01*
G01X17816892Y-18589512D01*
G01X17816892Y-18640975D01*
G01X17816892Y-18692438D01*
G01X17816892Y-18743901D01*
G01X17816892Y-18795364D01*
G01X17816892Y-18846827D01*
G01X17816892Y-18898290D01*
G01X17816892Y-18949754D01*
G01X17816892Y-19001217D01*
G01X17816892Y-19052680D01*
G01X17816892Y-19104143D01*
G01X17816892Y-19138452D01*
G01X17816892Y-19138452D01*
G01X17784205Y-19171139D01*
G01X17751517Y-19203827D01*
G01X17718829Y-19236514D01*
G01X17686141Y-19269203D01*
G01X17653453Y-19301891D01*
G01X17624611Y-19330733D01*
G01X17624611Y-19330733D01*
G01X17570339Y-19330733D01*
G01X17516067Y-19330733D01*
G01X17461795Y-19330733D01*
G01X17407523Y-19330733D01*
G01X17353251Y-19330733D01*
G01X17298979Y-19330733D01*
G01X17244707Y-19330733D01*
G01X17190436Y-19330733D01*
G01X17136164Y-19330733D01*
G01X17081892Y-19330733D01*
G01X17027620Y-19330733D01*
G01X16973348Y-19330733D01*
G01X16919076Y-19330733D01*
G01X16864804Y-19330733D01*
G01X16810532Y-19330733D01*
G01X16756260Y-19330733D01*
G01X16701989Y-19330733D01*
G01X16647717Y-19330733D01*
G01X16593445Y-19330733D01*
G01X16539173Y-19330733D01*
G01X16539173Y-19330733D01*
G37*
G36*
G01X17624611Y-16080733D02*
G01X17624611Y-16080733D01*
G01X17657298Y-16113420D01*
G01X17689986Y-16146108D01*
G01X17722674Y-16178796D01*
G01X17755362Y-16211484D01*
G01X17788050Y-16244172D01*
G01X17816892Y-16273014D01*
G01X17816892Y-16273014D01*
G01X17816892Y-16324478D01*
G01X17816892Y-16375941D01*
G01X17816892Y-16427404D01*
G01X17816892Y-16478867D01*
G01X17816892Y-16530330D01*
G01X17816892Y-16581793D01*
G01X17816892Y-16633256D01*
G01X17816892Y-16684719D01*
G01X17816892Y-16736182D01*
G01X17816892Y-16787646D01*
G01X17816892Y-16839109D01*
G01X17816892Y-16890572D01*
G01X17816892Y-16942035D01*
G01X17816892Y-16993498D01*
G01X17816892Y-17044961D01*
G01X17816892Y-17096424D01*
G01X17816892Y-17130733D01*
G01X17816892Y-17130733D01*
G01X17758092Y-17130733D01*
G01X17699292Y-17130733D01*
G01X17640492Y-17130733D01*
G01X17581692Y-17130733D01*
G01X17522892Y-17130733D01*
G01X17464092Y-17130733D01*
G01X17405292Y-17130733D01*
G01X17346492Y-17130733D01*
G01X17287692Y-17130733D01*
G01X17228892Y-17130733D01*
G01X17170092Y-17130733D01*
G01X17111292Y-17130733D01*
G01X17052492Y-17130733D01*
G01X16993692Y-17130733D01*
G01X16934892Y-17130733D01*
G01X16876092Y-17130733D01*
G01X16817292Y-17130733D01*
G01X16758492Y-17130733D01*
G01X16699692Y-17130733D01*
G01X16640892Y-17130733D01*
G01X16582092Y-17130733D01*
G01X16523292Y-17130733D01*
G01X16464492Y-17130733D01*
G01X16405692Y-17130733D01*
G01X16346892Y-17130733D01*
G01X16346892Y-17130733D01*
G01X16346892Y-17130733D01*
G01X16346892Y-17079270D01*
G01X16346892Y-17027807D01*
G01X16346892Y-16976344D01*
G01X16346892Y-16924880D01*
G01X16346892Y-16873417D01*
G01X16346892Y-16821954D01*
G01X16346892Y-16770491D01*
G01X16346892Y-16719028D01*
G01X16346892Y-16667565D01*
G01X16346892Y-16616102D01*
G01X16346892Y-16564639D01*
G01X16346892Y-16513176D01*
G01X16346892Y-16461713D01*
G01X16346892Y-16410249D01*
G01X16346892Y-16358786D01*
G01X16346892Y-16307323D01*
G01X16346892Y-16273014D01*
G01X16346892Y-16273014D01*
G01X16379579Y-16240327D01*
G01X16412267Y-16207640D01*
G01X16444955Y-16174952D01*
G01X16477643Y-16142264D01*
G01X16510331Y-16109575D01*
G01X16539174Y-16080733D01*
G01X16539174Y-16080733D01*
G01X16593445Y-16080733D01*
G01X16647717Y-16080733D01*
G01X16701989Y-16080733D01*
G01X16756261Y-16080733D01*
G01X16810533Y-16080733D01*
G01X16864805Y-16080733D01*
G01X16919077Y-16080733D01*
G01X16973348Y-16080733D01*
G01X17027620Y-16080733D01*
G01X17081892Y-16080733D01*
G01X17136164Y-16080733D01*
G01X17190436Y-16080733D01*
G01X17244708Y-16080733D01*
G01X17298980Y-16080733D01*
G01X17353252Y-16080733D01*
G01X17407524Y-16080733D01*
G01X17461795Y-16080733D01*
G01X17516067Y-16080733D01*
G01X17570339Y-16080733D01*
G01X17624611Y-16080733D01*
G01X17624611Y-16080733D01*
G37*
G36*
G01X20304072Y-15252144D02*
G01X20304072Y-15252144D01*
G01X20271385Y-15284831D01*
G01X20238697Y-15317519D01*
G01X20206009Y-15350207D01*
G01X20173321Y-15382895D01*
G01X20140633Y-15415583D01*
G01X20111791Y-15444425D01*
G01X20111791Y-15444425D01*
G01X20060328Y-15444425D01*
G01X20008864Y-15444425D01*
G01X19957401Y-15444425D01*
G01X19905938Y-15444425D01*
G01X19854475Y-15444425D01*
G01X19803012Y-15444425D01*
G01X19751549Y-15444425D01*
G01X19700086Y-15444425D01*
G01X19648623Y-15444425D01*
G01X19597160Y-15444425D01*
G01X19545696Y-15444425D01*
G01X19494233Y-15444425D01*
G01X19442770Y-15444425D01*
G01X19391307Y-15444425D01*
G01X19339844Y-15444425D01*
G01X19288381Y-15444425D01*
G01X19254072Y-15444425D01*
G01X19254072Y-15444425D01*
G01X19254072Y-15385625D01*
G01X19254072Y-15326825D01*
G01X19254072Y-15268025D01*
G01X19254072Y-15209225D01*
G01X19254072Y-15150425D01*
G01X19254072Y-15091625D01*
G01X19254072Y-15032825D01*
G01X19254072Y-14974025D01*
G01X19254072Y-14915225D01*
G01X19254072Y-14856425D01*
G01X19254072Y-14797625D01*
G01X19254072Y-14738825D01*
G01X19254072Y-14680025D01*
G01X19254072Y-14621225D01*
G01X19254072Y-14562425D01*
G01X19254072Y-14503625D01*
G01X19254072Y-14444825D01*
G01X19254072Y-14386025D01*
G01X19254072Y-14327225D01*
G01X19254072Y-14268425D01*
G01X19254072Y-14209625D01*
G01X19254072Y-14150825D01*
G01X19254072Y-14092025D01*
G01X19254072Y-14033225D01*
G01X19254072Y-13974425D01*
G01X19254072Y-13974425D01*
G01X19254072Y-13974425D01*
G01X19305535Y-13974425D01*
G01X19356998Y-13974425D01*
G01X19408461Y-13974425D01*
G01X19459925Y-13974425D01*
G01X19511388Y-13974425D01*
G01X19562851Y-13974425D01*
G01X19614314Y-13974425D01*
G01X19665777Y-13974425D01*
G01X19717240Y-13974425D01*
G01X19768703Y-13974425D01*
G01X19820166Y-13974425D01*
G01X19871629Y-13974425D01*
G01X19923093Y-13974425D01*
G01X19974556Y-13974425D01*
G01X20026019Y-13974425D01*
G01X20077482Y-13974425D01*
G01X20111791Y-13974425D01*
G01X20111791Y-13974425D01*
G01X20144478Y-14007112D01*
G01X20177166Y-14039800D01*
G01X20209853Y-14072488D01*
G01X20242542Y-14105176D01*
G01X20275230Y-14137864D01*
G01X20304072Y-14166707D01*
G01X20304072Y-14166707D01*
G01X20304072Y-14220978D01*
G01X20304072Y-14275250D01*
G01X20304072Y-14329522D01*
G01X20304072Y-14383794D01*
G01X20304072Y-14438066D01*
G01X20304072Y-14492338D01*
G01X20304072Y-14546610D01*
G01X20304072Y-14600882D01*
G01X20304072Y-14655153D01*
G01X20304072Y-14709425D01*
G01X20304072Y-14763697D01*
G01X20304072Y-14817969D01*
G01X20304072Y-14872241D01*
G01X20304072Y-14926513D01*
G01X20304072Y-14980785D01*
G01X20304072Y-15035057D01*
G01X20304072Y-15089329D01*
G01X20304072Y-15143600D01*
G01X20304072Y-15197872D01*
G01X20304072Y-15252144D01*
G01X20304072Y-15252144D01*
G37*
G36*
G01X17054072Y-14166706D02*
G01X17054072Y-14166706D01*
G01X17086759Y-14134019D01*
G01X17119447Y-14101331D01*
G01X17152135Y-14068643D01*
G01X17184823Y-14035955D01*
G01X17217511Y-14003267D01*
G01X17246353Y-13974425D01*
G01X17246353Y-13974425D01*
G01X17297816Y-13974425D01*
G01X17349280Y-13974425D01*
G01X17400743Y-13974425D01*
G01X17452206Y-13974425D01*
G01X17503669Y-13974425D01*
G01X17555132Y-13974425D01*
G01X17606595Y-13974425D01*
G01X17658058Y-13974425D01*
G01X17709521Y-13974425D01*
G01X17760984Y-13974425D01*
G01X17812448Y-13974425D01*
G01X17863911Y-13974425D01*
G01X17915374Y-13974425D01*
G01X17966837Y-13974425D01*
G01X18018300Y-13974425D01*
G01X18069763Y-13974425D01*
G01X18104072Y-13974425D01*
G01X18104072Y-13974425D01*
G01X18104072Y-14033225D01*
G01X18104072Y-14092025D01*
G01X18104072Y-14150825D01*
G01X18104072Y-14209625D01*
G01X18104072Y-14268425D01*
G01X18104072Y-14327225D01*
G01X18104072Y-14386025D01*
G01X18104072Y-14444825D01*
G01X18104072Y-14503625D01*
G01X18104072Y-14562425D01*
G01X18104072Y-14621225D01*
G01X18104072Y-14680025D01*
G01X18104072Y-14738825D01*
G01X18104072Y-14797625D01*
G01X18104072Y-14856425D01*
G01X18104072Y-14915225D01*
G01X18104072Y-14974025D01*
G01X18104072Y-15032825D01*
G01X18104072Y-15091625D01*
G01X18104072Y-15150425D01*
G01X18104072Y-15209225D01*
G01X18104072Y-15268025D01*
G01X18104072Y-15326825D01*
G01X18104072Y-15385625D01*
G01X18104072Y-15444425D01*
G01X18104072Y-15444425D01*
G01X18104072Y-15444425D01*
G01X18052609Y-15444425D01*
G01X18001146Y-15444425D01*
G01X17949683Y-15444425D01*
G01X17898219Y-15444425D01*
G01X17846756Y-15444425D01*
G01X17795293Y-15444425D01*
G01X17743830Y-15444425D01*
G01X17692367Y-15444425D01*
G01X17640904Y-15444425D01*
G01X17589441Y-15444425D01*
G01X17537978Y-15444425D01*
G01X17486515Y-15444425D01*
G01X17435052Y-15444425D01*
G01X17383588Y-15444425D01*
G01X17332125Y-15444425D01*
G01X17280662Y-15444425D01*
G01X17246353Y-15444425D01*
G01X17246353Y-15444425D01*
G01X17213666Y-15411738D01*
G01X17180978Y-15379050D01*
G01X17148291Y-15346362D01*
G01X17115603Y-15313674D01*
G01X17082914Y-15280986D01*
G01X17054072Y-15252144D01*
G01X17054072Y-15252144D01*
G01X17054072Y-15197872D01*
G01X17054072Y-15143600D01*
G01X17054072Y-15089328D01*
G01X17054072Y-15035056D01*
G01X17054072Y-14980784D01*
G01X17054072Y-14926512D01*
G01X17054072Y-14872241D01*
G01X17054072Y-14817969D01*
G01X17054072Y-14763697D01*
G01X17054072Y-14709425D01*
G01X17054072Y-14655153D01*
G01X17054072Y-14600881D01*
G01X17054072Y-14546609D01*
G01X17054072Y-14492337D01*
G01X17054072Y-14438065D01*
G01X17054072Y-14383793D01*
G01X17054072Y-14329522D01*
G01X17054072Y-14275250D01*
G01X17054072Y-14220978D01*
G01X17054072Y-14166706D01*
G01X17054072Y-14166706D01*
G37*
G36*
G01X20304072Y-9002143D02*
G01X20304072Y-9002143D01*
G01X20271385Y-9034830D01*
G01X20238697Y-9067518D01*
G01X20206009Y-9100206D01*
G01X20173321Y-9132894D01*
G01X20140633Y-9165582D01*
G01X20111791Y-9194424D01*
G01X20111791Y-9194424D01*
G01X20060328Y-9194424D01*
G01X20008864Y-9194424D01*
G01X19957401Y-9194424D01*
G01X19905938Y-9194424D01*
G01X19854475Y-9194424D01*
G01X19803012Y-9194424D01*
G01X19751549Y-9194424D01*
G01X19700086Y-9194424D01*
G01X19648623Y-9194424D01*
G01X19597160Y-9194424D01*
G01X19545696Y-9194424D01*
G01X19494233Y-9194424D01*
G01X19442770Y-9194424D01*
G01X19391307Y-9194424D01*
G01X19339844Y-9194424D01*
G01X19288381Y-9194424D01*
G01X19254072Y-9194424D01*
G01X19254072Y-9194424D01*
G01X19254072Y-9135624D01*
G01X19254072Y-9076824D01*
G01X19254072Y-9018024D01*
G01X19254072Y-8959224D01*
G01X19254072Y-8900424D01*
G01X19254072Y-8841624D01*
G01X19254072Y-8782824D01*
G01X19254072Y-8724024D01*
G01X19254072Y-8665224D01*
G01X19254072Y-8606424D01*
G01X19254072Y-8547624D01*
G01X19254072Y-8488824D01*
G01X19254072Y-8430024D01*
G01X19254072Y-8371224D01*
G01X19254072Y-8312424D01*
G01X19254072Y-8253624D01*
G01X19254072Y-8194824D01*
G01X19254072Y-8136024D01*
G01X19254072Y-8077224D01*
G01X19254072Y-8018424D01*
G01X19254072Y-7959624D01*
G01X19254072Y-7900824D01*
G01X19254072Y-7842024D01*
G01X19254072Y-7783224D01*
G01X19254072Y-7724424D01*
G01X19254072Y-7724424D01*
G01X19254072Y-7724424D01*
G01X19305535Y-7724424D01*
G01X19356998Y-7724424D01*
G01X19408461Y-7724424D01*
G01X19459925Y-7724424D01*
G01X19511388Y-7724424D01*
G01X19562851Y-7724424D01*
G01X19614314Y-7724424D01*
G01X19665777Y-7724424D01*
G01X19717240Y-7724424D01*
G01X19768703Y-7724424D01*
G01X19820166Y-7724424D01*
G01X19871629Y-7724424D01*
G01X19923093Y-7724424D01*
G01X19974556Y-7724424D01*
G01X20026019Y-7724424D01*
G01X20077482Y-7724424D01*
G01X20111791Y-7724424D01*
G01X20111791Y-7724424D01*
G01X20144478Y-7757111D01*
G01X20177166Y-7789799D01*
G01X20209853Y-7822487D01*
G01X20242542Y-7855175D01*
G01X20275230Y-7887863D01*
G01X20304072Y-7916706D01*
G01X20304072Y-7916706D01*
G01X20304072Y-7970977D01*
G01X20304072Y-8025249D01*
G01X20304072Y-8079521D01*
G01X20304072Y-8133793D01*
G01X20304072Y-8188065D01*
G01X20304072Y-8242337D01*
G01X20304072Y-8296609D01*
G01X20304072Y-8350881D01*
G01X20304072Y-8405152D01*
G01X20304072Y-8459424D01*
G01X20304072Y-8513696D01*
G01X20304072Y-8567968D01*
G01X20304072Y-8622240D01*
G01X20304072Y-8676512D01*
G01X20304072Y-8730784D01*
G01X20304072Y-8785056D01*
G01X20304072Y-8839328D01*
G01X20304072Y-8893599D01*
G01X20304072Y-8947871D01*
G01X20304072Y-9002143D01*
G01X20304072Y-9002143D01*
G37*
G36*
G01X17054072Y-7916705D02*
G01X17054072Y-7916705D01*
G01X17086759Y-7884018D01*
G01X17119447Y-7851330D01*
G01X17152135Y-7818642D01*
G01X17184823Y-7785954D01*
G01X17217511Y-7753266D01*
G01X17246353Y-7724424D01*
G01X17246353Y-7724424D01*
G01X17297816Y-7724424D01*
G01X17349280Y-7724424D01*
G01X17400743Y-7724424D01*
G01X17452206Y-7724424D01*
G01X17503669Y-7724424D01*
G01X17555132Y-7724424D01*
G01X17606595Y-7724424D01*
G01X17658058Y-7724424D01*
G01X17709521Y-7724424D01*
G01X17760984Y-7724424D01*
G01X17812448Y-7724424D01*
G01X17863911Y-7724424D01*
G01X17915374Y-7724424D01*
G01X17966837Y-7724424D01*
G01X18018300Y-7724424D01*
G01X18069763Y-7724424D01*
G01X18104072Y-7724424D01*
G01X18104072Y-7724424D01*
G01X18104072Y-7783224D01*
G01X18104072Y-7842024D01*
G01X18104072Y-7900824D01*
G01X18104072Y-7959624D01*
G01X18104072Y-8018424D01*
G01X18104072Y-8077224D01*
G01X18104072Y-8136024D01*
G01X18104072Y-8194824D01*
G01X18104072Y-8253624D01*
G01X18104072Y-8312424D01*
G01X18104072Y-8371224D01*
G01X18104072Y-8430024D01*
G01X18104072Y-8488824D01*
G01X18104072Y-8547624D01*
G01X18104072Y-8606424D01*
G01X18104072Y-8665224D01*
G01X18104072Y-8724024D01*
G01X18104072Y-8782824D01*
G01X18104072Y-8841624D01*
G01X18104072Y-8900424D01*
G01X18104072Y-8959224D01*
G01X18104072Y-9018024D01*
G01X18104072Y-9076824D01*
G01X18104072Y-9135624D01*
G01X18104072Y-9194424D01*
G01X18104072Y-9194424D01*
G01X18104072Y-9194424D01*
G01X18052609Y-9194424D01*
G01X18001146Y-9194424D01*
G01X17949683Y-9194424D01*
G01X17898219Y-9194424D01*
G01X17846756Y-9194424D01*
G01X17795293Y-9194424D01*
G01X17743830Y-9194424D01*
G01X17692367Y-9194424D01*
G01X17640904Y-9194424D01*
G01X17589441Y-9194424D01*
G01X17537978Y-9194424D01*
G01X17486515Y-9194424D01*
G01X17435052Y-9194424D01*
G01X17383588Y-9194424D01*
G01X17332125Y-9194424D01*
G01X17280662Y-9194424D01*
G01X17246353Y-9194424D01*
G01X17246353Y-9194424D01*
G01X17213666Y-9161737D01*
G01X17180978Y-9129049D01*
G01X17148291Y-9096361D01*
G01X17115603Y-9063673D01*
G01X17082914Y-9030985D01*
G01X17054072Y-9002143D01*
G01X17054072Y-9002143D01*
G01X17054072Y-8947871D01*
G01X17054072Y-8893599D01*
G01X17054072Y-8839327D01*
G01X17054072Y-8785055D01*
G01X17054072Y-8730783D01*
G01X17054072Y-8676511D01*
G01X17054072Y-8622240D01*
G01X17054072Y-8567968D01*
G01X17054072Y-8513696D01*
G01X17054072Y-8459424D01*
G01X17054072Y-8405152D01*
G01X17054072Y-8350880D01*
G01X17054072Y-8296608D01*
G01X17054072Y-8242336D01*
G01X17054072Y-8188064D01*
G01X17054072Y-8133792D01*
G01X17054072Y-8079521D01*
G01X17054072Y-8025249D01*
G01X17054072Y-7970977D01*
G01X17054072Y-7916705D01*
G01X17054072Y-7916705D01*
G37*
G36*
G01X19980723Y-10864204D02*
G01X19270723Y-10864204D01*
G01X19270723Y-11214204D01*
G01X19980723Y-11214204D01*
G01X19980723Y-10864204D01*
G37*
G36*
G01X19980723Y-12164204D02*
G01X19270723Y-12164204D01*
G01X19270723Y-12514204D01*
G01X19980723Y-12514204D01*
G01X19980723Y-12164204D01*
G37*
G36*
G01X19980723Y-11514204D02*
G01X19270723Y-11514204D01*
G01X19270723Y-11864204D01*
G01X19980723Y-11864204D01*
G01X19980723Y-11514204D01*
G37*
G36*
G01X18140723Y-11514204D02*
G01X17430723Y-11514204D01*
G01X17430723Y-11864204D01*
G01X18140723Y-11864204D01*
G01X18140723Y-11514204D01*
G37*
G36*
G01X18140723Y-12164204D02*
G01X17430723Y-12164204D01*
G01X17430723Y-12514204D01*
G01X18140723Y-12514204D01*
G01X18140723Y-12164204D01*
G37*
G36*
G01X18140723Y-10864204D02*
G01X17430723Y-10864204D01*
G01X17430723Y-11214204D01*
G01X18140723Y-11214204D01*
G01X18140723Y-10864204D01*
G37*
G36*
G01X41154580Y-13566416D02*
G01X41154580Y-12341416D01*
G01X41154580Y-12341416D01*
G01X41139935Y-12306061D01*
G01X41104580Y-12291416D01*
G01X41104580Y-12291416D01*
G01X40529580Y-12291416D01*
G01X39954580Y-12291416D01*
G01X39954580Y-12291416D01*
G01X39919225Y-12306061D01*
G01X39904580Y-12341416D01*
G01X39904580Y-12341416D01*
G01X39904580Y-13566416D01*
G01X39904580Y-14791416D01*
G01X39904580Y-14791416D01*
G01X39919225Y-14826771D01*
G01X39954580Y-14841416D01*
G01X39954580Y-14841416D01*
G01X40529580Y-14841416D01*
G01X41104580Y-14841416D01*
G01X41104580Y-14841416D01*
G01X41139935Y-14826771D01*
G01X41154580Y-14791416D01*
G01X41154580Y-14791416D01*
G01X41154580Y-13566416D01*
G37*
G36*
G01X36154580Y-13566416D02*
G01X36154580Y-12341416D01*
G01X36154580Y-12341416D01*
G01X36139935Y-12306061D01*
G01X36104580Y-12291416D01*
G01X36104580Y-12291416D01*
G01X35529580Y-12291416D01*
G01X34954580Y-12291416D01*
G01X34954580Y-12291416D01*
G01X34919225Y-12306061D01*
G01X34904580Y-12341416D01*
G01X34904580Y-12341416D01*
G01X34904580Y-13566416D01*
G01X34904580Y-14791416D01*
G01X34904580Y-14791416D01*
G01X34919225Y-14826771D01*
G01X34954580Y-14841416D01*
G01X34954580Y-14841416D01*
G01X35529580Y-14841416D01*
G01X36104580Y-14841416D01*
G01X36104580Y-14841416D01*
G01X36139935Y-14826771D01*
G01X36154580Y-14791416D01*
G01X36154580Y-14791416D01*
G01X36154580Y-13566416D01*
G37*
G36*
G01X38654580Y-13566416D02*
G01X38654580Y-12341416D01*
G01X38654580Y-12341416D01*
G01X38639935Y-12306061D01*
G01X38604580Y-12291416D01*
G01X38604580Y-12291416D01*
G01X38029580Y-12291416D01*
G01X37454580Y-12291416D01*
G01X37454580Y-12291416D01*
G01X37419225Y-12306061D01*
G01X37404580Y-12341416D01*
G01X37404580Y-12341416D01*
G01X37404580Y-13566416D01*
G01X37404580Y-14791416D01*
G01X37404580Y-14791416D01*
G01X37419225Y-14826771D01*
G01X37454580Y-14841416D01*
G01X37454580Y-14841416D01*
G01X38029580Y-14841416D01*
G01X38604580Y-14841416D01*
G01X38604580Y-14841416D01*
G01X38639935Y-14826771D01*
G01X38654580Y-14791416D01*
G01X38654580Y-14791416D01*
G01X38654580Y-13566416D01*
G37*
G36*
G01X38654580Y-19066416D02*
G01X38654580Y-17841416D01*
G01X38654580Y-17841416D01*
G01X38639935Y-17806061D01*
G01X38604580Y-17791416D01*
G01X38604580Y-17791416D01*
G01X38029580Y-17791416D01*
G01X37454580Y-17791416D01*
G01X37454580Y-17791416D01*
G01X37419225Y-17806061D01*
G01X37404580Y-17841416D01*
G01X37404580Y-17841416D01*
G01X37404580Y-19066416D01*
G01X37404580Y-20291416D01*
G01X37404580Y-20291416D01*
G01X37419225Y-20326771D01*
G01X37454580Y-20341416D01*
G01X37454580Y-20341416D01*
G01X38029580Y-20341416D01*
G01X38604580Y-20341416D01*
G01X38604580Y-20341416D01*
G01X38639935Y-20326771D01*
G01X38654580Y-20291416D01*
G01X38654580Y-20291416D01*
G01X38654580Y-19066416D01*
G37*
G36*
G01X41154580Y-19066416D02*
G01X41154580Y-17841416D01*
G01X41154580Y-17841416D01*
G01X41139935Y-17806061D01*
G01X41104580Y-17791416D01*
G01X41104580Y-17791416D01*
G01X40529580Y-17791416D01*
G01X39954580Y-17791416D01*
G01X39954580Y-17791416D01*
G01X39919225Y-17806061D01*
G01X39904580Y-17841416D01*
G01X39904580Y-17841416D01*
G01X39904580Y-19066416D01*
G01X39904580Y-20291416D01*
G01X39904580Y-20291416D01*
G01X39919225Y-20326771D01*
G01X39954580Y-20341416D01*
G01X39954580Y-20341416D01*
G01X40529580Y-20341416D01*
G01X41104580Y-20341416D01*
G01X41104580Y-20341416D01*
G01X41139935Y-20326771D01*
G01X41154580Y-20291416D01*
G01X41154580Y-20291416D01*
G01X41154580Y-19066416D01*
G37*
G36*
G01X36154580Y-19066416D02*
G01X36154580Y-17841416D01*
G01X36154580Y-17841416D01*
G01X36139935Y-17806061D01*
G01X36104580Y-17791416D01*
G01X36104580Y-17791416D01*
G01X35529580Y-17791416D01*
G01X34954580Y-17791416D01*
G01X34954580Y-17791416D01*
G01X34919225Y-17806061D01*
G01X34904580Y-17841416D01*
G01X34904580Y-17841416D01*
G01X34904580Y-19066416D01*
G01X34904580Y-20291416D01*
G01X34904580Y-20291416D01*
G01X34919225Y-20326771D01*
G01X34954580Y-20341416D01*
G01X34954580Y-20341416D01*
G01X35529580Y-20341416D01*
G01X36104580Y-20341416D01*
G01X36104580Y-20341416D01*
G01X36139935Y-20326771D01*
G01X36154580Y-20291416D01*
G01X36154580Y-20291416D01*
G01X36154580Y-19066416D01*
G37*
G36*
G01X42356776Y-36386397D02*
G01X42356776Y-36386397D01*
G01X42415951Y-36384483D01*
G01X42474104Y-36378819D01*
G01X42531117Y-36369524D01*
G01X42586870Y-36356716D01*
G01X42641246Y-36340514D01*
G01X42694125Y-36321038D01*
G01X42745389Y-36298404D01*
G01X42794919Y-36272733D01*
G01X42842597Y-36244141D01*
G01X42888304Y-36212749D01*
G01X42931922Y-36178675D01*
G01X42973332Y-36142037D01*
G01X43012416Y-36102953D01*
G01X43049054Y-36061543D01*
G01X43083128Y-36017925D01*
G01X43114520Y-35972218D01*
G01X43143111Y-35924540D01*
G01X43168783Y-35875010D01*
G01X43191417Y-35823746D01*
G01X43210893Y-35770867D01*
G01X43227095Y-35716491D01*
G01X43239903Y-35660738D01*
G01X43249198Y-35603725D01*
G01X43254862Y-35545572D01*
G01X43256776Y-35486397D01*
G01X43256776Y-35486397D01*
G01X43256776Y-35486397D01*
G01X43254862Y-35427222D01*
G01X43249198Y-35369069D01*
G01X43239903Y-35312056D01*
G01X43227095Y-35256303D01*
G01X43210893Y-35201927D01*
G01X43191417Y-35149048D01*
G01X43168783Y-35097785D01*
G01X43143111Y-35048254D01*
G01X43114520Y-35000576D01*
G01X43083128Y-34954869D01*
G01X43049054Y-34911251D01*
G01X43012416Y-34869841D01*
G01X42973332Y-34830758D01*
G01X42931922Y-34794119D01*
G01X42888304Y-34760045D01*
G01X42842597Y-34728653D01*
G01X42794919Y-34700062D01*
G01X42745389Y-34674390D01*
G01X42694125Y-34651756D01*
G01X42641246Y-34632280D01*
G01X42586870Y-34616078D01*
G01X42531117Y-34603271D01*
G01X42474104Y-34593975D01*
G01X42415951Y-34588311D01*
G01X42356776Y-34586397D01*
G01X42356776Y-34586397D01*
G01X42356776Y-34586397D01*
G01X42297601Y-34588311D01*
G01X42239448Y-34593975D01*
G01X42182435Y-34603271D01*
G01X42126682Y-34616078D01*
G01X42072306Y-34632280D01*
G01X42019427Y-34651756D01*
G01X41968163Y-34674390D01*
G01X41918633Y-34700062D01*
G01X41870955Y-34728653D01*
G01X41825248Y-34760045D01*
G01X41781630Y-34794119D01*
G01X41740220Y-34830758D01*
G01X41701136Y-34869841D01*
G01X41664498Y-34911251D01*
G01X41630424Y-34954869D01*
G01X41599032Y-35000576D01*
G01X41570441Y-35048254D01*
G01X41544769Y-35097785D01*
G01X41522135Y-35149048D01*
G01X41502659Y-35201927D01*
G01X41486457Y-35256303D01*
G01X41473650Y-35312056D01*
G01X41464354Y-35369069D01*
G01X41458690Y-35427222D01*
G01X41456776Y-35486397D01*
G01X41456776Y-35486397D01*
G01X41456776Y-35486397D01*
G01X41458690Y-35545572D01*
G01X41464354Y-35603725D01*
G01X41473650Y-35660738D01*
G01X41486457Y-35716491D01*
G01X41502659Y-35770867D01*
G01X41522135Y-35823746D01*
G01X41544769Y-35875010D01*
G01X41570441Y-35924540D01*
G01X41599032Y-35972218D01*
G01X41630424Y-36017925D01*
G01X41664498Y-36061543D01*
G01X41701136Y-36102953D01*
G01X41740220Y-36142037D01*
G01X41781630Y-36178675D01*
G01X41825248Y-36212749D01*
G01X41870955Y-36244141D01*
G01X41918633Y-36272733D01*
G01X41968163Y-36298404D01*
G01X42019427Y-36321038D01*
G01X42072306Y-36340514D01*
G01X42126682Y-36356716D01*
G01X42182435Y-36369524D01*
G01X42239448Y-36378819D01*
G01X42297601Y-36384483D01*
G01X42356776Y-36386397D01*
G01X42356776Y-36386397D01*
G37*
G36*
G01X21778061Y-5954866D02*
G01X21778061Y-5954866D01*
G01X21693888Y-5953503D01*
G01X21610398Y-5949442D01*
G01X21527631Y-5942725D01*
G01X21445630Y-5933394D01*
G01X21364438Y-5921491D01*
G01X21284095Y-5907058D01*
G01X21204644Y-5890137D01*
G01X21126127Y-5870770D01*
G01X21048587Y-5848998D01*
G01X20972064Y-5824865D01*
G01X20896601Y-5798412D01*
G01X20822240Y-5769681D01*
G01X20749023Y-5738714D01*
G01X20676992Y-5705553D01*
G01X20606189Y-5670240D01*
G01X20536656Y-5632817D01*
G01X20468435Y-5593325D01*
G01X20401568Y-5551808D01*
G01X20336097Y-5508307D01*
G01X20272064Y-5462864D01*
G01X20209511Y-5415521D01*
G01X20148480Y-5366320D01*
G01X20089013Y-5315303D01*
G01X20031152Y-5262511D01*
G01X19974939Y-5207988D01*
G01X19920416Y-5151775D01*
G01X19867625Y-5093914D01*
G01X19816607Y-5034447D01*
G01X19767406Y-4973416D01*
G01X19720063Y-4910863D01*
G01X19674620Y-4846830D01*
G01X19631119Y-4781359D01*
G01X19589602Y-4714492D01*
G01X19550111Y-4646271D01*
G01X19512687Y-4576738D01*
G01X19477374Y-4505935D01*
G01X19444213Y-4433904D01*
G01X19413246Y-4360687D01*
G01X19384515Y-4286326D01*
G01X19358062Y-4210863D01*
G01X19333929Y-4134340D01*
G01X19312157Y-4056800D01*
G01X19292790Y-3978283D01*
G01X19275869Y-3898832D01*
G01X19261436Y-3818489D01*
G01X19249533Y-3737297D01*
G01X19240202Y-3655296D01*
G01X19233485Y-3572529D01*
G01X19229424Y-3489039D01*
G01X19228061Y-3404866D01*
G01X19228061Y-3404866D01*
G01X19228061Y-3404866D01*
G01X19229424Y-3320693D01*
G01X19233485Y-3237203D01*
G01X19240202Y-3154436D01*
G01X19249533Y-3072436D01*
G01X19261436Y-2991243D01*
G01X19275869Y-2910900D01*
G01X19292790Y-2831449D01*
G01X19312157Y-2752933D01*
G01X19333929Y-2675392D01*
G01X19358062Y-2598869D01*
G01X19384515Y-2523406D01*
G01X19413246Y-2449045D01*
G01X19444213Y-2375828D01*
G01X19477374Y-2303797D01*
G01X19512687Y-2232994D01*
G01X19550111Y-2163461D01*
G01X19589602Y-2095240D01*
G01X19631119Y-2028373D01*
G01X19674620Y-1962902D01*
G01X19720063Y-1898869D01*
G01X19767406Y-1836316D01*
G01X19816607Y-1775285D01*
G01X19867625Y-1715818D01*
G01X19920416Y-1657957D01*
G01X19974939Y-1601744D01*
G01X20031152Y-1547221D01*
G01X20089013Y-1494430D01*
G01X20148480Y-1443412D01*
G01X20209511Y-1394211D01*
G01X20272064Y-1346868D01*
G01X20336097Y-1301425D01*
G01X20401568Y-1257924D01*
G01X20468435Y-1216407D01*
G01X20536656Y-1176916D01*
G01X20606189Y-1139492D01*
G01X20676992Y-1104179D01*
G01X20749023Y-1071018D01*
G01X20822240Y-1040051D01*
G01X20896601Y-1011320D01*
G01X20972064Y-0984867D01*
G01X21048587Y-0960734D01*
G01X21126127Y-0938963D01*
G01X21204644Y-0919595D01*
G01X21284095Y-0902674D01*
G01X21364438Y-0888241D01*
G01X21445630Y-0876338D01*
G01X21527631Y-0867007D01*
G01X21610398Y-0860290D01*
G01X21693888Y-0856229D01*
G01X21778061Y-0854866D01*
G01X21778061Y-0854866D01*
G01X21778061Y-0854866D01*
G01X21862234Y-0856229D01*
G01X21945724Y-0860290D01*
G01X22028491Y-0867007D01*
G01X22110492Y-0876338D01*
G01X22191684Y-0888241D01*
G01X22272027Y-0902674D01*
G01X22351478Y-0919595D01*
G01X22429995Y-0938963D01*
G01X22507535Y-0960734D01*
G01X22584058Y-0984867D01*
G01X22659521Y-1011320D01*
G01X22733882Y-1040051D01*
G01X22807099Y-1071018D01*
G01X22879130Y-1104179D01*
G01X22949933Y-1139492D01*
G01X23019466Y-1176916D01*
G01X23087687Y-1216407D01*
G01X23154554Y-1257924D01*
G01X23220025Y-1301425D01*
G01X23284058Y-1346868D01*
G01X23346611Y-1394211D01*
G01X23407642Y-1443412D01*
G01X23467109Y-1494430D01*
G01X23524970Y-1547221D01*
G01X23581183Y-1601744D01*
G01X23635706Y-1657957D01*
G01X23688498Y-1715818D01*
G01X23739515Y-1775285D01*
G01X23788716Y-1836316D01*
G01X23836059Y-1898869D01*
G01X23881502Y-1962902D01*
G01X23925003Y-2028373D01*
G01X23966520Y-2095240D01*
G01X24006012Y-2163461D01*
G01X24043435Y-2232994D01*
G01X24078748Y-2303797D01*
G01X24111909Y-2375828D01*
G01X24142876Y-2449045D01*
G01X24171607Y-2523406D01*
G01X24198060Y-2598869D01*
G01X24222193Y-2675392D01*
G01X24243965Y-2752933D01*
G01X24263332Y-2831449D01*
G01X24280253Y-2910900D01*
G01X24294686Y-2991243D01*
G01X24306589Y-3072436D01*
G01X24315920Y-3154436D01*
G01X24322637Y-3237203D01*
G01X24326698Y-3320693D01*
G01X24328061Y-3404866D01*
G01X24328061Y-3404866D01*
G01X24328061Y-3404866D01*
G01X24326698Y-3489039D01*
G01X24322637Y-3572529D01*
G01X24315920Y-3655296D01*
G01X24306589Y-3737297D01*
G01X24294686Y-3818489D01*
G01X24280253Y-3898832D01*
G01X24263332Y-3978283D01*
G01X24243965Y-4056800D01*
G01X24222193Y-4134340D01*
G01X24198060Y-4210863D01*
G01X24171607Y-4286326D01*
G01X24142876Y-4360687D01*
G01X24111909Y-4433904D01*
G01X24078748Y-4505935D01*
G01X24043435Y-4576738D01*
G01X24006012Y-4646271D01*
G01X23966520Y-4714492D01*
G01X23925003Y-4781359D01*
G01X23881502Y-4846830D01*
G01X23836059Y-4910863D01*
G01X23788716Y-4973416D01*
G01X23739515Y-5034447D01*
G01X23688498Y-5093914D01*
G01X23635706Y-5151775D01*
G01X23581183Y-5207988D01*
G01X23524970Y-5262511D01*
G01X23467109Y-5315303D01*
G01X23407642Y-5366320D01*
G01X23346611Y-5415521D01*
G01X23284058Y-5462864D01*
G01X23220025Y-5508307D01*
G01X23154554Y-5551808D01*
G01X23087687Y-5593325D01*
G01X23019466Y-5632817D01*
G01X22949933Y-5670240D01*
G01X22879130Y-5705553D01*
G01X22807099Y-5738714D01*
G01X22733882Y-5769681D01*
G01X22659521Y-5798412D01*
G01X22584058Y-5824865D01*
G01X22507535Y-5848998D01*
G01X22429995Y-5870770D01*
G01X22351478Y-5890137D01*
G01X22272027Y-5907058D01*
G01X22191684Y-5921491D01*
G01X22110492Y-5933394D01*
G01X22028491Y-5942725D01*
G01X21945724Y-5949442D01*
G01X21862234Y-5953503D01*
G01X21778061Y-5954866D01*
G01X21778061Y-5954866D01*
G37*
G36*
G01X46037132Y-10275000D02*
G01X47237132Y-10275000D01*
G01X47237132Y-11475000D01*
G01X46037132Y-11475000D01*
G01X46037132Y-10275000D01*
G37*
G36*
G01X47487132Y-10426758D02*
G01X47487132Y-10426758D01*
G01X47530492Y-10423242D01*
G01X47530492Y-10423242D01*
G01X47581883Y-10455441D01*
G01X47584398Y-10468945D01*
G01X47584398Y-10468945D01*
G01X47584115Y-10514271D01*
G01X47583572Y-10584544D01*
G01X47583232Y-10626774D01*
G01X47583226Y-10627442D01*
G01X47583226Y-10627442D01*
G01X47582492Y-10724262D01*
G01X47582154Y-10780763D01*
G01X47582059Y-10805552D01*
G01X47582054Y-10808789D01*
G01X47582054Y-10808789D01*
G01X47650734Y-10770803D01*
G01X47712085Y-10751985D01*
G01X47754736Y-10745602D01*
G01X47767796Y-10744922D01*
G01X47767796Y-10744922D01*
G01X47841983Y-10759603D01*
G01X47893325Y-10788966D01*
G01X47918121Y-10810988D01*
G01X47919847Y-10812891D01*
G01X47919847Y-10812891D01*
G01X47952555Y-10870499D01*
G01X47969950Y-10934369D01*
G01X47976868Y-10987879D01*
G01X47978144Y-11014408D01*
G01X47978148Y-11015039D01*
G01X47978148Y-11015039D01*
G01X47970089Y-11095456D01*
G01X47951454Y-11160638D01*
G01X47930552Y-11207513D01*
G01X47915694Y-11233014D01*
G01X47913109Y-11236817D01*
G01X47913109Y-11236817D01*
G01X47858845Y-11287276D01*
G01X47799656Y-11314111D01*
G01X47750463Y-11324784D01*
G01X47726185Y-11326752D01*
G01X47725609Y-11326758D01*
G01X47725609Y-11326758D01*
G01X47647840Y-11317491D01*
G01X47582882Y-11295725D01*
G01X47534088Y-11270511D01*
G01X47504812Y-11250900D01*
G01X47497679Y-11245313D01*
G01X47497679Y-11245313D01*
G01X47501743Y-11190825D01*
G01X47504317Y-11123428D01*
G01X47505737Y-11057494D01*
G01X47506342Y-11007394D01*
G01X47506468Y-10987500D01*
G01X47506468Y-10987500D01*
G01X47506468Y-10987500D01*
G01X47505995Y-10926138D01*
G01X47504818Y-10856754D01*
G01X47503300Y-10788244D01*
G01X47501803Y-10729502D01*
G01X47500690Y-10689425D01*
G01X47500316Y-10676660D01*
G01X47500316Y-10676660D01*
G01X47496582Y-10572258D01*
G01X47493017Y-10500481D01*
G01X47490001Y-10455914D01*
G01X47487913Y-10433145D01*
G01X47487132Y-10426758D01*
G01X47487132Y-10426758D01*
G37*
%LPC*%
G36*
G01X47580882Y-11197266D02*
G01X47580882Y-11197266D01*
G01X47645814Y-11238198D01*
G01X47702298Y-11255780D01*
G01X47734292Y-11259883D01*
G01X47736742Y-11259961D01*
G01X47736742Y-11259961D01*
G01X47805098Y-11240481D01*
G01X47844256Y-11205755D01*
G01X47854808Y-11190820D01*
G01X47854808Y-11190820D01*
G01X47880408Y-11124892D01*
G01X47891279Y-11064595D01*
G01X47893734Y-11029485D01*
G01X47893773Y-11026758D01*
G01X47893773Y-11026758D01*
G01X47884471Y-10944408D01*
G01X47865866Y-10891294D01*
G01X47851912Y-10867226D01*
G01X47850707Y-10865625D01*
G01X47850707Y-10865625D01*
G01X47792651Y-10823256D01*
G01X47748415Y-10812616D01*
G01X47742601Y-10812305D01*
G01X47740843Y-10812305D01*
G01X47740843Y-10812305D01*
G01X47671504Y-10825184D01*
G01X47617204Y-10851474D01*
G01X47586777Y-10872656D01*
G01X47583226Y-10875586D01*
G01X47583226Y-10875586D01*
G01X47583647Y-10934427D01*
G01X47583812Y-10952637D01*
G01X47583812Y-10952637D01*
G01X47584325Y-11026575D01*
G01X47584398Y-11053711D01*
G01X47584398Y-11053711D01*
G01X47584398Y-11053711D01*
G01X47583407Y-11136787D01*
G01X47581642Y-11184420D01*
G01X47580882Y-11197266D01*
G37*
%LPD*%
G36*
G01X48078343Y-11036719D02*
G01X48078343Y-11036719D01*
G01X48087273Y-10957536D01*
G01X48107923Y-10895209D01*
G01X48131085Y-10851534D01*
G01X48147549Y-10828309D01*
G01X48150414Y-10824903D01*
G01X48150414Y-10824903D01*
G01X48207772Y-10780032D01*
G01X48267155Y-10756168D01*
G01X48315198Y-10746678D01*
G01X48338536Y-10744927D01*
G01X48339085Y-10744922D01*
G01X48339085Y-10744922D01*
G01X48415578Y-10756531D01*
G01X48474035Y-10782514D01*
G01X48512320Y-10809603D01*
G01X48528293Y-10824529D01*
G01X48528636Y-10824903D01*
G01X48528636Y-10824903D01*
G01X48566351Y-10883263D01*
G01X48587808Y-10944947D01*
G01X48597592Y-10998218D01*
G01X48600290Y-11031341D01*
G01X48600414Y-11036719D01*
G01X48600414Y-11036719D01*
G01X48590769Y-11118996D01*
G01X48568822Y-11182610D01*
G01X48545053Y-11225637D01*
G01X48529941Y-11246151D01*
G01X48528636Y-11247656D01*
G01X48528636Y-11247656D01*
G01X48471272Y-11292034D01*
G01X48411596Y-11315636D01*
G01X48363191Y-11325022D01*
G01X48339640Y-11326753D01*
G01X48339085Y-11326758D01*
G01X48339085Y-11326758D01*
G01X48263208Y-11315276D01*
G01X48205005Y-11289579D01*
G01X48166760Y-11262788D01*
G01X48150758Y-11248026D01*
G01X48150414Y-11247656D01*
G01X48150414Y-11247656D01*
G01X48112544Y-11189758D01*
G01X48091000Y-11128337D01*
G01X48081176Y-11075185D01*
G01X48078468Y-11042095D01*
G01X48078343Y-11036719D01*
G37*
%LPC*%
G36*
G01X48162718Y-11019727D02*
G01X48162718Y-11019727D01*
G01X48171629Y-11097475D01*
G01X48190182Y-11154485D01*
G01X48206104Y-11186281D01*
G01X48209300Y-11191406D01*
G01X48209300Y-11191406D01*
G01X48263074Y-11239342D01*
G01X48314940Y-11257267D01*
G01X48339061Y-11259961D01*
G01X48339085Y-11259961D01*
G01X48339085Y-11259961D01*
G01X48413071Y-11244113D01*
G01X48457362Y-11215861D01*
G01X48469749Y-11203711D01*
G01X48469749Y-11203711D01*
G01X48501885Y-11142492D01*
G01X48514437Y-11084038D01*
G01X48516621Y-11054153D01*
G01X48516624Y-11053711D01*
G01X48516624Y-11053711D01*
G01X48507433Y-10975851D01*
G01X48488298Y-10918608D01*
G01X48471874Y-10886611D01*
G01X48468578Y-10881445D01*
G01X48468578Y-10881445D01*
G01X48414227Y-10833100D01*
G01X48362817Y-10815022D01*
G01X48339110Y-10812305D01*
G01X48339085Y-10812305D01*
G01X48339085Y-10812305D01*
G01X48265265Y-10828318D01*
G01X48221268Y-10856864D01*
G01X48209007Y-10869141D01*
G01X48209007Y-10869141D01*
G01X48177273Y-10930762D01*
G01X48164878Y-10989373D01*
G01X48162721Y-11019285D01*
G01X48162718Y-11019727D01*
G37*
%LPD*%
G36*
G01X48654320Y-10800000D02*
G01X48654320Y-10800000D01*
G01X48672191Y-10764844D01*
G01X48672191Y-10764844D01*
G01X48729198Y-10757279D01*
G01X48733421Y-10757227D01*
G01X48767406Y-10757227D01*
G01X48767406Y-10757227D01*
G01X48763915Y-10678459D01*
G01X48760586Y-10631480D01*
G01X48759789Y-10622461D01*
G01X48759789Y-10622461D01*
G01X48799632Y-10618945D01*
G01X48799632Y-10618945D01*
G01X48853903Y-10649866D01*
G01X48857054Y-10664649D01*
G01X48857054Y-10664649D01*
G01X48854430Y-10722961D01*
G01X48852367Y-10758399D01*
G01X48852367Y-10758399D01*
G01X48948131Y-10757392D01*
G01X49010277Y-10755176D01*
G01X49043858Y-10752960D01*
G01X49053929Y-10751953D01*
G01X49053929Y-10751953D01*
G01X49053929Y-10751953D01*
G01X49058617Y-10780078D01*
G01X49058617Y-10780078D01*
G01X49046019Y-10812305D01*
G01X49046019Y-10812305D01*
G01X49005882Y-10821680D01*
G01X49005882Y-10821680D01*
G01X48947937Y-10822499D01*
G01X48882435Y-10822806D01*
G01X48850057Y-10822852D01*
G01X48850023Y-10822852D01*
G01X48850023Y-10822852D01*
G01X48848925Y-10897049D01*
G01X48848238Y-10967726D01*
G01X48847865Y-11028446D01*
G01X48847712Y-11072770D01*
G01X48847679Y-11094260D01*
G01X48847679Y-11095313D01*
G01X48847679Y-11095313D01*
G01X48854605Y-11181013D01*
G01X48866633Y-11222473D01*
G01X48871117Y-11230957D01*
G01X48871117Y-11230957D01*
G01X48926184Y-11261067D01*
G01X48948460Y-11263477D01*
G01X48948460Y-11263477D01*
G01X49013097Y-11243680D01*
G01X49034593Y-11227149D01*
G01X49034593Y-11227149D01*
G01X49056273Y-11270508D01*
G01X49056273Y-11270508D01*
G01X49025540Y-11311064D01*
G01X49025218Y-11311231D01*
G01X49025218Y-11311231D01*
G01X48963510Y-11326092D01*
G01X48949632Y-11326758D01*
G01X48949632Y-11326758D01*
G01X48871360Y-11312881D01*
G01X48825568Y-11286304D01*
G01X48808914Y-11269604D01*
G01X48808714Y-11269336D01*
G01X48808714Y-11269336D01*
G01X48782824Y-11211490D01*
G01X48770925Y-11149443D01*
G01X48767575Y-11105731D01*
G01X48767406Y-11097656D01*
G01X48767406Y-11097656D01*
G01X48768504Y-10990258D01*
G01X48769191Y-10913130D01*
G01X48769563Y-10862148D01*
G01X48769717Y-10833190D01*
G01X48769749Y-10822132D01*
G01X48769749Y-10821680D01*
G01X48769749Y-10821680D01*
G01X48720722Y-10825417D01*
G01X48660874Y-10830223D01*
G01X48657835Y-10830469D01*
G01X48657835Y-10830469D01*
G01X48654320Y-10800000D01*
G37*
G36*
G01X49076195Y-10800000D02*
G01X49076195Y-10800000D01*
G01X49094066Y-10764844D01*
G01X49094066Y-10764844D01*
G01X49151073Y-10757279D01*
G01X49155296Y-10757227D01*
G01X49189281Y-10757227D01*
G01X49189281Y-10757227D01*
G01X49185790Y-10678459D01*
G01X49182461Y-10631480D01*
G01X49181664Y-10622461D01*
G01X49181664Y-10622461D01*
G01X49221507Y-10618945D01*
G01X49221507Y-10618945D01*
G01X49275778Y-10649866D01*
G01X49278929Y-10664649D01*
G01X49278929Y-10664649D01*
G01X49276305Y-10722961D01*
G01X49274242Y-10758399D01*
G01X49274242Y-10758399D01*
G01X49370006Y-10757392D01*
G01X49432152Y-10755176D01*
G01X49465733Y-10752960D01*
G01X49475804Y-10751953D01*
G01X49475804Y-10751953D01*
G01X49475804Y-10751953D01*
G01X49480492Y-10780078D01*
G01X49480492Y-10780078D01*
G01X49467894Y-10812305D01*
G01X49467894Y-10812305D01*
G01X49427757Y-10821680D01*
G01X49427757Y-10821680D01*
G01X49369812Y-10822499D01*
G01X49304310Y-10822806D01*
G01X49271932Y-10822852D01*
G01X49271898Y-10822852D01*
G01X49271898Y-10822852D01*
G01X49270800Y-10897049D01*
G01X49270113Y-10967726D01*
G01X49269740Y-11028446D01*
G01X49269587Y-11072770D01*
G01X49269554Y-11094260D01*
G01X49269554Y-11095313D01*
G01X49269554Y-11095313D01*
G01X49276480Y-11181013D01*
G01X49288508Y-11222473D01*
G01X49292992Y-11230957D01*
G01X49292992Y-11230957D01*
G01X49348059Y-11261067D01*
G01X49370335Y-11263477D01*
G01X49370335Y-11263477D01*
G01X49434972Y-11243680D01*
G01X49456468Y-11227149D01*
G01X49456468Y-11227149D01*
G01X49478148Y-11270508D01*
G01X49478148Y-11270508D01*
G01X49447415Y-11311064D01*
G01X49447093Y-11311231D01*
G01X49447093Y-11311231D01*
G01X49385385Y-11326092D01*
G01X49371507Y-11326758D01*
G01X49371507Y-11326758D01*
G01X49293235Y-11312881D01*
G01X49247443Y-11286304D01*
G01X49230789Y-11269604D01*
G01X49230589Y-11269336D01*
G01X49230589Y-11269336D01*
G01X49204699Y-11211490D01*
G01X49192800Y-11149443D01*
G01X49189450Y-11105731D01*
G01X49189281Y-11097656D01*
G01X49189281Y-11097656D01*
G01X49190379Y-10990258D01*
G01X49191066Y-10913130D01*
G01X49191438Y-10862148D01*
G01X49191592Y-10833190D01*
G01X49191624Y-10822132D01*
G01X49191624Y-10821680D01*
G01X49191624Y-10821680D01*
G01X49142597Y-10825417D01*
G01X49082749Y-10830223D01*
G01X49079710Y-10830469D01*
G01X49079710Y-10830469D01*
G01X49076195Y-10800000D01*
G37*
G36*
G01X49551976Y-11036719D02*
G01X49551976Y-11036719D01*
G01X49560906Y-10957536D01*
G01X49581556Y-10895209D01*
G01X49604718Y-10851534D01*
G01X49621182Y-10828309D01*
G01X49624046Y-10824903D01*
G01X49624046Y-10824903D01*
G01X49681404Y-10780032D01*
G01X49740788Y-10756168D01*
G01X49788831Y-10746678D01*
G01X49812169Y-10744927D01*
G01X49812718Y-10744922D01*
G01X49812718Y-10744922D01*
G01X49889211Y-10756531D01*
G01X49947668Y-10782514D01*
G01X49985953Y-10809603D01*
G01X50001926Y-10824529D01*
G01X50002269Y-10824903D01*
G01X50002269Y-10824903D01*
G01X50039984Y-10883263D01*
G01X50061441Y-10944947D01*
G01X50071225Y-10998218D01*
G01X50073922Y-11031341D01*
G01X50074046Y-11036719D01*
G01X50074046Y-11036719D01*
G01X50064402Y-11118996D01*
G01X50042455Y-11182610D01*
G01X50018686Y-11225637D01*
G01X50003574Y-11246151D01*
G01X50002269Y-11247656D01*
G01X50002269Y-11247656D01*
G01X49944905Y-11292034D01*
G01X49885229Y-11315636D01*
G01X49836823Y-11325022D01*
G01X49813273Y-11326753D01*
G01X49812718Y-11326758D01*
G01X49812718Y-11326758D01*
G01X49736841Y-11315276D01*
G01X49678638Y-11289579D01*
G01X49640393Y-11262788D01*
G01X49624391Y-11248026D01*
G01X49624046Y-11247656D01*
G01X49624046Y-11247656D01*
G01X49586177Y-11189758D01*
G01X49564633Y-11128337D01*
G01X49554809Y-11075185D01*
G01X49552101Y-11042095D01*
G01X49551976Y-11036719D01*
G37*
%LPC*%
G36*
G01X49636351Y-11019727D02*
G01X49636351Y-11019727D01*
G01X49645262Y-11097475D01*
G01X49663814Y-11154485D01*
G01X49679737Y-11186281D01*
G01X49682933Y-11191406D01*
G01X49682933Y-11191406D01*
G01X49736707Y-11239342D01*
G01X49788573Y-11257267D01*
G01X49812693Y-11259961D01*
G01X49812718Y-11259961D01*
G01X49812718Y-11259961D01*
G01X49886704Y-11244113D01*
G01X49930995Y-11215861D01*
G01X49943382Y-11203711D01*
G01X49943382Y-11203711D01*
G01X49975518Y-11142492D01*
G01X49988070Y-11084038D01*
G01X49990254Y-11054153D01*
G01X49990257Y-11053711D01*
G01X49990257Y-11053711D01*
G01X49981066Y-10975851D01*
G01X49961930Y-10918608D01*
G01X49945507Y-10886611D01*
G01X49942210Y-10881445D01*
G01X49942210Y-10881445D01*
G01X49887860Y-10833100D01*
G01X49836450Y-10815022D01*
G01X49812743Y-10812305D01*
G01X49812718Y-10812305D01*
G01X49812718Y-10812305D01*
G01X49738898Y-10828318D01*
G01X49694901Y-10856864D01*
G01X49682640Y-10869141D01*
G01X49682640Y-10869141D01*
G01X49650906Y-10930762D01*
G01X49638511Y-10989373D01*
G01X49636354Y-11019285D01*
G01X49636351Y-11019727D01*
G37*
%LPD*%
G36*
G01X50200023Y-10763086D02*
G01X50200023Y-10763086D01*
G01X50243382Y-10753711D01*
G01X50243382Y-10753711D01*
G01X50293441Y-10788061D01*
G01X50298460Y-10813477D01*
G01X50298460Y-10813477D01*
G01X50356541Y-10777661D01*
G01X50386937Y-10764258D01*
G01X50386937Y-10764258D01*
G01X50386937Y-10764258D01*
G01X50456078Y-10747339D01*
G01X50486546Y-10744922D01*
G01X50486546Y-10744922D01*
G01X50486546Y-10744922D01*
G01X50560947Y-10762746D01*
G01X50603525Y-10797645D01*
G01X50619622Y-10821760D01*
G01X50620140Y-10822852D01*
G01X50620140Y-10822852D01*
G01X50674099Y-10785024D01*
G01X50710056Y-10768018D01*
G01X50710667Y-10767774D01*
G01X50710667Y-10767774D01*
G01X50781195Y-10748724D01*
G01X50819029Y-10744945D01*
G01X50820531Y-10744922D01*
G01X50820531Y-10744922D01*
G01X50890862Y-10761395D01*
G01X50924562Y-10783464D01*
G01X50926292Y-10785059D01*
G01X50926292Y-10785059D01*
G01X50956833Y-10842715D01*
G01X50966299Y-10898621D01*
G01X50967015Y-10914258D01*
G01X50967015Y-10914258D01*
G01X50965746Y-10968473D01*
G01X50964964Y-11000684D01*
G01X50964964Y-11000684D01*
G01X50963357Y-11081867D01*
G01X50962930Y-11122943D01*
G01X50962914Y-11128125D01*
G01X50962914Y-11128125D01*
G01X50966837Y-11210728D01*
G01X50975004Y-11270697D01*
G01X50982014Y-11303864D01*
G01X50983421Y-11309180D01*
G01X50983421Y-11309180D01*
G01X50936546Y-11318555D01*
G01X50936546Y-11318555D01*
G01X50891722Y-11304785D01*
G01X50891722Y-11304785D01*
G01X50877953Y-11257617D01*
G01X50877953Y-11257617D01*
G01X50877953Y-11257617D01*
G01X50878757Y-11200627D01*
G01X50880331Y-11134183D01*
G01X50881419Y-11094106D01*
G01X50881468Y-11092383D01*
G01X50881468Y-11092383D01*
G01X50884018Y-10997209D01*
G01X50884889Y-10954964D01*
G01X50884984Y-10946485D01*
G01X50884984Y-10946485D01*
G01X50872185Y-10873205D01*
G01X50857150Y-10845472D01*
G01X50856859Y-10845117D01*
G01X50856859Y-10845117D01*
G01X50800131Y-10814251D01*
G01X50783031Y-10812305D01*
G01X50783031Y-10812305D01*
G01X50718118Y-10826778D01*
G01X50663615Y-10855117D01*
G01X50635335Y-10874699D01*
G01X50634203Y-10875586D01*
G01X50634203Y-10875586D01*
G01X50635391Y-10967196D01*
G01X50636089Y-11036413D01*
G01X50636428Y-11083792D01*
G01X50636537Y-11109885D01*
G01X50636546Y-11115821D01*
G01X50636546Y-11115821D01*
G01X50637823Y-11198826D01*
G01X50640583Y-11262692D01*
G01X50643220Y-11302534D01*
G01X50644164Y-11313867D01*
G01X50644164Y-11313867D01*
G01X50603148Y-11317383D01*
G01X50603148Y-11317383D01*
G01X50551757Y-11285185D01*
G01X50549242Y-11271680D01*
G01X50549242Y-11271680D01*
G01X50550999Y-11223340D01*
G01X50550999Y-11223340D01*
G01X50552861Y-11159405D01*
G01X50553842Y-11109466D01*
G01X50553929Y-11104102D01*
G01X50553929Y-11104102D01*
G01X50554733Y-11032458D01*
G01X50555046Y-10974250D01*
G01X50555101Y-10946873D01*
G01X50555101Y-10946485D01*
G01X50555101Y-10946485D01*
G01X50536187Y-10864503D01*
G01X50496052Y-10825365D01*
G01X50459608Y-10813225D01*
G01X50449632Y-10812305D01*
G01X50449632Y-10812305D01*
G01X50385506Y-10827449D01*
G01X50331324Y-10857100D01*
G01X50303108Y-10877588D01*
G01X50301976Y-10878516D01*
G01X50301976Y-10878516D01*
G01X50303208Y-10973562D01*
G01X50303908Y-11043585D01*
G01X50304228Y-11089595D01*
G01X50304316Y-11112604D01*
G01X50304320Y-11115821D01*
G01X50304320Y-11115821D01*
G01X50305499Y-11198826D01*
G01X50308046Y-11262692D01*
G01X50310480Y-11302534D01*
G01X50311351Y-11313867D01*
G01X50311351Y-11313867D01*
G01X50270921Y-11317383D01*
G01X50270921Y-11317383D01*
G01X50219530Y-11285185D01*
G01X50217015Y-11271680D01*
G01X50217015Y-11271680D01*
G01X50218786Y-11216907D01*
G01X50219945Y-11183496D01*
G01X50219945Y-11183496D01*
G01X50221912Y-11108533D01*
G01X50222714Y-11048688D01*
G01X50222873Y-11018569D01*
G01X50222874Y-11017383D01*
G01X50222874Y-11017383D01*
G01X50220498Y-10915336D01*
G01X50214831Y-10842821D01*
G01X50208067Y-10795899D01*
G01X50202399Y-10770633D01*
G01X50200023Y-10763086D01*
G01X50200023Y-10763086D01*
G37*
G36*
G01X51379515Y-11231250D02*
G01X51379515Y-11231250D01*
G01X51417493Y-11187147D01*
G01X51433421Y-11180860D01*
G01X51433421Y-11180860D01*
G01X51474322Y-11230156D01*
G01X51490550Y-11239746D01*
G01X51490550Y-11239746D01*
G01X51556702Y-11257725D01*
G01X51585765Y-11259961D01*
G01X51585765Y-11259961D01*
G01X51653274Y-11245817D01*
G01X51669261Y-11237110D01*
G01X51669261Y-11237110D01*
G01X51699577Y-11182234D01*
G01X51701195Y-11166211D01*
G01X51701195Y-11166211D01*
G01X51673896Y-11114434D01*
G01X51669261Y-11111133D01*
G01X51669261Y-11111133D01*
G01X51609145Y-11086152D01*
G01X51591917Y-11081543D01*
G01X51591917Y-11081543D01*
G01X51525339Y-11064578D01*
G01X51500804Y-11057520D01*
G01X51500804Y-11057520D01*
G01X51442444Y-11024265D01*
G01X51423167Y-11005371D01*
G01X51423167Y-11005371D01*
G01X51395988Y-10943910D01*
G01X51391241Y-10904375D01*
G01X51391234Y-10903711D01*
G01X51391234Y-10903711D01*
G01X51411229Y-10836198D01*
G01X51444077Y-10796881D01*
G01X51453050Y-10789453D01*
G01X51453050Y-10789453D01*
G01X51517995Y-10757725D01*
G01X51571938Y-10746381D01*
G01X51592796Y-10744922D01*
G01X51592796Y-10744922D01*
G01X51661413Y-10755263D01*
G01X51700994Y-10769116D01*
G01X51703246Y-10770117D01*
G01X51703246Y-10770117D01*
G01X51752169Y-10817792D01*
G01X51757445Y-10839844D01*
G01X51757445Y-10839844D01*
G01X51719467Y-10884530D01*
G01X51703539Y-10890235D01*
G01X51703539Y-10890235D01*
G01X51662621Y-10842443D01*
G01X51649339Y-10833985D01*
G01X51649339Y-10833985D01*
G01X51584944Y-10814029D01*
G01X51564085Y-10812305D01*
G01X51564085Y-10812305D01*
G01X51502276Y-10828897D01*
G01X51493187Y-10834570D01*
G01X51493187Y-10834570D01*
G01X51464111Y-10887932D01*
G01X51463304Y-10897266D01*
G01X51463304Y-10897266D01*
G01X51490248Y-10949753D01*
G01X51495238Y-10953516D01*
G01X51495238Y-10953516D01*
G01X51554553Y-10979735D01*
G01X51572582Y-10984863D01*
G01X51572582Y-10984863D01*
G01X51638183Y-11002082D01*
G01X51663695Y-11009473D01*
G01X51663695Y-11009473D01*
G01X51722828Y-11042077D01*
G01X51741332Y-11059278D01*
G01X51741332Y-11059278D01*
G01X51769273Y-11119812D01*
G01X51773265Y-11153320D01*
G01X51773265Y-11153320D01*
G01X51773265Y-11153320D01*
G01X51756844Y-11225720D01*
G01X51726832Y-11269045D01*
G01X51712035Y-11282520D01*
G01X51712035Y-11282520D01*
G01X51647719Y-11313453D01*
G01X51591464Y-11325019D01*
G01X51566454Y-11326758D01*
G01X51566429Y-11326758D01*
G01X51566429Y-11326758D01*
G01X51492259Y-11317850D01*
G01X51445613Y-11303216D01*
G01X51436351Y-11299219D01*
G01X51436351Y-11299219D01*
G01X51385047Y-11251725D01*
G01X51379515Y-11231250D01*
G37*
G36*
G01X51875804Y-11036719D02*
G01X51875804Y-11036719D01*
G01X51884734Y-10957536D01*
G01X51905384Y-10895209D01*
G01X51928546Y-10851534D01*
G01X51945010Y-10828309D01*
G01X51947874Y-10824903D01*
G01X51947874Y-10824903D01*
G01X52005233Y-10780032D01*
G01X52064616Y-10756168D01*
G01X52112659Y-10746678D01*
G01X52135997Y-10744927D01*
G01X52136546Y-10744922D01*
G01X52136546Y-10744922D01*
G01X52213039Y-10756531D01*
G01X52271496Y-10782514D01*
G01X52309781Y-10809603D01*
G01X52325754Y-10824529D01*
G01X52326097Y-10824903D01*
G01X52326097Y-10824903D01*
G01X52363812Y-10883263D01*
G01X52385269Y-10944947D01*
G01X52395053Y-10998218D01*
G01X52397750Y-11031341D01*
G01X52397874Y-11036719D01*
G01X52397874Y-11036719D01*
G01X52388230Y-11118996D01*
G01X52366283Y-11182610D01*
G01X52342514Y-11225637D01*
G01X52327402Y-11246151D01*
G01X52326097Y-11247656D01*
G01X52326097Y-11247656D01*
G01X52268733Y-11292034D01*
G01X52209057Y-11315636D01*
G01X52160652Y-11325022D01*
G01X52137101Y-11326753D01*
G01X52136546Y-11326758D01*
G01X52136546Y-11326758D01*
G01X52060669Y-11315276D01*
G01X52002466Y-11289579D01*
G01X51964221Y-11262788D01*
G01X51948219Y-11248026D01*
G01X51947874Y-11247656D01*
G01X51947874Y-11247656D01*
G01X51910005Y-11189758D01*
G01X51888461Y-11128337D01*
G01X51878637Y-11075185D01*
G01X51875929Y-11042095D01*
G01X51875804Y-11036719D01*
G37*
%LPC*%
G36*
G01X51960179Y-11019727D02*
G01X51960179Y-11019727D01*
G01X51969090Y-11097475D01*
G01X51987642Y-11154485D01*
G01X52003565Y-11186281D01*
G01X52006761Y-11191406D01*
G01X52006761Y-11191406D01*
G01X52060535Y-11239342D01*
G01X52112401Y-11257267D01*
G01X52136522Y-11259961D01*
G01X52136546Y-11259961D01*
G01X52136546Y-11259961D01*
G01X52210532Y-11244113D01*
G01X52254823Y-11215861D01*
G01X52267210Y-11203711D01*
G01X52267210Y-11203711D01*
G01X52299346Y-11142492D01*
G01X52311898Y-11084038D01*
G01X52314082Y-11054153D01*
G01X52314085Y-11053711D01*
G01X52314085Y-11053711D01*
G01X52304894Y-10975851D01*
G01X52285759Y-10918608D01*
G01X52269335Y-10886611D01*
G01X52266039Y-10881445D01*
G01X52266039Y-10881445D01*
G01X52211688Y-10833100D01*
G01X52160278Y-10815022D01*
G01X52136571Y-10812305D01*
G01X52136546Y-10812305D01*
G01X52136546Y-10812305D01*
G01X52062726Y-10828318D01*
G01X52018729Y-10856864D01*
G01X52006468Y-10869141D01*
G01X52006468Y-10869141D01*
G01X51974734Y-10930762D01*
G01X51962339Y-10989373D01*
G01X51960182Y-11019285D01*
G01X51960179Y-11019727D01*
G37*
%LPD*%
G36*
G01X52523851Y-10426758D02*
G01X52523851Y-10426758D01*
G01X52566039Y-10423242D01*
G01X52566039Y-10423242D01*
G01X52618327Y-10454805D01*
G01X52621117Y-10468945D01*
G01X52621117Y-10468945D01*
G01X52619577Y-10525687D01*
G01X52619359Y-10533106D01*
G01X52619359Y-10533106D01*
G01X52617517Y-10597525D01*
G01X52615825Y-10658741D01*
G01X52614977Y-10689969D01*
G01X52614964Y-10690430D01*
G01X52614964Y-10690430D01*
G01X52613396Y-10764936D01*
G01X52612619Y-10829009D01*
G01X52612356Y-10872454D01*
G01X52612328Y-10885547D01*
G01X52612328Y-11072461D01*
G01X52612328Y-11072461D01*
G01X52614928Y-11162058D01*
G01X52621035Y-11230210D01*
G01X52628109Y-11277177D01*
G01X52633611Y-11303221D01*
G01X52635179Y-11309180D01*
G01X52635179Y-11309180D01*
G01X52590062Y-11318555D01*
G01X52590062Y-11318555D01*
G01X52543773Y-11304199D01*
G01X52543773Y-11304199D01*
G01X52530882Y-11256445D01*
G01X52530882Y-11256445D01*
G01X52530882Y-11256445D01*
G01X52531181Y-11206353D01*
G01X52531740Y-11138978D01*
G01X52532054Y-11103847D01*
G01X52532054Y-11103809D01*
G01X52532054Y-11103809D01*
G01X52532770Y-11014596D01*
G01X52533112Y-10953343D01*
G01X52533218Y-10919945D01*
G01X52533226Y-10913086D01*
G01X52533226Y-10773633D01*
G01X52533226Y-10773633D01*
G01X52532657Y-10660547D01*
G01X52531201Y-10573902D01*
G01X52529239Y-10510551D01*
G01X52527151Y-10467352D01*
G01X52525316Y-10441159D01*
G01X52524114Y-10428829D01*
G01X52523851Y-10426758D01*
G37*
G36*
G01X52761156Y-11036719D02*
G01X52761156Y-11036719D01*
G01X52770303Y-10958079D01*
G01X52791457Y-10895935D01*
G01X52815184Y-10852231D01*
G01X52832050Y-10828916D01*
G01X52834984Y-10825488D01*
G01X52834984Y-10825488D01*
G01X52893962Y-10778911D01*
G01X52951732Y-10754993D01*
G01X52995659Y-10746181D01*
G01X53013109Y-10744922D01*
G01X53013109Y-10744922D01*
G01X53013109Y-10744922D01*
G01X53084372Y-10756478D01*
G01X53136061Y-10777078D01*
G01X53152562Y-10785938D01*
G01X53152562Y-10785938D01*
G01X53154424Y-10707337D01*
G01X53154892Y-10665690D01*
G01X53154906Y-10661133D01*
G01X53154906Y-10661133D01*
G01X53153744Y-10572802D01*
G01X53151058Y-10503815D01*
G01X53148045Y-10455819D01*
G01X53145903Y-10430460D01*
G01X53145531Y-10426758D01*
G01X53145531Y-10426758D01*
G01X53188304Y-10423242D01*
G01X53188304Y-10423242D01*
G01X53239695Y-10455441D01*
G01X53242210Y-10468945D01*
G01X53242210Y-10468945D01*
G01X53241712Y-10510266D01*
G01X53240505Y-10573801D01*
G01X53239024Y-10643058D01*
G01X53237702Y-10701542D01*
G01X53236975Y-10732760D01*
G01X53236937Y-10734375D01*
G01X53236937Y-10734375D01*
G01X53234789Y-10831055D01*
G01X53233322Y-10908567D01*
G01X53232405Y-10967908D01*
G01X53231910Y-11010069D01*
G01X53231706Y-11036044D01*
G01X53231664Y-11046827D01*
G01X53231664Y-11047266D01*
G01X53231664Y-11047266D01*
G01X53233825Y-11146980D01*
G01X53239055Y-11219798D01*
G01X53245473Y-11268903D01*
G01X53251198Y-11297479D01*
G01X53254349Y-11308709D01*
G01X53254515Y-11309180D01*
G01X53254515Y-11309180D01*
G01X53208812Y-11318555D01*
G01X53208812Y-11318555D01*
G01X53161011Y-11282438D01*
G01X53156078Y-11258789D01*
G01X53156078Y-11258789D01*
G01X53093006Y-11302431D01*
G01X53037663Y-11321722D01*
G01X53004282Y-11326609D01*
G01X53000218Y-11326758D01*
G01X52999046Y-11326758D01*
G01X52999046Y-11326758D01*
G01X52927620Y-11312047D01*
G01X52872612Y-11280831D01*
G01X52839419Y-11252485D01*
G01X52832054Y-11244727D01*
G01X52832054Y-11244727D01*
G01X52793523Y-11183218D01*
G01X52772320Y-11120167D01*
G01X52763268Y-11067976D01*
G01X52761192Y-11039051D01*
G01X52761156Y-11036719D01*
G37*
%LPC*%
G36*
G01X52845531Y-11019727D02*
G01X52845531Y-11019727D01*
G01X52855170Y-11099678D01*
G01X52875239Y-11157701D01*
G01X52892464Y-11189782D01*
G01X52895921Y-11194922D01*
G01X52895921Y-11194922D01*
G01X52952614Y-11244650D01*
G01X53000995Y-11261626D01*
G01X53017796Y-11263477D01*
G01X53017796Y-11263477D01*
G01X53083646Y-11246007D01*
G01X53132647Y-11213308D01*
G01X53152543Y-11194942D01*
G01X53152562Y-11194922D01*
G01X53152562Y-11194922D01*
G01X53151658Y-11073073D01*
G01X53151022Y-10983304D01*
G01X53150608Y-10920833D01*
G01X53150368Y-10880878D01*
G01X53150255Y-10858658D01*
G01X53150221Y-10849391D01*
G01X53150218Y-10848047D01*
G01X53150218Y-10848047D01*
G01X53080667Y-10820418D01*
G01X53034671Y-10812685D01*
G01X53026585Y-10812305D01*
G01X53026585Y-10812305D01*
G01X52953842Y-10827548D01*
G01X52908662Y-10855406D01*
G01X52894164Y-10869141D01*
G01X52894164Y-10869141D01*
G01X52860822Y-10930762D01*
G01X52847800Y-10989373D01*
G01X52845534Y-11019285D01*
G01X52845531Y-11019727D01*
G37*
%LPD*%
G36*
G01X53379906Y-11039063D02*
G01X53379906Y-11039063D01*
G01X53389816Y-10955118D01*
G01X53412732Y-10890904D01*
G01X53438436Y-10847096D01*
G01X53456707Y-10824366D01*
G01X53459886Y-10821094D01*
G01X53459886Y-10821094D01*
G01X53522971Y-10777057D01*
G01X53583775Y-10754444D01*
G01X53629584Y-10746112D01*
G01X53647679Y-10744922D01*
G01X53647679Y-10744922D01*
G01X53647679Y-10744922D01*
G01X53723151Y-10758294D01*
G01X53770090Y-10782131D01*
G01X53783617Y-10792383D01*
G01X53783617Y-10792383D01*
G01X53824501Y-10852074D01*
G01X53835348Y-10896689D01*
G01X53835765Y-10903711D01*
G01X53835765Y-10903711D01*
G01X53824233Y-10969658D01*
G01X53819066Y-10981641D01*
G01X53819066Y-10981641D01*
G01X53779557Y-11027543D01*
G01X53775414Y-11030567D01*
G01X53775414Y-11030567D01*
G01X53716296Y-11053781D01*
G01X53697484Y-11058106D01*
G01X53697484Y-11058106D01*
G01X53628270Y-11067737D01*
G01X53597289Y-11070117D01*
G01X53597289Y-11070117D01*
G01X53597289Y-11070117D01*
G01X53532136Y-11071929D01*
G01X53478267Y-11072436D01*
G01X53467796Y-11072461D01*
G01X53467796Y-11072461D01*
G01X53485869Y-11147424D01*
G01X53509079Y-11194207D01*
G01X53519652Y-11209278D01*
G01X53519652Y-11209278D01*
G01X53576457Y-11247882D01*
G01X53626160Y-11259260D01*
G01X53637718Y-11259961D01*
G01X53637718Y-11259961D01*
G01X53713109Y-11243147D01*
G01X53753923Y-11212417D01*
G01X53765453Y-11197266D01*
G01X53765453Y-11197266D01*
G01X53811616Y-11239978D01*
G01X53812914Y-11247656D01*
G01X53812914Y-11247656D01*
G01X53777603Y-11295160D01*
G01X53758421Y-11305078D01*
G01X53758421Y-11305078D01*
G01X53690428Y-11322305D01*
G01X53642628Y-11326632D01*
G01X53636546Y-11326758D01*
G01X53636546Y-11326758D01*
G01X53559953Y-11315634D01*
G01X53501708Y-11291162D01*
G01X53464665Y-11266690D01*
G01X53451683Y-11255567D01*
G01X53451683Y-11255567D01*
G01X53451683Y-11255567D01*
G01X53413968Y-11200154D01*
G01X53392511Y-11137237D01*
G01X53382727Y-11080832D01*
G01X53380030Y-11044961D01*
G01X53379906Y-11039063D01*
G37*
%LPC*%
G36*
G01X53466625Y-11012695D02*
G01X53466625Y-11012695D01*
G01X53536884Y-11011953D01*
G01X53552757Y-11011524D01*
G01X53552757Y-11011524D01*
G01X53615716Y-11005895D01*
G01X53628343Y-11004199D01*
G01X53628343Y-11004199D01*
G01X53689416Y-10989272D01*
G01X53694554Y-10987207D01*
G01X53694554Y-10987207D01*
G01X53735816Y-10956206D01*
G01X53735863Y-10956153D01*
G01X53735863Y-10956153D01*
G01X53753142Y-10906481D01*
G01X53753148Y-10906055D01*
G01X53753148Y-10906055D01*
G01X53729993Y-10848321D01*
G01X53721507Y-10839258D01*
G01X53721507Y-10839258D01*
G01X53662350Y-10813071D01*
G01X53642992Y-10811133D01*
G01X53642992Y-10811133D01*
G01X53573171Y-10826361D01*
G01X53529758Y-10852100D01*
G01X53519945Y-10860352D01*
G01X53519945Y-10860352D01*
G01X53485178Y-10916988D01*
G01X53470180Y-10976638D01*
G01X53466675Y-11011233D01*
G01X53466625Y-11012695D01*
G37*
%LPD*%
G36*
G01X53961742Y-10757227D02*
G01X53961742Y-10757227D01*
G01X54002757Y-10753711D01*
G01X54002757Y-10753711D01*
G01X54052293Y-10786728D01*
G01X54054320Y-10798828D01*
G01X54054320Y-10798828D01*
G01X54053734Y-10815235D01*
G01X54053734Y-10815235D01*
G01X54053148Y-10841016D01*
G01X54053148Y-10841016D01*
G01X54097304Y-10791128D01*
G01X54117308Y-10774512D01*
G01X54117308Y-10774512D01*
G01X54179550Y-10746961D01*
G01X54196703Y-10744922D01*
G01X54196703Y-10744922D01*
G01X54240062Y-10757520D01*
G01X54240062Y-10757520D01*
G01X54255882Y-10791797D01*
G01X54255882Y-10791797D01*
G01X54233507Y-10843479D01*
G01X54231859Y-10845703D01*
G01X54231859Y-10845703D01*
G01X54177695Y-10823063D01*
G01X54173851Y-10822852D01*
G01X54173851Y-10822852D01*
G01X54115462Y-10843188D01*
G01X54106761Y-10849219D01*
G01X54106761Y-10849219D01*
G01X54062467Y-10898903D01*
G01X54050218Y-10918945D01*
G01X54050218Y-10918945D01*
G01X54049399Y-10975994D01*
G01X54049092Y-11039820D01*
G01X54049046Y-11071256D01*
G01X54049046Y-11071289D01*
G01X54049046Y-11071289D01*
G01X54051646Y-11161941D01*
G01X54057753Y-11230478D01*
G01X54064828Y-11277421D01*
G01X54070330Y-11303291D01*
G01X54071898Y-11309180D01*
G01X54071898Y-11309180D01*
G01X54026195Y-11318555D01*
G01X54026195Y-11318555D01*
G01X53979613Y-11303028D01*
G01X53979613Y-11303028D01*
G01X53979613Y-11303028D01*
G01X53967610Y-11250868D01*
G01X53967601Y-11250000D01*
G01X53967601Y-11250000D01*
G01X53968240Y-11191641D01*
G01X53968773Y-11155371D01*
G01X53968773Y-11155371D01*
G01X53969728Y-11077329D01*
G01X53969942Y-11040346D01*
G01X53969945Y-11037891D01*
G01X53969945Y-11037891D01*
G01X53969243Y-10951548D01*
G01X53967521Y-10879012D01*
G01X53965352Y-10821904D01*
G01X53963311Y-10781844D01*
G01X53961971Y-10760450D01*
G01X53961742Y-10757227D01*
G37*
G36*
G01X54339671Y-10763086D02*
G01X54339671Y-10763086D01*
G01X54383031Y-10753711D01*
G01X54383031Y-10753711D01*
G01X54433090Y-10788061D01*
G01X54438109Y-10813477D01*
G01X54438109Y-10813477D01*
G01X54496190Y-10777661D01*
G01X54526585Y-10764258D01*
G01X54526585Y-10764258D01*
G01X54526585Y-10764258D01*
G01X54595726Y-10747339D01*
G01X54626195Y-10744922D01*
G01X54626195Y-10744922D01*
G01X54626195Y-10744922D01*
G01X54700595Y-10762746D01*
G01X54743173Y-10797645D01*
G01X54759270Y-10821760D01*
G01X54759789Y-10822852D01*
G01X54759789Y-10822852D01*
G01X54813747Y-10785024D01*
G01X54849704Y-10768018D01*
G01X54850316Y-10767774D01*
G01X54850316Y-10767774D01*
G01X54920844Y-10748724D01*
G01X54958677Y-10744945D01*
G01X54960179Y-10744922D01*
G01X54960179Y-10744922D01*
G01X55030510Y-10761395D01*
G01X55064210Y-10783464D01*
G01X55065941Y-10785059D01*
G01X55065941Y-10785059D01*
G01X55096481Y-10842715D01*
G01X55105948Y-10898621D01*
G01X55106664Y-10914258D01*
G01X55106664Y-10914258D01*
G01X55105394Y-10968473D01*
G01X55104613Y-11000684D01*
G01X55104613Y-11000684D01*
G01X55103005Y-11081867D01*
G01X55102578Y-11122943D01*
G01X55102562Y-11128125D01*
G01X55102562Y-11128125D01*
G01X55106485Y-11210728D01*
G01X55114653Y-11270697D01*
G01X55121663Y-11303864D01*
G01X55123070Y-11309180D01*
G01X55123070Y-11309180D01*
G01X55076195Y-11318555D01*
G01X55076195Y-11318555D01*
G01X55031371Y-11304785D01*
G01X55031371Y-11304785D01*
G01X55017601Y-11257617D01*
G01X55017601Y-11257617D01*
G01X55017601Y-11257617D01*
G01X55018405Y-11200627D01*
G01X55019980Y-11134183D01*
G01X55021067Y-11094106D01*
G01X55021117Y-11092383D01*
G01X55021117Y-11092383D01*
G01X55023667Y-10997209D01*
G01X55024537Y-10954964D01*
G01X55024632Y-10946485D01*
G01X55024632Y-10946485D01*
G01X55011834Y-10873205D01*
G01X54996799Y-10845472D01*
G01X54996507Y-10845117D01*
G01X54996507Y-10845117D01*
G01X54939780Y-10814251D01*
G01X54922679Y-10812305D01*
G01X54922679Y-10812305D01*
G01X54857766Y-10826778D01*
G01X54803263Y-10855117D01*
G01X54774984Y-10874699D01*
G01X54773851Y-10875586D01*
G01X54773851Y-10875586D01*
G01X54775039Y-10967196D01*
G01X54775738Y-11036413D01*
G01X54776076Y-11083792D01*
G01X54776185Y-11109885D01*
G01X54776195Y-11115821D01*
G01X54776195Y-11115821D01*
G01X54777472Y-11198826D01*
G01X54780232Y-11262692D01*
G01X54782868Y-11302534D01*
G01X54783812Y-11313867D01*
G01X54783812Y-11313867D01*
G01X54742796Y-11317383D01*
G01X54742796Y-11317383D01*
G01X54691405Y-11285185D01*
G01X54688890Y-11271680D01*
G01X54688890Y-11271680D01*
G01X54690648Y-11223340D01*
G01X54690648Y-11223340D01*
G01X54692509Y-11159405D01*
G01X54693490Y-11109466D01*
G01X54693578Y-11104102D01*
G01X54693578Y-11104102D01*
G01X54694381Y-11032458D01*
G01X54694695Y-10974250D01*
G01X54694749Y-10946873D01*
G01X54694750Y-10946485D01*
G01X54694750Y-10946485D01*
G01X54675835Y-10864503D01*
G01X54635700Y-10825365D01*
G01X54599256Y-10813225D01*
G01X54589281Y-10812305D01*
G01X54589281Y-10812305D01*
G01X54525155Y-10827449D01*
G01X54470972Y-10857100D01*
G01X54442757Y-10877588D01*
G01X54441625Y-10878516D01*
G01X54441625Y-10878516D01*
G01X54442856Y-10973562D01*
G01X54443557Y-11043585D01*
G01X54443876Y-11089595D01*
G01X54443964Y-11112604D01*
G01X54443968Y-11115821D01*
G01X54443968Y-11115821D01*
G01X54445147Y-11198826D01*
G01X54447695Y-11262692D01*
G01X54450128Y-11302534D01*
G01X54451000Y-11313867D01*
G01X54451000Y-11313867D01*
G01X54410570Y-11317383D01*
G01X54410570Y-11317383D01*
G01X54359179Y-11285185D01*
G01X54356664Y-11271680D01*
G01X54356664Y-11271680D01*
G01X54358434Y-11216907D01*
G01X54359593Y-11183496D01*
G01X54359593Y-11183496D01*
G01X54361561Y-11108533D01*
G01X54362362Y-11048688D01*
G01X54362522Y-11018569D01*
G01X54362523Y-11017383D01*
G01X54362523Y-11017383D01*
G01X54360146Y-10915336D01*
G01X54354479Y-10842821D01*
G01X54347715Y-10795899D01*
G01X54342048Y-10770633D01*
G01X54339671Y-10763086D01*
G01X54339671Y-10763086D01*
G37*
G36*
G01X55249046Y-11158008D02*
G01X55249046Y-11158008D01*
G01X55264263Y-11088438D01*
G01X55277757Y-11068067D01*
G01X55277757Y-11068067D01*
G01X55332814Y-11033286D01*
G01X55356859Y-11024414D01*
G01X55356859Y-11024414D01*
G01X55421406Y-11010775D01*
G01X55488002Y-11001243D01*
G01X55544742Y-10995332D01*
G01X55579723Y-10992555D01*
G01X55585375Y-10992188D01*
G01X55585375Y-10992188D01*
G01X55578276Y-10907255D01*
G01X55565621Y-10862439D01*
G01X55560179Y-10851270D01*
G01X55560179Y-10851270D01*
G01X55507191Y-10819521D01*
G01X55457395Y-10812412D01*
G01X55452953Y-10812305D01*
G01X55452953Y-10812305D01*
G01X55392756Y-10828800D01*
G01X55383519Y-10833692D01*
G01X55383519Y-10833692D01*
G01X55338020Y-10880288D01*
G01X55329320Y-10896094D01*
G01X55329320Y-10896094D01*
G01X55276811Y-10859620D01*
G01X55274242Y-10848047D01*
G01X55274242Y-10848047D01*
G01X55303965Y-10792203D01*
G01X55331957Y-10773047D01*
G01X55331957Y-10773047D01*
G01X55398988Y-10751955D01*
G01X55452547Y-10745416D01*
G01X55466429Y-10744922D01*
G01X55466429Y-10744922D01*
G01X55548740Y-10755259D01*
G01X55598592Y-10775056D01*
G01X55617370Y-10787496D01*
G01X55617601Y-10787695D01*
G01X55617601Y-10787695D01*
G01X55649864Y-10841612D01*
G01X55663012Y-10902647D01*
G01X55665631Y-10939067D01*
G01X55665648Y-10940625D01*
G01X55665648Y-10940625D01*
G01X55664715Y-10998540D01*
G01X55664476Y-11011231D01*
G01X55664476Y-11011231D01*
G01X55663411Y-11084393D01*
G01X55663304Y-11102930D01*
G01X55663304Y-11102930D01*
G01X55666875Y-11193494D01*
G01X55674730Y-11257910D01*
G01X55682585Y-11296399D01*
G01X55686156Y-11309180D01*
G01X55686156Y-11309180D01*
G01X55686156Y-11309180D01*
G01X55639281Y-11318555D01*
G01X55639281Y-11318555D01*
G01X55602074Y-11305957D01*
G01X55602074Y-11305957D01*
G01X55587718Y-11265820D01*
G01X55587718Y-11265820D01*
G01X55521742Y-11305856D01*
G01X55466809Y-11322858D01*
G01X55436492Y-11326697D01*
G01X55434203Y-11326758D01*
G01X55434203Y-11326758D01*
G01X55351348Y-11312324D01*
G01X55297843Y-11276894D01*
G01X55267270Y-11232280D01*
G01X55253210Y-11190289D01*
G01X55249247Y-11162733D01*
G01X55249046Y-11158008D01*
G37*
%LPC*%
G36*
G01X55333421Y-11158008D02*
G01X55333421Y-11158008D01*
G01X55352188Y-11223208D01*
G01X55364476Y-11237695D01*
G01X55364476Y-11237695D01*
G01X55424678Y-11261827D01*
G01X55443578Y-11263477D01*
G01X55443578Y-11263477D01*
G01X55516694Y-11249020D01*
G01X55565011Y-11222598D01*
G01X55581273Y-11209570D01*
G01X55581273Y-11209570D01*
G01X55580103Y-11154664D01*
G01X55580101Y-11153320D01*
G01X55580101Y-11153320D01*
G01X55582429Y-11083941D01*
G01X55584203Y-11053711D01*
G01X55584203Y-11053711D01*
G01X55532139Y-11059559D01*
G01X55532054Y-11059570D01*
G01X55532054Y-11059570D01*
G01X55484886Y-11065430D01*
G01X55484886Y-11065430D01*
G01X55440941Y-11072461D01*
G01X55440941Y-11072461D01*
G01X55405785Y-11082129D01*
G01X55405785Y-11082129D01*
G01X55374730Y-11095606D01*
G01X55374730Y-11095606D01*
G01X55353050Y-11111719D01*
G01X55353050Y-11111719D01*
G01X55337523Y-11131934D01*
G01X55337523Y-11131934D01*
G01X55333421Y-11158008D01*
G37*
%LPD*%
G36*
G01X55799828Y-11231250D02*
G01X55799828Y-11231250D01*
G01X55837805Y-11187147D01*
G01X55853734Y-11180860D01*
G01X55853734Y-11180860D01*
G01X55894635Y-11230156D01*
G01X55910863Y-11239746D01*
G01X55910863Y-11239746D01*
G01X55977015Y-11257725D01*
G01X56006078Y-11259961D01*
G01X56006078Y-11259961D01*
G01X56073586Y-11245817D01*
G01X56089574Y-11237110D01*
G01X56089574Y-11237110D01*
G01X56119890Y-11182234D01*
G01X56121507Y-11166211D01*
G01X56121507Y-11166211D01*
G01X56094209Y-11114434D01*
G01X56089574Y-11111133D01*
G01X56089574Y-11111133D01*
G01X56029458Y-11086152D01*
G01X56012230Y-11081543D01*
G01X56012230Y-11081543D01*
G01X55945652Y-11064578D01*
G01X55921117Y-11057520D01*
G01X55921117Y-11057520D01*
G01X55862757Y-11024265D01*
G01X55843480Y-11005371D01*
G01X55843480Y-11005371D01*
G01X55816301Y-10943910D01*
G01X55811553Y-10904375D01*
G01X55811546Y-10903711D01*
G01X55811546Y-10903711D01*
G01X55831541Y-10836198D01*
G01X55864390Y-10796881D01*
G01X55873363Y-10789453D01*
G01X55873363Y-10789453D01*
G01X55938307Y-10757725D01*
G01X55992250Y-10746381D01*
G01X56013109Y-10744922D01*
G01X56013109Y-10744922D01*
G01X56081726Y-10755263D01*
G01X56121307Y-10769116D01*
G01X56123558Y-10770117D01*
G01X56123558Y-10770117D01*
G01X56172482Y-10817792D01*
G01X56177757Y-10839844D01*
G01X56177757Y-10839844D01*
G01X56139780Y-10884530D01*
G01X56123851Y-10890235D01*
G01X56123851Y-10890235D01*
G01X56082934Y-10842443D01*
G01X56069652Y-10833985D01*
G01X56069652Y-10833985D01*
G01X56005256Y-10814029D01*
G01X55984398Y-10812305D01*
G01X55984398Y-10812305D01*
G01X55922588Y-10828897D01*
G01X55913500Y-10834570D01*
G01X55913500Y-10834570D01*
G01X55884424Y-10887932D01*
G01X55883617Y-10897266D01*
G01X55883617Y-10897266D01*
G01X55910561Y-10949753D01*
G01X55915550Y-10953516D01*
G01X55915550Y-10953516D01*
G01X55974866Y-10979735D01*
G01X55992894Y-10984863D01*
G01X55992894Y-10984863D01*
G01X56058495Y-11002082D01*
G01X56084007Y-11009473D01*
G01X56084007Y-11009473D01*
G01X56143141Y-11042077D01*
G01X56161644Y-11059278D01*
G01X56161644Y-11059278D01*
G01X56189586Y-11119812D01*
G01X56193578Y-11153320D01*
G01X56193578Y-11153320D01*
G01X56193578Y-11153320D01*
G01X56177156Y-11225720D01*
G01X56147144Y-11269045D01*
G01X56132347Y-11282520D01*
G01X56132347Y-11282520D01*
G01X56068032Y-11313453D01*
G01X56011777Y-11325019D01*
G01X55986767Y-11326758D01*
G01X55986742Y-11326758D01*
G01X55986742Y-11326758D01*
G01X55912571Y-11317850D01*
G01X55865926Y-11303216D01*
G01X55856664Y-11299219D01*
G01X55856664Y-11299219D01*
G01X55805360Y-11251725D01*
G01X55799828Y-11231250D01*
G37*
G36*
G01X56314281Y-10426758D02*
G01X56314281Y-10426758D01*
G01X56356468Y-10423242D01*
G01X56356468Y-10423242D01*
G01X56408757Y-10454805D01*
G01X56411546Y-10468945D01*
G01X56411546Y-10468945D01*
G01X56409829Y-10522869D01*
G01X56409789Y-10524024D01*
G01X56409789Y-10524024D01*
G01X56407597Y-10589412D01*
G01X56405801Y-10645094D01*
G01X56405394Y-10657910D01*
G01X56405394Y-10657910D01*
G01X56403662Y-10730866D01*
G01X56402926Y-10790358D01*
G01X56402760Y-10822766D01*
G01X56402757Y-10825195D01*
G01X56402757Y-10825195D01*
G01X56467348Y-10778787D01*
G01X56526610Y-10754956D01*
G01X56569942Y-10746176D01*
G01X56586742Y-10744922D01*
G01X56586742Y-10744922D01*
G01X56586742Y-10744922D01*
G01X56660733Y-10759365D01*
G01X56699519Y-10782396D01*
G01X56705394Y-10787695D01*
G01X56705394Y-10787695D01*
G01X56738965Y-10848449D01*
G01X56746046Y-10890036D01*
G01X56746117Y-10892578D01*
G01X56746117Y-10892578D01*
G01X56732248Y-10964003D01*
G01X56708807Y-11008914D01*
G01X56701292Y-11019141D01*
G01X56701292Y-11019141D01*
G01X56645996Y-11060294D01*
G01X56594285Y-11077912D01*
G01X56575609Y-11081250D01*
G01X56575609Y-11081250D01*
G01X56625766Y-11160211D01*
G01X56655072Y-11201200D01*
G01X56665716Y-11214123D01*
G01X56665843Y-11214258D01*
G01X56665843Y-11214258D01*
G01X56723971Y-11250265D01*
G01X56740257Y-11252930D01*
G01X56740257Y-11252930D01*
G01X56771312Y-11247656D01*
G01X56771312Y-11247656D01*
G01X56782445Y-11282813D01*
G01X56782445Y-11282813D01*
G01X56757250Y-11315625D01*
G01X56757250Y-11315625D01*
G01X56709203Y-11326758D01*
G01X56709203Y-11326758D01*
G01X56647323Y-11304730D01*
G01X56622484Y-11283985D01*
G01X56622484Y-11283985D01*
G01X56592308Y-11247949D01*
G01X56592308Y-11247949D01*
G01X56562499Y-11204996D01*
G01X56562425Y-11204883D01*
G01X56562425Y-11204883D01*
G01X56537230Y-11164453D01*
G01X56537230Y-11164453D01*
G01X56509945Y-11118300D01*
G01X56509691Y-11117871D01*
G01X56509691Y-11117871D01*
G01X56485960Y-11077149D01*
G01X56485960Y-11077149D01*
G01X56454320Y-11051953D01*
G01X56454320Y-11051953D01*
G01X56460765Y-11023242D01*
G01X56460765Y-11023242D01*
G01X56519573Y-11031933D01*
G01X56521703Y-11032031D01*
G01X56521703Y-11032031D01*
G01X56593348Y-11015913D01*
G01X56623260Y-10996076D01*
G01X56623949Y-10995410D01*
G01X56623949Y-10995410D01*
G01X56656476Y-10935454D01*
G01X56659984Y-10910742D01*
G01X56659984Y-10910742D01*
G01X56641646Y-10849806D01*
G01X56635375Y-10841016D01*
G01X56635375Y-10841016D01*
G01X56579836Y-10813536D01*
G01X56566234Y-10812305D01*
G01X56566234Y-10812305D01*
G01X56503012Y-10826814D01*
G01X56480980Y-10836914D01*
G01X56480980Y-10836914D01*
G01X56424014Y-10877639D01*
G01X56402757Y-10898438D01*
G01X56402757Y-11072461D01*
G01X56402757Y-11072461D01*
G01X56405357Y-11162058D01*
G01X56411464Y-11230210D01*
G01X56418539Y-11277177D01*
G01X56424041Y-11303221D01*
G01X56425609Y-11309180D01*
G01X56425609Y-11309180D01*
G01X56380492Y-11318555D01*
G01X56380492Y-11318555D01*
G01X56334203Y-11304199D01*
G01X56334203Y-11304199D01*
G01X56321312Y-11256445D01*
G01X56321312Y-11256445D01*
G01X56321312Y-11256445D01*
G01X56321611Y-11206353D01*
G01X56322170Y-11138978D01*
G01X56322484Y-11103847D01*
G01X56322484Y-11103809D01*
G01X56322484Y-11103809D01*
G01X56323200Y-11014596D01*
G01X56323542Y-10953343D01*
G01X56323648Y-10919945D01*
G01X56323656Y-10913086D01*
G01X56323656Y-10773633D01*
G01X56323656Y-10773633D01*
G01X56323086Y-10660547D01*
G01X56321631Y-10573901D01*
G01X56319669Y-10510551D01*
G01X56317581Y-10467352D01*
G01X56315746Y-10441159D01*
G01X56314543Y-10428829D01*
G01X56314281Y-10426758D01*
G37*

G04 Pad flashes *
%LPD*%
D11*

G04 end of program *
M02*
