G04 #@! TF.FileFunction,Legend,Bot*

G04 leading zeros omitted (L); absolute data (A); 6 integer digits and 6 fractional digits *
%FSLAX66Y66*%

G04 mode (MO): millimeters (MM) *
%MOMM*%

G04 Aperture definitions *
%ADD10C,0.001X*%
%ADD11C,0.001X*%
%ADD20C,0.15X*%

%LPD*%
G36*
G01X29528530Y-9494886D02*
G01X29528530Y-9094886D01*
G01X28128530Y-9094886D01*
G01X28128530Y-9494886D01*
G01X29528530Y-9494886D01*
G37*
G36*
G01X20956894Y-17905733D02*
G01X20956894Y-17505733D01*
G01X19556894Y-17505733D01*
G01X19556894Y-17905733D01*
G01X20956894Y-17905733D01*
G37*
G36*
G01X11837688Y-17324265D02*
G01X11637688Y-17324265D01*
G01X11637688Y-18724265D01*
G01X11837688Y-18724265D01*
G01X11837688Y-17324265D01*
G37*
G36*
G01X11437688Y-17324265D02*
G01X11237688Y-17324265D01*
G01X11237688Y-18724265D01*
G01X11437688Y-18724265D01*
G01X11437688Y-17324265D01*
G37*
G36*
G01X22996845Y-7759424D02*
G01X22596845Y-7759424D01*
G01X22596845Y-9159424D01*
G01X22996845Y-9159424D01*
G01X22996845Y-7759424D01*
G37*
G36*
G01X24131894Y-17905733D02*
G01X24131894Y-17505733D01*
G01X22731894Y-17505733D01*
G01X22731894Y-17905733D01*
G01X24131894Y-17905733D01*
G37*
G36*
G01X4509204Y-12295752D02*
G01X4109204Y-12295752D01*
G01X4109204Y-13695752D01*
G01X4509204Y-13695752D01*
G01X4509204Y-12295752D01*
G37*
G36*
G01X29528530Y-17905733D02*
G01X29528530Y-17505733D01*
G01X28128530Y-17505733D01*
G01X28128530Y-17905733D01*
G01X29528530Y-17905733D01*
G37*
G36*
G01X22996845Y-9759424D02*
G01X22596845Y-9759424D01*
G01X22596845Y-11159424D01*
G01X22996845Y-11159424D01*
G01X22996845Y-9759424D01*
G37*
G36*
G01X17781892Y-17905733D02*
G01X17781892Y-17505733D01*
G01X16381892Y-17505733D01*
G01X16381892Y-17905733D01*
G01X17781892Y-17905733D01*
G37*
G36*
G01X18979072Y-14009425D02*
G01X18779072Y-14009425D01*
G01X18779072Y-15409425D01*
G01X18979072Y-15409425D01*
G01X18979072Y-14009425D01*
G37*
G36*
G01X18579072Y-14009425D02*
G01X18379072Y-14009425D01*
G01X18379072Y-15409425D01*
G01X18579072Y-15409425D01*
G01X18579072Y-14009425D01*
G37*
G36*
G01X18979072Y-7759424D02*
G01X18779072Y-7759424D01*
G01X18779072Y-9159424D01*
G01X18979072Y-9159424D01*
G01X18979072Y-7759424D01*
G37*
G36*
G01X18579072Y-7759424D02*
G01X18379072Y-7759424D01*
G01X18379072Y-9159424D01*
G01X18579072Y-9159424D01*
G01X18579072Y-7759424D01*
G37*
D20*
G01X19955723Y-10589204D02*
G01X17455723Y-10589204D01*
G01X17455723Y-12789204D01*
G01X19955723Y-12789204D01*
G01X19955723Y-10589204D01*
G36*
G01X19507501Y-9992657D02*
G01X19507501Y-9992657D01*
G01X19507501Y-10042483D01*
G01X19507501Y-10092309D01*
G01X19507501Y-10142135D01*
G01X19507501Y-10191961D01*
G01X19507501Y-10241787D01*
G01X19507501Y-10285752D01*
G01X19507501Y-10285752D01*
G01X19541289Y-10317786D01*
G01X19575076Y-10349821D01*
G01X19608864Y-10381855D01*
G01X19642652Y-10413890D01*
G01X19676439Y-10445925D01*
G01X19706252Y-10474190D01*
G01X19706252Y-10474190D01*
G01X19757072Y-10474190D01*
G01X19807892Y-10474190D01*
G01X19858712Y-10474190D01*
G01X19909532Y-10474190D01*
G01X19960352Y-10474190D01*
G01X20005194Y-10474190D01*
G01X20005194Y-10474190D01*
G01X20038981Y-10442156D01*
G01X20072769Y-10410121D01*
G01X20106556Y-10378087D01*
G01X20140344Y-10346052D01*
G01X20174132Y-10314017D01*
G01X20203944Y-10285752D01*
G01X20203944Y-10285752D01*
G01X20203944Y-10235926D01*
G01X20203944Y-10186100D01*
G01X20203944Y-10136273D01*
G01X20203944Y-10086447D01*
G01X20203944Y-10036621D01*
G01X20203944Y-9992657D01*
G01X20203944Y-9992657D01*
G01X20170157Y-9960622D01*
G01X20136369Y-9928588D01*
G01X20102582Y-9896553D01*
G01X20068794Y-9864519D01*
G01X20035006Y-9832484D01*
G01X20005194Y-9804219D01*
G01X20005194Y-9804219D01*
G01X19954374Y-9804219D01*
G01X19903553Y-9804219D01*
G01X19852733Y-9804219D01*
G01X19801913Y-9804219D01*
G01X19751093Y-9804219D01*
G01X19706252Y-9804219D01*
G01X19706252Y-9804219D01*
G01X19672464Y-9836253D01*
G01X19638677Y-9868288D01*
G01X19604889Y-9900322D01*
G01X19571101Y-9932357D01*
G01X19537314Y-9964391D01*
G01X19507501Y-9992657D01*
G37*
D20*
G01X42529580Y-14716416D02*
G01X33529580Y-14716416D01*
G01X33529580Y-17916416D01*
G01X42529580Y-17916416D01*
G01X42529580Y-14716416D01*
G36*
G01X37667352Y-32418662D02*
G01X38479461Y-32418662D01*
G01X38479461Y-32418662D01*
G01X38495448Y-32345972D01*
G01X38505702Y-32287832D01*
G01X38510068Y-32258538D01*
G01X38510223Y-32257383D01*
G01X38510223Y-32257383D01*
G01X38517738Y-32181226D01*
G01X38520424Y-32126278D01*
G01X38520770Y-32106650D01*
G01X38520770Y-32106650D01*
G01X38512582Y-32020300D01*
G01X38492768Y-31951739D01*
G01X38468453Y-31901150D01*
G01X38446764Y-31868712D01*
G01X38434825Y-31854607D01*
G01X38434198Y-31853965D01*
G01X38434198Y-31853965D01*
G01X38382465Y-31817270D01*
G01X38321364Y-31792908D01*
G01X38259589Y-31778353D01*
G01X38205830Y-31771079D01*
G01X38168781Y-31768561D01*
G01X38156903Y-31768271D01*
G01X37667352Y-31768271D01*
G01X37667352Y-31915928D01*
G01X38129657Y-31915928D01*
G01X38129657Y-31915928D01*
G01X38207592Y-31920618D01*
G01X38252600Y-31928325D01*
G01X38261053Y-31930430D01*
G01X38261053Y-31930430D01*
G01X38324569Y-31959447D01*
G01X38339715Y-31970859D01*
G01X38339715Y-31970859D01*
G01X38374917Y-32023931D01*
G01X38378387Y-32033701D01*
G01X38378387Y-32033701D01*
G01X38388355Y-32097726D01*
G01X38388934Y-32113682D01*
G01X38388934Y-32113682D01*
G01X38385778Y-32177526D01*
G01X38384540Y-32190586D01*
G01X38384540Y-32190586D01*
G01X38375512Y-32255485D01*
G01X38373114Y-32269248D01*
G01X37667352Y-32269248D01*
G01X37667352Y-32418662D01*
G37*
G36*
G01X38502313Y-31611826D02*
G01X38502313Y-31471201D01*
G01X38502313Y-31471201D01*
G01X38428779Y-31465343D01*
G01X38377272Y-31460899D01*
G01X38364764Y-31459775D01*
G01X38364764Y-31459775D01*
G01X38293338Y-31452509D01*
G01X38239299Y-31446295D01*
G01X38223700Y-31444394D01*
G01X38063739Y-31423740D01*
G01X37868622Y-31397373D01*
G01X37868622Y-31397373D01*
G01X37940999Y-31369027D01*
G01X37985902Y-31352241D01*
G01X37994745Y-31349033D01*
G01X38097137Y-31312998D01*
G01X38196454Y-31281357D01*
G01X38309832Y-31247959D01*
G01X38309832Y-31136338D01*
G01X38196454Y-31104697D01*
G01X38196454Y-31104697D01*
G01X38129130Y-31084401D01*
G01X38097196Y-31073955D01*
G01X38097137Y-31073936D01*
G01X37995184Y-31039658D01*
G01X37995184Y-31039658D01*
G01X37931321Y-31017456D01*
G01X37881454Y-30999032D01*
G01X37870379Y-30994834D01*
G01X38054510Y-30966269D01*
G01X38054510Y-30966269D01*
G01X38141002Y-30936533D01*
G01X38192767Y-30936414D01*
G01X38213340Y-30943842D01*
G01X38214032Y-30944297D01*
G01X38214032Y-30944297D01*
G01X38273504Y-30954971D01*
G01X38333403Y-30939035D01*
G01X38358612Y-30928037D01*
G01X38358612Y-30928037D01*
G01X38440693Y-30902478D01*
G01X38488057Y-30908241D01*
G01X38502313Y-30915732D01*
G01X38502313Y-30780381D01*
G01X38502313Y-30780381D01*
G01X38431753Y-30787745D01*
G01X38368080Y-30794952D01*
G01X38323528Y-30800241D01*
G01X38309832Y-30801914D01*
G01X38309832Y-30801914D01*
G01X38236513Y-30811679D01*
G01X38170855Y-30821335D01*
G01X38122188Y-30828949D01*
G01X38099844Y-30832591D01*
G01X38099334Y-30832676D01*
G01X38099334Y-30832676D01*
G01X38025942Y-30845361D01*
G01X37959881Y-30857334D01*
G01X37909462Y-30866765D01*
G01X37882994Y-30871826D01*
G01X37880926Y-30872227D01*
G01X37880926Y-30872227D01*
G01X37806924Y-30887118D01*
G01X37742363Y-30900813D01*
G01X37694171Y-30911421D01*
G01X37669278Y-30917048D01*
G01X37667352Y-30917490D01*
G01X37667352Y-31029111D01*
G01X37667352Y-31029111D01*
G01X37735960Y-31058409D01*
G01X37775284Y-31074255D01*
G01X37778973Y-31075693D01*
G01X37880047Y-31114365D01*
G01X37984637Y-31152158D01*
G01X38110321Y-31196103D01*
G01X37984637Y-31240928D01*
G01X37880047Y-31279600D01*
G01X37778973Y-31319150D01*
G01X37667352Y-31367490D01*
G01X37667352Y-31479111D01*
G01X37667352Y-31479111D01*
G01X37746512Y-31496396D01*
G01X37823057Y-31512065D01*
G01X37894793Y-31525945D01*
G01X37959523Y-31537863D01*
G01X38015051Y-31547645D01*
G01X38059180Y-31555119D01*
G01X38089716Y-31560111D01*
G01X38104460Y-31562448D01*
G01X38105487Y-31562607D01*
G01X38105487Y-31562607D01*
G01X38187815Y-31574745D01*
G01X38264551Y-31585124D01*
G01X38333800Y-31593767D01*
G01X38393668Y-31600697D01*
G01X38442260Y-31605937D01*
G01X38477682Y-31609510D01*
G01X38498039Y-31611440D01*
G01X38502313Y-31611826D01*
G37*
G36*
G01X37667352Y-30672275D02*
G01X38479461Y-30672275D01*
G01X38479461Y-30672275D01*
G01X38503343Y-30594945D01*
G01X38515606Y-30530222D01*
G01X38520125Y-30485769D01*
G01X38520770Y-30469248D01*
G01X38520770Y-30469248D01*
G01X38520770Y-30469248D01*
G01X38512849Y-30399730D01*
G01X38505389Y-30371250D01*
G01X38505389Y-30371250D01*
G01X38473299Y-30311392D01*
G01X38457489Y-30292588D01*
G01X38457489Y-30292588D01*
G01X38497150Y-30227131D01*
G01X38515379Y-30169497D01*
G01X38520511Y-30132882D01*
G01X38520770Y-30126475D01*
G01X38520770Y-30126475D01*
G01X38510234Y-30061105D01*
G01X38504510Y-30044736D01*
G01X38504510Y-30044736D01*
G01X38468218Y-29989460D01*
G01X38455731Y-29976621D01*
G01X38455731Y-29976621D01*
G01X38399313Y-29939956D01*
G01X38374872Y-29929160D01*
G01X38374872Y-29929160D01*
G01X38308327Y-29914307D01*
G01X38264161Y-29911174D01*
G01X38261493Y-29911143D01*
G01X37667352Y-29911143D01*
G01X37667352Y-30045615D01*
G01X38265008Y-30045615D01*
G01X38265008Y-30045615D01*
G01X38336807Y-30059248D01*
G01X38363723Y-30074484D01*
G01X38363885Y-30074619D01*
G01X38363885Y-30074619D01*
G01X38395866Y-30131168D01*
G01X38397723Y-30146689D01*
G01X38397723Y-30146689D01*
G01X38387176Y-30191953D01*
G01X38387176Y-30191953D01*
G01X38353449Y-30234121D01*
G01X38352899Y-30234580D01*
G01X38352899Y-30234580D01*
G01X38286561Y-30224994D01*
G01X38261493Y-30224033D01*
G01X37989911Y-30224033D01*
G01X37989911Y-30359385D01*
G01X38263250Y-30359385D01*
G01X38263250Y-30359385D01*
G01X38336419Y-30369272D01*
G01X38362127Y-30379160D01*
G01X38362127Y-30379160D01*
G01X38362127Y-30379160D01*
G01X38394893Y-30431887D01*
G01X38397723Y-30456064D01*
G01X38397723Y-30456064D01*
G01X38387245Y-30519651D01*
G01X38381903Y-30536924D01*
G01X37667352Y-30536924D01*
G01X37667352Y-30672275D01*
G37*
G36*
G01X37916082Y-29741514D02*
G01X37916082Y-29741514D01*
G01X37989911Y-29730531D01*
G01X38031676Y-29713557D01*
G01X38037372Y-29710312D01*
G01X38037372Y-29710312D01*
G01X38090572Y-29664209D01*
G01X38116044Y-29631481D01*
G01X38117352Y-29629453D01*
G01X38117352Y-29629453D01*
G01X38146788Y-29566482D01*
G01X38160392Y-29521412D01*
G01X38161737Y-29515635D01*
G01X38161737Y-29515635D01*
G01X38172268Y-29444373D01*
G01X38175215Y-29395947D01*
G01X38175360Y-29387314D01*
G01X38175360Y-29387314D01*
G01X38171246Y-29313530D01*
G01X38162847Y-29253165D01*
G01X38156081Y-29218311D01*
G01X38155145Y-29214170D01*
G01X38196454Y-29214170D01*
G01X38196454Y-29214170D01*
G01X38259668Y-29220502D01*
G01X38269403Y-29222520D01*
G01X38269403Y-29222520D01*
G01X38326349Y-29248215D01*
G01X38333563Y-29253281D01*
G01X38333563Y-29253281D01*
G01X38373318Y-29302508D01*
G01X38379266Y-29314365D01*
G01X38379266Y-29314365D01*
G01X38393878Y-29378525D01*
G01X38395965Y-29413682D01*
G01X38395965Y-29413682D01*
G01X38395965Y-29413682D01*
G01X38392702Y-29489633D01*
G01X38387187Y-29537949D01*
G01X38385418Y-29549033D01*
G01X38385418Y-29549033D01*
G01X38369552Y-29619718D01*
G01X38364325Y-29636924D01*
G01X38486493Y-29655381D01*
G01X38486493Y-29655381D01*
G01X38503742Y-29595483D01*
G01X38511489Y-29553762D01*
G01X38511541Y-29553428D01*
G01X38511541Y-29553428D01*
G01X38519224Y-29483043D01*
G01X38522096Y-29425861D01*
G01X38522528Y-29401401D01*
G01X38522528Y-29401377D01*
G01X38522528Y-29401377D01*
G01X38516899Y-29322001D01*
G01X38506119Y-29267358D01*
G01X38499346Y-29244358D01*
G01X38499237Y-29244053D01*
G01X38499237Y-29244053D01*
G01X38465430Y-29178576D01*
G01X38437905Y-29144099D01*
G01X38434198Y-29140342D01*
G01X38434198Y-29140342D01*
G01X38376707Y-29101682D01*
G01X38336401Y-29085507D01*
G01X38333124Y-29084531D01*
G01X38333124Y-29084531D01*
G01X38263521Y-29071962D01*
G01X38212829Y-29068445D01*
G01X38203485Y-29068271D01*
G01X37681415Y-29068271D01*
G01X37681415Y-29068271D01*
G01X37671164Y-29131855D01*
G01X37662512Y-29188289D01*
G01X37659881Y-29205820D01*
G01X37659881Y-29205820D01*
G01X37651698Y-29279267D01*
G01X37648081Y-29341199D01*
G01X37647165Y-29377661D01*
G01X37647137Y-29382041D01*
G01X37647137Y-29382041D01*
G01X37650975Y-29455152D01*
G01X37657280Y-29504871D01*
G01X37659002Y-29515195D01*
G01X37659002Y-29515195D01*
G01X37679382Y-29585047D01*
G01X37698125Y-29625632D01*
G01X37700750Y-29630332D01*
G01X37700750Y-29630332D01*
G01X37745792Y-29683508D01*
G01X37780058Y-29709436D01*
G01X37782928Y-29711191D01*
G01X37782928Y-29711191D01*
G01X37847164Y-29733932D01*
G01X37901607Y-29740981D01*
G01X37916083Y-29741514D01*
G37*
%LPC*%
G36*
G01X37917840Y-29590342D02*
G01X37917840Y-29590342D01*
G01X37844651Y-29571793D01*
G01X37810122Y-29542216D01*
G01X37805340Y-29535410D01*
G01X37805340Y-29535410D01*
G01X37783216Y-29473259D01*
G01X37774943Y-29414459D01*
G01X37773700Y-29387342D01*
G01X37773700Y-29387314D01*
G01X37773700Y-29387314D01*
G01X37775510Y-29315600D01*
G01X37777215Y-29287559D01*
G01X37777215Y-29287559D01*
G01X37784615Y-29222633D01*
G01X37786004Y-29214170D01*
G01X38034735Y-29214170D01*
G01X38034735Y-29214170D01*
G01X38047510Y-29274668D01*
G01X38048797Y-29283603D01*
G01X38048797Y-29283603D01*
G01X38053707Y-29349645D01*
G01X38054071Y-29368857D01*
G01X38054071Y-29368857D01*
G01X38049908Y-29434657D01*
G01X38047918Y-29449717D01*
G01X38047918Y-29449717D01*
G01X38029637Y-29511299D01*
G01X38025506Y-29520029D01*
G01X38025506Y-29520029D01*
G01X37987307Y-29567271D01*
G01X37983319Y-29570566D01*
G01X37983319Y-29570566D01*
G01X37925443Y-29589953D01*
G01X37917840Y-29590342D01*
G37*
%LPD*%
G36*
G01X37667352Y-28818662D02*
G01X38889911Y-28818662D01*
G01X38914520Y-28669248D01*
G01X38153387Y-28669248D01*
G01X38325653Y-28470615D01*
G01X38325653Y-28470615D01*
G01X38376763Y-28414014D01*
G01X38424667Y-28365217D01*
G01X38464682Y-28326967D01*
G01X38492125Y-28302006D01*
G01X38502313Y-28293076D01*
G01X38502313Y-28293076D01*
G01X38502313Y-28118174D01*
G01X38502313Y-28118174D01*
G01X38450256Y-28164722D01*
G01X38401135Y-28212336D01*
G01X38359218Y-28255229D01*
G01X38328773Y-28287613D01*
G01X38314067Y-28303702D01*
G01X38313348Y-28304502D01*
G01X38126141Y-28518076D01*
G01X38126141Y-28518076D01*
G01X38083321Y-28464229D01*
G01X38046474Y-28421043D01*
G01X38035174Y-28408213D01*
G01X38035174Y-28408213D01*
G01X37985510Y-28354788D01*
G01X37943037Y-28311614D01*
G01X37919215Y-28288232D01*
G01X37917401Y-28286484D01*
G01X37917401Y-28286484D01*
G01X37861876Y-28235254D01*
G01X37815866Y-28195106D01*
G01X37790550Y-28173800D01*
G01X37788641Y-28172227D01*
G01X37788641Y-28172227D01*
G01X37726824Y-28124992D01*
G01X37682893Y-28095284D01*
G01X37667352Y-28085654D01*
G01X37667352Y-28262314D01*
G01X37667352Y-28262314D01*
G01X37725608Y-28302409D01*
G01X37769130Y-28336353D01*
G01X37781610Y-28346689D01*
G01X37781610Y-28346689D01*
G01X37836448Y-28396165D01*
G01X37877417Y-28436304D01*
G01X37894094Y-28453460D01*
G01X37894110Y-28453477D01*
G01X37894110Y-28453477D01*
G01X37944449Y-28509072D01*
G01X37980291Y-28551298D01*
G01X37992987Y-28566855D01*
G01X37992987Y-28566855D01*
G01X38039302Y-28627387D01*
G01X38065451Y-28664041D01*
G01X38069012Y-28669248D01*
G01X37667352Y-28669248D01*
G01X37667352Y-28818662D01*
G37*
G36*
G01X38083075Y-27974033D02*
G01X38083075Y-27974033D01*
G01X38163315Y-27968287D01*
G01X38226137Y-27955867D01*
G01X38265888Y-27944003D01*
G01X38277313Y-27939756D01*
G01X38277313Y-27939756D01*
G01X38345152Y-27903974D01*
G01X38391966Y-27869601D01*
G01X38413197Y-27850462D01*
G01X38413983Y-27849668D01*
G01X38413983Y-27849668D01*
G01X38459803Y-27791163D01*
G01X38486926Y-27742699D01*
G01X38495282Y-27723984D01*
G01X38495282Y-27723984D01*
G01X38515045Y-27652499D01*
G01X38521792Y-27598117D01*
G01X38522528Y-27580283D01*
G01X38522528Y-27580283D01*
G01X38513506Y-27496326D01*
G01X38491363Y-27427982D01*
G01X38463479Y-27375743D01*
G01X38437235Y-27340102D01*
G01X38420012Y-27321550D01*
G01X38417059Y-27318809D01*
G01X38417059Y-27318809D01*
G01X38363333Y-27283368D01*
G01X38301444Y-27258466D01*
G01X38237941Y-27242244D01*
G01X38179375Y-27232841D01*
G01X38132293Y-27228398D01*
G01X38103247Y-27227055D01*
G01X38097137Y-27226963D01*
G01X38045282Y-27226963D01*
G01X38045282Y-27824619D01*
G01X38045282Y-27824619D01*
G01X37965973Y-27809568D01*
G01X37906641Y-27783560D01*
G01X37867734Y-27757116D01*
G01X37849703Y-27740760D01*
G01X37848407Y-27739365D01*
G01X37848407Y-27739365D01*
G01X37812847Y-27681981D01*
G01X37792616Y-27619333D01*
G01X37783391Y-27564282D01*
G01X37780848Y-27529684D01*
G01X37780731Y-27524033D01*
G01X37780731Y-27524033D01*
G01X37784674Y-27447443D01*
G01X37791339Y-27399868D01*
G01X37793475Y-27389121D01*
G01X37793475Y-27389121D01*
G01X37813704Y-27320220D01*
G01X37820282Y-27304307D01*
G01X37694598Y-27284971D01*
G01X37694598Y-27284971D01*
G01X37673944Y-27343748D01*
G01X37663836Y-27382090D01*
G01X37663836Y-27382090D01*
G01X37663836Y-27382090D01*
G01X37652388Y-27451445D01*
G01X37647916Y-27511242D01*
G01X37647138Y-27540313D01*
G01X37647137Y-27540732D01*
G01X37647137Y-27540732D01*
G01X37652736Y-27618734D01*
G01X37664838Y-27680202D01*
G01X37676397Y-27719297D01*
G01X37680536Y-27730576D01*
G01X37680536Y-27730576D01*
G01X37716129Y-27797825D01*
G01X37751049Y-27844398D01*
G01X37770684Y-27865582D01*
G01X37771502Y-27866367D01*
G01X37771502Y-27866367D01*
G01X37830404Y-27909902D01*
G01X37883042Y-27936784D01*
G01X37909111Y-27947098D01*
G01X37909491Y-27947227D01*
G01X37909491Y-27947227D01*
G01X37980088Y-27964439D01*
G01X38041619Y-27972047D01*
G01X38078584Y-27973974D01*
G01X38083075Y-27974033D01*
G37*
%LPC*%
G36*
G01X38165692Y-27821103D02*
G01X38165692Y-27378135D01*
G01X38165692Y-27378135D01*
G01X38244199Y-27388811D01*
G01X38299512Y-27411039D01*
G01X38329316Y-27430116D01*
G01X38334002Y-27433945D01*
G01X38334002Y-27433945D01*
G01X38375610Y-27492529D01*
G01X38392565Y-27549128D01*
G01X38395944Y-27580729D01*
G01X38395965Y-27582041D01*
G01X38395965Y-27582041D01*
G01X38385485Y-27650520D01*
G01X38376190Y-27676084D01*
G01X38376190Y-27676084D01*
G01X38339186Y-27732814D01*
G01X38324334Y-27749033D01*
G01X38324334Y-27749033D01*
G01X38269576Y-27788237D01*
G01X38250506Y-27797812D01*
G01X38250506Y-27797812D01*
G01X38186052Y-27817584D01*
G01X38165692Y-27821103D01*
G37*
%LPD*%
G36*
G01X37667352Y-26953623D02*
G01X38457489Y-26953623D01*
G01X38457489Y-26953623D01*
G01X38480520Y-26876789D01*
G01X38497150Y-26802682D01*
G01X38508423Y-26734442D01*
G01X38515379Y-26675208D01*
G01X38519061Y-26628121D01*
G01X38520511Y-26596321D01*
G01X38520770Y-26582948D01*
G01X38520770Y-26582725D01*
G01X38520770Y-26582725D01*
G01X38518836Y-26511028D01*
G01X38516455Y-26473834D01*
G01X38516375Y-26472861D01*
G01X38516375Y-26472861D01*
G01X38506883Y-26405570D01*
G01X38497848Y-26361241D01*
G01X38497040Y-26357725D01*
G01X38366083Y-26384971D01*
G01X38366083Y-26384971D01*
G01X38381936Y-26456597D01*
G01X38386292Y-26486871D01*
G01X38386297Y-26486924D01*
G01X38386297Y-26486924D01*
G01X38390236Y-26554565D01*
G01X38390692Y-26582725D01*
G01X38390692Y-26582725D01*
G01X38386559Y-26657666D01*
G01X38377153Y-26725190D01*
G01X38366966Y-26776762D01*
G01X38360489Y-26803850D01*
G01X38359930Y-26805967D01*
G01X37667352Y-26805967D01*
G01X37667352Y-26953623D01*
G37*
G36*
G01X37782489Y-25927939D02*
G01X37782489Y-25927939D01*
G01X37849696Y-25911002D01*
G01X37879409Y-25892073D01*
G01X37879608Y-25891904D01*
G01X37879608Y-25891904D01*
G01X37914782Y-25834465D01*
G01X37921335Y-25795482D01*
G01X37921356Y-25794346D01*
G01X37921356Y-25794346D01*
G01X37902558Y-25727080D01*
G01X37880476Y-25698931D01*
G01X37880047Y-25698545D01*
G01X37880047Y-25698545D01*
G01X37818109Y-25667577D01*
G01X37782754Y-25662512D01*
G01X37782489Y-25662510D01*
G01X37782489Y-25662510D01*
G01X37715739Y-25679987D01*
G01X37687177Y-25698502D01*
G01X37687127Y-25698545D01*
G01X37687127Y-25698545D01*
G01X37651595Y-25756412D01*
G01X37645388Y-25793718D01*
G01X37645379Y-25794346D01*
G01X37645379Y-25794346D01*
G01X37663754Y-25862041D01*
G01X37686369Y-25891218D01*
G01X37687127Y-25891904D01*
G01X37687127Y-25891904D01*
G01X37749340Y-25923159D01*
G01X37782425Y-25927939D01*
G01X37782489Y-25927939D01*
G37*
G36*
G01X38083075Y-25258213D02*
G01X38083075Y-25258213D01*
G01X38161599Y-25252582D01*
G01X38223810Y-25240195D01*
G01X38264761Y-25227808D01*
G01X38279510Y-25222178D01*
G01X38279510Y-25222178D01*
G01X38279510Y-25222178D01*
G01X38345659Y-25184834D01*
G01X38391993Y-25147443D01*
G01X38414596Y-25124669D01*
G01X38416180Y-25122861D01*
G01X38416180Y-25122861D01*
G01X38457099Y-25063250D01*
G01X38483448Y-25009525D01*
G01X38495369Y-24978485D01*
G01X38496161Y-24976084D01*
G01X38496161Y-24976084D01*
G01X38512686Y-24905426D01*
G01X38520282Y-24843219D01*
G01X38522420Y-24803702D01*
G01X38522528Y-24796787D01*
G01X38522528Y-24796787D01*
G01X38519346Y-24724495D01*
G01X38514751Y-24679850D01*
G01X38514178Y-24675498D01*
G01X38514178Y-24675498D01*
G01X38500996Y-24607802D01*
G01X38487912Y-24557955D01*
G01X38484735Y-24547178D01*
G01X38356415Y-24581455D01*
G01X38356415Y-24581455D01*
G01X38377348Y-24652207D01*
G01X38384345Y-24689002D01*
G01X38384540Y-24690439D01*
G01X38384540Y-24690439D01*
G01X38389968Y-24759668D01*
G01X38390692Y-24789756D01*
G01X38390692Y-24789756D01*
G01X38384411Y-24862534D01*
G01X38375019Y-24907060D01*
G01X38373553Y-24912363D01*
G01X38373553Y-24912363D01*
G01X38344274Y-24977137D01*
G01X38320997Y-25010343D01*
G01X38319500Y-25012119D01*
G01X38319500Y-25012119D01*
G01X38266296Y-25056579D01*
G01X38227356Y-25078320D01*
G01X38224139Y-25079795D01*
G01X38224139Y-25079795D01*
G01X38158466Y-25098283D01*
G01X38102498Y-25104595D01*
G01X38083075Y-25105283D01*
G01X38083075Y-25105283D01*
G01X38006213Y-25097941D01*
G01X37958178Y-25085531D01*
G01X37947284Y-25081553D01*
G01X37947284Y-25081553D01*
G01X37885399Y-25044675D01*
G01X37855245Y-25017352D01*
G01X37853680Y-25015635D01*
G01X37853680Y-25015635D01*
G01X37815854Y-24956507D01*
G01X37799528Y-24916552D01*
G01X37798749Y-24914121D01*
G01X37798749Y-24914121D01*
G01X37785025Y-24845622D01*
G01X37780980Y-24794006D01*
G01X37780731Y-24782725D01*
G01X37780731Y-24782725D01*
G01X37783439Y-24710641D01*
G01X37786771Y-24672971D01*
G01X37786883Y-24671982D01*
G01X37786883Y-24671982D01*
G01X37800207Y-24605425D01*
G01X37813476Y-24560524D01*
G01X37815008Y-24555967D01*
G01X37691083Y-24533994D01*
G01X37691083Y-24533994D01*
G01X37669738Y-24603089D01*
G01X37659040Y-24651623D01*
G01X37657245Y-24661875D01*
G01X37657245Y-24661875D01*
G01X37649787Y-24732135D01*
G01X37647359Y-24786894D01*
G01X37647137Y-24802939D01*
G01X37647137Y-24802939D01*
G01X37652181Y-24879668D01*
G01X37662884Y-24940923D01*
G01X37672602Y-24978919D01*
G01X37675262Y-24987510D01*
G01X37675262Y-24987510D01*
G01X37706511Y-25057347D01*
G01X37738413Y-25107156D01*
G01X37756673Y-25130339D01*
G01X37757440Y-25131211D01*
G01X37757440Y-25131211D01*
G01X37812431Y-25179277D01*
G01X37863826Y-25210708D01*
G01X37892067Y-25224326D01*
G01X37893231Y-25224814D01*
G01X37893231Y-25224814D01*
G01X37959971Y-25244679D01*
G01X38023224Y-25254519D01*
G01X38068810Y-25257857D01*
G01X38083075Y-25258213D01*
G37*
G36*
G01X38084833Y-24374033D02*
G01X38084833Y-24374033D01*
G01X38162547Y-24368737D01*
G01X38223361Y-24357711D01*
G01X38259054Y-24348247D01*
G01X38265008Y-24346348D01*
G01X38265008Y-24346348D01*
G01X38334143Y-24315154D01*
G01X38382033Y-24284350D01*
G01X38402287Y-24268363D01*
G01X38402557Y-24268125D01*
G01X38402557Y-24268125D01*
G01X38451434Y-24213496D01*
G01X38481383Y-24166590D01*
G01X38490887Y-24148154D01*
G01X38490887Y-24148154D01*
G01X38513011Y-24078999D01*
G01X38521284Y-24022276D01*
G01X38522528Y-23997885D01*
G01X38522528Y-23997861D01*
G01X38522528Y-23997861D01*
G01X38514881Y-23924230D01*
G01X38500237Y-23869563D01*
G01X38491035Y-23845265D01*
G01X38490887Y-23844932D01*
G01X38490887Y-23844932D01*
G01X38453139Y-23781280D01*
G01X38417294Y-23738599D01*
G01X38402557Y-23724082D01*
G01X38402557Y-23724082D01*
G01X38344152Y-23682745D01*
G01X38291546Y-23656398D01*
G01X38265390Y-23645992D01*
G01X38265008Y-23645859D01*
G01X38265008Y-23645859D01*
G01X38195331Y-23628507D01*
G01X38132483Y-23620532D01*
G01X38091978Y-23618287D01*
G01X38084833Y-23618174D01*
G01X38084833Y-23618174D01*
G01X38007286Y-23623470D01*
G01X37946822Y-23634496D01*
G01X37911430Y-23643960D01*
G01X37905536Y-23645859D01*
G01X37905536Y-23645859D01*
G01X37836791Y-23677053D01*
G01X37788729Y-23707857D01*
G01X37768261Y-23723844D01*
G01X37767987Y-23724082D01*
G01X37767987Y-23724082D01*
G01X37718483Y-23778947D01*
G01X37688311Y-23826284D01*
G01X37678778Y-23844932D01*
G01X37678778Y-23844932D01*
G01X37657086Y-23913101D01*
G01X37648613Y-23970168D01*
G01X37647139Y-23997471D01*
G01X37647137Y-23997861D01*
G01X37647137Y-23997861D01*
G01X37655200Y-24072095D01*
G01X37670292Y-24126355D01*
G01X37678768Y-24148133D01*
G01X37678778Y-24148154D01*
G01X37678778Y-24148154D01*
G01X37716761Y-24211180D01*
G01X37753038Y-24253637D01*
G01X37767987Y-24268125D01*
G01X37767987Y-24268125D01*
G01X37826782Y-24309462D01*
G01X37879216Y-24335809D01*
G01X37905158Y-24346215D01*
G01X37905536Y-24346348D01*
G01X37905536Y-24346348D01*
G01X37974662Y-24363700D01*
G01X38037257Y-24371675D01*
G01X38077691Y-24373920D01*
G01X38084833Y-24374033D01*
G37*
%LPC*%
G36*
G01X38084833Y-24221103D02*
G01X38084833Y-24221103D01*
G01X38000814Y-24213644D01*
G01X37935356Y-24196393D01*
G01X37889918Y-24177045D01*
G01X37865961Y-24163291D01*
G01X37862469Y-24160898D01*
G01X37862469Y-24160898D01*
G01X37812529Y-24105673D01*
G01X37788687Y-24048981D01*
G01X37781292Y-24008000D01*
G01X37780731Y-23997861D01*
G01X37780731Y-23997861D01*
G01X37795389Y-23923004D01*
G01X37826494Y-23869253D01*
G01X37854738Y-23838682D01*
G01X37862469Y-23832187D01*
G01X37862469Y-23832187D01*
G01X37922842Y-23800091D01*
G01X37987570Y-23781831D01*
G01X38043905Y-23773504D01*
G01X38079102Y-23771209D01*
G01X38084833Y-23771103D01*
G01X38084833Y-23771103D01*
G01X38169775Y-23778672D01*
G01X38235759Y-23796174D01*
G01X38281436Y-23815805D01*
G01X38305459Y-23829760D01*
G01X38308954Y-23832187D01*
G01X38308954Y-23832187D01*
G01X38358894Y-23888265D01*
G01X38382736Y-23945883D01*
G01X38390131Y-23987550D01*
G01X38390692Y-23997861D01*
G01X38390692Y-23997861D01*
G01X38376033Y-24071487D01*
G01X38344929Y-24124391D01*
G01X38316685Y-24154499D01*
G01X38308954Y-24160898D01*
G01X38308954Y-24160898D01*
G01X38248363Y-24192533D01*
G01X38183131Y-24210530D01*
G01X38126231Y-24218737D01*
G01X38090633Y-24220999D01*
G01X38084833Y-24221103D01*
G37*
%LPD*%
G36*
G01X37667352Y-23472275D02*
G01X38479461Y-23472275D01*
G01X38479461Y-23472275D01*
G01X38503343Y-23394945D01*
G01X38515606Y-23330222D01*
G01X38520125Y-23285769D01*
G01X38520770Y-23269248D01*
G01X38520770Y-23269248D01*
G01X38520770Y-23269248D01*
G01X38512849Y-23199730D01*
G01X38505389Y-23171250D01*
G01X38505389Y-23171250D01*
G01X38473299Y-23111392D01*
G01X38457489Y-23092588D01*
G01X38457489Y-23092588D01*
G01X38497150Y-23027131D01*
G01X38515379Y-22969497D01*
G01X38520511Y-22932882D01*
G01X38520770Y-22926475D01*
G01X38520770Y-22926475D01*
G01X38510234Y-22861105D01*
G01X38504510Y-22844736D01*
G01X38504510Y-22844736D01*
G01X38468218Y-22789460D01*
G01X38455731Y-22776621D01*
G01X38455731Y-22776621D01*
G01X38399313Y-22739956D01*
G01X38374872Y-22729160D01*
G01X38374872Y-22729160D01*
G01X38308327Y-22714307D01*
G01X38264161Y-22711174D01*
G01X38261493Y-22711143D01*
G01X37667352Y-22711143D01*
G01X37667352Y-22845615D01*
G01X38265008Y-22845615D01*
G01X38265008Y-22845615D01*
G01X38336807Y-22859247D01*
G01X38363723Y-22874484D01*
G01X38363885Y-22874619D01*
G01X38363885Y-22874619D01*
G01X38395866Y-22931168D01*
G01X38397723Y-22946689D01*
G01X38397723Y-22946689D01*
G01X38387176Y-22991953D01*
G01X38387176Y-22991953D01*
G01X38353449Y-23034121D01*
G01X38352899Y-23034580D01*
G01X38352899Y-23034580D01*
G01X38286561Y-23024994D01*
G01X38261493Y-23024033D01*
G01X37989911Y-23024033D01*
G01X37989911Y-23159385D01*
G01X38263250Y-23159385D01*
G01X38263250Y-23159385D01*
G01X38336419Y-23169272D01*
G01X38362127Y-23179160D01*
G01X38362127Y-23179160D01*
G01X38362127Y-23179160D01*
G01X38394893Y-23231887D01*
G01X38397723Y-23256064D01*
G01X38397723Y-23256064D01*
G01X38387245Y-23319651D01*
G01X38381903Y-23336924D01*
G01X37667352Y-23336924D01*
G01X37667352Y-23472275D01*
G37*
G36*
G01X29803530Y-10205531D02*
G01X31023257Y-10205531D01*
G01X31023257Y-10205531D01*
G01X31036031Y-10144727D01*
G01X31037417Y-10136683D01*
G01X31037417Y-10136683D01*
G01X31045466Y-10071737D01*
G01X31046694Y-10057094D01*
G01X31046694Y-10057094D01*
G01X31050784Y-9991240D01*
G01X31051577Y-9976039D01*
G01X31051577Y-9976039D01*
G01X31053477Y-9911815D01*
G01X31053530Y-9903773D01*
G01X31053530Y-9903773D01*
G01X31047568Y-9810597D01*
G01X31032331Y-9732378D01*
G01X31011794Y-9669175D01*
G01X30989932Y-9621047D01*
G01X30970721Y-9588054D01*
G01X30958134Y-9570255D01*
G01X30955385Y-9566859D01*
G01X30955385Y-9566859D01*
G01X30902146Y-9520720D01*
G01X30841373Y-9489197D01*
G01X30780159Y-9469506D01*
G01X30725596Y-9458863D01*
G01X30684776Y-9454484D01*
G01X30664791Y-9453585D01*
G01X30663882Y-9453578D01*
G01X30663882Y-9453578D01*
G01X30587164Y-9462296D01*
G01X30524838Y-9481806D01*
G01X30481844Y-9502148D01*
G01X30463123Y-9513356D01*
G01X30462710Y-9513637D01*
G01X30462710Y-9513637D01*
G01X30407003Y-9562215D01*
G01X30365525Y-9613445D01*
G01X30339006Y-9655300D01*
G01X30328173Y-9675751D01*
G01X30327944Y-9676234D01*
G01X30218569Y-9608851D01*
G01X30088686Y-9533656D01*
G01X29946108Y-9458461D01*
G01X29946108Y-9458461D01*
G01X29879140Y-9425468D01*
G01X29827435Y-9401067D01*
G01X29803859Y-9390250D01*
G01X29803530Y-9390101D01*
G01X29803530Y-9565883D01*
G01X29803530Y-9565883D01*
G01X29875174Y-9596872D01*
G01X29941302Y-9627446D01*
G01X29998342Y-9655158D01*
G01X30042727Y-9677562D01*
G01X30070886Y-9692210D01*
G01X30079409Y-9696742D01*
G01X30079409Y-9696742D01*
G01X30152514Y-9738336D01*
G01X30212026Y-9775664D01*
G01X30256421Y-9805867D01*
G01X30284175Y-9826086D01*
G01X30293764Y-9833461D01*
G01X30293764Y-9833461D01*
G01X30293764Y-9833461D01*
G01X30291811Y-9868617D01*
G01X30291811Y-9899867D01*
G01X30291811Y-10039515D01*
G01X29803530Y-10039515D01*
G01X29803530Y-10205531D01*
G37*
%LPC*%
G36*
G01X30427553Y-10039515D02*
G01X30427553Y-9934047D01*
G01X30427553Y-9934047D01*
G01X30430851Y-9858894D01*
G01X30436109Y-9812500D01*
G01X30437319Y-9804652D01*
G01X30437319Y-9804652D01*
G01X30458564Y-9736278D01*
G01X30474300Y-9706703D01*
G01X30474428Y-9706508D01*
G01X30474428Y-9706508D01*
G01X30522696Y-9659002D01*
G01X30548647Y-9643519D01*
G01X30548647Y-9643519D01*
G01X30612210Y-9626293D01*
G01X30663397Y-9621722D01*
G01X30671694Y-9621547D01*
G01X30671694Y-9621547D01*
G01X30747348Y-9629919D01*
G01X30786413Y-9642012D01*
G01X30789858Y-9643519D01*
G01X30789858Y-9643519D01*
G01X30846325Y-9683583D01*
G01X30862612Y-9701625D01*
G01X30862612Y-9701625D01*
G01X30893141Y-9761578D01*
G01X30900698Y-9786586D01*
G01X30900698Y-9786586D01*
G01X30910349Y-9854252D01*
G01X30911928Y-9889843D01*
G01X30911928Y-9890101D01*
G01X30911928Y-9890101D01*
G01X30911338Y-9958317D01*
G01X30910952Y-9978969D01*
G01X30910952Y-9978969D01*
G01X30905473Y-10037953D01*
G01X30905093Y-10039515D01*
G01X30427553Y-10039515D01*
G37*
%LPD*%
G36*
G01X30119936Y-9243617D02*
G01X30231264Y-9243617D01*
G01X30231264Y-9243617D01*
G01X30293810Y-9214702D01*
G01X30353335Y-9184413D01*
G01X30397845Y-9160533D01*
G01X30415346Y-9150844D01*
G01X30415346Y-9150844D01*
G01X30415346Y-9150844D01*
G01X30477678Y-9114531D01*
G01X30536073Y-9078781D01*
G01X30584835Y-9047906D01*
G01X30618268Y-9026219D01*
G01X30630678Y-9018031D01*
G01X30630678Y-9018031D01*
G01X30630678Y-9018031D01*
G01X30692956Y-8975312D01*
G01X30750062Y-8934335D01*
G01X30797777Y-8898960D01*
G01X30831880Y-8873044D01*
G01X30848151Y-8860446D01*
G01X30848940Y-8859828D01*
G01X30848940Y-8859828D01*
G01X30910061Y-8809906D01*
G01X30963026Y-8763734D01*
G01X31004718Y-8725531D01*
G01X31032018Y-8699515D01*
G01X31041811Y-8689906D01*
G01X31041811Y-8689906D01*
G01X31041811Y-8529750D01*
G01X30255678Y-8529750D01*
G01X30255678Y-8384242D01*
G01X30119936Y-8384242D01*
G01X30119936Y-8529750D01*
G01X29803530Y-8529750D01*
G01X29803530Y-8689906D01*
G01X30119936Y-8689906D01*
G01X30119936Y-9243617D01*
G37*
%LPC*%
G36*
G01X30255678Y-9083461D02*
G01X30255678Y-8689906D01*
G01X30845522Y-8689906D01*
G01X30845522Y-8689906D01*
G01X30792480Y-8737112D01*
G01X30746030Y-8775933D01*
G01X30719619Y-8797194D01*
G01X30717593Y-8798793D01*
G01X30717593Y-8798793D01*
G01X30658859Y-8843275D01*
G01X30608073Y-8879783D01*
G01X30576167Y-8901949D01*
G01X30570620Y-8905726D01*
G01X30570620Y-8905726D01*
G01X30507254Y-8946759D01*
G01X30453278Y-8979560D01*
G01X30419690Y-8999112D01*
G01X30413882Y-9002406D01*
G01X30413882Y-9002406D01*
G01X30346564Y-9038604D01*
G01X30291379Y-9066365D01*
G01X30259472Y-9081689D01*
G01X30255678Y-9083461D01*
G37*
%LPD*%
G36*
G01X21245078Y-18599776D02*
G01X22464805Y-18599776D01*
G01X22464805Y-18599776D01*
G01X22477579Y-18538972D01*
G01X22478965Y-18530928D01*
G01X22478965Y-18530928D01*
G01X22487014Y-18465982D01*
G01X22488242Y-18451339D01*
G01X22488242Y-18451339D01*
G01X22492332Y-18385485D01*
G01X22493125Y-18370284D01*
G01X22493125Y-18370284D01*
G01X22495025Y-18306060D01*
G01X22495078Y-18298018D01*
G01X22495078Y-18298018D01*
G01X22489116Y-18204842D01*
G01X22473879Y-18126623D01*
G01X22453342Y-18063419D01*
G01X22431480Y-18015292D01*
G01X22412269Y-17982299D01*
G01X22399682Y-17964500D01*
G01X22396933Y-17961104D01*
G01X22396933Y-17961104D01*
G01X22343694Y-17914965D01*
G01X22282921Y-17883442D01*
G01X22221707Y-17863751D01*
G01X22167144Y-17853108D01*
G01X22126324Y-17848729D01*
G01X22106339Y-17847830D01*
G01X22105430Y-17847823D01*
G01X22105430Y-17847823D01*
G01X22028712Y-17856541D01*
G01X21966386Y-17876051D01*
G01X21923392Y-17896393D01*
G01X21904671Y-17907601D01*
G01X21904258Y-17907882D01*
G01X21904258Y-17907882D01*
G01X21848551Y-17956460D01*
G01X21807073Y-18007690D01*
G01X21780554Y-18049545D01*
G01X21769721Y-18069996D01*
G01X21769492Y-18070479D01*
G01X21660117Y-18003096D01*
G01X21530234Y-17927901D01*
G01X21387656Y-17852706D01*
G01X21387656Y-17852706D01*
G01X21320688Y-17819713D01*
G01X21268983Y-17795312D01*
G01X21245407Y-17784495D01*
G01X21245078Y-17784346D01*
G01X21245078Y-17960128D01*
G01X21245078Y-17960128D01*
G01X21316722Y-17991117D01*
G01X21382850Y-18021691D01*
G01X21439890Y-18049403D01*
G01X21484275Y-18071807D01*
G01X21512434Y-18086455D01*
G01X21520957Y-18090987D01*
G01X21520957Y-18090987D01*
G01X21594062Y-18132581D01*
G01X21653574Y-18169909D01*
G01X21697969Y-18200112D01*
G01X21725723Y-18220331D01*
G01X21735312Y-18227706D01*
G01X21735312Y-18227706D01*
G01X21735312Y-18227706D01*
G01X21733359Y-18262862D01*
G01X21733359Y-18294112D01*
G01X21733359Y-18433760D01*
G01X21245078Y-18433760D01*
G01X21245078Y-18599776D01*
G37*
%LPC*%
G36*
G01X21869101Y-18433760D02*
G01X21869101Y-18328292D01*
G01X21869101Y-18328292D01*
G01X21872399Y-18253139D01*
G01X21877657Y-18206745D01*
G01X21878867Y-18198897D01*
G01X21878867Y-18198897D01*
G01X21900112Y-18130523D01*
G01X21915848Y-18100948D01*
G01X21915976Y-18100753D01*
G01X21915976Y-18100753D01*
G01X21964244Y-18053247D01*
G01X21990195Y-18037764D01*
G01X21990195Y-18037764D01*
G01X22053758Y-18020538D01*
G01X22104945Y-18015967D01*
G01X22113242Y-18015792D01*
G01X22113242Y-18015792D01*
G01X22188896Y-18024164D01*
G01X22227961Y-18036257D01*
G01X22231406Y-18037764D01*
G01X22231406Y-18037764D01*
G01X22287873Y-18077828D01*
G01X22304160Y-18095870D01*
G01X22304160Y-18095870D01*
G01X22334689Y-18155823D01*
G01X22342246Y-18180831D01*
G01X22342246Y-18180831D01*
G01X22351897Y-18248497D01*
G01X22353476Y-18284088D01*
G01X22353476Y-18284346D01*
G01X22353476Y-18284346D01*
G01X22352886Y-18352562D01*
G01X22352500Y-18373214D01*
G01X22352500Y-18373214D01*
G01X22347021Y-18432198D01*
G01X22346641Y-18433760D01*
G01X21869101Y-18433760D01*
G37*
%LPD*%
G36*
G01X21741172Y-17601729D02*
G01X21741172Y-17601729D01*
G01X21823905Y-17598379D01*
G01X21897990Y-17589929D01*
G01X21961001Y-17578779D01*
G01X22010516Y-17567329D01*
G01X22044109Y-17557979D01*
G01X22059358Y-17553129D01*
G01X22060019Y-17552901D01*
G01X22060019Y-17552901D01*
G01X22134091Y-17521432D01*
G01X22196338Y-17486334D01*
G01X22244770Y-17453071D01*
G01X22277398Y-17427110D01*
G01X22292233Y-17413917D01*
G01X22292930Y-17413253D01*
G01X22292930Y-17413253D01*
G01X22341614Y-17358367D01*
G01X22380604Y-17301908D01*
G01X22409619Y-17250868D01*
G01X22428376Y-17212240D01*
G01X22436596Y-17193018D01*
G01X22436973Y-17192061D01*
G01X22436973Y-17192061D01*
G01X22458659Y-17123698D01*
G01X22473330Y-17055433D01*
G01X22482354Y-16993039D01*
G01X22487099Y-16942288D01*
G01X22488930Y-16908952D01*
G01X22489219Y-16898604D01*
G01X22349570Y-16883956D01*
G01X22349570Y-16883956D01*
G01X22344807Y-16961838D01*
G01X22336447Y-17024692D01*
G01X22328816Y-17065413D01*
G01X22326133Y-17077315D01*
G01X22326133Y-17077315D01*
G01X22301893Y-17149078D01*
G01X22275648Y-17202647D01*
G01X22259107Y-17230113D01*
G01X22257773Y-17232100D01*
G01X22257773Y-17232100D01*
G01X22211051Y-17286606D01*
G01X22166121Y-17325370D01*
G01X22139279Y-17344517D01*
G01X22137168Y-17345870D01*
G01X22137168Y-17345870D01*
G01X22075142Y-17377262D01*
G01X22014142Y-17399631D01*
G01X21969255Y-17412669D01*
G01X21955039Y-17416182D01*
G01X21955039Y-17416182D01*
G01X21979577Y-17351998D01*
G01X21990767Y-17312849D01*
G01X21991172Y-17311202D01*
G01X21991172Y-17311202D01*
G01X22002176Y-17241033D01*
G01X22004788Y-17195185D01*
G01X22004844Y-17190596D01*
G01X22004844Y-17190596D01*
G01X21998772Y-17111707D01*
G01X21986132Y-17052717D01*
G01X21975283Y-17019288D01*
G01X21973105Y-17013839D01*
G01X21973105Y-17013839D01*
G01X21935088Y-16948191D01*
G01X21900497Y-16907738D01*
G01X21888144Y-16896163D01*
G01X21888144Y-16896163D01*
G01X21828242Y-16857462D01*
G01X21779623Y-16836515D01*
G01X21765098Y-16831710D01*
G01X21765098Y-16831710D01*
G01X21693538Y-16817188D01*
G01X21638971Y-16812231D01*
G01X21621055Y-16811690D01*
G01X21621055Y-16811690D01*
G01X21549694Y-16818327D01*
G01X21496939Y-16829854D01*
G01X21481894Y-16834151D01*
G01X21481894Y-16834151D01*
G01X21415603Y-16862464D01*
G01X21368610Y-16890682D01*
G01X21352012Y-16902510D01*
G01X21352012Y-16902510D01*
G01X21301243Y-16952895D01*
G01X21268095Y-16999132D01*
G01X21255831Y-17020165D01*
G01X21255820Y-17020186D01*
G01X21255820Y-17020186D01*
G01X21231993Y-17086745D01*
G01X21221460Y-17148906D01*
G01X21218792Y-17187734D01*
G01X21218711Y-17192550D01*
G01X21218711Y-17192550D01*
G01X21227105Y-17278231D01*
G01X21248558Y-17349865D01*
G01X21277473Y-17407511D01*
G01X21308254Y-17451229D01*
G01X21335303Y-17481078D01*
G01X21353025Y-17497117D01*
G01X21356894Y-17500167D01*
G01X21356894Y-17500167D01*
G01X21415479Y-17534850D01*
G01X21480340Y-17560574D01*
G01X21546809Y-17578676D01*
G01X21610222Y-17590497D01*
G01X21665910Y-17597375D01*
G01X21709208Y-17600648D01*
G01X21735450Y-17601655D01*
G01X21741172Y-17601729D01*
G37*
%LPC*%
G36*
G01X21741172Y-17433760D02*
G01X21741172Y-17433760D01*
G01X21667043Y-17430879D01*
G01X21613397Y-17425614D01*
G01X21594199Y-17423018D01*
G01X21594199Y-17423018D01*
G01X21521488Y-17405143D01*
G01X21478215Y-17388300D01*
G01X21472129Y-17385421D01*
G01X21472129Y-17385421D01*
G01X21414680Y-17343307D01*
G01X21389059Y-17313504D01*
G01X21388144Y-17312178D01*
G01X21388144Y-17312178D01*
G01X21363701Y-17249194D01*
G01X21357562Y-17200871D01*
G01X21357383Y-17194503D01*
G01X21357383Y-17194503D01*
G01X21369087Y-17124260D01*
G01X21382169Y-17094598D01*
G01X21382285Y-17094405D01*
G01X21382285Y-17094405D01*
G01X21426808Y-17042697D01*
G01X21445273Y-17027999D01*
G01X21445273Y-17027999D01*
G01X21505896Y-16998351D01*
G01X21530234Y-16990889D01*
G01X21530234Y-16990889D01*
G01X21597874Y-16980616D01*
G01X21619101Y-16979659D01*
G01X21619101Y-16979659D01*
G01X21702430Y-16988909D01*
G01X21761572Y-17008901D01*
G01X21795911Y-17027998D01*
G01X21805137Y-17034835D01*
G01X21805137Y-17034835D01*
G01X21844218Y-17089737D01*
G01X21862875Y-17150797D01*
G01X21868663Y-17196620D01*
G01X21869101Y-17208174D01*
G01X21869101Y-17208174D01*
G01X21864271Y-17281558D01*
G01X21857545Y-17322374D01*
G01X21856894Y-17325362D01*
G01X21856894Y-17325362D01*
G01X21836752Y-17392163D01*
G01X21821918Y-17430251D01*
G01X21821250Y-17431807D01*
G01X21821250Y-17431807D01*
G01X21782187Y-17433760D01*
G01X21741172Y-17433760D01*
G37*
%LPD*%
G36*
G01X12445891Y-16423777D02*
G01X12445891Y-16423777D01*
G01X12442383Y-16342570D01*
G01X12433771Y-16271697D01*
G01X12422928Y-16213996D01*
G01X12412722Y-16172302D01*
G01X12406024Y-16149453D01*
G01X12404875Y-16145945D01*
G01X12404875Y-16145945D01*
G01X12374612Y-16072922D01*
G01X12342204Y-16013657D01*
G01X12314017Y-15970987D01*
G01X12296413Y-15947752D01*
G01X12293547Y-15944285D01*
G01X12293547Y-15944285D01*
G01X12238249Y-15890299D01*
G01X12185149Y-15851511D01*
G01X12145232Y-15828104D01*
G01X12129485Y-15820261D01*
G01X12129485Y-15820261D01*
G01X12129485Y-15820261D01*
G01X12058653Y-15795985D01*
G01X11994231Y-15783518D01*
G01X11947386Y-15778925D01*
G01X11929289Y-15778269D01*
G01X11929289Y-15778269D01*
G01X11929289Y-15778269D01*
G01X11857858Y-15783371D01*
G01X11801887Y-15792920D01*
G01X11778433Y-15798283D01*
G01X11778411Y-15798289D01*
G01X11778411Y-15798289D01*
G01X11709959Y-15822230D01*
G01X11655745Y-15848262D01*
G01X11628598Y-15863557D01*
G01X11627532Y-15864207D01*
G01X11675383Y-15999949D01*
G01X11675383Y-15999949D01*
G01X11751805Y-15962777D01*
G01X11819649Y-15940230D01*
G01X11874086Y-15928652D01*
G01X11910289Y-15924386D01*
G01X11923430Y-15923777D01*
G01X11923430Y-15923777D01*
G01X11923430Y-15923777D01*
G01X11997338Y-15932736D01*
G01X12049762Y-15949505D01*
G01X12070383Y-15958923D01*
G01X12070403Y-15958933D01*
G01X12070403Y-15958933D01*
G01X12129114Y-16001661D01*
G01X12168393Y-16042926D01*
G01X12181731Y-16060008D01*
G01X12181731Y-16060008D01*
G01X12216583Y-16121015D01*
G01X12240095Y-16177862D01*
G01X12251765Y-16213327D01*
G01X12253020Y-16217722D01*
G01X12253020Y-16217722D01*
G01X12267417Y-16288645D01*
G01X12274809Y-16355174D01*
G01X12277533Y-16404490D01*
G01X12277922Y-16423777D01*
G01X12277922Y-16423777D01*
G01X12277922Y-16423777D01*
G01X12274248Y-16505965D01*
G01X12265888Y-16573039D01*
G01X12256833Y-16620580D01*
G01X12251076Y-16644167D01*
G01X12250579Y-16645945D01*
G01X12250579Y-16645945D01*
G01X12223283Y-16719075D01*
G01X12195642Y-16771585D01*
G01X12177659Y-16799116D01*
G01X12175383Y-16802195D01*
G01X12175383Y-16802195D01*
G01X12123348Y-16854367D01*
G01X12078371Y-16884762D01*
G01X12060637Y-16893992D01*
G01X12060637Y-16893992D01*
G01X11992022Y-16915214D01*
G01X11936690Y-16922801D01*
G01X11915618Y-16923777D01*
G01X11915618Y-16923777D01*
G01X11846393Y-16918230D01*
G01X11799843Y-16909935D01*
G01X11794036Y-16908640D01*
G01X11794036Y-16908640D01*
G01X11728377Y-16886930D01*
G01X11678204Y-16864053D01*
G01X11661711Y-16855418D01*
G01X11617766Y-16992136D01*
G01X11617766Y-16992136D01*
G01X11684968Y-17024188D01*
G01X11740182Y-17043723D01*
G01X11766320Y-17051127D01*
G01X11766692Y-17051218D01*
G01X11766692Y-17051218D01*
G01X11837958Y-17063730D01*
G01X11899125Y-17069043D01*
G01X11933504Y-17070242D01*
G01X11936125Y-17070261D01*
G01X11936125Y-17070261D01*
G01X12014418Y-17064158D01*
G01X12079070Y-17050730D01*
G01X12123030Y-17037302D01*
G01X12139250Y-17031199D01*
G01X12139250Y-17031199D01*
G01X12139250Y-17031199D01*
G01X12203490Y-16996256D01*
G01X12254363Y-16957468D01*
G01X12287840Y-16926005D01*
G01X12299895Y-16913035D01*
G01X12299895Y-16913035D01*
G01X12299895Y-16913035D01*
G01X12340398Y-16856346D01*
G01X12371879Y-16797723D01*
G01X12393685Y-16747710D01*
G01X12405159Y-16716851D01*
G01X12406829Y-16711863D01*
G01X12406829Y-16711863D01*
G01X12424353Y-16642898D01*
G01X12435651Y-16572737D01*
G01X12442089Y-16508727D01*
G01X12445034Y-16458215D01*
G01X12445852Y-16428548D01*
G01X12445891Y-16423777D01*
G37*
G36*
G01X11445891Y-16424265D02*
G01X11445891Y-16424265D01*
G01X11442294Y-16326595D01*
G01X11432642Y-16239628D01*
G01X11418642Y-16163541D01*
G01X11402002Y-16098509D01*
G01X11384431Y-16044707D01*
G01X11367636Y-16002311D01*
G01X11353326Y-15971496D01*
G01X11343207Y-15952438D01*
G01X11338989Y-15945312D01*
G01X11338957Y-15945261D01*
G01X11338957Y-15945261D01*
G01X11289679Y-15884486D01*
G01X11234761Y-15840599D01*
G01X11178841Y-15810851D01*
G01X11126559Y-15792494D01*
G01X11082552Y-15782778D01*
G01X11051459Y-15778953D01*
G01X11037919Y-15778271D01*
G01X11037688Y-15778269D01*
G01X11037688Y-15778269D01*
G01X10960601Y-15787172D01*
G01X10894394Y-15810214D01*
G01X10839325Y-15841897D01*
G01X10795651Y-15876722D01*
G01X10763628Y-15909191D01*
G01X10743515Y-15933804D01*
G01X10735569Y-15945064D01*
G01X10735442Y-15945261D01*
G01X10735442Y-15945261D01*
G01X10704181Y-16005025D01*
G01X10679767Y-16071667D01*
G01X10661353Y-16141537D01*
G01X10648093Y-16210987D01*
G01X10639140Y-16276365D01*
G01X10633649Y-16334023D01*
G01X10630774Y-16380310D01*
G01X10629668Y-16411576D01*
G01X10629485Y-16424172D01*
G01X10629485Y-16424265D01*
G01X10629485Y-16424265D01*
G01X10633049Y-16521936D01*
G01X10642613Y-16608902D01*
G01X10656485Y-16684989D01*
G01X10672973Y-16750022D01*
G01X10690384Y-16803824D01*
G01X10707025Y-16846220D01*
G01X10721205Y-16877035D01*
G01X10731231Y-16896093D01*
G01X10735410Y-16903219D01*
G01X10735442Y-16903269D01*
G01X10735442Y-16903269D01*
G01X10784469Y-16964045D01*
G01X10839400Y-17007932D01*
G01X10895516Y-17037679D01*
G01X10948099Y-17056036D01*
G01X10992429Y-17065753D01*
G01X11023787Y-17069577D01*
G01X11037455Y-17070260D01*
G01X11037688Y-17070261D01*
G01X11037688Y-17070261D01*
G01X11114116Y-17061359D01*
G01X11179944Y-17038317D01*
G01X11234851Y-17006633D01*
G01X11278514Y-16971808D01*
G01X11310613Y-16939340D01*
G01X11330825Y-16914726D01*
G01X11338829Y-16903467D01*
G01X11338957Y-16903269D01*
G01X11338957Y-16903269D01*
G01X11370506Y-16843506D01*
G01X11395145Y-16776864D01*
G01X11413729Y-16706993D01*
G01X11427112Y-16637544D01*
G01X11436147Y-16572165D01*
G01X11441688Y-16514508D01*
G01X11444590Y-16468221D01*
G01X11445706Y-16436954D01*
G01X11445891Y-16424358D01*
G01X11445891Y-16424265D01*
G37*
%LPC*%
G36*
G01X11277922Y-16424265D02*
G01X11277922Y-16424265D01*
G01X11275876Y-16500189D01*
G01X11271453Y-16563163D01*
G01X11267228Y-16604797D01*
G01X11265715Y-16617136D01*
G01X11265715Y-16617136D01*
G01X11251153Y-16693645D01*
G01X11235348Y-16748891D01*
G01X11226070Y-16774846D01*
G01X11225676Y-16775828D01*
G01X11225676Y-16775828D01*
G01X11189631Y-16840474D01*
G01X11158993Y-16876988D01*
G01X11151946Y-16883738D01*
G01X11151946Y-16883738D01*
G01X11090423Y-16915554D01*
G01X11043803Y-16923544D01*
G01X11037688Y-16923777D01*
G01X11037688Y-16923777D01*
G01X10966548Y-16909104D01*
G01X10927755Y-16887163D01*
G01X10923430Y-16883738D01*
G01X10923430Y-16883738D01*
G01X10879468Y-16831288D01*
G01X10854374Y-16786233D01*
G01X10849700Y-16775828D01*
G01X10849700Y-16775828D01*
G01X10828219Y-16709481D01*
G01X10815136Y-16650237D01*
G01X10809841Y-16618432D01*
G01X10809661Y-16617136D01*
G01X10809661Y-16617136D01*
G01X10802400Y-16546010D01*
G01X10798804Y-16482275D01*
G01X10797584Y-16437877D01*
G01X10797454Y-16424265D01*
G01X10797454Y-16424265D01*
G01X10799500Y-16348260D01*
G01X10803923Y-16285108D01*
G01X10808148Y-16243306D01*
G01X10809661Y-16230906D01*
G01X10809661Y-16230906D01*
G01X10824223Y-16154070D01*
G01X10840027Y-16098690D01*
G01X10849305Y-16072709D01*
G01X10849700Y-16071726D01*
G01X10849700Y-16071726D01*
G01X10885745Y-16007080D01*
G01X10916383Y-15970566D01*
G01X10923430Y-15963816D01*
G01X10923430Y-15963816D01*
G01X10984953Y-15932000D01*
G01X11031573Y-15924011D01*
G01X11037688Y-15923777D01*
G01X11037688Y-15923777D01*
G01X11108828Y-15938450D01*
G01X11147621Y-15960391D01*
G01X11151946Y-15963816D01*
G01X11151946Y-15963816D01*
G01X11195908Y-16016266D01*
G01X11221002Y-16061321D01*
G01X11225676Y-16071726D01*
G01X11225676Y-16071726D01*
G01X11247157Y-16138185D01*
G01X11260240Y-16197647D01*
G01X11265535Y-16229603D01*
G01X11265715Y-16230906D01*
G01X11265715Y-16230906D01*
G01X11272976Y-16302323D01*
G01X11276572Y-16366202D01*
G01X11277792Y-16410649D01*
G01X11277922Y-16424265D01*
G37*
%LPD*%
G36*
G01X11149993Y-16401804D02*
G01X11149993Y-16401804D01*
G01X11133396Y-16335085D01*
G01X11117766Y-16309519D01*
G01X11117766Y-16309519D01*
G01X11060680Y-16273637D01*
G01X11033782Y-16269480D01*
G01X11033782Y-16269480D01*
G01X10971329Y-16291897D01*
G01X10952727Y-16309519D01*
G01X10952727Y-16309519D01*
G01X10925153Y-16371754D01*
G01X10921477Y-16401804D01*
G01X10921477Y-16401804D01*
G01X10938039Y-16468457D01*
G01X10952727Y-16492136D01*
G01X10952727Y-16492136D01*
G01X11009755Y-16526752D01*
G01X11033782Y-16530222D01*
G01X11033782Y-16530222D01*
G01X11097728Y-16509468D01*
G01X11117766Y-16492136D01*
G01X11117766Y-16492136D01*
G01X11146429Y-16430573D01*
G01X11149993Y-16401804D01*
G37*
G36*
G01X23679658Y-7484424D02*
G01X23679658Y-6264698D01*
G01X23679658Y-6264698D01*
G01X23618854Y-6251923D01*
G01X23610810Y-6250537D01*
G01X23610810Y-6250537D01*
G01X23545864Y-6242488D01*
G01X23531221Y-6241260D01*
G01X23531221Y-6241260D01*
G01X23465367Y-6237170D01*
G01X23450166Y-6236377D01*
G01X23450166Y-6236377D01*
G01X23385942Y-6234477D01*
G01X23377900Y-6234424D01*
G01X23377900Y-6234424D01*
G01X23284724Y-6240386D01*
G01X23206505Y-6255623D01*
G01X23143301Y-6276160D01*
G01X23095174Y-6298022D01*
G01X23062181Y-6317234D01*
G01X23044382Y-6329821D01*
G01X23040986Y-6332569D01*
G01X23040986Y-6332569D01*
G01X22994847Y-6385808D01*
G01X22963324Y-6446581D01*
G01X22943633Y-6507795D01*
G01X22932990Y-6562358D01*
G01X22928611Y-6603178D01*
G01X22927712Y-6623163D01*
G01X22927705Y-6624073D01*
G01X22927705Y-6624073D01*
G01X22936423Y-6700790D01*
G01X22955933Y-6763116D01*
G01X22976275Y-6806110D01*
G01X22987483Y-6824831D01*
G01X22987763Y-6825244D01*
G01X22987763Y-6825244D01*
G01X23036342Y-6880951D01*
G01X23087572Y-6922429D01*
G01X23129427Y-6948948D01*
G01X23149878Y-6959781D01*
G01X23150361Y-6960010D01*
G01X23082978Y-7069385D01*
G01X23007783Y-7199268D01*
G01X22932588Y-7341846D01*
G01X22932588Y-7341846D01*
G01X22899595Y-7408814D01*
G01X22875194Y-7460519D01*
G01X22864377Y-7484095D01*
G01X22864228Y-7484424D01*
G01X23040010Y-7484424D01*
G01X23040010Y-7484424D01*
G01X23070999Y-7412780D01*
G01X23101573Y-7346653D01*
G01X23129285Y-7289612D01*
G01X23151689Y-7245227D01*
G01X23166337Y-7217068D01*
G01X23170869Y-7208545D01*
G01X23170869Y-7208545D01*
G01X23212463Y-7135440D01*
G01X23249791Y-7075928D01*
G01X23279994Y-7031533D01*
G01X23300213Y-7003780D01*
G01X23307588Y-6994190D01*
G01X23307588Y-6994190D01*
G01X23307588Y-6994190D01*
G01X23342744Y-6996143D01*
G01X23373994Y-6996143D01*
G01X23513642Y-6996143D01*
G01X23513642Y-7484424D01*
G01X23679658Y-7484424D01*
G37*
%LPC*%
G36*
G01X23513642Y-6860401D02*
G01X23408174Y-6860401D01*
G01X23408174Y-6860401D01*
G01X23333021Y-6857103D01*
G01X23286627Y-6851845D01*
G01X23278779Y-6850635D01*
G01X23278779Y-6850635D01*
G01X23210405Y-6829390D01*
G01X23180830Y-6813654D01*
G01X23180635Y-6813526D01*
G01X23180635Y-6813526D01*
G01X23133129Y-6765258D01*
G01X23117646Y-6739307D01*
G01X23117646Y-6739307D01*
G01X23100420Y-6675744D01*
G01X23095849Y-6624557D01*
G01X23095674Y-6616260D01*
G01X23095674Y-6616260D01*
G01X23104046Y-6540606D01*
G01X23116139Y-6501541D01*
G01X23117646Y-6498096D01*
G01X23117646Y-6498096D01*
G01X23157710Y-6441629D01*
G01X23175752Y-6425342D01*
G01X23175752Y-6425342D01*
G01X23235705Y-6394813D01*
G01X23260713Y-6387256D01*
G01X23260713Y-6387256D01*
G01X23328379Y-6377605D01*
G01X23363970Y-6376026D01*
G01X23364228Y-6376026D01*
G01X23364228Y-6376026D01*
G01X23432444Y-6376616D01*
G01X23453096Y-6377002D01*
G01X23453096Y-6377002D01*
G01X23512080Y-6382481D01*
G01X23513642Y-6382862D01*
G01X23513642Y-6860401D01*
G37*
%LPD*%
G36*
G01X22639619Y-6502002D02*
G01X22639619Y-6502002D01*
G01X22571498Y-6472107D01*
G01X22511712Y-6441619D01*
G01X22466891Y-6416457D01*
G01X22443665Y-6402537D01*
G01X22441865Y-6401416D01*
G01X22441865Y-6401416D01*
G01X22381157Y-6357865D01*
G01X22328898Y-6312624D01*
G01X22289423Y-6273927D01*
G01X22267069Y-6250012D01*
G01X22263642Y-6246143D01*
G01X22148408Y-6246143D01*
G01X22148408Y-7344776D01*
G01X21914033Y-7344776D01*
G01X21914033Y-7484424D01*
G01X22580049Y-7484424D01*
G01X22580049Y-7344776D01*
G01X22312471Y-7344776D01*
G01X22312471Y-6476612D01*
G01X22312471Y-6476612D01*
G01X22360536Y-6513553D01*
G01X22365693Y-6517139D01*
G01X22365693Y-6517139D01*
G01X22420820Y-6551259D01*
G01X22433076Y-6558155D01*
G01X22433076Y-6558155D01*
G01X22492540Y-6588240D01*
G01X22509736Y-6596240D01*
G01X22509736Y-6596240D01*
G01X22571892Y-6620744D01*
G01X22587861Y-6626026D01*
G37*
G36*
G01X24399082Y-18595381D02*
G01X25618809Y-18595381D01*
G01X25618809Y-18595381D01*
G01X25631583Y-18534577D01*
G01X25632969Y-18526533D01*
G01X25632969Y-18526533D01*
G01X25641018Y-18461587D01*
G01X25642246Y-18446944D01*
G01X25642246Y-18446944D01*
G01X25646336Y-18381090D01*
G01X25647129Y-18365889D01*
G01X25647129Y-18365889D01*
G01X25649029Y-18301665D01*
G01X25649082Y-18293623D01*
G01X25649082Y-18293623D01*
G01X25643120Y-18200447D01*
G01X25627883Y-18122228D01*
G01X25607346Y-18059024D01*
G01X25585484Y-18010897D01*
G01X25566273Y-17977904D01*
G01X25553686Y-17960105D01*
G01X25550937Y-17956709D01*
G01X25550937Y-17956709D01*
G01X25497698Y-17910570D01*
G01X25436925Y-17879047D01*
G01X25375711Y-17859356D01*
G01X25321148Y-17848713D01*
G01X25280328Y-17844334D01*
G01X25260343Y-17843435D01*
G01X25259434Y-17843428D01*
G01X25259434Y-17843428D01*
G01X25182716Y-17852146D01*
G01X25120390Y-17871656D01*
G01X25077396Y-17891998D01*
G01X25058675Y-17903206D01*
G01X25058262Y-17903487D01*
G01X25058262Y-17903487D01*
G01X25002555Y-17952065D01*
G01X24961077Y-18003295D01*
G01X24934558Y-18045150D01*
G01X24923725Y-18065601D01*
G01X24923496Y-18066084D01*
G01X24814121Y-17998701D01*
G01X24684238Y-17923506D01*
G01X24541660Y-17848311D01*
G01X24541660Y-17848311D01*
G01X24474692Y-17815318D01*
G01X24422987Y-17790917D01*
G01X24399411Y-17780100D01*
G01X24399082Y-17779951D01*
G01X24399082Y-17955733D01*
G01X24399082Y-17955733D01*
G01X24470726Y-17986722D01*
G01X24536854Y-18017296D01*
G01X24593894Y-18045008D01*
G01X24638279Y-18067412D01*
G01X24666438Y-18082060D01*
G01X24674961Y-18086592D01*
G01X24674961Y-18086592D01*
G01X24748066Y-18128186D01*
G01X24807578Y-18165514D01*
G01X24851973Y-18195717D01*
G01X24879727Y-18215936D01*
G01X24889316Y-18223311D01*
G01X24889316Y-18223311D01*
G01X24889316Y-18223311D01*
G01X24887363Y-18258467D01*
G01X24887363Y-18289717D01*
G01X24887363Y-18429365D01*
G01X24399082Y-18429365D01*
G01X24399082Y-18595381D01*
G37*
%LPC*%
G36*
G01X25023105Y-18429365D02*
G01X25023105Y-18323897D01*
G01X25023105Y-18323897D01*
G01X25026403Y-18248744D01*
G01X25031661Y-18202350D01*
G01X25032871Y-18194502D01*
G01X25032871Y-18194502D01*
G01X25054116Y-18126128D01*
G01X25069852Y-18096553D01*
G01X25069980Y-18096358D01*
G01X25069980Y-18096358D01*
G01X25118248Y-18048852D01*
G01X25144199Y-18033369D01*
G01X25144199Y-18033369D01*
G01X25207762Y-18016143D01*
G01X25258949Y-18011572D01*
G01X25267246Y-18011397D01*
G01X25267246Y-18011397D01*
G01X25342900Y-18019769D01*
G01X25381965Y-18031862D01*
G01X25385410Y-18033369D01*
G01X25385410Y-18033369D01*
G01X25441877Y-18073433D01*
G01X25458164Y-18091475D01*
G01X25458164Y-18091475D01*
G01X25488693Y-18151428D01*
G01X25496250Y-18176436D01*
G01X25496250Y-18176436D01*
G01X25505901Y-18244102D01*
G01X25507480Y-18279693D01*
G01X25507480Y-18279951D01*
G01X25507480Y-18279951D01*
G01X25506890Y-18348167D01*
G01X25506504Y-18368819D01*
G01X25506504Y-18368819D01*
G01X25501025Y-18427803D01*
G01X25500645Y-18429365D01*
G01X25023105Y-18429365D01*
G37*
%LPD*%
G36*
G01X25517246Y-17591475D02*
G01X25517246Y-17591475D01*
G01X25557435Y-17548144D01*
G01X25561191Y-17543623D01*
G01X25561191Y-17543623D01*
G01X25598346Y-17488515D01*
G01X25610508Y-17466475D01*
G01X25610508Y-17466475D01*
G01X25637151Y-17402688D01*
G01X25648915Y-17365993D01*
G01X25649082Y-17365401D01*
G01X25649082Y-17365401D01*
G01X25661658Y-17296018D01*
G01X25664643Y-17250357D01*
G01X25664707Y-17245772D01*
G01X25664707Y-17245772D01*
G01X25657875Y-17155423D01*
G01X25640874Y-17082425D01*
G01X25618941Y-17026521D01*
G01X25597316Y-16987450D01*
G01X25581239Y-16964954D01*
G01X25575840Y-16958662D01*
G01X25575840Y-16958662D01*
G01X25518498Y-16915192D01*
G01X25454453Y-16887999D01*
G01X25393713Y-16873265D01*
G01X25346283Y-16867171D01*
G01X25322172Y-16865900D01*
G01X25320957Y-16865889D01*
G01X25320957Y-16865889D01*
G01X25249457Y-16874654D01*
G01X25203645Y-16888201D01*
G01X25196934Y-16890791D01*
G01X25196934Y-16890791D01*
G01X25132766Y-16923025D01*
G01X25088515Y-16950411D01*
G01X25079258Y-16956709D01*
G01X25079258Y-16956709D01*
G01X25021426Y-17001044D01*
G01X24979081Y-17037196D01*
G01X24965488Y-17049483D01*
G01X24855137Y-17155928D01*
G01X24782871Y-17225264D01*
G01X24782871Y-17225264D01*
G01X24730217Y-17273102D01*
G01X24698753Y-17299931D01*
G01X24696934Y-17301436D01*
G01X24696934Y-17301436D01*
G01X24639430Y-17343734D01*
G01X24611195Y-17361380D01*
G01X24610996Y-17361494D01*
G01X24610996Y-17361494D01*
G01X24548500Y-17384480D01*
G01X24538730Y-17385420D01*
G01X24538730Y-16816084D01*
G01X24399082Y-16816084D01*
G01X24399082Y-17566084D01*
G01X24399082Y-17566084D01*
G01X24420566Y-17568037D01*
G01X24441074Y-17568037D01*
G01X24441074Y-17568037D01*
G01X24515997Y-17561193D01*
G01X24571708Y-17548085D01*
G01X24596495Y-17539849D01*
G01X24596836Y-17539717D01*
G01X24596836Y-17539717D01*
G01X24663450Y-17508716D01*
G01X24712959Y-17480350D01*
G01X24733047Y-17467464D01*
G01X24733066Y-17467451D01*
G01X24733066Y-17467451D01*
G01X24790941Y-17424108D01*
G01X24834416Y-17387028D01*
G01X24853891Y-17369077D01*
G01X24854160Y-17368819D01*
G01X24965488Y-17259444D01*
G01X25051426Y-17174483D01*
G01X25051426Y-17174483D01*
G01X25105288Y-17126386D01*
G01X25134625Y-17103285D01*
G01X25135410Y-17102705D01*
G01X25135410Y-17102705D01*
G01X25194614Y-17066267D01*
G01X25222324Y-17052901D01*
G01X25222324Y-17052901D01*
G01X25222324Y-17052901D01*
G01X25288659Y-17035835D01*
G01X25315098Y-17033858D01*
G01X25315098Y-17033858D01*
G01X25384904Y-17043426D01*
G01X25406895Y-17050947D01*
G01X25406895Y-17050947D01*
G01X25460748Y-17087536D01*
G01X25469883Y-17096846D01*
G01X25469883Y-17096846D01*
G01X25502485Y-17151775D01*
G01X25506992Y-17163740D01*
G01X25506992Y-17163740D01*
G01X25518475Y-17228674D01*
G01X25519199Y-17245772D01*
G01X25519199Y-17245772D01*
G01X25511483Y-17315572D01*
G01X25505039Y-17340498D01*
G01X25505039Y-17340498D01*
G01X25478813Y-17402233D01*
G01X25470859Y-17416670D01*
G01X25470859Y-17416670D01*
G01X25435606Y-17468855D01*
G01X25431797Y-17473799D01*
G01X25431797Y-17473799D01*
G01X25401035Y-17509444D01*
G37*
G36*
G01X5195923Y-12015381D02*
G01X5195923Y-10795655D01*
G01X5195923Y-10795655D01*
G01X5135119Y-10782880D01*
G01X5127075Y-10781494D01*
G01X5127075Y-10781494D01*
G01X5062129Y-10773445D01*
G01X5047486Y-10772217D01*
G01X5047486Y-10772217D01*
G01X4981632Y-10768127D01*
G01X4966431Y-10767334D01*
G01X4966431Y-10767334D01*
G01X4902207Y-10765434D01*
G01X4894165Y-10765381D01*
G01X4894165Y-10765381D01*
G01X4800989Y-10771343D01*
G01X4722770Y-10786580D01*
G01X4659566Y-10807117D01*
G01X4611439Y-10828979D01*
G01X4578446Y-10848191D01*
G01X4560647Y-10860778D01*
G01X4557251Y-10863526D01*
G01X4557251Y-10863526D01*
G01X4511112Y-10916765D01*
G01X4479589Y-10977538D01*
G01X4459898Y-11038752D01*
G01X4449255Y-11093315D01*
G01X4444876Y-11134135D01*
G01X4443977Y-11154120D01*
G01X4443970Y-11155030D01*
G01X4443970Y-11155030D01*
G01X4452688Y-11231747D01*
G01X4472198Y-11294073D01*
G01X4492540Y-11337067D01*
G01X4503748Y-11355788D01*
G01X4504028Y-11356201D01*
G01X4504028Y-11356201D01*
G01X4552607Y-11411908D01*
G01X4603837Y-11453386D01*
G01X4645692Y-11479905D01*
G01X4666143Y-11490738D01*
G01X4666626Y-11490967D01*
G01X4599243Y-11600342D01*
G01X4524048Y-11730225D01*
G01X4448853Y-11872803D01*
G01X4448853Y-11872803D01*
G01X4415860Y-11939771D01*
G01X4391459Y-11991476D01*
G01X4380642Y-12015052D01*
G01X4380493Y-12015381D01*
G01X4556275Y-12015381D01*
G01X4556275Y-12015381D01*
G01X4587264Y-11943737D01*
G01X4617838Y-11877610D01*
G01X4645550Y-11820569D01*
G01X4667954Y-11776184D01*
G01X4682602Y-11748025D01*
G01X4687134Y-11739502D01*
G01X4687134Y-11739502D01*
G01X4728728Y-11666397D01*
G01X4766056Y-11606885D01*
G01X4796259Y-11562490D01*
G01X4816478Y-11534737D01*
G01X4823853Y-11525147D01*
G01X4823853Y-11525147D01*
G01X4823853Y-11525147D01*
G01X4859009Y-11527100D01*
G01X4890259Y-11527100D01*
G01X5029907Y-11527100D01*
G01X5029907Y-12015381D01*
G01X5195923Y-12015381D01*
G37*
%LPC*%
G36*
G01X5029907Y-11391358D02*
G01X4924439Y-11391358D01*
G01X4924439Y-11391358D01*
G01X4849286Y-11388060D01*
G01X4802892Y-11382802D01*
G01X4795044Y-11381592D01*
G01X4795044Y-11381592D01*
G01X4726670Y-11360347D01*
G01X4697095Y-11344611D01*
G01X4696900Y-11344483D01*
G01X4696900Y-11344483D01*
G01X4649394Y-11296215D01*
G01X4633911Y-11270264D01*
G01X4633911Y-11270264D01*
G01X4616685Y-11206701D01*
G01X4612114Y-11155514D01*
G01X4611939Y-11147217D01*
G01X4611939Y-11147217D01*
G01X4620311Y-11071563D01*
G01X4632404Y-11032498D01*
G01X4633911Y-11029053D01*
G01X4633911Y-11029053D01*
G01X4673975Y-10972586D01*
G01X4692017Y-10956299D01*
G01X4692017Y-10956299D01*
G01X4751970Y-10925770D01*
G01X4776978Y-10918213D01*
G01X4776978Y-10918213D01*
G01X4844644Y-10908562D01*
G01X4880235Y-10906983D01*
G01X4880493Y-10906983D01*
G01X4880493Y-10906983D01*
G01X4948709Y-10907573D01*
G01X4969361Y-10907959D01*
G01X4969361Y-10907959D01*
G01X5028345Y-10913438D01*
G01X5029907Y-10913819D01*
G01X5029907Y-11391358D01*
G37*
%LPD*%
G36*
G01X4188111Y-11977295D02*
G01X4155884Y-11835694D01*
G01X4155884Y-11835694D01*
G01X4098000Y-11858529D01*
G01X4055119Y-11872884D01*
G01X4053833Y-11873291D01*
G01X4053833Y-11873291D01*
G01X3988330Y-11887400D01*
G01X3926317Y-11893636D01*
G01X3887303Y-11895216D01*
G01X3882446Y-11895264D01*
G01X3882446Y-11895264D01*
G01X3791030Y-11887459D01*
G01X3724571Y-11869411D01*
G01X3681507Y-11849169D01*
G01X3660281Y-11834779D01*
G01X3657349Y-11832276D01*
G01X3657349Y-11832276D01*
G01X3616477Y-11774877D01*
G01X3596966Y-11716369D01*
G01X3590913Y-11674226D01*
G01X3590454Y-11663819D01*
G01X3590454Y-11663819D01*
G01X3601467Y-11589957D01*
G01X3616803Y-11552195D01*
G01X3618286Y-11549561D01*
G01X3618286Y-11549561D01*
G01X3663778Y-11496805D01*
G01X3691801Y-11475477D01*
G01X3692017Y-11475342D01*
G01X3692017Y-11475342D01*
G01X3754505Y-11447185D01*
G01X3795508Y-11435818D01*
G01X3797974Y-11435303D01*
G01X3797974Y-11435303D01*
G01X3868435Y-11426115D01*
G01X3917052Y-11423678D01*
G01X3924439Y-11423584D01*
G01X3966431Y-11423584D01*
G01X3966431Y-11289795D01*
G01X3907837Y-11289795D01*
G01X3907837Y-11289795D01*
G01X3840955Y-11284463D01*
G01X3817017Y-11280518D01*
G01X3817017Y-11280518D01*
G01X3751962Y-11258896D01*
G01X3731079Y-11248291D01*
G01X3731079Y-11248291D01*
G01X3681238Y-11203691D01*
G01X3668091Y-11185303D01*
G01X3668091Y-11185303D01*
G01X3647529Y-11121977D01*
G01X3644167Y-11084030D01*
G01X3644165Y-11083740D01*
G01X3644165Y-11083740D01*
G01X3658572Y-11005603D01*
G01X3686780Y-10958350D01*
G01X3706271Y-10939365D01*
G01X3707153Y-10938721D01*
G01X3707153Y-10938721D01*
G01X3772599Y-10908334D01*
G01X3829127Y-10896972D01*
G01X3854101Y-10895264D01*
G01X3854126Y-10895264D01*
G01X3854126Y-10895264D01*
G01X3931464Y-10901943D01*
G01X3982792Y-10914148D01*
G01X4000122Y-10920166D01*
G01X4000122Y-10920166D01*
G01X4067215Y-10952138D01*
G01X4099039Y-10970673D01*
G01X4100220Y-10971436D01*
G01X4164673Y-10845459D01*
G01X4164673Y-10845459D01*
G01X4108584Y-10813455D01*
G01X4054894Y-10789394D01*
G01X4037720Y-10782471D01*
G01X4037720Y-10782471D01*
G01X3969669Y-10763013D01*
G01X3906776Y-10753374D01*
G01X3862118Y-10750104D01*
G01X3848267Y-10749756D01*
G01X3848267Y-10749756D01*
G01X3768919Y-10754924D01*
G01X3711298Y-10765260D01*
G01X3682364Y-10773012D01*
G01X3680298Y-10773682D01*
G01X3680298Y-10773682D01*
G01X3612213Y-10806120D01*
G01X3572556Y-10834843D01*
G01X3565064Y-10841553D01*
G01X3565064Y-10841553D01*
G01X3521316Y-10898124D01*
G01X3500311Y-10939270D01*
G01X3498169Y-10944580D01*
G01X3498169Y-10944580D01*
G01X3481184Y-11013664D01*
G01X3476430Y-11063778D01*
G01X3476196Y-11072998D01*
G01X3476196Y-11072998D01*
G01X3486631Y-11149615D01*
G01X3507931Y-11205732D01*
G01X3525092Y-11235634D01*
G01X3527466Y-11239014D01*
G01X3527466Y-11239014D01*
G01X3578236Y-11291731D01*
G01X3626712Y-11326412D01*
G01X3655571Y-11342426D01*
G01X3657837Y-11343506D01*
G01X3657837Y-11343506D01*
G01X3591599Y-11372467D01*
G01X3539185Y-11408570D01*
G01X3504715Y-11439362D01*
G01X3492310Y-11452393D01*
G01X3492310Y-11452393D01*
G01X3492310Y-11452393D01*
G01X3455621Y-11511424D01*
G01X3434748Y-11574123D01*
G01X3425230Y-11628415D01*
G01X3422606Y-11662229D01*
G01X3422486Y-11667725D01*
G01X3422486Y-11667725D01*
G01X3429329Y-11741263D01*
G01X3442139Y-11795039D01*
G01X3449333Y-11816630D01*
G01X3449341Y-11816651D01*
G01X3449341Y-11816651D01*
G01X3484367Y-11880623D01*
G01X3518729Y-11922686D01*
G01X3531372Y-11935303D01*
G01X3531372Y-11935303D01*
G01X3588301Y-11975224D01*
G01X3642322Y-12001535D01*
G01X3672225Y-12013014D01*
G01X3673462Y-12013428D01*
G01X3673462Y-12013428D01*
G01X3739658Y-12029316D01*
G01X3804612Y-12037766D01*
G01X3855607Y-12041127D01*
G01X3879927Y-12041746D01*
G01X3880493Y-12041748D01*
G01X3880493Y-12041748D01*
G01X3948235Y-12037757D01*
G01X3975220Y-12034424D01*
G01X3975220Y-12034424D01*
G01X4042806Y-12021798D01*
G01X4066040Y-12016358D01*
G01X4066040Y-12016358D01*
G01X4129465Y-11998205D01*
G01X4141236Y-11994385D01*
G01X4141236Y-11994385D01*
G01X4188111Y-11977295D01*
G37*
G36*
G01X29808901Y-18599776D02*
G01X31028628Y-18599776D01*
G01X31028628Y-18599776D01*
G01X31041402Y-18538972D01*
G01X31042788Y-18530928D01*
G01X31042788Y-18530928D01*
G01X31050837Y-18465982D01*
G01X31052065Y-18451339D01*
G01X31052065Y-18451339D01*
G01X31056155Y-18385485D01*
G01X31056948Y-18370284D01*
G01X31056948Y-18370284D01*
G01X31058848Y-18306060D01*
G01X31058901Y-18298018D01*
G01X31058901Y-18298018D01*
G01X31052939Y-18204842D01*
G01X31037702Y-18126623D01*
G01X31017165Y-18063419D01*
G01X30995303Y-18015292D01*
G01X30976092Y-17982299D01*
G01X30963505Y-17964500D01*
G01X30960756Y-17961104D01*
G01X30960756Y-17961104D01*
G01X30907517Y-17914965D01*
G01X30846744Y-17883442D01*
G01X30785530Y-17863751D01*
G01X30730967Y-17853108D01*
G01X30690147Y-17848729D01*
G01X30670162Y-17847830D01*
G01X30669253Y-17847823D01*
G01X30669253Y-17847823D01*
G01X30592535Y-17856541D01*
G01X30530209Y-17876051D01*
G01X30487215Y-17896393D01*
G01X30468494Y-17907601D01*
G01X30468081Y-17907882D01*
G01X30468081Y-17907882D01*
G01X30412374Y-17956460D01*
G01X30370896Y-18007690D01*
G01X30344377Y-18049545D01*
G01X30333544Y-18069996D01*
G01X30333315Y-18070479D01*
G01X30223940Y-18003096D01*
G01X30094057Y-17927901D01*
G01X29951479Y-17852706D01*
G01X29951479Y-17852706D01*
G01X29884511Y-17819713D01*
G01X29832806Y-17795312D01*
G01X29809230Y-17784495D01*
G01X29808901Y-17784346D01*
G01X29808901Y-17960128D01*
G01X29808901Y-17960128D01*
G01X29880545Y-17991117D01*
G01X29946673Y-18021691D01*
G01X30003713Y-18049403D01*
G01X30048098Y-18071807D01*
G01X30076257Y-18086455D01*
G01X30084780Y-18090987D01*
G01X30084780Y-18090987D01*
G01X30157885Y-18132581D01*
G01X30217397Y-18169909D01*
G01X30261792Y-18200112D01*
G01X30289546Y-18220331D01*
G01X30299135Y-18227706D01*
G01X30299135Y-18227706D01*
G01X30299135Y-18227706D01*
G01X30297182Y-18262862D01*
G01X30297182Y-18294112D01*
G01X30297182Y-18433760D01*
G01X29808901Y-18433760D01*
G01X29808901Y-18599776D01*
G37*
%LPC*%
G36*
G01X30432924Y-18433760D02*
G01X30432924Y-18328292D01*
G01X30432924Y-18328292D01*
G01X30436222Y-18253139D01*
G01X30441480Y-18206745D01*
G01X30442690Y-18198897D01*
G01X30442690Y-18198897D01*
G01X30463935Y-18130523D01*
G01X30479671Y-18100948D01*
G01X30479799Y-18100753D01*
G01X30479799Y-18100753D01*
G01X30528067Y-18053247D01*
G01X30554018Y-18037764D01*
G01X30554018Y-18037764D01*
G01X30617581Y-18020538D01*
G01X30668768Y-18015967D01*
G01X30677065Y-18015792D01*
G01X30677065Y-18015792D01*
G01X30752719Y-18024164D01*
G01X30791784Y-18036257D01*
G01X30795229Y-18037764D01*
G01X30795229Y-18037764D01*
G01X30851696Y-18077828D01*
G01X30867983Y-18095870D01*
G01X30867983Y-18095870D01*
G01X30898512Y-18155823D01*
G01X30906069Y-18180831D01*
G01X30906069Y-18180831D01*
G01X30915720Y-18248497D01*
G01X30917299Y-18284088D01*
G01X30917299Y-18284346D01*
G01X30917299Y-18284346D01*
G01X30916709Y-18352562D01*
G01X30916323Y-18373214D01*
G01X30916323Y-18373214D01*
G01X30910844Y-18432198D01*
G01X30910464Y-18433760D01*
G01X30432924Y-18433760D01*
G37*
%LPD*%
G36*
G01X30120424Y-17608565D02*
G01X30120424Y-17608565D01*
G01X30197488Y-17598824D01*
G01X30258573Y-17577770D01*
G01X30297604Y-17557659D01*
G01X30308901Y-17550460D01*
G01X30308901Y-17550460D01*
G01X30367952Y-17500598D01*
G01X30410832Y-17453176D01*
G01X30435464Y-17420249D01*
G01X30440737Y-17412276D01*
G01X30440737Y-17412276D01*
G01X30489710Y-17477845D01*
G01X30546434Y-17523915D01*
G01X30604820Y-17553927D01*
G01X30658776Y-17571323D01*
G01X30702212Y-17579543D01*
G01X30729036Y-17582028D01*
G01X30734682Y-17582198D01*
G01X30734682Y-17582198D01*
G01X30806808Y-17573827D01*
G01X30855107Y-17560075D01*
G01X30865053Y-17556319D01*
G01X30865053Y-17556319D01*
G01X30927132Y-17520972D01*
G01X30965444Y-17489475D01*
G01X30972964Y-17482100D01*
G01X30972964Y-17482100D01*
G01X31015054Y-17426089D01*
G01X31040362Y-17379144D01*
G01X31046694Y-17364913D01*
G01X31046694Y-17364913D01*
G01X31065775Y-17296945D01*
G01X31073228Y-17238733D01*
G01X31074524Y-17210534D01*
G01X31074526Y-17210128D01*
G01X31074526Y-17210128D01*
G01X31068464Y-17131661D01*
G01X31056090Y-17073772D01*
G01X31046120Y-17042749D01*
G01X31044741Y-17039229D01*
G01X31044741Y-17039229D01*
G01X31008913Y-16973643D01*
G01X30977702Y-16933966D01*
G01X30968081Y-16923995D01*
G01X30968081Y-16923995D01*
G01X30909898Y-16881739D01*
G01X30869237Y-16861999D01*
G01X30864077Y-16860030D01*
G01X30864077Y-16860030D01*
G01X30793612Y-16843341D01*
G01X30754798Y-16840030D01*
G01X30753237Y-16840010D01*
G01X30753237Y-16840010D01*
G01X30676992Y-16849097D01*
G01X30617676Y-16868735D01*
G01X30580336Y-16887494D01*
G01X30569643Y-16894210D01*
G01X30569643Y-16894210D01*
G01X30510766Y-16943122D01*
G01X30469801Y-16987311D01*
G01X30448891Y-17014415D01*
G01X30446596Y-17017745D01*
G01X30446596Y-17017745D01*
G01X30403163Y-16947378D01*
G01X30352003Y-16895188D01*
G01X30297572Y-16858461D01*
G01X30244324Y-16834478D01*
G01X30196711Y-16820525D01*
G01X30159189Y-16813884D01*
G01X30136212Y-16811840D01*
G01X30131167Y-16811690D01*
G01X30131167Y-16811690D01*
G01X30048856Y-16821065D01*
G01X29981042Y-16843751D01*
G01X29929210Y-16871590D01*
G01X29894848Y-16896424D01*
G01X29879442Y-16910093D01*
G01X29878725Y-16910811D01*
G01X29878725Y-16910811D01*
G01X29839547Y-16965052D01*
G01X29812779Y-17027617D01*
G01X29796059Y-17091008D01*
G01X29787022Y-17147724D01*
G01X29783303Y-17190264D01*
G01X29782540Y-17211130D01*
G01X29782534Y-17212081D01*
G01X29782534Y-17212081D01*
G01X29787773Y-17293888D01*
G01X29799096Y-17355551D01*
G01X29809912Y-17393360D01*
G01X29813784Y-17403975D01*
G01X29813784Y-17403975D01*
G01X29850209Y-17471669D01*
G01X29882471Y-17513217D01*
G01X29893862Y-17525069D01*
G01X29893862Y-17525069D01*
G01X29953284Y-17567374D01*
G01X29996112Y-17587178D01*
G01X30002749Y-17589522D01*
G01X30002749Y-17589522D01*
G01X30073043Y-17604850D01*
G01X30116225Y-17608487D01*
G01X30120424Y-17608565D01*
G37*
%LPC*%
G36*
G01X30118471Y-17448409D02*
G01X30118471Y-17448409D01*
G01X30057955Y-17438248D01*
G01X30051577Y-17436202D01*
G01X30051577Y-17436202D01*
G01X29996474Y-17404107D01*
G01X29987124Y-17396163D01*
G01X29987124Y-17396163D01*
G01X29948199Y-17342807D01*
G01X29938296Y-17322432D01*
G01X29938296Y-17322432D01*
G01X29922597Y-17257339D01*
G01X29919286Y-17212846D01*
G01X29919253Y-17210128D01*
G01X29919253Y-17210128D01*
G01X29926807Y-17137100D01*
G01X29935682Y-17103678D01*
G01X29935854Y-17103194D01*
G01X29935854Y-17103194D01*
G01X29968840Y-17043985D01*
G01X29981753Y-17028975D01*
G01X29981753Y-17028975D01*
G01X30035139Y-16991535D01*
G01X30047182Y-16986007D01*
G01X30047182Y-16986007D01*
G01X30109354Y-16972268D01*
G01X30118471Y-16971846D01*
G01X30118471Y-16971846D01*
G01X30196662Y-16985599D01*
G01X30252441Y-17015322D01*
G01X30284985Y-17043714D01*
G01X30293764Y-17053878D01*
G01X30293764Y-17053878D01*
G01X30328373Y-17111909D01*
G01X30355170Y-17174973D01*
G01X30373964Y-17231568D01*
G01X30384565Y-17270188D01*
G01X30387026Y-17280440D01*
G01X30387026Y-17280440D01*
G01X30343810Y-17342544D01*
G01X30302862Y-17383870D01*
G01X30278578Y-17403153D01*
G01X30276674Y-17404464D01*
G01X30276674Y-17404464D01*
G01X30211088Y-17433972D01*
G01X30151807Y-17445998D01*
G01X30119781Y-17448394D01*
G01X30118471Y-17448409D01*
G37*
G36*
G01X30749331Y-17420089D02*
G01X30749331Y-17420089D01*
G01X30680038Y-17407327D01*
G01X30626354Y-17381803D01*
G01X30598089Y-17362661D01*
G01X30596010Y-17361007D01*
G01X30596010Y-17361007D01*
G01X30552937Y-17310658D01*
G01X30521763Y-17251484D01*
G01X30501989Y-17198989D01*
G01X30493117Y-17168680D01*
G01X30492495Y-17166182D01*
G01X30492495Y-17166182D01*
G01X30537136Y-17103105D01*
G01X30576702Y-17061916D01*
G01X30596215Y-17045303D01*
G01X30596499Y-17045089D01*
G01X30596499Y-17045089D01*
G01X30658940Y-17014924D01*
G01X30718670Y-17002632D01*
G01X30751862Y-17000182D01*
G01X30753237Y-17000167D01*
G01X30753237Y-17000167D01*
G01X30809675Y-17011435D01*
G01X30812319Y-17012374D01*
G01X30812319Y-17012374D01*
G01X30865626Y-17044117D01*
G01X30871889Y-17049483D01*
G01X30871889Y-17049483D01*
G01X30910536Y-17100775D01*
G01X30917788Y-17114425D01*
G01X30917788Y-17114425D01*
G01X30934590Y-17178420D01*
G01X30936831Y-17210128D01*
G01X30936831Y-17210128D01*
G01X30927527Y-17281083D01*
G01X30918764Y-17306807D01*
G01X30918764Y-17306807D01*
G01X30883066Y-17362101D01*
G01X30873842Y-17372237D01*
G01X30873842Y-17372237D01*
G01X30821585Y-17406517D01*
G01X30814272Y-17409346D01*
G01X30814272Y-17409346D01*
G01X30754461Y-17419940D01*
G01X30749331Y-17420089D01*
G37*
%LPD*%
G36*
G01X23696747Y-12684424D02*
G01X23696747Y-11464698D01*
G01X23696747Y-11464698D01*
G01X23635943Y-11451923D01*
G01X23627899Y-11450537D01*
G01X23627899Y-11450537D01*
G01X23562953Y-11442488D01*
G01X23548310Y-11441260D01*
G01X23548310Y-11441260D01*
G01X23482456Y-11437170D01*
G01X23467255Y-11436377D01*
G01X23467255Y-11436377D01*
G01X23403031Y-11434477D01*
G01X23394989Y-11434424D01*
G01X23394989Y-11434424D01*
G01X23301813Y-11440386D01*
G01X23223594Y-11455623D01*
G01X23160390Y-11476160D01*
G01X23112263Y-11498022D01*
G01X23079270Y-11517234D01*
G01X23061471Y-11529821D01*
G01X23058075Y-11532569D01*
G01X23058075Y-11532569D01*
G01X23011936Y-11585808D01*
G01X22980413Y-11646581D01*
G01X22960722Y-11707795D01*
G01X22950079Y-11762358D01*
G01X22945700Y-11803178D01*
G01X22944801Y-11823163D01*
G01X22944794Y-11824073D01*
G01X22944794Y-11824073D01*
G01X22953512Y-11900790D01*
G01X22973022Y-11963116D01*
G01X22993364Y-12006110D01*
G01X23004572Y-12024831D01*
G01X23004852Y-12025244D01*
G01X23004852Y-12025244D01*
G01X23053431Y-12080951D01*
G01X23104661Y-12122429D01*
G01X23146516Y-12148948D01*
G01X23166967Y-12159781D01*
G01X23167450Y-12160010D01*
G01X23100067Y-12269385D01*
G01X23024872Y-12399268D01*
G01X22949677Y-12541846D01*
G01X22949677Y-12541846D01*
G01X22916684Y-12608814D01*
G01X22892283Y-12660519D01*
G01X22881466Y-12684095D01*
G01X22881317Y-12684424D01*
G01X23057099Y-12684424D01*
G01X23057099Y-12684424D01*
G01X23088088Y-12612780D01*
G01X23118662Y-12546653D01*
G01X23146374Y-12489612D01*
G01X23168778Y-12445227D01*
G01X23183426Y-12417068D01*
G01X23187958Y-12408545D01*
G01X23187958Y-12408545D01*
G01X23229552Y-12335440D01*
G01X23266880Y-12275928D01*
G01X23297083Y-12231533D01*
G01X23317302Y-12203780D01*
G01X23324677Y-12194190D01*
G01X23324677Y-12194190D01*
G01X23324677Y-12194190D01*
G01X23359833Y-12196143D01*
G01X23391083Y-12196143D01*
G01X23530731Y-12196143D01*
G01X23530731Y-12684424D01*
G01X23696747Y-12684424D01*
G37*
%LPC*%
G36*
G01X23530731Y-12060401D02*
G01X23425263Y-12060401D01*
G01X23425263Y-12060401D01*
G01X23350110Y-12057103D01*
G01X23303716Y-12051845D01*
G01X23295868Y-12050635D01*
G01X23295868Y-12050635D01*
G01X23227494Y-12029390D01*
G01X23197919Y-12013654D01*
G01X23197724Y-12013526D01*
G01X23197724Y-12013526D01*
G01X23150218Y-11965258D01*
G01X23134735Y-11939307D01*
G01X23134735Y-11939307D01*
G01X23117509Y-11875744D01*
G01X23112938Y-11824557D01*
G01X23112763Y-11816260D01*
G01X23112763Y-11816260D01*
G01X23121135Y-11740606D01*
G01X23133228Y-11701541D01*
G01X23134735Y-11698096D01*
G01X23134735Y-11698096D01*
G01X23174799Y-11641629D01*
G01X23192841Y-11625342D01*
G01X23192841Y-11625342D01*
G01X23252794Y-11594813D01*
G01X23277802Y-11587256D01*
G01X23277802Y-11587256D01*
G01X23345468Y-11577605D01*
G01X23381059Y-11576026D01*
G01X23381317Y-11576026D01*
G01X23381317Y-11576026D01*
G01X23449533Y-11576616D01*
G01X23470185Y-11577002D01*
G01X23470185Y-11577002D01*
G01X23529169Y-11582481D01*
G01X23530731Y-11582862D01*
G01X23530731Y-12060401D01*
G37*
%LPD*%
G36*
G01X22681122Y-11590674D02*
G01X22681122Y-11446143D01*
G01X21896942Y-11446143D01*
G01X21896942Y-11584815D01*
G01X21896942Y-11584815D01*
G01X21936955Y-11636341D01*
G01X21974910Y-11691077D01*
G01X22005627Y-11738480D01*
G01X22023928Y-11768005D01*
G01X22026825Y-11772803D01*
G01X22026825Y-11772803D01*
G01X22061776Y-11834492D01*
G01X22093816Y-11896064D01*
G01X22121304Y-11952325D01*
G01X22142600Y-11998077D01*
G01X22156062Y-12028126D01*
G01X22160126Y-12037451D01*
G01X22160126Y-12037451D01*
G01X22188930Y-12108770D01*
G01X22214401Y-12178567D01*
G01X22235831Y-12242248D01*
G01X22252511Y-12295215D01*
G01X22263735Y-12332873D01*
G01X22268794Y-12350627D01*
G01X22269013Y-12351416D01*
G01X22269013Y-12351416D01*
G01X22287436Y-12425940D01*
G01X22301699Y-12496989D01*
G01X22312258Y-12561223D01*
G01X22319567Y-12615299D01*
G01X22324082Y-12655875D01*
G01X22326256Y-12679609D01*
G01X22326630Y-12684424D01*
G01X22497528Y-12684424D01*
G01X22497528Y-12684424D01*
G01X22490156Y-12611552D01*
G01X22479439Y-12540842D01*
G01X22467537Y-12477505D01*
G01X22456609Y-12426751D01*
G01X22448813Y-12393791D01*
G01X22446259Y-12383643D01*
G01X22446259Y-12383643D01*
G01X22425401Y-12308592D01*
G01X22403881Y-12238524D01*
G01X22383510Y-12176848D01*
G01X22366099Y-12126970D01*
G01X22353462Y-12092299D01*
G01X22347410Y-12076243D01*
G01X22347138Y-12075537D01*
G01X22347138Y-12075537D01*
G01X22317060Y-12002006D01*
G01X22287228Y-11935379D01*
G01X22260088Y-11878752D01*
G01X22238088Y-11835218D01*
G01X22223674Y-11807873D01*
G01X22219208Y-11799658D01*
G01X22219208Y-11799658D01*
G01X22177888Y-11729174D01*
G01X22140364Y-11671252D01*
G01X22109731Y-11627674D01*
G01X22089083Y-11600221D01*
G01X22081513Y-11590674D01*
G01X22081513Y-11590674D01*
G01X22681122Y-11590674D01*
G37*
G36*
G01X18070076Y-18592452D02*
G01X19289803Y-18592452D01*
G01X19289803Y-18592452D01*
G01X19302577Y-18531648D01*
G01X19303963Y-18523604D01*
G01X19303963Y-18523604D01*
G01X19312012Y-18458658D01*
G01X19313240Y-18444015D01*
G01X19313240Y-18444015D01*
G01X19317330Y-18378161D01*
G01X19318123Y-18362960D01*
G01X19318123Y-18362960D01*
G01X19320023Y-18298736D01*
G01X19320076Y-18290694D01*
G01X19320076Y-18290694D01*
G01X19314114Y-18197518D01*
G01X19298877Y-18119299D01*
G01X19278340Y-18056096D01*
G01X19256478Y-18007968D01*
G01X19237267Y-17974975D01*
G01X19224680Y-17957176D01*
G01X19221931Y-17953780D01*
G01X19221931Y-17953780D01*
G01X19168692Y-17907641D01*
G01X19107919Y-17876118D01*
G01X19046705Y-17856427D01*
G01X18992142Y-17845784D01*
G01X18951322Y-17841405D01*
G01X18931337Y-17840506D01*
G01X18930428Y-17840499D01*
G01X18930428Y-17840499D01*
G01X18853710Y-17849217D01*
G01X18791384Y-17868727D01*
G01X18748390Y-17889069D01*
G01X18729669Y-17900277D01*
G01X18729256Y-17900558D01*
G01X18729256Y-17900558D01*
G01X18673549Y-17949136D01*
G01X18632071Y-18000366D01*
G01X18605552Y-18042221D01*
G01X18594719Y-18062672D01*
G01X18594490Y-18063155D01*
G01X18485115Y-17995772D01*
G01X18355232Y-17920577D01*
G01X18212654Y-17845382D01*
G01X18212654Y-17845382D01*
G01X18145686Y-17812389D01*
G01X18093981Y-17787988D01*
G01X18070405Y-17777171D01*
G01X18070076Y-17777022D01*
G01X18070076Y-17952804D01*
G01X18070076Y-17952804D01*
G01X18141720Y-17983793D01*
G01X18207848Y-18014367D01*
G01X18264888Y-18042079D01*
G01X18309273Y-18064483D01*
G01X18337432Y-18079131D01*
G01X18345955Y-18083663D01*
G01X18345955Y-18083663D01*
G01X18419060Y-18125257D01*
G01X18478572Y-18162585D01*
G01X18522967Y-18192788D01*
G01X18550721Y-18213007D01*
G01X18560310Y-18220382D01*
G01X18560310Y-18220382D01*
G01X18560310Y-18220382D01*
G01X18558357Y-18255538D01*
G01X18558357Y-18286788D01*
G01X18558357Y-18426436D01*
G01X18070076Y-18426436D01*
G01X18070076Y-18592452D01*
G37*
%LPC*%
G36*
G01X18694099Y-18426436D02*
G01X18694099Y-18320968D01*
G01X18694099Y-18320968D01*
G01X18697397Y-18245815D01*
G01X18702655Y-18199421D01*
G01X18703865Y-18191573D01*
G01X18703865Y-18191573D01*
G01X18725110Y-18123199D01*
G01X18740846Y-18093624D01*
G01X18740974Y-18093429D01*
G01X18740974Y-18093429D01*
G01X18789242Y-18045923D01*
G01X18815193Y-18030440D01*
G01X18815193Y-18030440D01*
G01X18878756Y-18013214D01*
G01X18929943Y-18008643D01*
G01X18938240Y-18008468D01*
G01X18938240Y-18008468D01*
G01X19013894Y-18016840D01*
G01X19052959Y-18028933D01*
G01X19056404Y-18030440D01*
G01X19056404Y-18030440D01*
G01X19112871Y-18070504D01*
G01X19129158Y-18088546D01*
G01X19129158Y-18088546D01*
G01X19159687Y-18148499D01*
G01X19167244Y-18173507D01*
G01X19167244Y-18173507D01*
G01X19176895Y-18241173D01*
G01X19178474Y-18276764D01*
G01X19178474Y-18277022D01*
G01X19178474Y-18277022D01*
G01X19177884Y-18345238D01*
G01X19177498Y-18365890D01*
G01X19177498Y-18365890D01*
G01X19172019Y-18424874D01*
G01X19171639Y-18426436D01*
G01X18694099Y-18426436D01*
G37*
%LPD*%
G36*
G01X18108162Y-17570968D02*
G01X18249764Y-17538741D01*
G01X18249764Y-17538741D01*
G01X18226008Y-17479604D01*
G01X18212270Y-17439935D01*
G01X18212166Y-17439620D01*
G01X18212166Y-17439620D01*
G01X18197730Y-17373733D01*
G01X18191599Y-17311194D01*
G01X18190215Y-17274074D01*
G01X18190193Y-17271163D01*
G01X18190193Y-17271163D01*
G01X18195783Y-17194339D01*
G01X18205231Y-17147380D01*
G01X18208260Y-17136886D01*
G01X18208260Y-17136886D01*
G01X18239449Y-17073104D01*
G01X18257088Y-17049972D01*
G01X18257088Y-17049972D01*
G01X18257088Y-17049972D01*
G01X18311096Y-17009922D01*
G01X18327889Y-17002120D01*
G01X18327889Y-17002120D01*
G01X18393009Y-16988027D01*
G01X18411873Y-16986983D01*
G01X18411873Y-16986983D01*
G01X18485518Y-16995393D01*
G01X18528057Y-17007970D01*
G01X18532967Y-17009933D01*
G01X18532967Y-17009933D01*
G01X18589179Y-17050172D01*
G01X18619139Y-17085997D01*
G01X18621834Y-17090011D01*
G01X18621834Y-17090011D01*
G01X18650452Y-17150931D01*
G01X18668867Y-17210734D01*
G01X18676730Y-17244371D01*
G01X18677010Y-17245772D01*
G01X18677010Y-17245772D01*
G01X18686303Y-17309546D01*
G01X18691939Y-17376038D01*
G01X18694834Y-17435546D01*
G01X18695900Y-17478366D01*
G01X18696053Y-17494796D01*
G01X18696053Y-17494796D01*
G01X18696053Y-17494796D01*
G01X18772716Y-17485252D01*
G01X18831315Y-17478765D01*
G01X18859980Y-17475860D01*
G01X18861092Y-17475753D01*
G01X18861092Y-17475753D01*
G01X18935572Y-17469225D01*
G01X18990884Y-17464966D01*
G01X19010994Y-17463546D01*
G01X19010994Y-17463546D01*
G01X19084129Y-17459179D01*
G01X19138440Y-17456498D01*
G01X19156014Y-17455733D01*
G01X19156014Y-17455733D01*
G01X19226950Y-17452689D01*
G01X19284041Y-17450060D01*
G01X19308333Y-17448899D01*
G01X19308357Y-17448897D01*
G01X19308357Y-16853194D01*
G01X19167732Y-16853194D01*
G01X19167732Y-17304366D01*
G01X19095467Y-17310226D01*
G01X19095467Y-17310226D01*
G01X19027536Y-17314980D01*
G01X18999764Y-17317061D01*
G01X18904060Y-17324874D01*
G01X18904060Y-17324874D01*
G01X18838190Y-17330133D01*
G01X18829842Y-17330733D01*
G01X18829842Y-17330733D01*
G01X18821510Y-17233704D01*
G01X18805942Y-17151119D01*
G01X18785855Y-17082672D01*
G01X18763965Y-17028052D01*
G01X18742988Y-16986951D01*
G01X18725640Y-16959059D01*
G01X18714638Y-16944068D01*
G01X18712166Y-16941085D01*
G01X18712166Y-16941085D01*
G01X18655686Y-16891366D01*
G01X18594054Y-16857397D01*
G01X18533596Y-16836179D01*
G01X18480634Y-16824710D01*
G01X18441494Y-16819991D01*
G01X18422499Y-16819022D01*
G01X18421639Y-16819015D01*
G01X18421639Y-16819015D01*
G01X18346486Y-16825609D01*
G01X18291734Y-16837953D01*
G01X18269804Y-16844886D01*
G01X18269783Y-16844894D01*
G01X18269783Y-16844894D01*
G01X18205102Y-16879211D01*
G01X18162797Y-16913332D01*
G01X18150154Y-16925948D01*
G01X18150154Y-16925948D01*
G01X18110233Y-16982430D01*
G01X18083922Y-17035576D01*
G01X18072443Y-17064875D01*
G01X18072029Y-17066085D01*
G01X18072029Y-17066085D01*
G01X18055656Y-17133361D01*
G01X18047249Y-17198531D01*
G01X18044151Y-17247771D01*
G01X18043709Y-17267257D01*
G01X18043709Y-17267257D01*
G01X18043709Y-17267257D01*
G01X18047700Y-17335685D01*
G01X18051033Y-17361983D01*
G01X18051033Y-17361983D01*
G01X18063491Y-17429623D01*
G01X18068123Y-17450851D01*
G01X18068123Y-17450851D01*
G01X18085536Y-17514189D01*
G01X18089119Y-17525069D01*
G01X18089119Y-17525069D01*
G01X18108162Y-17570968D01*
G37*
G36*
G01X16777998Y-14708937D02*
G01X16777998Y-14708937D01*
G01X16774490Y-14627730D01*
G01X16765878Y-14556857D01*
G01X16755035Y-14499156D01*
G01X16744829Y-14457462D01*
G01X16738131Y-14434613D01*
G01X16736982Y-14431105D01*
G01X16736982Y-14431105D01*
G01X16706719Y-14358082D01*
G01X16674311Y-14298817D01*
G01X16646124Y-14256147D01*
G01X16628520Y-14232912D01*
G01X16625654Y-14229445D01*
G01X16625654Y-14229445D01*
G01X16570356Y-14175459D01*
G01X16517256Y-14136671D01*
G01X16477339Y-14113264D01*
G01X16461592Y-14105421D01*
G01X16461592Y-14105421D01*
G01X16461592Y-14105421D01*
G01X16390760Y-14081145D01*
G01X16326338Y-14068678D01*
G01X16279493Y-14064085D01*
G01X16261396Y-14063429D01*
G01X16261396Y-14063429D01*
G01X16261396Y-14063429D01*
G01X16189965Y-14068531D01*
G01X16133994Y-14078080D01*
G01X16110540Y-14083443D01*
G01X16110518Y-14083449D01*
G01X16110518Y-14083449D01*
G01X16042066Y-14107390D01*
G01X15987852Y-14133422D01*
G01X15960705Y-14148717D01*
G01X15959639Y-14149367D01*
G01X16007490Y-14285109D01*
G01X16007490Y-14285109D01*
G01X16083912Y-14247937D01*
G01X16151756Y-14225390D01*
G01X16206193Y-14213812D01*
G01X16242396Y-14209546D01*
G01X16255537Y-14208937D01*
G01X16255537Y-14208937D01*
G01X16255537Y-14208937D01*
G01X16329445Y-14217896D01*
G01X16381869Y-14234665D01*
G01X16402490Y-14244083D01*
G01X16402510Y-14244093D01*
G01X16402510Y-14244093D01*
G01X16461221Y-14286821D01*
G01X16500500Y-14328086D01*
G01X16513838Y-14345168D01*
G01X16513838Y-14345168D01*
G01X16548690Y-14406175D01*
G01X16572202Y-14463022D01*
G01X16583872Y-14498487D01*
G01X16585127Y-14502882D01*
G01X16585127Y-14502882D01*
G01X16599524Y-14573805D01*
G01X16606916Y-14640334D01*
G01X16609640Y-14689650D01*
G01X16610029Y-14708937D01*
G01X16610029Y-14708937D01*
G01X16610029Y-14708937D01*
G01X16606355Y-14791125D01*
G01X16597995Y-14858199D01*
G01X16588940Y-14905740D01*
G01X16583183Y-14929327D01*
G01X16582686Y-14931105D01*
G01X16582686Y-14931105D01*
G01X16555390Y-15004235D01*
G01X16527749Y-15056745D01*
G01X16509766Y-15084276D01*
G01X16507490Y-15087355D01*
G01X16507490Y-15087355D01*
G01X16455455Y-15139527D01*
G01X16410478Y-15169922D01*
G01X16392744Y-15179152D01*
G01X16392744Y-15179152D01*
G01X16324129Y-15200374D01*
G01X16268797Y-15207961D01*
G01X16247725Y-15208937D01*
G01X16247725Y-15208937D01*
G01X16178500Y-15203390D01*
G01X16131950Y-15195095D01*
G01X16126143Y-15193800D01*
G01X16126143Y-15193800D01*
G01X16060484Y-15172090D01*
G01X16010311Y-15149213D01*
G01X15993818Y-15140578D01*
G01X15949873Y-15277296D01*
G01X15949873Y-15277296D01*
G01X16017075Y-15309348D01*
G01X16072289Y-15328883D01*
G01X16098427Y-15336287D01*
G01X16098799Y-15336378D01*
G01X16098799Y-15336378D01*
G01X16170065Y-15348890D01*
G01X16231232Y-15354203D01*
G01X16265611Y-15355402D01*
G01X16268232Y-15355421D01*
G01X16268232Y-15355421D01*
G01X16346525Y-15349318D01*
G01X16411177Y-15335890D01*
G01X16455137Y-15322462D01*
G01X16471357Y-15316359D01*
G01X16471357Y-15316359D01*
G01X16471357Y-15316359D01*
G01X16535597Y-15281416D01*
G01X16586470Y-15242628D01*
G01X16619947Y-15211165D01*
G01X16632002Y-15198195D01*
G01X16632002Y-15198195D01*
G01X16632002Y-15198195D01*
G01X16672505Y-15141506D01*
G01X16703986Y-15082883D01*
G01X16725792Y-15032870D01*
G01X16737266Y-15002011D01*
G01X16738936Y-14997023D01*
G01X16738936Y-14997023D01*
G01X16756460Y-14928058D01*
G01X16767758Y-14857897D01*
G01X16774196Y-14793887D01*
G01X16777141Y-14743375D01*
G01X16777959Y-14713708D01*
G01X16777998Y-14708937D01*
G37*
G36*
G01X15755537Y-14210890D02*
G01X15755537Y-14210890D01*
G01X15712206Y-14170702D01*
G01X15707686Y-14166945D01*
G01X15707686Y-14166945D01*
G01X15652577Y-14129790D01*
G01X15630537Y-14117628D01*
G01X15630537Y-14117628D01*
G01X15566751Y-14090986D01*
G01X15530055Y-14079221D01*
G01X15529463Y-14079054D01*
G01X15529463Y-14079054D01*
G01X15460080Y-14066478D01*
G01X15414419Y-14063493D01*
G01X15409834Y-14063429D01*
G01X15409834Y-14063429D01*
G01X15319485Y-14070261D01*
G01X15246488Y-14087263D01*
G01X15190583Y-14109196D01*
G01X15151513Y-14130820D01*
G01X15129016Y-14146898D01*
G01X15122725Y-14152296D01*
G01X15122725Y-14152296D01*
G01X15079255Y-14209638D01*
G01X15052062Y-14273683D01*
G01X15037327Y-14334424D01*
G01X15031234Y-14381853D01*
G01X15029963Y-14405965D01*
G01X15029951Y-14407179D01*
G01X15029951Y-14407179D01*
G01X15038717Y-14478679D01*
G01X15052264Y-14524492D01*
G01X15054853Y-14531203D01*
G01X15054853Y-14531203D01*
G01X15087088Y-14595370D01*
G01X15114474Y-14639621D01*
G01X15120771Y-14648878D01*
G01X15120771Y-14648878D01*
G01X15165106Y-14706710D01*
G01X15201258Y-14749056D01*
G01X15213545Y-14762648D01*
G01X15319990Y-14873000D01*
G01X15389326Y-14945265D01*
G01X15389326Y-14945265D01*
G01X15437164Y-14997919D01*
G01X15463993Y-15029384D01*
G01X15465498Y-15031203D01*
G01X15465498Y-15031203D01*
G01X15507796Y-15088706D01*
G01X15525443Y-15116941D01*
G01X15525557Y-15117140D01*
G01X15525557Y-15117140D01*
G01X15548542Y-15179636D01*
G01X15549482Y-15189406D01*
G01X14980146Y-15189406D01*
G01X14980146Y-15329054D01*
G01X15730146Y-15329054D01*
G01X15730146Y-15329054D01*
G01X15732100Y-15307570D01*
G01X15732100Y-15287062D01*
G01X15732100Y-15287062D01*
G01X15725256Y-15212139D01*
G01X15712148Y-15156428D01*
G01X15703912Y-15131641D01*
G01X15703779Y-15131300D01*
G01X15703779Y-15131300D01*
G01X15672778Y-15064687D01*
G01X15644412Y-15015177D01*
G01X15631527Y-14995089D01*
G01X15631514Y-14995070D01*
G01X15631514Y-14995070D01*
G01X15588170Y-14937195D01*
G01X15551091Y-14893720D01*
G01X15533139Y-14874245D01*
G01X15532881Y-14873976D01*
G01X15423506Y-14762648D01*
G01X15338545Y-14676710D01*
G01X15338545Y-14676710D01*
G01X15290449Y-14622849D01*
G01X15267348Y-14593511D01*
G01X15266768Y-14592726D01*
G01X15266768Y-14592726D01*
G01X15230330Y-14533522D01*
G01X15216963Y-14505812D01*
G01X15216963Y-14505812D01*
G01X15216963Y-14505812D01*
G01X15199897Y-14439478D01*
G01X15197920Y-14413039D01*
G01X15197920Y-14413039D01*
G01X15207488Y-14343232D01*
G01X15215010Y-14321242D01*
G01X15215010Y-14321242D01*
G01X15251598Y-14267389D01*
G01X15260908Y-14258253D01*
G01X15260908Y-14258253D01*
G01X15315837Y-14225651D01*
G01X15327803Y-14221144D01*
G01X15327803Y-14221144D01*
G01X15392736Y-14209661D01*
G01X15409834Y-14208937D01*
G01X15409834Y-14208937D01*
G01X15479634Y-14216654D01*
G01X15504560Y-14223097D01*
G01X15504560Y-14223097D01*
G01X15566295Y-14249324D01*
G01X15580732Y-14257277D01*
G01X15580732Y-14257277D01*
G01X15632917Y-14292530D01*
G01X15637861Y-14296339D01*
G01X15637861Y-14296339D01*
G01X15673506Y-14327101D01*
G37*
G36*
G01X19571162Y-6858936D02*
G01X19571162Y-6858936D01*
G01X19567654Y-6777729D01*
G01X19559042Y-6706856D01*
G01X19548199Y-6649155D01*
G01X19537993Y-6607461D01*
G01X19531295Y-6584612D01*
G01X19530146Y-6581104D01*
G01X19530146Y-6581104D01*
G01X19499883Y-6508081D01*
G01X19467475Y-6448816D01*
G01X19439288Y-6406146D01*
G01X19421684Y-6382911D01*
G01X19418818Y-6379444D01*
G01X19418818Y-6379444D01*
G01X19363520Y-6325458D01*
G01X19310420Y-6286670D01*
G01X19270503Y-6263263D01*
G01X19254756Y-6255420D01*
G01X19254756Y-6255420D01*
G01X19254756Y-6255420D01*
G01X19183924Y-6231144D01*
G01X19119502Y-6218677D01*
G01X19072657Y-6214084D01*
G01X19054560Y-6213428D01*
G01X19054560Y-6213428D01*
G01X19054560Y-6213428D01*
G01X18983129Y-6218530D01*
G01X18927158Y-6228079D01*
G01X18903704Y-6233442D01*
G01X18903682Y-6233448D01*
G01X18903682Y-6233448D01*
G01X18835230Y-6257389D01*
G01X18781016Y-6283421D01*
G01X18753869Y-6298716D01*
G01X18752803Y-6299366D01*
G01X18800654Y-6435108D01*
G01X18800654Y-6435108D01*
G01X18877076Y-6397936D01*
G01X18944920Y-6375389D01*
G01X18999357Y-6363811D01*
G01X19035560Y-6359545D01*
G01X19048701Y-6358936D01*
G01X19048701Y-6358936D01*
G01X19048701Y-6358936D01*
G01X19122609Y-6367895D01*
G01X19175033Y-6384664D01*
G01X19195654Y-6394082D01*
G01X19195674Y-6394092D01*
G01X19195674Y-6394092D01*
G01X19254385Y-6436820D01*
G01X19293664Y-6478085D01*
G01X19307002Y-6495167D01*
G01X19307002Y-6495167D01*
G01X19341854Y-6556174D01*
G01X19365366Y-6613021D01*
G01X19377036Y-6648486D01*
G01X19378291Y-6652881D01*
G01X19378291Y-6652881D01*
G01X19392688Y-6723804D01*
G01X19400080Y-6790333D01*
G01X19402804Y-6839649D01*
G01X19403193Y-6858936D01*
G01X19403193Y-6858936D01*
G01X19403193Y-6858936D01*
G01X19399519Y-6941124D01*
G01X19391159Y-7008198D01*
G01X19382104Y-7055739D01*
G01X19376347Y-7079326D01*
G01X19375850Y-7081104D01*
G01X19375850Y-7081104D01*
G01X19348554Y-7154234D01*
G01X19320913Y-7206744D01*
G01X19302930Y-7234275D01*
G01X19300654Y-7237354D01*
G01X19300654Y-7237354D01*
G01X19248619Y-7289526D01*
G01X19203642Y-7319921D01*
G01X19185908Y-7329151D01*
G01X19185908Y-7329151D01*
G01X19117293Y-7350373D01*
G01X19061961Y-7357960D01*
G01X19040889Y-7358936D01*
G01X19040889Y-7358936D01*
G01X18971664Y-7353389D01*
G01X18925114Y-7345094D01*
G01X18919307Y-7343799D01*
G01X18919307Y-7343799D01*
G01X18853648Y-7322089D01*
G01X18803475Y-7299212D01*
G01X18786982Y-7290577D01*
G01X18743037Y-7427295D01*
G01X18743037Y-7427295D01*
G01X18810239Y-7459347D01*
G01X18865453Y-7478882D01*
G01X18891591Y-7486286D01*
G01X18891963Y-7486377D01*
G01X18891963Y-7486377D01*
G01X18963229Y-7498889D01*
G01X19024396Y-7504202D01*
G01X19058775Y-7505401D01*
G01X19061396Y-7505420D01*
G01X19061396Y-7505420D01*
G01X19139689Y-7499317D01*
G01X19204341Y-7485889D01*
G01X19248301Y-7472461D01*
G01X19264521Y-7466358D01*
G01X19264521Y-7466358D01*
G01X19264521Y-7466358D01*
G01X19328761Y-7431415D01*
G01X19379634Y-7392627D01*
G01X19413111Y-7361164D01*
G01X19425166Y-7348194D01*
G01X19425166Y-7348194D01*
G01X19425166Y-7348194D01*
G01X19465669Y-7291505D01*
G01X19497150Y-7232882D01*
G01X19518956Y-7182869D01*
G01X19530430Y-7152010D01*
G01X19532100Y-7147022D01*
G01X19532100Y-7147022D01*
G01X19549624Y-7078057D01*
G01X19560922Y-7007896D01*
G01X19567360Y-6943886D01*
G01X19570305Y-6893374D01*
G01X19571123Y-6863707D01*
G01X19571162Y-6858936D01*
G37*
G36*
G01X18512568Y-6496631D02*
G01X18512568Y-6496631D01*
G01X18444448Y-6466736D01*
G01X18384662Y-6436249D01*
G01X18339841Y-6411086D01*
G01X18316615Y-6397166D01*
G01X18314814Y-6396045D01*
G01X18314814Y-6396045D01*
G01X18254107Y-6352494D01*
G01X18201847Y-6307253D01*
G01X18162373Y-6268557D01*
G01X18140018Y-6244641D01*
G01X18136592Y-6240772D01*
G01X18021357Y-6240772D01*
G01X18021357Y-7339405D01*
G01X17786982Y-7339405D01*
G01X17786982Y-7479053D01*
G01X18452998Y-7479053D01*
G01X18452998Y-7339405D01*
G01X18185420Y-7339405D01*
G01X18185420Y-6471241D01*
G01X18185420Y-6471241D01*
G01X18233485Y-6508182D01*
G01X18238642Y-6511768D01*
G01X18238642Y-6511768D01*
G01X18293769Y-6545889D01*
G01X18306025Y-6552784D01*
G01X18306025Y-6552784D01*
G01X18365489Y-6582869D01*
G01X18382685Y-6590870D01*
G01X18382685Y-6590870D01*
G01X18444842Y-6615374D01*
G01X18460810Y-6620655D01*
G37*
G36*
G01X16825352Y-10340083D02*
G01X16685704Y-10340083D01*
G01X16685704Y-10580317D01*
G01X15727696Y-10580317D01*
G01X15727696Y-10340083D01*
G01X15587071Y-10340083D01*
G01X15587071Y-10984614D01*
G01X15727696Y-10984614D01*
G01X15727696Y-10744380D01*
G01X16685704Y-10744380D01*
G01X16685704Y-10984614D01*
G01X16825352Y-10984614D01*
G01X16825352Y-10340083D01*
G37*
G36*
G01X16205235Y-11254146D02*
G01X16205235Y-11254146D01*
G01X16124027Y-11257654D01*
G01X16053155Y-11266265D01*
G01X15995454Y-11277109D01*
G01X15953760Y-11287315D01*
G01X15930911Y-11294013D01*
G01X15927403Y-11295161D01*
G01X15927403Y-11295161D01*
G01X15854380Y-11325425D01*
G01X15795114Y-11357832D01*
G01X15752445Y-11386020D01*
G01X15729210Y-11403624D01*
G01X15725743Y-11406489D01*
G01X15725743Y-11406489D01*
G01X15671757Y-11461787D01*
G01X15632969Y-11514888D01*
G01X15609562Y-11554805D01*
G01X15601719Y-11570552D01*
G01X15601719Y-11570552D01*
G01X15601719Y-11570552D01*
G01X15577442Y-11641383D01*
G01X15564976Y-11705806D01*
G01X15560383Y-11752650D01*
G01X15559727Y-11770747D01*
G01X15559727Y-11770747D01*
G01X15559727Y-11770747D01*
G01X15564829Y-11842179D01*
G01X15574377Y-11898149D01*
G01X15579741Y-11921603D01*
G01X15579747Y-11921626D01*
G01X15579747Y-11921626D01*
G01X15603687Y-11990078D01*
G01X15629720Y-12044292D01*
G01X15645014Y-12071439D01*
G01X15645665Y-12072505D01*
G01X15781407Y-12024653D01*
G01X15781407Y-12024653D01*
G01X15744235Y-11948232D01*
G01X15721688Y-11880388D01*
G01X15710110Y-11825950D01*
G01X15705844Y-11789747D01*
G01X15705235Y-11776607D01*
G01X15705235Y-11776607D01*
G01X15705235Y-11776607D01*
G01X15714194Y-11702698D01*
G01X15730962Y-11650275D01*
G01X15740381Y-11629653D01*
G01X15740391Y-11629634D01*
G01X15740391Y-11629634D01*
G01X15783119Y-11570922D01*
G01X15824383Y-11531644D01*
G01X15841465Y-11518306D01*
G01X15841465Y-11518306D01*
G01X15902473Y-11483453D01*
G01X15959320Y-11459942D01*
G01X15994785Y-11448272D01*
G01X15999180Y-11447017D01*
G01X15999180Y-11447017D01*
G01X16070103Y-11432620D01*
G01X16136631Y-11425227D01*
G01X16185948Y-11422503D01*
G01X16205235Y-11422114D01*
G01X16205235Y-11422114D01*
G01X16205235Y-11422114D01*
G01X16287423Y-11425788D01*
G01X16354497Y-11434149D01*
G01X16402038Y-11443204D01*
G01X16425624Y-11448961D01*
G01X16427403Y-11449458D01*
G01X16427403Y-11449458D01*
G01X16500533Y-11476754D01*
G01X16553043Y-11504395D01*
G01X16580574Y-11522377D01*
G01X16583653Y-11524653D01*
G01X16583653Y-11524653D01*
G01X16635825Y-11576688D01*
G01X16666220Y-11621665D01*
G01X16675450Y-11639399D01*
G01X16675450Y-11639399D01*
G01X16696672Y-11708015D01*
G01X16704259Y-11763347D01*
G01X16705235Y-11784419D01*
G01X16705235Y-11784419D01*
G01X16699688Y-11853643D01*
G01X16691393Y-11900194D01*
G01X16690098Y-11906001D01*
G01X16690098Y-11906001D01*
G01X16668388Y-11971660D01*
G01X16645511Y-12021833D01*
G01X16636875Y-12038325D01*
G01X16773594Y-12082271D01*
G01X16773594Y-12082271D01*
G01X16805646Y-12015069D01*
G01X16825181Y-11959855D01*
G01X16832585Y-11933717D01*
G01X16832676Y-11933345D01*
G01X16832676Y-11933345D01*
G01X16845187Y-11862079D01*
G01X16850500Y-11800911D01*
G01X16851700Y-11766533D01*
G01X16851719Y-11763911D01*
G01X16851719Y-11763911D01*
G01X16845616Y-11685618D01*
G01X16832188Y-11620967D01*
G01X16818760Y-11577006D01*
G01X16812657Y-11560786D01*
G01X16812657Y-11560786D01*
G01X16812657Y-11560786D01*
G01X16777714Y-11496547D01*
G01X16738926Y-11445674D01*
G01X16707463Y-11412196D01*
G01X16694493Y-11400142D01*
G01X16694493Y-11400142D01*
G01X16694493Y-11400142D01*
G01X16637804Y-11359639D01*
G01X16579181Y-11328157D01*
G01X16529168Y-11306352D01*
G01X16498309Y-11294878D01*
G01X16493321Y-11293208D01*
G01X16493321Y-11293208D01*
G01X16424356Y-11275683D01*
G01X16354195Y-11264386D01*
G01X16290185Y-11257948D01*
G01X16239673Y-11255003D01*
G01X16210005Y-11254185D01*
G01X16205235Y-11254146D01*
G37*
G36*
G01X15842930Y-12312739D02*
G01X15842930Y-12312739D01*
G01X15813035Y-12380860D01*
G01X15782547Y-12440646D01*
G01X15757385Y-12485467D01*
G01X15743465Y-12508693D01*
G01X15742344Y-12510493D01*
G01X15742344Y-12510493D01*
G01X15698793Y-12571201D01*
G01X15653552Y-12623460D01*
G01X15614855Y-12662935D01*
G01X15590940Y-12685289D01*
G01X15587071Y-12688716D01*
G01X15587071Y-12803950D01*
G01X16685704Y-12803950D01*
G01X16685704Y-13038325D01*
G01X16825352Y-13038325D01*
G01X16825352Y-12372310D01*
G01X16685704Y-12372310D01*
G01X16685704Y-12639888D01*
G01X15817540Y-12639888D01*
G01X15817540Y-12639888D01*
G01X15854481Y-12591823D01*
G01X15858067Y-12586665D01*
G01X15858067Y-12586665D01*
G01X15892187Y-12531539D01*
G01X15899082Y-12519282D01*
G01X15899082Y-12519282D01*
G01X15929168Y-12459819D01*
G01X15937168Y-12442622D01*
G01X15937168Y-12442622D01*
G01X15961672Y-12380466D01*
G01X15966954Y-12364497D01*
G37*
G36*
G01X42435342Y-11791025D02*
G01X42385537Y-11654306D01*
G01X42385537Y-11654306D01*
G01X42328207Y-11681397D01*
G01X42277480Y-11701767D01*
G01X42267373Y-11705576D01*
G01X42267373Y-11705576D01*
G01X42202242Y-11722711D01*
G01X42138886Y-11731198D01*
G01X42092546Y-11734078D01*
G01X42077920Y-11734384D01*
G01X42077920Y-11734384D01*
G01X41994790Y-11726908D01*
G01X41934732Y-11710459D01*
G01X41898294Y-11694010D01*
G01X41886026Y-11686533D01*
G01X41886026Y-11686533D01*
G01X41886026Y-11686533D01*
G01X41841762Y-11632512D01*
G01X41823725Y-11576560D01*
G01X41820130Y-11544336D01*
G01X41820108Y-11542978D01*
G01X41820108Y-11542978D01*
G01X41831712Y-11472874D01*
G01X41844005Y-11443907D01*
G01X41844033Y-11443857D01*
G01X41844033Y-11443857D01*
G01X41886533Y-11390640D01*
G01X41907998Y-11371591D01*
G01X41907998Y-11371591D01*
G01X41965817Y-11334369D01*
G01X41997607Y-11317990D01*
G01X41997842Y-11317881D01*
G01X41997842Y-11317881D01*
G01X42062584Y-11289519D01*
G01X42098438Y-11274808D01*
G01X42099405Y-11274423D01*
G01X42099405Y-11274423D01*
G01X42165530Y-11244798D01*
G01X42207936Y-11223517D01*
G01X42214151Y-11220224D01*
G01X42214151Y-11220224D01*
G01X42274933Y-11180995D01*
G01X42309121Y-11153269D01*
G01X42312295Y-11150400D01*
G01X42312295Y-11150400D01*
G01X42357353Y-11096523D01*
G01X42379183Y-11059623D01*
G01X42380655Y-11056650D01*
G01X42380655Y-11056650D01*
G01X42400282Y-10990070D01*
G01X42405775Y-10938488D01*
G01X42406045Y-10928720D01*
G01X42406045Y-10928720D01*
G01X42397316Y-10848225D01*
G01X42375890Y-10782271D01*
G01X42348910Y-10731542D01*
G01X42323516Y-10696723D01*
G01X42306852Y-10678496D01*
G01X42303994Y-10675791D01*
G01X42303994Y-10675791D01*
G01X42246256Y-10636900D01*
G01X42182306Y-10611081D01*
G01X42119902Y-10595655D01*
G01X42066802Y-10587946D01*
G01X42030765Y-10585277D01*
G01X42019326Y-10584970D01*
G01X42019326Y-10584970D01*
G01X41950235Y-10588491D01*
G01X41920694Y-10591806D01*
G01X41920694Y-10591806D01*
G01X41852180Y-10603632D01*
G01X41829873Y-10608408D01*
G01X41829873Y-10608408D01*
G01X41766448Y-10627694D01*
G01X41754678Y-10632334D01*
G01X41754678Y-10632334D01*
G01X41703420Y-10659170D01*
G01X41701944Y-10660166D01*
G01X41753701Y-10798838D01*
G01X41753701Y-10798838D01*
G01X41812533Y-10770071D01*
G01X41858610Y-10752239D01*
G01X41863565Y-10750498D01*
G01X41863565Y-10750498D01*
G01X41932202Y-10734095D01*
G01X41990675Y-10727688D01*
G01X42018920Y-10726573D01*
G01X42019326Y-10726572D01*
G01X42019326Y-10726572D01*
G01X42094844Y-10736846D01*
G01X42149167Y-10756964D01*
G01X42174615Y-10770864D01*
G01X42175576Y-10771494D01*
G01X42175576Y-10771494D01*
G01X42222010Y-10825799D01*
G01X42239373Y-10880398D01*
G01X42241983Y-10906233D01*
G01X42241983Y-10906259D01*
G01X42241983Y-10906259D01*
G01X42230756Y-10974911D01*
G01X42222940Y-10994150D01*
G01X42222940Y-10994150D01*
G01X42183035Y-11046250D01*
G01X42170694Y-11057627D01*
G01X42170694Y-11057627D01*
G01X42115259Y-11095107D01*
G01X42093545Y-11106943D01*
G01X42093545Y-11106943D01*
G01X42031452Y-11135924D01*
G01X41998087Y-11150298D01*
G01X41997842Y-11150400D01*
G01X41997842Y-11150400D01*
G01X41928529Y-11181146D01*
G01X41878569Y-11204944D01*
G01X41858701Y-11214844D01*
G01X41858682Y-11214853D01*
G01X41858682Y-11214853D01*
G01X41796175Y-11253614D01*
G01X41758163Y-11284201D01*
G01X41750772Y-11291025D01*
G01X41750772Y-11291025D01*
G01X41706787Y-11346447D01*
G01X41683897Y-11387994D01*
G01X41680947Y-11394541D01*
G01X41680947Y-11394541D01*
G01X41663204Y-11460294D01*
G01X41656861Y-11518069D01*
G01X41656045Y-11541025D01*
G01X41656045Y-11541025D01*
G01X41665359Y-11621187D01*
G01X41688220Y-11686321D01*
G01X41717008Y-11736016D01*
G01X41744102Y-11769864D01*
G01X41761883Y-11787453D01*
G01X41764932Y-11790049D01*
G01X41764932Y-11790049D01*
G01X41823284Y-11825448D01*
G01X41888905Y-11849634D01*
G01X41954439Y-11864742D01*
G01X42012530Y-11872908D01*
G01X42055822Y-11876267D01*
G01X42076960Y-11876957D01*
G01X42077920Y-11876963D01*
G01X42077920Y-11876963D01*
G01X42151802Y-11873563D01*
G01X42196628Y-11868479D01*
G01X42201944Y-11867685D01*
G01X42201944Y-11867685D01*
G01X42272573Y-11853286D01*
G01X42304269Y-11844801D01*
G01X42304483Y-11844736D01*
G01X42304483Y-11844736D01*
G01X42368678Y-11822763D01*
G01X42383584Y-11816904D01*
G01X42383584Y-11816904D01*
G01X42434453Y-11791599D01*
G01X42435342Y-11791025D01*
G37*
G36*
G01X41364053Y-11850595D02*
G01X41364053Y-10612314D01*
G01X41199990Y-10612314D01*
G01X41199990Y-11710947D01*
G01X40625772Y-11710947D01*
G01X40625772Y-11850595D01*
G01X41364053Y-11850595D01*
G37*
G36*
G01X40488076Y-11230478D02*
G01X40488076Y-11230478D01*
G01X40485320Y-11145557D01*
G01X40478554Y-11071912D01*
G01X40470034Y-11012278D01*
G01X40462015Y-10969388D01*
G01X40456752Y-10945976D01*
G01X40455850Y-10942392D01*
G01X40455850Y-10942392D01*
G01X40430528Y-10865423D01*
G01X40403124Y-10804729D01*
G01X40379768Y-10762949D01*
G01X40366590Y-10742721D01*
G01X40365518Y-10741220D01*
G01X40365518Y-10741220D01*
G01X40313595Y-10684264D01*
G01X40264575Y-10646115D01*
G01X40232157Y-10626515D01*
G01X40226358Y-10623545D01*
G01X40226358Y-10623545D01*
G01X40158971Y-10599976D01*
G01X40097424Y-10588725D01*
G01X40055671Y-10585235D01*
G01X40045694Y-10584970D01*
G01X40045694Y-10584970D01*
G01X39968795Y-10592349D01*
G01X39907993Y-10607713D01*
G01X39872034Y-10620898D01*
G01X39866006Y-10623545D01*
G01X39866006Y-10623545D01*
G01X39803477Y-10662853D01*
G01X39756705Y-10705469D01*
G01X39730192Y-10735635D01*
G01X39725869Y-10741220D01*
G01X39725869Y-10741220D01*
G01X39689830Y-10800612D01*
G01X39662300Y-10861593D01*
G01X39643886Y-10912116D01*
G01X39635194Y-10940133D01*
G01X39634561Y-10942392D01*
G01X39634561Y-10942392D01*
G01X39619665Y-11011357D01*
G01X39610062Y-11081518D01*
G01X39604589Y-11145528D01*
G01X39602087Y-11196040D01*
G01X39601391Y-11225708D01*
G01X39601358Y-11230478D01*
G01X39601358Y-11230478D01*
G01X39604198Y-11315400D01*
G01X39611169Y-11389044D01*
G01X39619947Y-11448678D01*
G01X39628209Y-11491568D01*
G01X39633631Y-11514980D01*
G01X39634561Y-11518564D01*
G01X39634561Y-11518564D01*
G01X39660413Y-11595665D01*
G01X39688109Y-11656657D01*
G01X39711590Y-11698761D01*
G01X39724796Y-11719195D01*
G01X39725869Y-11720713D01*
G01X39725869Y-11720713D01*
G01X39777979Y-11778187D01*
G01X39827388Y-11816424D01*
G01X39860140Y-11835936D01*
G01X39866006Y-11838877D01*
G01X39866006Y-11838877D01*
G01X39936101Y-11862747D01*
G01X39998625Y-11873718D01*
G01X40038658Y-11876807D01*
G01X40045694Y-11876963D01*
G01X40045694Y-11876963D01*
G01X40121089Y-11870133D01*
G01X40180988Y-11855639D01*
G01X40218008Y-11842479D01*
G01X40226358Y-11838877D01*
G01X40226358Y-11838877D01*
G01X40288274Y-11799688D01*
G01X40334765Y-11756824D01*
G01X40361199Y-11726363D01*
G01X40365518Y-11720713D01*
G01X40365518Y-11720713D01*
G01X40401426Y-11660791D01*
G01X40428658Y-11599517D01*
G01X40446748Y-11548869D01*
G01X40455234Y-11520824D01*
G01X40455850Y-11518564D01*
G01X40455850Y-11518564D01*
G01X40470308Y-11449599D01*
G01X40479628Y-11379438D01*
G01X40484940Y-11315428D01*
G01X40487369Y-11264916D01*
G01X40488044Y-11235249D01*
G01X40488076Y-11230478D01*
G37*
%LPC*%
G36*
G01X40320108Y-11230478D02*
G01X40320108Y-11230478D01*
G01X40316567Y-11326256D01*
G01X40307404Y-11408340D01*
G01X40294805Y-11476473D01*
G01X40280957Y-11530397D01*
G01X40268045Y-11569855D01*
G01X40258257Y-11594591D01*
G01X40253780Y-11604346D01*
G01X40253701Y-11604502D01*
G01X40253701Y-11604502D01*
G01X40206975Y-11667884D01*
G01X40153170Y-11706330D01*
G01X40102319Y-11726072D01*
G01X40064451Y-11733345D01*
G01X40049600Y-11734384D01*
G01X40049600Y-11734384D01*
G01X40049600Y-11734384D01*
G01X39974139Y-11720877D01*
G01X39915365Y-11688666D01*
G01X39873326Y-11650220D01*
G01X39848069Y-11618009D01*
G01X39839639Y-11604502D01*
G01X39839639Y-11604502D01*
G01X39839639Y-11604502D01*
G01X39814049Y-11544216D01*
G01X39795570Y-11476394D01*
G01X39783045Y-11406937D01*
G01X39775316Y-11341745D01*
G01X39771225Y-11286719D01*
G01X39769614Y-11247760D01*
G01X39769327Y-11230768D01*
G01X39769326Y-11230478D01*
G01X39769326Y-11230478D01*
G01X39773075Y-11134700D01*
G01X39782777Y-11052617D01*
G01X39796117Y-10984484D01*
G01X39810780Y-10930560D01*
G01X39824451Y-10891101D01*
G01X39834815Y-10866366D01*
G01X39839556Y-10856611D01*
G01X39839639Y-10856455D01*
G01X39839639Y-10856455D01*
G01X39888475Y-10793072D01*
G01X39943920Y-10754627D01*
G01X39995944Y-10734884D01*
G01X40034514Y-10727611D01*
G01X40049600Y-10726572D01*
G01X40049600Y-10726572D01*
G01X40049600Y-10726572D01*
G01X40123701Y-10740080D01*
G01X40180928Y-10772291D01*
G01X40221514Y-10810736D01*
G01X40245694Y-10842947D01*
G01X40253701Y-10856455D01*
G01X40253701Y-10856455D01*
G01X40253701Y-10856455D01*
G01X40277870Y-10916740D01*
G01X40295322Y-10984562D01*
G01X40307151Y-11054019D01*
G01X40314451Y-11119211D01*
G01X40318315Y-11174237D01*
G01X40319836Y-11213196D01*
G01X40320107Y-11230188D01*
G01X40320108Y-11230478D01*
G37*
%LPD*%
G36*
G01X39481240Y-10612314D02*
G01X39322061Y-10612314D01*
G01X39299600Y-11646494D01*
G01X39119912Y-11083017D01*
G01X38975381Y-11083017D01*
G01X38791787Y-11646494D01*
G01X38769326Y-10612314D01*
G01X38610147Y-10612314D01*
G01X38610147Y-10612314D01*
G01X38612942Y-10687333D01*
G01X38615895Y-10758951D01*
G01X38618769Y-10823766D01*
G01X38621326Y-10878377D01*
G01X38623330Y-10919382D01*
G01X38624543Y-10943381D01*
G01X38624795Y-10948252D01*
G01X38624795Y-10948252D01*
G01X38629212Y-11027586D01*
G01X38633771Y-11101874D01*
G01X38638086Y-11167420D01*
G01X38641774Y-11220528D01*
G01X38644451Y-11257502D01*
G01X38645734Y-11274646D01*
G01X38645791Y-11275400D01*
G01X38645791Y-11275400D01*
G01X38652069Y-11354786D01*
G01X38658155Y-11427971D01*
G01X38663603Y-11491040D01*
G01X38667966Y-11540078D01*
G01X38670798Y-11571169D01*
G01X38671670Y-11580576D01*
G01X38671670Y-11580576D01*
G01X38679646Y-11660714D01*
G01X38687453Y-11731893D01*
G01X38694288Y-11789913D01*
G01X38699345Y-11830575D01*
G01X38701821Y-11849678D01*
G01X38701944Y-11850595D01*
G01X38853311Y-11850595D01*
G01X39047647Y-11234384D01*
G01X39240029Y-11850595D01*
G01X39393350Y-11850595D01*
G01X39393350Y-11850595D01*
G01X39402833Y-11779497D01*
G01X39411003Y-11710079D01*
G01X39417497Y-11649413D01*
G01X39421955Y-11604573D01*
G01X39424014Y-11582633D01*
G01X39424112Y-11581552D01*
G01X39424112Y-11581552D01*
G01X39430620Y-11506305D01*
G01X39436517Y-11433881D01*
G01X39441528Y-11369391D01*
G01X39445380Y-11317944D01*
G01X39447799Y-11284649D01*
G01X39448526Y-11274424D01*
G01X39448526Y-11274424D01*
G01X39453636Y-11197669D01*
G01X39458113Y-11124034D01*
G01X39461849Y-11057839D01*
G01X39464736Y-11003404D01*
G01X39466666Y-10965049D01*
G01X39467531Y-10947094D01*
G01X39467569Y-10946299D01*
G01X39467569Y-10946299D01*
G01X39470939Y-10871398D01*
G01X39473967Y-10800084D01*
G01X39476573Y-10735677D01*
G01X39478678Y-10681502D01*
G01X39480203Y-10640879D01*
G01X39481069Y-10617131D01*
G01X39481240Y-10612314D01*
G37*
G36*
G01X38407998Y-12180674D02*
G01X37849404Y-10452158D01*
G01X37683389Y-10452158D01*
G01X38238076Y-12180674D01*
G01X38407998Y-12180674D01*
G37*
G36*
G01X37364053Y-11850595D02*
G01X37364053Y-10612314D01*
G01X36661904Y-10612314D01*
G01X36661904Y-10752939D01*
G01X37199990Y-10752939D01*
G01X37199990Y-11138681D01*
G01X36725381Y-11138681D01*
G01X36725381Y-11276377D01*
G01X37199990Y-11276377D01*
G01X37199990Y-11850595D01*
G01X37364053Y-11850595D01*
G37*
G36*
G01X36528115Y-11850595D02*
G01X36451944Y-11564463D01*
G01X36451944Y-11564463D01*
G01X36431490Y-11490563D01*
G01X36411355Y-11419742D01*
G01X36392906Y-11356126D01*
G01X36377511Y-11303845D01*
G01X36366537Y-11267025D01*
G01X36361354Y-11249796D01*
G01X36361123Y-11249033D01*
G01X36257608Y-10923838D01*
G01X36257608Y-10923838D01*
G01X36231577Y-10847229D01*
G01X36206153Y-10776159D01*
G01X36182991Y-10713915D01*
G01X36163747Y-10663785D01*
G01X36150076Y-10629056D01*
G01X36143636Y-10613018D01*
G01X36143350Y-10612314D01*
G01X35939248Y-10612314D01*
G01X35939248Y-10612314D01*
G01X35912163Y-10683961D01*
G01X35887004Y-10753490D01*
G01X35864947Y-10816533D01*
G01X35847167Y-10868722D01*
G01X35834842Y-10905689D01*
G01X35829147Y-10923066D01*
G01X35828897Y-10923838D01*
G01X35728311Y-11249033D01*
G01X35639444Y-11564463D01*
G01X35563272Y-11850595D01*
G01X35738076Y-11850595D01*
G01X35811319Y-11526377D01*
G01X36287881Y-11526377D01*
G01X36360147Y-11850595D01*
G01X36528115Y-11850595D01*
G37*
%LPC*%
G36*
G01X36249795Y-11390634D02*
G01X35849404Y-11390634D01*
G01X35849404Y-11390634D01*
G01X35868946Y-11316336D01*
G01X35888353Y-11246070D01*
G01X35906627Y-11182378D01*
G01X35922772Y-11127800D01*
G01X35935790Y-11084877D01*
G01X35944686Y-11056148D01*
G01X35948462Y-11044154D01*
G01X35948526Y-11043955D01*
G01X35948526Y-11043955D01*
G01X35974845Y-10963213D01*
G01X35998757Y-10892758D01*
G01X36019124Y-10834749D01*
G01X36034811Y-10791345D01*
G01X36044679Y-10764706D01*
G01X36047647Y-10756845D01*
G01X36047647Y-10756845D01*
G01X36071467Y-10823552D01*
G01X36094885Y-10891128D01*
G01X36116058Y-10953499D01*
G01X36133142Y-11004590D01*
G01X36144297Y-11038327D01*
G01X36147744Y-11048838D01*
G01X36147744Y-11048838D01*
G01X36171565Y-11123578D01*
G01X36193689Y-11195879D01*
G01X36213275Y-11261983D01*
G01X36229483Y-11318134D01*
G01X36241471Y-11360575D01*
G01X36248401Y-11385547D01*
G01X36249795Y-11390634D01*
G37*
%LPD*%
G36*
G01X35435342Y-11791025D02*
G01X35385537Y-11654306D01*
G01X35385537Y-11654306D01*
G01X35328207Y-11681397D01*
G01X35277480Y-11701767D01*
G01X35267373Y-11705576D01*
G01X35267373Y-11705576D01*
G01X35202242Y-11722711D01*
G01X35138886Y-11731198D01*
G01X35092546Y-11734078D01*
G01X35077920Y-11734384D01*
G01X35077920Y-11734384D01*
G01X34994790Y-11726908D01*
G01X34934732Y-11710459D01*
G01X34898294Y-11694010D01*
G01X34886026Y-11686533D01*
G01X34886026Y-11686533D01*
G01X34886026Y-11686533D01*
G01X34841762Y-11632512D01*
G01X34823725Y-11576560D01*
G01X34820130Y-11544336D01*
G01X34820108Y-11542978D01*
G01X34820108Y-11542978D01*
G01X34831712Y-11472875D01*
G01X34844005Y-11443907D01*
G01X34844033Y-11443857D01*
G01X34844033Y-11443857D01*
G01X34886533Y-11390640D01*
G01X34907998Y-11371591D01*
G01X34907998Y-11371591D01*
G01X34965816Y-11334369D01*
G01X34997607Y-11317990D01*
G01X34997842Y-11317881D01*
G01X34997842Y-11317881D01*
G01X35062584Y-11289519D01*
G01X35098438Y-11274808D01*
G01X35099404Y-11274424D01*
G01X35099404Y-11274424D01*
G01X35165529Y-11244799D01*
G01X35207936Y-11223517D01*
G01X35214151Y-11220224D01*
G01X35214151Y-11220224D01*
G01X35274933Y-11180995D01*
G01X35309121Y-11153269D01*
G01X35312295Y-11150400D01*
G01X35312295Y-11150400D01*
G01X35357353Y-11096523D01*
G01X35379183Y-11059623D01*
G01X35380654Y-11056650D01*
G01X35380654Y-11056650D01*
G01X35400282Y-10990070D01*
G01X35405775Y-10938488D01*
G01X35406045Y-10928720D01*
G01X35406045Y-10928720D01*
G01X35397316Y-10848225D01*
G01X35375890Y-10782271D01*
G01X35348910Y-10731542D01*
G01X35323516Y-10696723D01*
G01X35306852Y-10678496D01*
G01X35303994Y-10675791D01*
G01X35303994Y-10675791D01*
G01X35246256Y-10636900D01*
G01X35182306Y-10611081D01*
G01X35119902Y-10595655D01*
G01X35066802Y-10587946D01*
G01X35030765Y-10585277D01*
G01X35019326Y-10584970D01*
G01X35019326Y-10584970D01*
G01X34950235Y-10588491D01*
G01X34920694Y-10591806D01*
G01X34920694Y-10591806D01*
G01X34852180Y-10603632D01*
G01X34829873Y-10608408D01*
G01X34829873Y-10608408D01*
G01X34766448Y-10627694D01*
G01X34754678Y-10632334D01*
G01X34754678Y-10632334D01*
G01X34703420Y-10659170D01*
G01X34701944Y-10660166D01*
G01X34753701Y-10798838D01*
G01X34753701Y-10798838D01*
G01X34812533Y-10770071D01*
G01X34858610Y-10752239D01*
G01X34863565Y-10750498D01*
G01X34863565Y-10750498D01*
G01X34932202Y-10734095D01*
G01X34990675Y-10727688D01*
G01X35018920Y-10726573D01*
G01X35019326Y-10726572D01*
G01X35019326Y-10726572D01*
G01X35094844Y-10736846D01*
G01X35149167Y-10756964D01*
G01X35174615Y-10770864D01*
G01X35175576Y-10771494D01*
G01X35175576Y-10771494D01*
G01X35222010Y-10825799D01*
G01X35239373Y-10880398D01*
G01X35241983Y-10906233D01*
G01X35241983Y-10906259D01*
G01X35241983Y-10906259D01*
G01X35230755Y-10974911D01*
G01X35222940Y-10994150D01*
G01X35222940Y-10994150D01*
G01X35183035Y-11046250D01*
G01X35170694Y-11057627D01*
G01X35170694Y-11057627D01*
G01X35115258Y-11095107D01*
G01X35093545Y-11106943D01*
G01X35093545Y-11106943D01*
G01X35031452Y-11135924D01*
G01X34998087Y-11150298D01*
G01X34997842Y-11150400D01*
G01X34997842Y-11150400D01*
G01X34928529Y-11181146D01*
G01X34878569Y-11204944D01*
G01X34858701Y-11214844D01*
G01X34858682Y-11214853D01*
G01X34858682Y-11214853D01*
G01X34796175Y-11253614D01*
G01X34758163Y-11284201D01*
G01X34750772Y-11291025D01*
G01X34750772Y-11291025D01*
G01X34706787Y-11346447D01*
G01X34683897Y-11387994D01*
G01X34680947Y-11394541D01*
G01X34680947Y-11394541D01*
G01X34663204Y-11460294D01*
G01X34656861Y-11518069D01*
G01X34656045Y-11541025D01*
G01X34656045Y-11541025D01*
G01X34665359Y-11621187D01*
G01X34688220Y-11686321D01*
G01X34717008Y-11736016D01*
G01X34744102Y-11769864D01*
G01X34761883Y-11787453D01*
G01X34764932Y-11790049D01*
G01X34764932Y-11790049D01*
G01X34823284Y-11825448D01*
G01X34888905Y-11849634D01*
G01X34954439Y-11864742D01*
G01X35012530Y-11872908D01*
G01X35055822Y-11876267D01*
G01X35076960Y-11876957D01*
G01X35077920Y-11876963D01*
G01X35077920Y-11876963D01*
G01X35151802Y-11873563D01*
G01X35196628Y-11868479D01*
G01X35201944Y-11867685D01*
G01X35201944Y-11867685D01*
G01X35272573Y-11853286D01*
G01X35304269Y-11844801D01*
G01X35304483Y-11844736D01*
G01X35304483Y-11844736D01*
G01X35368678Y-11822763D01*
G01X35383584Y-11816904D01*
G01X35383584Y-11816904D01*
G01X35434453Y-11791599D01*
G01X35435342Y-11791025D01*
G37*
G36*
G01X34467569Y-10752939D02*
G01X34467569Y-10612314D01*
G01X33623819Y-10612314D01*
G01X33623819Y-10752939D01*
G01X33963662Y-10752939D01*
G01X33963662Y-11850595D01*
G01X34127725Y-11850595D01*
G01X34127725Y-10752939D01*
G01X34467569Y-10752939D01*
G37*
G36*
G01X46037132Y-11725000D02*
G01X47237132Y-11725000D01*
G01X47237132Y-12925000D01*
G01X46037132Y-12925000D01*
G01X46037132Y-11725000D01*
G37*
G36*
G01X47487132Y-11876758D02*
G01X47487132Y-11876758D01*
G01X47530491Y-11873242D01*
G01X47530491Y-11873242D01*
G01X47581882Y-11905441D01*
G01X47584397Y-11918945D01*
G01X47584397Y-11918945D01*
G01X47584114Y-11964271D01*
G01X47583572Y-12034544D01*
G01X47583231Y-12076774D01*
G01X47583225Y-12077442D01*
G01X47583225Y-12077442D01*
G01X47582491Y-12174262D01*
G01X47582153Y-12230763D01*
G01X47582058Y-12255552D01*
G01X47582054Y-12258789D01*
G01X47582054Y-12258789D01*
G01X47650733Y-12220803D01*
G01X47712084Y-12201985D01*
G01X47754736Y-12195602D01*
G01X47767796Y-12194922D01*
G01X47767796Y-12194922D01*
G01X47841982Y-12209603D01*
G01X47893325Y-12238966D01*
G01X47918120Y-12260988D01*
G01X47919847Y-12262891D01*
G01X47919847Y-12262891D01*
G01X47952555Y-12320499D01*
G01X47969950Y-12384369D01*
G01X47976867Y-12437879D01*
G01X47978144Y-12464408D01*
G01X47978147Y-12465039D01*
G01X47978147Y-12465039D01*
G01X47970089Y-12545456D01*
G01X47951453Y-12610638D01*
G01X47930551Y-12657513D01*
G01X47915693Y-12683014D01*
G01X47913108Y-12686817D01*
G01X47913108Y-12686817D01*
G01X47858844Y-12737276D01*
G01X47799656Y-12764112D01*
G01X47750462Y-12774784D01*
G01X47726185Y-12776752D01*
G01X47725608Y-12776758D01*
G01X47725608Y-12776758D01*
G01X47647839Y-12767491D01*
G01X47582881Y-12745725D01*
G01X47534087Y-12720511D01*
G01X47504811Y-12700900D01*
G01X47497679Y-12695313D01*
G01X47497679Y-12695313D01*
G01X47501743Y-12640825D01*
G01X47504316Y-12573428D01*
G01X47505736Y-12507494D01*
G01X47506341Y-12457394D01*
G01X47506468Y-12437500D01*
G01X47506468Y-12437500D01*
G01X47506468Y-12437500D01*
G01X47505995Y-12376138D01*
G01X47504818Y-12306754D01*
G01X47503299Y-12238244D01*
G01X47501802Y-12179502D01*
G01X47500689Y-12139425D01*
G01X47500315Y-12126660D01*
G01X47500315Y-12126660D01*
G01X47496582Y-12022258D01*
G01X47493017Y-11950481D01*
G01X47490000Y-11905914D01*
G01X47487912Y-11883145D01*
G01X47487132Y-11876758D01*
G01X47487132Y-11876758D01*
G37*
%LPC*%
G36*
G01X47580882Y-12647266D02*
G01X47580882Y-12647266D01*
G01X47645814Y-12688198D01*
G01X47702297Y-12705780D01*
G01X47734291Y-12709883D01*
G01X47736741Y-12709961D01*
G01X47736741Y-12709961D01*
G01X47805098Y-12690481D01*
G01X47844255Y-12655755D01*
G01X47854807Y-12640821D01*
G01X47854807Y-12640821D01*
G01X47880407Y-12574892D01*
G01X47891279Y-12514596D01*
G01X47893733Y-12479485D01*
G01X47893772Y-12476758D01*
G01X47893772Y-12476758D01*
G01X47884470Y-12394408D01*
G01X47865865Y-12341294D01*
G01X47851912Y-12317226D01*
G01X47850706Y-12315625D01*
G01X47850706Y-12315625D01*
G01X47792650Y-12273256D01*
G01X47748415Y-12262616D01*
G01X47742600Y-12262305D01*
G01X47740843Y-12262305D01*
G01X47740843Y-12262305D01*
G01X47671503Y-12275184D01*
G01X47617204Y-12301474D01*
G01X47586776Y-12322656D01*
G01X47583225Y-12325586D01*
G01X47583225Y-12325586D01*
G01X47583646Y-12384427D01*
G01X47583811Y-12402637D01*
G01X47583811Y-12402637D01*
G01X47584324Y-12476575D01*
G01X47584397Y-12503711D01*
G01X47584397Y-12503711D01*
G01X47584397Y-12503711D01*
G01X47583407Y-12586787D01*
G01X47581641Y-12634420D01*
G01X47580882Y-12647266D01*
G37*
%LPD*%
G36*
G01X48078343Y-12486719D02*
G01X48078343Y-12486719D01*
G01X48087272Y-12407536D01*
G01X48107923Y-12345209D01*
G01X48131084Y-12301534D01*
G01X48147549Y-12278309D01*
G01X48150413Y-12274903D01*
G01X48150413Y-12274903D01*
G01X48207771Y-12230032D01*
G01X48267154Y-12206168D01*
G01X48315197Y-12196678D01*
G01X48338535Y-12194927D01*
G01X48339085Y-12194922D01*
G01X48339085Y-12194922D01*
G01X48415577Y-12206531D01*
G01X48474035Y-12232514D01*
G01X48512319Y-12259603D01*
G01X48528293Y-12274529D01*
G01X48528636Y-12274903D01*
G01X48528636Y-12274903D01*
G01X48566351Y-12333263D01*
G01X48587808Y-12394947D01*
G01X48597592Y-12448218D01*
G01X48600289Y-12481341D01*
G01X48600413Y-12486719D01*
G01X48600413Y-12486719D01*
G01X48590768Y-12568996D01*
G01X48568822Y-12632610D01*
G01X48545052Y-12675637D01*
G01X48529940Y-12696151D01*
G01X48528636Y-12697656D01*
G01X48528636Y-12697656D01*
G01X48471272Y-12742034D01*
G01X48411595Y-12765636D01*
G01X48363190Y-12775022D01*
G01X48339640Y-12776753D01*
G01X48339085Y-12776758D01*
G01X48339085Y-12776758D01*
G01X48263207Y-12765276D01*
G01X48205004Y-12739579D01*
G01X48166759Y-12712788D01*
G01X48150757Y-12698026D01*
G01X48150413Y-12697656D01*
G01X48150413Y-12697656D01*
G01X48112544Y-12639758D01*
G01X48090999Y-12578337D01*
G01X48081175Y-12525185D01*
G01X48078467Y-12492095D01*
G01X48078343Y-12486719D01*
G37*
%LPC*%
G36*
G01X48162718Y-12469727D02*
G01X48162718Y-12469727D01*
G01X48171629Y-12547475D01*
G01X48190181Y-12604485D01*
G01X48206104Y-12636281D01*
G01X48209300Y-12641406D01*
G01X48209300Y-12641406D01*
G01X48263074Y-12689342D01*
G01X48314940Y-12707267D01*
G01X48339060Y-12709961D01*
G01X48339085Y-12709961D01*
G01X48339085Y-12709961D01*
G01X48413070Y-12694113D01*
G01X48457362Y-12665861D01*
G01X48469749Y-12653711D01*
G01X48469749Y-12653711D01*
G01X48501885Y-12592492D01*
G01X48514437Y-12534038D01*
G01X48516621Y-12504153D01*
G01X48516624Y-12503711D01*
G01X48516624Y-12503711D01*
G01X48507433Y-12425851D01*
G01X48488297Y-12368608D01*
G01X48471873Y-12336611D01*
G01X48468577Y-12331445D01*
G01X48468577Y-12331445D01*
G01X48414226Y-12283100D01*
G01X48362816Y-12265022D01*
G01X48339109Y-12262305D01*
G01X48339085Y-12262305D01*
G01X48339085Y-12262305D01*
G01X48265264Y-12278318D01*
G01X48221267Y-12306864D01*
G01X48209007Y-12319141D01*
G01X48209007Y-12319141D01*
G01X48177272Y-12380762D01*
G01X48164877Y-12439373D01*
G01X48162721Y-12469285D01*
G01X48162718Y-12469727D01*
G37*
%LPD*%
G36*
G01X48654319Y-12250000D02*
G01X48654319Y-12250000D01*
G01X48672190Y-12214844D01*
G01X48672190Y-12214844D01*
G01X48729197Y-12207279D01*
G01X48733421Y-12207227D01*
G01X48767405Y-12207227D01*
G01X48767405Y-12207227D01*
G01X48763914Y-12128459D01*
G01X48760586Y-12081480D01*
G01X48759788Y-12072461D01*
G01X48759788Y-12072461D01*
G01X48799632Y-12068945D01*
G01X48799632Y-12068945D01*
G01X48853903Y-12099866D01*
G01X48857054Y-12114649D01*
G01X48857054Y-12114649D01*
G01X48854429Y-12172961D01*
G01X48852366Y-12208399D01*
G01X48852366Y-12208399D01*
G01X48948130Y-12207392D01*
G01X49010276Y-12205176D01*
G01X49043858Y-12202960D01*
G01X49053929Y-12201953D01*
G01X49053929Y-12201953D01*
G01X49053929Y-12201953D01*
G01X49058616Y-12230078D01*
G01X49058616Y-12230078D01*
G01X49046018Y-12262305D01*
G01X49046018Y-12262305D01*
G01X49005882Y-12271680D01*
G01X49005882Y-12271680D01*
G01X48947937Y-12272499D01*
G01X48882435Y-12272806D01*
G01X48850057Y-12272852D01*
G01X48850022Y-12272852D01*
G01X48850022Y-12272852D01*
G01X48848924Y-12347049D01*
G01X48848237Y-12417726D01*
G01X48847865Y-12478446D01*
G01X48847711Y-12522770D01*
G01X48847679Y-12544260D01*
G01X48847679Y-12545313D01*
G01X48847679Y-12545313D01*
G01X48854604Y-12631013D01*
G01X48866633Y-12672473D01*
G01X48871116Y-12680957D01*
G01X48871116Y-12680957D01*
G01X48926184Y-12711067D01*
G01X48948460Y-12713477D01*
G01X48948460Y-12713477D01*
G01X49013096Y-12693680D01*
G01X49034593Y-12677149D01*
G01X49034593Y-12677149D01*
G01X49056272Y-12720508D01*
G01X49056272Y-12720508D01*
G01X49025540Y-12761064D01*
G01X49025218Y-12761231D01*
G01X49025218Y-12761231D01*
G01X48963510Y-12776092D01*
G01X48949632Y-12776758D01*
G01X48949632Y-12776758D01*
G01X48871360Y-12762881D01*
G01X48825567Y-12736304D01*
G01X48808913Y-12719604D01*
G01X48808714Y-12719336D01*
G01X48808714Y-12719336D01*
G01X48782823Y-12661490D01*
G01X48770924Y-12599443D01*
G01X48767574Y-12555731D01*
G01X48767405Y-12547656D01*
G01X48767405Y-12547656D01*
G01X48768503Y-12440258D01*
G01X48769190Y-12363129D01*
G01X48769563Y-12312148D01*
G01X48769716Y-12283190D01*
G01X48769749Y-12272132D01*
G01X48769749Y-12271680D01*
G01X48769749Y-12271680D01*
G01X48720722Y-12275417D01*
G01X48660873Y-12280223D01*
G01X48657835Y-12280469D01*
G01X48657835Y-12280469D01*
G01X48654319Y-12250000D01*
G37*
G36*
G01X49076194Y-12250000D02*
G01X49076194Y-12250000D01*
G01X49094065Y-12214844D01*
G01X49094065Y-12214844D01*
G01X49151072Y-12207279D01*
G01X49155296Y-12207227D01*
G01X49189280Y-12207227D01*
G01X49189280Y-12207227D01*
G01X49185789Y-12128459D01*
G01X49182461Y-12081480D01*
G01X49181663Y-12072461D01*
G01X49181663Y-12072461D01*
G01X49221507Y-12068945D01*
G01X49221507Y-12068945D01*
G01X49275778Y-12099866D01*
G01X49278929Y-12114649D01*
G01X49278929Y-12114649D01*
G01X49276304Y-12172961D01*
G01X49274241Y-12208399D01*
G01X49274241Y-12208399D01*
G01X49370005Y-12207392D01*
G01X49432151Y-12205176D01*
G01X49465733Y-12202960D01*
G01X49475804Y-12201953D01*
G01X49475804Y-12201953D01*
G01X49475804Y-12201953D01*
G01X49480491Y-12230078D01*
G01X49480491Y-12230078D01*
G01X49467893Y-12262305D01*
G01X49467893Y-12262305D01*
G01X49427757Y-12271680D01*
G01X49427757Y-12271680D01*
G01X49369812Y-12272499D01*
G01X49304310Y-12272806D01*
G01X49271932Y-12272852D01*
G01X49271897Y-12272852D01*
G01X49271897Y-12272852D01*
G01X49270799Y-12347049D01*
G01X49270112Y-12417726D01*
G01X49269740Y-12478446D01*
G01X49269586Y-12522770D01*
G01X49269554Y-12544260D01*
G01X49269554Y-12545313D01*
G01X49269554Y-12545313D01*
G01X49276479Y-12631013D01*
G01X49288508Y-12672473D01*
G01X49292991Y-12680957D01*
G01X49292991Y-12680957D01*
G01X49348059Y-12711067D01*
G01X49370335Y-12713477D01*
G01X49370335Y-12713477D01*
G01X49434971Y-12693680D01*
G01X49456468Y-12677149D01*
G01X49456468Y-12677149D01*
G01X49478147Y-12720508D01*
G01X49478147Y-12720508D01*
G01X49447415Y-12761064D01*
G01X49447093Y-12761231D01*
G01X49447093Y-12761231D01*
G01X49385385Y-12776092D01*
G01X49371507Y-12776758D01*
G01X49371507Y-12776758D01*
G01X49293235Y-12762881D01*
G01X49247442Y-12736304D01*
G01X49230788Y-12719604D01*
G01X49230589Y-12719336D01*
G01X49230589Y-12719336D01*
G01X49204698Y-12661490D01*
G01X49192799Y-12599443D01*
G01X49189449Y-12555731D01*
G01X49189280Y-12547656D01*
G01X49189280Y-12547656D01*
G01X49190378Y-12440258D01*
G01X49191065Y-12363129D01*
G01X49191438Y-12312148D01*
G01X49191591Y-12283190D01*
G01X49191624Y-12272132D01*
G01X49191624Y-12271680D01*
G01X49191624Y-12271680D01*
G01X49142597Y-12275417D01*
G01X49082748Y-12280223D01*
G01X49079710Y-12280469D01*
G01X49079710Y-12280469D01*
G01X49076194Y-12250000D01*
G37*
G36*
G01X49551975Y-12486719D02*
G01X49551975Y-12486719D01*
G01X49560905Y-12407536D01*
G01X49581555Y-12345209D01*
G01X49604717Y-12301534D01*
G01X49621181Y-12278309D01*
G01X49624046Y-12274903D01*
G01X49624046Y-12274903D01*
G01X49681404Y-12230032D01*
G01X49740787Y-12206168D01*
G01X49788830Y-12196678D01*
G01X49812168Y-12194927D01*
G01X49812718Y-12194922D01*
G01X49812718Y-12194922D01*
G01X49889210Y-12206531D01*
G01X49947668Y-12232514D01*
G01X49985952Y-12259603D01*
G01X50001926Y-12274529D01*
G01X50002268Y-12274903D01*
G01X50002268Y-12274903D01*
G01X50039984Y-12333263D01*
G01X50061440Y-12394947D01*
G01X50071225Y-12448218D01*
G01X50073922Y-12481341D01*
G01X50074046Y-12486719D01*
G01X50074046Y-12486719D01*
G01X50064401Y-12568996D01*
G01X50042455Y-12632610D01*
G01X50018685Y-12675637D01*
G01X50003573Y-12696151D01*
G01X50002268Y-12697656D01*
G01X50002268Y-12697656D01*
G01X49944905Y-12742034D01*
G01X49885228Y-12765636D01*
G01X49836823Y-12775022D01*
G01X49813272Y-12776753D01*
G01X49812718Y-12776758D01*
G01X49812718Y-12776758D01*
G01X49736840Y-12765276D01*
G01X49678637Y-12739579D01*
G01X49640392Y-12712788D01*
G01X49624390Y-12698026D01*
G01X49624046Y-12697656D01*
G01X49624046Y-12697656D01*
G01X49586177Y-12639758D01*
G01X49564632Y-12578337D01*
G01X49554808Y-12525185D01*
G01X49552100Y-12492095D01*
G01X49551975Y-12486719D01*
G37*
%LPC*%
G36*
G01X49636350Y-12469727D02*
G01X49636350Y-12469727D01*
G01X49645261Y-12547475D01*
G01X49663814Y-12604485D01*
G01X49679737Y-12636281D01*
G01X49682932Y-12641406D01*
G01X49682932Y-12641406D01*
G01X49736707Y-12689342D01*
G01X49788572Y-12707267D01*
G01X49812693Y-12709961D01*
G01X49812718Y-12709961D01*
G01X49812718Y-12709961D01*
G01X49886703Y-12694113D01*
G01X49930994Y-12665861D01*
G01X49943382Y-12653711D01*
G01X49943382Y-12653711D01*
G01X49975518Y-12592492D01*
G01X49988070Y-12534038D01*
G01X49990254Y-12504153D01*
G01X49990257Y-12503711D01*
G01X49990257Y-12503711D01*
G01X49981065Y-12425851D01*
G01X49961930Y-12368608D01*
G01X49945506Y-12336611D01*
G01X49942210Y-12331445D01*
G01X49942210Y-12331445D01*
G01X49887859Y-12283100D01*
G01X49836449Y-12265022D01*
G01X49812742Y-12262305D01*
G01X49812718Y-12262305D01*
G01X49812718Y-12262305D01*
G01X49738897Y-12278318D01*
G01X49694900Y-12306864D01*
G01X49682639Y-12319141D01*
G01X49682639Y-12319141D01*
G01X49650905Y-12380762D01*
G01X49638510Y-12439373D01*
G01X49636353Y-12469285D01*
G01X49636350Y-12469727D01*
G37*
%LPD*%
G36*
G01X50200022Y-12213086D02*
G01X50200022Y-12213086D01*
G01X50243382Y-12203711D01*
G01X50243382Y-12203711D01*
G01X50293441Y-12238061D01*
G01X50298460Y-12263477D01*
G01X50298460Y-12263477D01*
G01X50356541Y-12227661D01*
G01X50386936Y-12214258D01*
G01X50386936Y-12214258D01*
G01X50386936Y-12214258D01*
G01X50456077Y-12197339D01*
G01X50486546Y-12194922D01*
G01X50486546Y-12194922D01*
G01X50486546Y-12194922D01*
G01X50560946Y-12212746D01*
G01X50603524Y-12247645D01*
G01X50619621Y-12271760D01*
G01X50620139Y-12272852D01*
G01X50620139Y-12272852D01*
G01X50674098Y-12235024D01*
G01X50710055Y-12218018D01*
G01X50710667Y-12217774D01*
G01X50710667Y-12217774D01*
G01X50781195Y-12198724D01*
G01X50819028Y-12194945D01*
G01X50820530Y-12194922D01*
G01X50820530Y-12194922D01*
G01X50890861Y-12211395D01*
G01X50924561Y-12233464D01*
G01X50926292Y-12235059D01*
G01X50926292Y-12235059D01*
G01X50956832Y-12292715D01*
G01X50966299Y-12348621D01*
G01X50967014Y-12364258D01*
G01X50967014Y-12364258D01*
G01X50965745Y-12418473D01*
G01X50964964Y-12450684D01*
G01X50964964Y-12450684D01*
G01X50963356Y-12531867D01*
G01X50962929Y-12572943D01*
G01X50962913Y-12578125D01*
G01X50962913Y-12578125D01*
G01X50966836Y-12660728D01*
G01X50975004Y-12720697D01*
G01X50982014Y-12753864D01*
G01X50983421Y-12759180D01*
G01X50983421Y-12759180D01*
G01X50936546Y-12768555D01*
G01X50936546Y-12768555D01*
G01X50891722Y-12754785D01*
G01X50891722Y-12754785D01*
G01X50877952Y-12707617D01*
G01X50877952Y-12707617D01*
G01X50877952Y-12707617D01*
G01X50878756Y-12650627D01*
G01X50880330Y-12584183D01*
G01X50881418Y-12544106D01*
G01X50881468Y-12542383D01*
G01X50881468Y-12542383D01*
G01X50884018Y-12447209D01*
G01X50884888Y-12404964D01*
G01X50884983Y-12396485D01*
G01X50884983Y-12396485D01*
G01X50872185Y-12323205D01*
G01X50857150Y-12295472D01*
G01X50856858Y-12295117D01*
G01X50856858Y-12295117D01*
G01X50800131Y-12264251D01*
G01X50783030Y-12262305D01*
G01X50783030Y-12262305D01*
G01X50718117Y-12276778D01*
G01X50663614Y-12305117D01*
G01X50635334Y-12324699D01*
G01X50634202Y-12325586D01*
G01X50634202Y-12325586D01*
G01X50635390Y-12417196D01*
G01X50636088Y-12486413D01*
G01X50636427Y-12533792D01*
G01X50636536Y-12559885D01*
G01X50636546Y-12565821D01*
G01X50636546Y-12565821D01*
G01X50637823Y-12648826D01*
G01X50640583Y-12712692D01*
G01X50643219Y-12752534D01*
G01X50644163Y-12763867D01*
G01X50644163Y-12763867D01*
G01X50603147Y-12767383D01*
G01X50603147Y-12767383D01*
G01X50551756Y-12735185D01*
G01X50549241Y-12721680D01*
G01X50549241Y-12721680D01*
G01X50550999Y-12673340D01*
G01X50550999Y-12673340D01*
G01X50552860Y-12609405D01*
G01X50553841Y-12559466D01*
G01X50553929Y-12554102D01*
G01X50553929Y-12554102D01*
G01X50554732Y-12482458D01*
G01X50555046Y-12424250D01*
G01X50555100Y-12396873D01*
G01X50555100Y-12396485D01*
G01X50555100Y-12396485D01*
G01X50536186Y-12314503D01*
G01X50496051Y-12275365D01*
G01X50459607Y-12263225D01*
G01X50449632Y-12262305D01*
G01X50449632Y-12262305D01*
G01X50385506Y-12277449D01*
G01X50331323Y-12307100D01*
G01X50303107Y-12327588D01*
G01X50301975Y-12328516D01*
G01X50301975Y-12328516D01*
G01X50303207Y-12423562D01*
G01X50303908Y-12493585D01*
G01X50304227Y-12539595D01*
G01X50304315Y-12562604D01*
G01X50304319Y-12565821D01*
G01X50304319Y-12565821D01*
G01X50305498Y-12648826D01*
G01X50308046Y-12712692D01*
G01X50310479Y-12752534D01*
G01X50311350Y-12763867D01*
G01X50311350Y-12763867D01*
G01X50270921Y-12767383D01*
G01X50270921Y-12767383D01*
G01X50219530Y-12735185D01*
G01X50217014Y-12721680D01*
G01X50217014Y-12721680D01*
G01X50218785Y-12666907D01*
G01X50219944Y-12633496D01*
G01X50219944Y-12633496D01*
G01X50221911Y-12558533D01*
G01X50222713Y-12498688D01*
G01X50222873Y-12468569D01*
G01X50222874Y-12467383D01*
G01X50222874Y-12467383D01*
G01X50220497Y-12365336D01*
G01X50214830Y-12292821D01*
G01X50208066Y-12245899D01*
G01X50202399Y-12220633D01*
G01X50200022Y-12213086D01*
G01X50200022Y-12213086D01*
G37*
G36*
G01X51379514Y-12681250D02*
G01X51379514Y-12681250D01*
G01X51417492Y-12637147D01*
G01X51433421Y-12630860D01*
G01X51433421Y-12630860D01*
G01X51474322Y-12680156D01*
G01X51490550Y-12689746D01*
G01X51490550Y-12689746D01*
G01X51556702Y-12707726D01*
G01X51585765Y-12709961D01*
G01X51585765Y-12709961D01*
G01X51653273Y-12695817D01*
G01X51669261Y-12687110D01*
G01X51669261Y-12687110D01*
G01X51699577Y-12632234D01*
G01X51701194Y-12616211D01*
G01X51701194Y-12616211D01*
G01X51673896Y-12564434D01*
G01X51669261Y-12561133D01*
G01X51669261Y-12561133D01*
G01X51609144Y-12536152D01*
G01X51591917Y-12531543D01*
G01X51591917Y-12531543D01*
G01X51525339Y-12514578D01*
G01X51500804Y-12507520D01*
G01X51500804Y-12507520D01*
G01X51442443Y-12474265D01*
G01X51423167Y-12455371D01*
G01X51423167Y-12455371D01*
G01X51395987Y-12393910D01*
G01X51391240Y-12354375D01*
G01X51391233Y-12353711D01*
G01X51391233Y-12353711D01*
G01X51411228Y-12286198D01*
G01X51444077Y-12246881D01*
G01X51453050Y-12239453D01*
G01X51453050Y-12239453D01*
G01X51517994Y-12207725D01*
G01X51571937Y-12196381D01*
G01X51592796Y-12194922D01*
G01X51592796Y-12194922D01*
G01X51661412Y-12205263D01*
G01X51700994Y-12219116D01*
G01X51703245Y-12220117D01*
G01X51703245Y-12220117D01*
G01X51752169Y-12267792D01*
G01X51757444Y-12289844D01*
G01X51757444Y-12289844D01*
G01X51719467Y-12334530D01*
G01X51703538Y-12340235D01*
G01X51703538Y-12340235D01*
G01X51662621Y-12292443D01*
G01X51649339Y-12283985D01*
G01X51649339Y-12283985D01*
G01X51584943Y-12264029D01*
G01X51564085Y-12262305D01*
G01X51564085Y-12262305D01*
G01X51502275Y-12278897D01*
G01X51493186Y-12284570D01*
G01X51493186Y-12284570D01*
G01X51464110Y-12337932D01*
G01X51463304Y-12347266D01*
G01X51463304Y-12347266D01*
G01X51490248Y-12399753D01*
G01X51495237Y-12403516D01*
G01X51495237Y-12403516D01*
G01X51554553Y-12429735D01*
G01X51572581Y-12434863D01*
G01X51572581Y-12434863D01*
G01X51638182Y-12452082D01*
G01X51663694Y-12459473D01*
G01X51663694Y-12459473D01*
G01X51722827Y-12492077D01*
G01X51741331Y-12509278D01*
G01X51741331Y-12509278D01*
G01X51769273Y-12569812D01*
G01X51773264Y-12603320D01*
G01X51773264Y-12603320D01*
G01X51773264Y-12603320D01*
G01X51756843Y-12675720D01*
G01X51726831Y-12719045D01*
G01X51712034Y-12732520D01*
G01X51712034Y-12732520D01*
G01X51647718Y-12763453D01*
G01X51591464Y-12775019D01*
G01X51566454Y-12776758D01*
G01X51566429Y-12776758D01*
G01X51566429Y-12776758D01*
G01X51492258Y-12767850D01*
G01X51445613Y-12753216D01*
G01X51436350Y-12749219D01*
G01X51436350Y-12749219D01*
G01X51385047Y-12701725D01*
G01X51379514Y-12681250D01*
G37*
G36*
G01X51885765Y-12074805D02*
G01X51885765Y-12074805D01*
G01X51904807Y-12029981D01*
G01X51904807Y-12029981D01*
G01X51949046Y-12011524D01*
G01X51949046Y-12011524D01*
G01X51990940Y-12029981D01*
G01X51990940Y-12029981D01*
G01X52008811Y-12074805D01*
G01X52008811Y-12074805D01*
G01X51989791Y-12121071D01*
G01X51989768Y-12121094D01*
G01X51989768Y-12121094D01*
G01X51946702Y-12139844D01*
G01X51946702Y-12139844D01*
G01X51903636Y-12121973D01*
G01X51903636Y-12121973D01*
G01X51885765Y-12074883D01*
G01X51885764Y-12074805D01*
G37*
G36*
G01X51900999Y-12207227D02*
G01X51900999Y-12207227D01*
G01X51942014Y-12203711D01*
G01X51942014Y-12203711D01*
G01X51995415Y-12234869D01*
G01X51998264Y-12248828D01*
G01X51998264Y-12248828D01*
G01X51995921Y-12298047D01*
G01X51995921Y-12298047D01*
G01X51992805Y-12363633D01*
G01X51991244Y-12402343D01*
G01X51991233Y-12402637D01*
G01X51991233Y-12402637D01*
G01X51989324Y-12475740D01*
G01X51988896Y-12518119D01*
G01X51988889Y-12521289D01*
G01X51988889Y-12521289D01*
G01X51991490Y-12611941D01*
G01X51997596Y-12680478D01*
G01X52004671Y-12727421D01*
G01X52010173Y-12753291D01*
G01X52011741Y-12759180D01*
G01X52011741Y-12759180D01*
G01X51966038Y-12768555D01*
G01X51966038Y-12768555D01*
G01X51919167Y-12753032D01*
G01X51919163Y-12753027D01*
G01X51919163Y-12753027D01*
G01X51906867Y-12700868D01*
G01X51906858Y-12700000D01*
G01X51906858Y-12700000D01*
G01X51907657Y-12641641D01*
G01X51908323Y-12605371D01*
G01X51908323Y-12605371D01*
G01X51909517Y-12527329D01*
G01X51909784Y-12490346D01*
G01X51909788Y-12487891D01*
G01X51909788Y-12487891D01*
G01X51909036Y-12401548D01*
G01X51907191Y-12329012D01*
G01X51904867Y-12271904D01*
G01X51902680Y-12231844D01*
G01X51901245Y-12210450D01*
G01X51900999Y-12207227D01*
G37*
G36*
G01X52149436Y-11876758D02*
G01X52149436Y-11876758D01*
G01X52191624Y-11873242D01*
G01X52191624Y-11873242D01*
G01X52243912Y-11904805D01*
G01X52246702Y-11918945D01*
G01X52246702Y-11918945D01*
G01X52245162Y-11975687D01*
G01X52244944Y-11983106D01*
G01X52244944Y-11983106D01*
G01X52243102Y-12047525D01*
G01X52241411Y-12108741D01*
G01X52240562Y-12139969D01*
G01X52240550Y-12140430D01*
G01X52240550Y-12140430D01*
G01X52238981Y-12214936D01*
G01X52238205Y-12279009D01*
G01X52237941Y-12322454D01*
G01X52237913Y-12335547D01*
G01X52237913Y-12522461D01*
G01X52237913Y-12522461D01*
G01X52240513Y-12612058D01*
G01X52246620Y-12680210D01*
G01X52253694Y-12727177D01*
G01X52259197Y-12753221D01*
G01X52260764Y-12759180D01*
G01X52260764Y-12759180D01*
G01X52215647Y-12768555D01*
G01X52215647Y-12768555D01*
G01X52169358Y-12754199D01*
G01X52169358Y-12754199D01*
G01X52156468Y-12706445D01*
G01X52156468Y-12706445D01*
G01X52156468Y-12706445D01*
G01X52156766Y-12656353D01*
G01X52157325Y-12588978D01*
G01X52157639Y-12553847D01*
G01X52157639Y-12553809D01*
G01X52157639Y-12553809D01*
G01X52158355Y-12464596D01*
G01X52158697Y-12403343D01*
G01X52158803Y-12369945D01*
G01X52158811Y-12363086D01*
G01X52158811Y-12223633D01*
G01X52158811Y-12223633D01*
G01X52158242Y-12110547D01*
G01X52156786Y-12023902D01*
G01X52154825Y-11960551D01*
G01X52152736Y-11917352D01*
G01X52150901Y-11891159D01*
G01X52149699Y-11878829D01*
G01X52149436Y-11876758D01*
G37*
G36*
G01X52404905Y-11876758D02*
G01X52404905Y-11876758D01*
G01X52447093Y-11873242D01*
G01X52447093Y-11873242D01*
G01X52499381Y-11904805D01*
G01X52502171Y-11918945D01*
G01X52502171Y-11918945D01*
G01X52500453Y-11972869D01*
G01X52500413Y-11974024D01*
G01X52500413Y-11974024D01*
G01X52498221Y-12039412D01*
G01X52496425Y-12095094D01*
G01X52496018Y-12107910D01*
G01X52496018Y-12107910D01*
G01X52494286Y-12180866D01*
G01X52493550Y-12240358D01*
G01X52493384Y-12272766D01*
G01X52493382Y-12275195D01*
G01X52493382Y-12275195D01*
G01X52557972Y-12228787D01*
G01X52617234Y-12204956D01*
G01X52660566Y-12196176D01*
G01X52677366Y-12194922D01*
G01X52677366Y-12194922D01*
G01X52677366Y-12194922D01*
G01X52751358Y-12209365D01*
G01X52790143Y-12232396D01*
G01X52796018Y-12237695D01*
G01X52796018Y-12237695D01*
G01X52829590Y-12298449D01*
G01X52836671Y-12340036D01*
G01X52836741Y-12342578D01*
G01X52836741Y-12342578D01*
G01X52822873Y-12414003D01*
G01X52799432Y-12458914D01*
G01X52791917Y-12469141D01*
G01X52791917Y-12469141D01*
G01X52736620Y-12510294D01*
G01X52684909Y-12527912D01*
G01X52666233Y-12531250D01*
G01X52666233Y-12531250D01*
G01X52716391Y-12610211D01*
G01X52745697Y-12651200D01*
G01X52756340Y-12664123D01*
G01X52756468Y-12664258D01*
G01X52756468Y-12664258D01*
G01X52814595Y-12700265D01*
G01X52830882Y-12702930D01*
G01X52830882Y-12702930D01*
G01X52861936Y-12697656D01*
G01X52861936Y-12697656D01*
G01X52873069Y-12732813D01*
G01X52873069Y-12732813D01*
G01X52847874Y-12765625D01*
G01X52847874Y-12765625D01*
G01X52799827Y-12776758D01*
G01X52799827Y-12776758D01*
G01X52737947Y-12754730D01*
G01X52713108Y-12733985D01*
G01X52713108Y-12733985D01*
G01X52682932Y-12697949D01*
G01X52682932Y-12697949D01*
G01X52653123Y-12654996D01*
G01X52653050Y-12654883D01*
G01X52653050Y-12654883D01*
G01X52627854Y-12614453D01*
G01X52627854Y-12614453D01*
G01X52600569Y-12568300D01*
G01X52600315Y-12567871D01*
G01X52600315Y-12567871D01*
G01X52576585Y-12527149D01*
G01X52576585Y-12527149D01*
G01X52544944Y-12501953D01*
G01X52544944Y-12501953D01*
G01X52551390Y-12473242D01*
G01X52551390Y-12473242D01*
G01X52610197Y-12481933D01*
G01X52612327Y-12482031D01*
G01X52612327Y-12482031D01*
G01X52683972Y-12465913D01*
G01X52713884Y-12446076D01*
G01X52714573Y-12445410D01*
G01X52714573Y-12445410D01*
G01X52747101Y-12385454D01*
G01X52750608Y-12360742D01*
G01X52750608Y-12360742D01*
G01X52732270Y-12299806D01*
G01X52725999Y-12291016D01*
G01X52725999Y-12291016D01*
G01X52670460Y-12263536D01*
G01X52656858Y-12262305D01*
G01X52656858Y-12262305D01*
G01X52593636Y-12276814D01*
G01X52571604Y-12286914D01*
G01X52571604Y-12286914D01*
G01X52514638Y-12327639D01*
G01X52493382Y-12348438D01*
G01X52493382Y-12522461D01*
G01X52493382Y-12522461D01*
G01X52495982Y-12612058D01*
G01X52502089Y-12680210D01*
G01X52509163Y-12727177D01*
G01X52514665Y-12753221D01*
G01X52516233Y-12759180D01*
G01X52516233Y-12759180D01*
G01X52471116Y-12768555D01*
G01X52471116Y-12768555D01*
G01X52424827Y-12754199D01*
G01X52424827Y-12754199D01*
G01X52411936Y-12706445D01*
G01X52411936Y-12706445D01*
G01X52411936Y-12706445D01*
G01X52412235Y-12656353D01*
G01X52412794Y-12588978D01*
G01X52413108Y-12553847D01*
G01X52413108Y-12553809D01*
G01X52413108Y-12553809D01*
G01X52413824Y-12464596D01*
G01X52414166Y-12403343D01*
G01X52414272Y-12369945D01*
G01X52414280Y-12363086D01*
G01X52414280Y-12223633D01*
G01X52414280Y-12223633D01*
G01X52413711Y-12110547D01*
G01X52412255Y-12023901D01*
G01X52410293Y-11960551D01*
G01X52408205Y-11917352D01*
G01X52406370Y-11891159D01*
G01X52405168Y-11878829D01*
G01X52404905Y-11876758D01*
G37*
G36*
G01X52952757Y-12681250D02*
G01X52952757Y-12681250D01*
G01X52990734Y-12637147D01*
G01X53006663Y-12630860D01*
G01X53006663Y-12630860D01*
G01X53047564Y-12680156D01*
G01X53063792Y-12689746D01*
G01X53063792Y-12689746D01*
G01X53129944Y-12707726D01*
G01X53159007Y-12709961D01*
G01X53159007Y-12709961D01*
G01X53226515Y-12695817D01*
G01X53242503Y-12687110D01*
G01X53242503Y-12687110D01*
G01X53272819Y-12632234D01*
G01X53274436Y-12616211D01*
G01X53274436Y-12616211D01*
G01X53247138Y-12564434D01*
G01X53242503Y-12561133D01*
G01X53242503Y-12561133D01*
G01X53182387Y-12536152D01*
G01X53165159Y-12531543D01*
G01X53165159Y-12531543D01*
G01X53098581Y-12514578D01*
G01X53074046Y-12507520D01*
G01X53074046Y-12507520D01*
G01X53015686Y-12474265D01*
G01X52996409Y-12455371D01*
G01X52996409Y-12455371D01*
G01X52969230Y-12393910D01*
G01X52964482Y-12354375D01*
G01X52964475Y-12353711D01*
G01X52964475Y-12353711D01*
G01X52984470Y-12286198D01*
G01X53017319Y-12246881D01*
G01X53026292Y-12239453D01*
G01X53026292Y-12239453D01*
G01X53091236Y-12207725D01*
G01X53145180Y-12196381D01*
G01X53166038Y-12194922D01*
G01X53166038Y-12194922D01*
G01X53234655Y-12205263D01*
G01X53274236Y-12219116D01*
G01X53276487Y-12220117D01*
G01X53276487Y-12220117D01*
G01X53325411Y-12267792D01*
G01X53330686Y-12289844D01*
G01X53330686Y-12289844D01*
G01X53292709Y-12334530D01*
G01X53276780Y-12340235D01*
G01X53276780Y-12340235D01*
G01X53235863Y-12292443D01*
G01X53222581Y-12283985D01*
G01X53222581Y-12283985D01*
G01X53158185Y-12264029D01*
G01X53137327Y-12262305D01*
G01X53137327Y-12262305D01*
G01X53075517Y-12278897D01*
G01X53066429Y-12284570D01*
G01X53066429Y-12284570D01*
G01X53037353Y-12337932D01*
G01X53036546Y-12347266D01*
G01X53036546Y-12347266D01*
G01X53063490Y-12399753D01*
G01X53068479Y-12403516D01*
G01X53068479Y-12403516D01*
G01X53127795Y-12429735D01*
G01X53145823Y-12434863D01*
G01X53145823Y-12434863D01*
G01X53211424Y-12452082D01*
G01X53236936Y-12459473D01*
G01X53236936Y-12459473D01*
G01X53296070Y-12492077D01*
G01X53314573Y-12509278D01*
G01X53314573Y-12509278D01*
G01X53342515Y-12569812D01*
G01X53346507Y-12603320D01*
G01X53346507Y-12603320D01*
G01X53346507Y-12603320D01*
G01X53330085Y-12675720D01*
G01X53300073Y-12719045D01*
G01X53285276Y-12732520D01*
G01X53285276Y-12732520D01*
G01X53220961Y-12763453D01*
G01X53164706Y-12775019D01*
G01X53139696Y-12776758D01*
G01X53139671Y-12776758D01*
G01X53139671Y-12776758D01*
G01X53065500Y-12767850D01*
G01X53018855Y-12753216D01*
G01X53009593Y-12749219D01*
G01X53009593Y-12749219D01*
G01X52958289Y-12701725D01*
G01X52952757Y-12681250D01*
G37*
G36*
G01X53449046Y-12492578D02*
G01X53449046Y-12492578D01*
G01X53456478Y-12417492D01*
G01X53469042Y-12368819D01*
G01X53473069Y-12357520D01*
G01X53473069Y-12357520D01*
G01X53509107Y-12294543D01*
G01X53535030Y-12265516D01*
G01X53536643Y-12264063D01*
G01X53536643Y-12264063D01*
G01X53594776Y-12225024D01*
G01X53621311Y-12212500D01*
G01X53621311Y-12212500D01*
G01X53688281Y-12196633D01*
G01X53713304Y-12194922D01*
G01X53713304Y-12194922D01*
G01X53783449Y-12205415D01*
G01X53825564Y-12220572D01*
G01X53829612Y-12222461D01*
G01X53829612Y-12222461D01*
G01X53878062Y-12271753D01*
G01X53884983Y-12300391D01*
G01X53884983Y-12300391D01*
G01X53884983Y-12300391D01*
G01X53847394Y-12346291D01*
G01X53826975Y-12351953D01*
G01X53826975Y-12351953D01*
G01X53791378Y-12296919D01*
G01X53776292Y-12285449D01*
G01X53776292Y-12285449D01*
G01X53713375Y-12264020D01*
G01X53693968Y-12262305D01*
G01X53693968Y-12262305D01*
G01X53627766Y-12281542D01*
G01X53588197Y-12313145D01*
G01X53580589Y-12321778D01*
G01X53580589Y-12321778D01*
G01X53549703Y-12383557D01*
G01X53537117Y-12442602D01*
G01X53534608Y-12475399D01*
G01X53534593Y-12476758D01*
G01X53534593Y-12476758D01*
G01X53543314Y-12560288D01*
G01X53561821Y-12616840D01*
G01X53578626Y-12647246D01*
G01X53583225Y-12653418D01*
G01X53583225Y-12653418D01*
G01X53641790Y-12695139D01*
G01X53692865Y-12708720D01*
G01X53708616Y-12709961D01*
G01X53708616Y-12709961D01*
G01X53770799Y-12698391D01*
G01X53781565Y-12694434D01*
G01X53781565Y-12694434D01*
G01X53830171Y-12654519D01*
G01X53834593Y-12647266D01*
G01X53834593Y-12647266D01*
G01X53881001Y-12688998D01*
G01X53882054Y-12695313D01*
G01X53882054Y-12695313D01*
G01X53848324Y-12745080D01*
G01X53827561Y-12755957D01*
G01X53827561Y-12755957D01*
G01X53760708Y-12772265D01*
G01X53712080Y-12776592D01*
G01X53704514Y-12776758D01*
G01X53704514Y-12776758D01*
G01X53627414Y-12764823D01*
G01X53568766Y-12739028D01*
G01X53532523Y-12714387D01*
G01X53522288Y-12705567D01*
G01X53522288Y-12705567D01*
G01X53483803Y-12650590D01*
G01X53461908Y-12588680D01*
G01X53451924Y-12533405D01*
G01X53449172Y-12498337D01*
G01X53449046Y-12492578D01*
G37*
G36*
G01X54003343Y-12207227D02*
G01X54003343Y-12207227D01*
G01X54044358Y-12203711D01*
G01X54044358Y-12203711D01*
G01X54093894Y-12236728D01*
G01X54095921Y-12248828D01*
G01X54095921Y-12248828D01*
G01X54095335Y-12265235D01*
G01X54095335Y-12265235D01*
G01X54094749Y-12291016D01*
G01X54094749Y-12291016D01*
G01X54138905Y-12241128D01*
G01X54158909Y-12224512D01*
G01X54158909Y-12224512D01*
G01X54221151Y-12196961D01*
G01X54238304Y-12194922D01*
G01X54238304Y-12194922D01*
G01X54281663Y-12207520D01*
G01X54281663Y-12207520D01*
G01X54297483Y-12241797D01*
G01X54297483Y-12241797D01*
G01X54275108Y-12293479D01*
G01X54273460Y-12295703D01*
G01X54273460Y-12295703D01*
G01X54219296Y-12273063D01*
G01X54215452Y-12272852D01*
G01X54215452Y-12272852D01*
G01X54157063Y-12293188D01*
G01X54148362Y-12299219D01*
G01X54148362Y-12299219D01*
G01X54104068Y-12348903D01*
G01X54091819Y-12368945D01*
G01X54091819Y-12368945D01*
G01X54091000Y-12425994D01*
G01X54090693Y-12489820D01*
G01X54090647Y-12521256D01*
G01X54090647Y-12521289D01*
G01X54090647Y-12521289D01*
G01X54093247Y-12611941D01*
G01X54099354Y-12680478D01*
G01X54106429Y-12727421D01*
G01X54111931Y-12753291D01*
G01X54113499Y-12759180D01*
G01X54113499Y-12759180D01*
G01X54067796Y-12768555D01*
G01X54067796Y-12768555D01*
G01X54021214Y-12753028D01*
G01X54021214Y-12753028D01*
G01X54021214Y-12753028D01*
G01X54009211Y-12700868D01*
G01X54009202Y-12700000D01*
G01X54009202Y-12700000D01*
G01X54009841Y-12641641D01*
G01X54010374Y-12605371D01*
G01X54010374Y-12605371D01*
G01X54011329Y-12527329D01*
G01X54011543Y-12490346D01*
G01X54011546Y-12487891D01*
G01X54011546Y-12487891D01*
G01X54010844Y-12401548D01*
G01X54009122Y-12329012D01*
G01X54006953Y-12271904D01*
G01X54004912Y-12231844D01*
G01X54003572Y-12210450D01*
G01X54003343Y-12207227D01*
G37*
G36*
G01X54363108Y-12489063D02*
G01X54363108Y-12489063D01*
G01X54373018Y-12405118D01*
G01X54395935Y-12340904D01*
G01X54421639Y-12297096D01*
G01X54439910Y-12274366D01*
G01X54443089Y-12271094D01*
G01X54443089Y-12271094D01*
G01X54506173Y-12227057D01*
G01X54566978Y-12204444D01*
G01X54612786Y-12196112D01*
G01X54630882Y-12194922D01*
G01X54630882Y-12194922D01*
G01X54630882Y-12194922D01*
G01X54706353Y-12208294D01*
G01X54753293Y-12232131D01*
G01X54766819Y-12242383D01*
G01X54766819Y-12242383D01*
G01X54807704Y-12302074D01*
G01X54818550Y-12346689D01*
G01X54818968Y-12353711D01*
G01X54818968Y-12353711D01*
G01X54807435Y-12419658D01*
G01X54802268Y-12431641D01*
G01X54802268Y-12431641D01*
G01X54762759Y-12477543D01*
G01X54758616Y-12480567D01*
G01X54758616Y-12480567D01*
G01X54699498Y-12503781D01*
G01X54680686Y-12508106D01*
G01X54680686Y-12508106D01*
G01X54611472Y-12517737D01*
G01X54580491Y-12520117D01*
G01X54580491Y-12520117D01*
G01X54580491Y-12520117D01*
G01X54515339Y-12521929D01*
G01X54461469Y-12522436D01*
G01X54450999Y-12522461D01*
G01X54450999Y-12522461D01*
G01X54469072Y-12597424D01*
G01X54492281Y-12644207D01*
G01X54502854Y-12659278D01*
G01X54502854Y-12659278D01*
G01X54559659Y-12697882D01*
G01X54609362Y-12709260D01*
G01X54620921Y-12709961D01*
G01X54620921Y-12709961D01*
G01X54696312Y-12693147D01*
G01X54737126Y-12662417D01*
G01X54748655Y-12647266D01*
G01X54748655Y-12647266D01*
G01X54794819Y-12689978D01*
G01X54796116Y-12697656D01*
G01X54796116Y-12697656D01*
G01X54760805Y-12745160D01*
G01X54741624Y-12755078D01*
G01X54741624Y-12755078D01*
G01X54673630Y-12772305D01*
G01X54625830Y-12776632D01*
G01X54619749Y-12776758D01*
G01X54619749Y-12776758D01*
G01X54543156Y-12765634D01*
G01X54484910Y-12741162D01*
G01X54447868Y-12716690D01*
G01X54434886Y-12705567D01*
G01X54434886Y-12705567D01*
G01X54434886Y-12705567D01*
G01X54397170Y-12650154D01*
G01X54375714Y-12587237D01*
G01X54365929Y-12530832D01*
G01X54363232Y-12494961D01*
G01X54363108Y-12489063D01*
G37*
%LPC*%
G36*
G01X54449827Y-12462695D02*
G01X54449827Y-12462695D01*
G01X54520086Y-12461953D01*
G01X54535960Y-12461524D01*
G01X54535960Y-12461524D01*
G01X54598919Y-12455895D01*
G01X54611546Y-12454199D01*
G01X54611546Y-12454199D01*
G01X54672618Y-12439272D01*
G01X54677757Y-12437207D01*
G01X54677757Y-12437207D01*
G01X54719019Y-12406206D01*
G01X54719065Y-12406153D01*
G01X54719065Y-12406153D01*
G01X54736345Y-12356481D01*
G01X54736350Y-12356055D01*
G01X54736350Y-12356055D01*
G01X54713196Y-12298321D01*
G01X54704710Y-12289258D01*
G01X54704710Y-12289258D01*
G01X54645553Y-12263071D01*
G01X54626194Y-12261133D01*
G01X54626194Y-12261133D01*
G01X54556373Y-12276361D01*
G01X54512960Y-12302100D01*
G01X54503147Y-12310352D01*
G01X54503147Y-12310352D01*
G01X54468381Y-12366988D01*
G01X54453382Y-12426638D01*
G01X54449877Y-12461233D01*
G01X54449827Y-12462695D01*
G37*
%LPD*%
G36*
G01X54926780Y-12489063D02*
G01X54926780Y-12489063D01*
G01X54936690Y-12405118D01*
G01X54959607Y-12340904D01*
G01X54985310Y-12297096D01*
G01X55003582Y-12274366D01*
G01X55006761Y-12271094D01*
G01X55006761Y-12271094D01*
G01X55069845Y-12227057D01*
G01X55130650Y-12204444D01*
G01X55176458Y-12196112D01*
G01X55194554Y-12194922D01*
G01X55194554Y-12194922D01*
G01X55194554Y-12194922D01*
G01X55270025Y-12208294D01*
G01X55316965Y-12232131D01*
G01X55330491Y-12242383D01*
G01X55330491Y-12242383D01*
G01X55371375Y-12302074D01*
G01X55382222Y-12346689D01*
G01X55382639Y-12353711D01*
G01X55382639Y-12353711D01*
G01X55371107Y-12419658D01*
G01X55365940Y-12431641D01*
G01X55365940Y-12431641D01*
G01X55326431Y-12477543D01*
G01X55322288Y-12480567D01*
G01X55322288Y-12480567D01*
G01X55263170Y-12503781D01*
G01X55244358Y-12508106D01*
G01X55244358Y-12508106D01*
G01X55175144Y-12517737D01*
G01X55144163Y-12520117D01*
G01X55144163Y-12520117D01*
G01X55144163Y-12520117D01*
G01X55079011Y-12521929D01*
G01X55025141Y-12522436D01*
G01X55014671Y-12522461D01*
G01X55014671Y-12522461D01*
G01X55032743Y-12597424D01*
G01X55055953Y-12644207D01*
G01X55066526Y-12659278D01*
G01X55066526Y-12659278D01*
G01X55123331Y-12697882D01*
G01X55173034Y-12709260D01*
G01X55184593Y-12709961D01*
G01X55184593Y-12709961D01*
G01X55259984Y-12693147D01*
G01X55300797Y-12662417D01*
G01X55312327Y-12647266D01*
G01X55312327Y-12647266D01*
G01X55358491Y-12689978D01*
G01X55359788Y-12697656D01*
G01X55359788Y-12697656D01*
G01X55324477Y-12745160D01*
G01X55305296Y-12755078D01*
G01X55305296Y-12755078D01*
G01X55237302Y-12772305D01*
G01X55189502Y-12776632D01*
G01X55183421Y-12776758D01*
G01X55183421Y-12776758D01*
G01X55106828Y-12765634D01*
G01X55048582Y-12741162D01*
G01X55011540Y-12716690D01*
G01X54998557Y-12705567D01*
G01X54998557Y-12705567D01*
G01X54998557Y-12705567D01*
G01X54960842Y-12650154D01*
G01X54939385Y-12587237D01*
G01X54929601Y-12530832D01*
G01X54926904Y-12494961D01*
G01X54926780Y-12489063D01*
G37*
%LPC*%
G36*
G01X55013499Y-12462695D02*
G01X55013499Y-12462695D01*
G01X55083758Y-12461953D01*
G01X55099632Y-12461524D01*
G01X55099632Y-12461524D01*
G01X55162591Y-12455895D01*
G01X55175218Y-12454199D01*
G01X55175218Y-12454199D01*
G01X55236290Y-12439272D01*
G01X55241429Y-12437207D01*
G01X55241429Y-12437207D01*
G01X55282691Y-12406206D01*
G01X55282737Y-12406153D01*
G01X55282737Y-12406153D01*
G01X55300016Y-12356481D01*
G01X55300022Y-12356055D01*
G01X55300022Y-12356055D01*
G01X55276867Y-12298321D01*
G01X55268382Y-12289258D01*
G01X55268382Y-12289258D01*
G01X55209224Y-12263071D01*
G01X55189866Y-12261133D01*
G01X55189866Y-12261133D01*
G01X55120045Y-12276361D01*
G01X55076632Y-12302100D01*
G01X55066819Y-12310352D01*
G01X55066819Y-12310352D01*
G01X55032053Y-12366988D01*
G01X55017054Y-12426638D01*
G01X55013549Y-12461233D01*
G01X55013499Y-12462695D01*
G37*
%LPD*%
G36*
G01X55508616Y-12213086D02*
G01X55508616Y-12213086D01*
G01X55551975Y-12203711D01*
G01X55551975Y-12203711D01*
G01X55602035Y-12238061D01*
G01X55607054Y-12263477D01*
G01X55607054Y-12263477D01*
G01X55664346Y-12230171D01*
G01X55699072Y-12215527D01*
G01X55699339Y-12215430D01*
G01X55699339Y-12215430D01*
G01X55769398Y-12198334D01*
G01X55808222Y-12194943D01*
G01X55809788Y-12194922D01*
G01X55809788Y-12194922D01*
G01X55882551Y-12209630D01*
G01X55921263Y-12231626D01*
G01X55925511Y-12235059D01*
G01X55925511Y-12235059D01*
G01X55958584Y-12290991D01*
G01X55969351Y-12346340D01*
G01X55970335Y-12364258D01*
G01X55970335Y-12364258D01*
G01X55969247Y-12418473D01*
G01X55968577Y-12450684D01*
G01X55968577Y-12450684D01*
G01X55967199Y-12531867D01*
G01X55966833Y-12572943D01*
G01X55966819Y-12578125D01*
G01X55966819Y-12578125D01*
G01X55970742Y-12660728D01*
G01X55978910Y-12720697D01*
G01X55985920Y-12753864D01*
G01X55987327Y-12759180D01*
G01X55987327Y-12759180D01*
G01X55940452Y-12768555D01*
G01X55940452Y-12768555D01*
G01X55895628Y-12754785D01*
G01X55895628Y-12754785D01*
G01X55881858Y-12707617D01*
G01X55881858Y-12707617D01*
G01X55881858Y-12707617D01*
G01X55882662Y-12650627D01*
G01X55884237Y-12584183D01*
G01X55885325Y-12544106D01*
G01X55885374Y-12542383D01*
G01X55885374Y-12542383D01*
G01X55887924Y-12447209D01*
G01X55888795Y-12404964D01*
G01X55888889Y-12396485D01*
G01X55888889Y-12396485D01*
G01X55873825Y-12323935D01*
G01X55856127Y-12296064D01*
G01X55855784Y-12295703D01*
G01X55855784Y-12295703D01*
G01X55797033Y-12265556D01*
G01X55771116Y-12262305D01*
G01X55771116Y-12262305D01*
G01X55702722Y-12275780D01*
G01X55646743Y-12303288D01*
G01X55614411Y-12325450D01*
G01X55610569Y-12328516D01*
G01X55610569Y-12328516D01*
G01X55611801Y-12423562D01*
G01X55612501Y-12493585D01*
G01X55612821Y-12539595D01*
G01X55612909Y-12562604D01*
G01X55612913Y-12565821D01*
G01X55612913Y-12565821D01*
G01X55614092Y-12648826D01*
G01X55616639Y-12712692D01*
G01X55619073Y-12752534D01*
G01X55619944Y-12763867D01*
G01X55619944Y-12763867D01*
G01X55579514Y-12767383D01*
G01X55579514Y-12767383D01*
G01X55528123Y-12735185D01*
G01X55525608Y-12721680D01*
G01X55525608Y-12721680D01*
G01X55527379Y-12666907D01*
G01X55528538Y-12633496D01*
G01X55528538Y-12633496D01*
G01X55530505Y-12558533D01*
G01X55531307Y-12498688D01*
G01X55531467Y-12468569D01*
G01X55531468Y-12467383D01*
G01X55531468Y-12467383D01*
G01X55529091Y-12365336D01*
G01X55523424Y-12292821D01*
G01X55516660Y-12245899D01*
G01X55510993Y-12220633D01*
G01X55508616Y-12213086D01*
G01X55508616Y-12213086D01*
G37*

G04 Pad flashes *
%LPD*%
D11*

G04 end of program *
M02*
